<?xml version="1.0" encoding="utf-8"?>
<!-- Generator: Adobe Illustrator 18.1.1, SVG Export Plug-In . SVG Version: 6.00 Build 0)  -->
<svg version="1.1" id="Layer_1" xmlns="http://www.w3.org/2000/svg" xmlns:xlink="http://www.w3.org/1999/xlink" x="0px" y="0px"
	 viewBox="0 0 792 612" enable-background="new 0 0 792 612" xml:space="preserve">
<g id="siembra" display="none">
	<g display="inline">
		<path fill="#1ABC9C" d="M103.9,549.2c0-79.4,0-158.7,0-238.1c0.7-0.4,1.2-0.8,1.9-1.2c27.9-21.7,57.3-20.6,83.3,3.1
			c1.7,1.6,3.4,3,5.2,4.5c21.2,16.2,53.6,16.5,77.4-5.8c25.2-23.7,58.8-22.8,83.8,0.7c4.9,4.6,10.2,8.5,16.3,11.5
			c7,3.3,7.3,3,7.3-4.4c0-44.6,0-89.2,0-133.9c0-7.9-0.6-8.2-8.2-9c-24.1-2.5-47-8.7-67.2-22.1C258.4,124.1,242.4,79.2,242,27
			c0-3.6,2.1-4.4,5.2-4.5c10.7-0.3,21.4,0.8,31.9,2.5c60.2,9.6,101.2,48.1,114.1,107.6c1.5,6.5,2.4,13.2,3.6,19.8
			c1.2-3.5,1.7-6.9,2.2-10.2c4.7-29.4,15.3-56.3,36.8-77.8c30.6-30.6,68.6-41.8,110.8-41.9c4,0,5.2,1.8,5.3,5.6
			c0.3,14.4-1.5,28.5-4.8,42.5c-10,40.6-31.6,72.4-69.9,91.2c-17.5,8.5-36.1,13.3-55.4,14.9c-5.2,0.4-7.2,2.4-7.2,7.8
			c0.2,45.4,0.1,90.8,0.1,136.2c0,5.8,0.6,6.2,5.7,3.9c7.6-3.3,13.9-8.5,20-14c14.6-13.4,31.9-18,51.4-14.6
			c13.2,2.2,23.5,9.3,33,18.1c14.6,13.5,32,17.9,51.5,14.2c12-2.2,21.7-8.7,30.6-16.9c15.1-14.2,33-19,53.4-15.2
			c11.5,2.1,20.7,8.3,29.7,15.3c0,79.4,0,158.7,0,238.1c-2.7,0.1-5.3,0.4-8,0.4c-190,0-380,0-570,0
			C109.2,549.6,106.5,549.3,103.9,549.2z M323.9,425.3c0.1,26.9,14,49.8,38.6,60.4c21.4,9.2,43.4,9.7,65.2,1.3
			c23.3-8.9,36.6-26.2,41-50.8c3.6-20-2-37.7-12.7-54.2c-10.2-15.8-23.3-29.2-37.3-41.5c-2.6-2.2-5.5-4.2-5.3-8.3
			c0.1-2.4-1.3-3.5-3.7-2.9c-8.7,1.9-17.4,1.9-26.1,0c-2.1-0.4-3.6,0.6-3.5,2.6c0.3,4.4-2.7,6.4-5.4,8.8c-14,12.1-27,25.3-37,41
			C329.7,394.5,323.6,407.9,323.9,425.3z"/>
		<path fill="#1ABC9C" d="M396.4,459.6c-4-0.4-8.7-0.4-13.2-1.3c-24.7-5.4-30.8-31.7-23.8-47.4c3.6-8.1,8.5-15.3,14.3-22
			c6.1-7.2,12.5-13.9,19.4-20.1c2.7-2.4,4.6-2.5,7.3-0.1c10.8,9.8,20.7,20.2,28.7,32.5c8.8,13.4,10.9,27.3,3,41.6
			C424.5,456.2,411.2,459.3,396.4,459.6z"/>
	</g>
</g>
<g id="Siembra_blanco" display="none">
	<g display="inline">
		<path fill="#FFFFFF" d="M103.9,549.2c0-79.4,0-158.7,0-238.1c0.7-0.4,1.2-0.8,1.9-1.2c27.9-21.7,57.3-20.6,83.3,3.1
			c1.7,1.6,3.4,3,5.2,4.5c21.2,16.2,53.6,16.5,77.4-5.8c25.2-23.7,58.8-22.8,83.8,0.7c4.9,4.6,10.2,8.5,16.3,11.5
			c7,3.3,7.3,3,7.3-4.4c0-44.6,0-89.2,0-133.9c0-7.9-0.6-8.2-8.2-9c-24.1-2.5-47-8.7-67.2-22.1C258.4,124.1,242.4,79.2,242,27
			c0-3.6,2.1-4.4,5.2-4.5c10.7-0.3,21.4,0.8,31.9,2.5c60.2,9.6,101.2,48.1,114.1,107.6c1.5,6.5,2.4,13.2,3.6,19.8
			c1.2-3.5,1.7-6.9,2.2-10.2c4.7-29.4,15.3-56.3,36.8-77.8c30.6-30.6,68.6-41.8,110.8-41.9c4,0,5.2,1.8,5.3,5.6
			c0.3,14.4-1.5,28.5-4.8,42.5c-10,40.6-31.6,72.4-69.9,91.2c-17.5,8.5-36.1,13.3-55.4,14.9c-5.2,0.4-7.2,2.4-7.2,7.8
			c0.2,45.4,0.1,90.8,0.1,136.2c0,5.8,0.6,6.2,5.7,3.9c7.6-3.3,13.9-8.5,20-14c14.6-13.4,31.9-18,51.4-14.6
			c13.2,2.2,23.5,9.3,33,18.1c14.6,13.5,32,17.9,51.5,14.2c12-2.2,21.7-8.7,30.6-16.9c15.1-14.2,33-19,53.4-15.2
			c11.5,2.1,20.7,8.3,29.7,15.3c0,79.4,0,158.7,0,238.1c-2.7,0.1-5.3,0.4-8,0.4c-190,0-380,0-570,0
			C109.2,549.6,106.5,549.3,103.9,549.2z M323.9,425.3c0.1,26.9,14,49.8,38.6,60.4c21.4,9.2,43.4,9.7,65.2,1.3
			c23.3-8.9,36.6-26.2,41-50.8c3.6-20-2-37.7-12.7-54.2c-10.2-15.8-23.3-29.2-37.3-41.5c-2.6-2.2-5.5-4.2-5.3-8.3
			c0.1-2.4-1.3-3.5-3.7-2.9c-8.7,1.9-17.4,1.9-26.1,0c-2.1-0.4-3.6,0.6-3.5,2.6c0.3,4.4-2.7,6.4-5.4,8.8c-14,12.1-27,25.3-37,41
			C329.7,394.5,323.6,407.9,323.9,425.3z"/>
		<path fill="#FFFFFF" d="M396.4,459.6c-4-0.4-8.7-0.4-13.2-1.3c-24.7-5.4-30.8-31.7-23.8-47.4c3.6-8.1,8.5-15.3,14.3-22
			c6.1-7.2,12.5-13.9,19.4-20.1c2.7-2.4,4.6-2.5,7.3-0.1c10.8,9.8,20.7,20.2,28.7,32.5c8.8,13.4,10.9,27.3,3,41.6
			C424.5,456.2,411.2,459.3,396.4,459.6z"/>
	</g>
</g>
<g id="reforestacion" display="none">
	<g display="inline">
		<path fill="#1ABC9C" d="M517.9,28.7c6.1,3.4,7.6,8.7,8.2,15.4c1.3,18.1-0.4,35.9-5.1,53.3c-9.6,35.7-33,57.3-68.4,66.5
			c-12.7,3.3-25.6,4.7-38.7,5.2c-3.8,0.1-5.5,1.2-5.5,5.3c0.1,62.2,0.1,124.3,0.1,186.6c0,0.7,0.1,1.3,0.2,2.5
			c8.2-8,16.2-15.7,24.2-23.5c1.3-1.2,0.8-3,0.4-4.6c-10.8-62.9,9.4-114.8,56.5-156.9c6.1-5.5,12.5-10.6,19.4-14.8
			c6.9-4.3,13.5-3.3,17.2,2.4c3.5,5.3,1.9,12.3-4.4,16.5c-19.3,13.4-36,29.2-48.3,49.3c-11.8,19.2-18.4,40-19.9,62.5
			c-0.4,7.8-1.6,15.5,0.6,23.3c2.2-0.3,3.3-2.2,4.5-3.6c23.2-23,46.2-46.1,69.2-69.2c1-1,2-2,3-3c5.8-5.6,12.6-6.2,17.4-1.6
			c4.9,4.7,4.5,11.9-1.3,17.8c-23.9,24.1-47.9,48-71.9,71.9c-1.3,1.3-2.7,2.8-4.7,4.9c10.9,1.8,21.2,1.7,31.1,0
			c61.7-10.1,101.6-46.1,121.3-104.9c6.6-19.9,6.9-40.6,3.4-61.3c-0.7-3.9-2.2-5.6-6.2-6c-6-0.4-11.9-1.2-17.8-1.9
			c-1.5-0.1-2.9-0.1-4.4-0.3c-7.4-1.1-11.5-5.7-11.1-12.3c0.3-6.2,4.9-10.5,12.3-10.7c8.3-0.2,16.6,1.1,24.8,2.4c3,0.4,6,1.3,9,1.9
			c8.9,1.3,12.8,6.7,14.5,15.2c12.9,64.4-7.1,117.7-55.3,160.7c-33.9,30.3-74.2,43.6-119.6,40.8c-6.1-0.3-12.3-1.6-18.2-2.7
			c-2.7-0.4-4.8-0.2-6.9,1.9c-11,11.1-22,22.1-33,33c-3,2.9-1.5,3.6,1.6,4.3c25.5,5.2,45.7,18.7,60.6,39.9c1.7,2.5,3.6,3.9,6.7,3.5
			c11.6-1.5,23.2-1.2,34.7,0c1.3,0.1,3.3,0.7,4-0.8c0.9-1.7-0.7-3-1.7-4.3c-4.2-5.3-9.7-7.9-16.4-8.5c-8-0.8-12.1-5.6-11.5-12.8
			c0.7-6.4,5.6-10,13.4-9.7c2.4,0.1,4.7,0.2,7,0.8c7.5,1.8,14.5,4.8,20,10.5c2.7,2.7,4.4,2.6,7.1,0c7.6-7.2,16.9-11,27.5-11.2
			c7.3-0.2,12.1,3.5,12.8,9.7c0.7,7.1-3.4,12.1-10.9,12.8c-8.7,0.8-15.2,4.5-19.2,12.3c-2.7,5.3-1.9,7.1,3.6,8.8
			c25.2,7.8,47.5,20.6,67.1,38.1c26.5,23.6,44.6,52.6,54.6,86.7c2.5,8.7-2.5,15.1-11.7,15.3c-0.7,0-1.5,0-2.1,0
			c-176.2,0-352.4,0-528.6,0.1c-6.2,0-11-1.5-14.2-7c0-2.9,0-5.8,0-8.7c5.5-16.4,12-32.1,21.4-46.9c23.5-36.9,55.9-62.3,97.1-76.4
			c9.8-3.4,10.8-6.6,3.9-14.6c-4-4.7-9.2-6.9-15.2-7.5c-8.3-0.9-12.4-5.3-11.9-12.5c0.4-6.6,5.5-10.3,13.5-10
			c10.2,0.3,19.1,4,26.5,11c2.8,2.6,4.5,3,7.5,0.2c7.8-7.4,17.3-11.1,28.1-11.2c6.9-0.1,11.6,3.8,12.1,9.9c0.7,6.9-3.4,12-10.5,12.6
			c-7.5,0.7-13.6,3.6-18.1,9.6c-0.7,1-1.8,2.1-0.9,3.4c0.7,1,2,0.8,3,0.7c12.3-1.3,24.6-1.5,36.9-0.1c2.6,0.3,3.9-1.3,5.2-3.1
			c15.5-22.5,36.8-36.1,63.6-40.8c3.8-0.7,5.1-2.1,5.1-6.1c-0.2-18.7-0.1-37.3,0-56c0-4-0.8-5.3-5.3-4.6
			c-91.4,15.1-170.8-55.3-182.1-133.6c-2.9-20.1-1.9-40.1,2.9-59.9c1.5-6.2,5.1-9.8,11.1-11.2c33.5-8.1,66.2-5.6,97.8,8.2
			c30,13.2,53.6,33.9,72,60.9c0.4,0.8,1.1,1.5,1.7,2.1c0.1,0.1,0.3,0.1,0.6,0.1c1.1-1.6,0.6-3.5,0.6-5.2c0.1-17.1-0.2-34.1,0.1-51.1
			c0.3-19.2,4.4-37.8,12.6-55.2c13.3-28.1,36.6-43,65.9-50.1c7.2-1.7,14.5-2.8,21.8-4.2C496.8,28.7,507.3,28.7,517.9,28.7z
			 M427,563.4c71.9,0,143.9,0,215.9,0c5.8,0,5.8,0,3.6-5.5c-6.3-14.9-14.7-28.7-25.5-40.9c-31-35.2-69.8-54.4-116.9-56.3
			c-9.8-0.4-19.6,0.2-29.3,1.2c-5.4,0.6-9.4-1.8-12.3-6.4c-1.1-1.9-2.2-3.7-3.4-5.6c-27.8-44.1-93.2-45.7-122.1-2.4
			c-7.4,11.2-14.5,15.1-28.1,13.7c-32.7-3.4-63.8,3.7-92.5,20.1c-31.7,18.2-55,44.1-69.3,77.7c-1.5,3.4-1.1,4.5,2.8,4.4
			c8.5-0.2,17.1-0.2,25.5,0c4.2,0.1,6.2-1.5,7.6-5.3c6.9-17.8,18-32.6,32.1-45.2c9.2-8.3,19.7-14.8,31-19.8
			c6.3-2.7,12.6-0.3,15.2,5.3c2.6,5.5,0.7,11.2-5.2,14.8c-1.7,1-3.5,1.9-5.3,2.8c-18.1,9.2-32.1,22.8-42,40.5
			c-3.6,6.4-3.5,6.6,3.7,6.6C284.1,563.4,355.6,563.4,427,563.4z M250.1,141.7c-7.2,0.2-14.5,0.2-21.7,1.5c-3.5,0.6-5.5,2.1-6.1,5.7
			c-2.4,15.7-2.6,31.5,0.6,47.1c13,65.4,72.8,112.8,139.5,110.7c1.7,0,4.3,0.7,4.8-1.2s-1.8-2.9-3-4.2c-18-18.1-36.1-36.2-54.2-54.3
			c-1.6-1.6-3.1-3-4.4-4.8c-3.4-4.7-3-10.5,0.8-14.4c3.8-4,9.6-4.7,14.4-1.6c1.9,1.2,3.7,2.9,5.3,4.6c18.2,18.2,36.4,36.4,54.6,54.5
			c1.1,1.1,2,3.3,3.7,2.6c1.7-0.6,1.3-2.8,1.3-4.4c0.3-8.5-0.2-17-1.3-25.5C376.3,196.8,316.4,139.8,250.1,141.7z M411.6,126.2
			c1.3-1.2,2.6-2.5,3.9-3.7c7.6-7.6,15.3-15.4,23-23c6.3-6.3,13.2-6.9,18.1-1.8c5.1,5.2,4.3,11.6-2.1,18.1
			c-4.9,5.1-9.9,10.1-14.9,14.9c-4.4,4.2-9,8.2-14.2,12.9c2.2,0.7,2.7,1,3.1,0.9c2.9-0.3,5.7-0.6,8.7-1c19.3-3.5,37.2-10,49.3-26.6
			c13.7-18.7,16.7-40.5,16.9-62.8c0-3.1-2.1-2.7-4.2-2.7c-8.5,0-17,0.8-25.3,2.6c-20.6,4.5-38.9,12.9-50.6,31.6
			C415.5,97.9,411.5,111.4,411.6,126.2z"/>
		<path fill="#1ABC9C" d="M544.5,154c0.1-6.2,5.3-11.1,11.6-11.2c6.3,0,11.9,5.6,11.7,11.8c-0.2,6.1-6.2,11.4-12.5,11.2
			C549.3,165.7,544.5,160.5,544.5,154z"/>
		<path fill="#1ABC9C" d="M295.2,505.3c-6.3-0.1-11.5-5.2-11.4-11.4c0-6.3,5.1-11,11.6-11.1c6.5,0,11.6,4.8,11.7,11
			C307,500.4,301.8,505.4,295.2,505.3z"/>
	</g>
</g>
<g id="reforestacion_blanco" display="none">
	<g display="inline">
		<path fill="#FFFFFF" d="M517.9,28.7c6.1,3.4,7.6,8.7,8.2,15.4c1.3,18.1-0.4,35.9-5.1,53.3c-9.6,35.7-33,57.3-68.4,66.5
			c-12.7,3.3-25.6,4.7-38.7,5.2c-3.8,0.1-5.5,1.2-5.5,5.3c0.1,62.2,0.1,124.3,0.1,186.6c0,0.7,0.1,1.3,0.2,2.5
			c8.2-8,16.2-15.7,24.2-23.5c1.3-1.2,0.8-3,0.4-4.6c-10.8-62.9,9.4-114.8,56.5-156.9c6.1-5.5,12.5-10.6,19.4-14.8
			c6.9-4.3,13.5-3.3,17.2,2.4c3.5,5.3,1.9,12.3-4.4,16.5c-19.3,13.4-36,29.2-48.3,49.3c-11.8,19.2-18.4,40-19.9,62.5
			c-0.4,7.8-1.6,15.5,0.6,23.3c2.2-0.3,3.3-2.2,4.5-3.6c23.2-23,46.2-46.1,69.2-69.2c1-1,2-2,3-3c5.8-5.6,12.6-6.2,17.4-1.6
			c4.9,4.7,4.5,11.9-1.3,17.8c-23.9,24.1-47.9,48-71.9,71.9c-1.3,1.3-2.7,2.8-4.7,4.9c10.9,1.8,21.2,1.7,31.1,0
			c61.7-10.1,101.6-46.1,121.3-104.9c6.6-19.9,6.9-40.6,3.4-61.3c-0.7-3.9-2.2-5.6-6.2-6c-6-0.4-11.9-1.2-17.8-1.9
			c-1.5-0.1-2.9-0.1-4.4-0.3c-7.4-1.1-11.5-5.7-11.1-12.3c0.3-6.2,4.9-10.5,12.3-10.7c8.3-0.2,16.6,1.1,24.8,2.4c3,0.4,6,1.3,9,1.9
			c8.9,1.3,12.8,6.7,14.5,15.2c12.9,64.4-7.1,117.7-55.3,160.7c-33.9,30.3-74.2,43.6-119.6,40.8c-6.1-0.3-12.3-1.6-18.2-2.7
			c-2.7-0.4-4.8-0.2-6.9,1.9c-11,11.1-22,22.1-33,33c-3,2.9-1.5,3.6,1.6,4.3c25.5,5.2,45.7,18.7,60.6,39.9c1.7,2.5,3.6,3.9,6.7,3.5
			c11.6-1.5,23.2-1.2,34.7,0c1.3,0.1,3.3,0.7,4-0.8c0.9-1.7-0.7-3-1.7-4.3c-4.2-5.3-9.7-7.9-16.4-8.5c-8-0.8-12.1-5.6-11.5-12.8
			c0.7-6.4,5.6-10,13.4-9.7c2.4,0.1,4.7,0.2,7,0.8c7.5,1.8,14.5,4.8,20,10.5c2.7,2.7,4.4,2.6,7.1,0c7.6-7.2,16.9-11,27.5-11.2
			c7.3-0.2,12.1,3.5,12.8,9.7c0.7,7.1-3.4,12.1-10.9,12.8c-8.7,0.8-15.2,4.5-19.2,12.3c-2.7,5.3-1.9,7.1,3.6,8.8
			c25.2,7.8,47.5,20.6,67.1,38.1c26.5,23.6,44.6,52.6,54.6,86.7c2.5,8.7-2.5,15.1-11.7,15.3c-0.7,0-1.5,0-2.1,0
			c-176.2,0-352.4,0-528.6,0.1c-6.2,0-11-1.5-14.2-7c0-2.9,0-5.8,0-8.7c5.5-16.4,12-32.1,21.4-46.9c23.5-36.9,55.9-62.3,97.1-76.4
			c9.8-3.4,10.8-6.6,3.9-14.6c-4-4.7-9.2-6.9-15.2-7.5c-8.3-0.9-12.4-5.3-11.9-12.5c0.4-6.6,5.5-10.3,13.5-10
			c10.2,0.3,19.1,4,26.5,11c2.8,2.6,4.5,3,7.5,0.2c7.8-7.4,17.3-11.1,28.1-11.2c6.9-0.1,11.6,3.8,12.1,9.9c0.7,6.9-3.4,12-10.5,12.6
			c-7.5,0.7-13.6,3.6-18.1,9.6c-0.7,1-1.8,2.1-0.9,3.4c0.7,1,2,0.8,3,0.7c12.3-1.3,24.6-1.5,36.9-0.1c2.6,0.3,3.9-1.3,5.2-3.1
			c15.5-22.5,36.8-36.1,63.6-40.8c3.8-0.7,5.1-2.1,5.1-6.1c-0.2-18.7-0.1-37.3,0-56c0-4-0.8-5.3-5.3-4.6
			c-91.4,15.1-170.8-55.3-182.1-133.6c-2.9-20.1-1.9-40.1,2.9-59.9c1.5-6.2,5.1-9.8,11.1-11.2c33.5-8.1,66.2-5.6,97.8,8.2
			c30,13.2,53.6,33.9,72,60.9c0.4,0.8,1.1,1.5,1.7,2.1c0.1,0.1,0.3,0.1,0.6,0.1c1.1-1.6,0.6-3.5,0.6-5.2c0.1-17.1-0.2-34.1,0.1-51.1
			c0.3-19.2,4.4-37.8,12.6-55.2c13.3-28.1,36.6-43,65.9-50.1c7.2-1.7,14.5-2.8,21.8-4.2C496.8,28.7,507.3,28.7,517.9,28.7z
			 M427,563.4c71.9,0,143.9,0,215.9,0c5.8,0,5.8,0,3.6-5.5c-6.3-14.9-14.7-28.7-25.5-40.9c-31-35.2-69.8-54.4-116.9-56.3
			c-9.8-0.4-19.6,0.2-29.3,1.2c-5.4,0.6-9.4-1.8-12.3-6.4c-1.1-1.9-2.2-3.7-3.4-5.6c-27.8-44.1-93.2-45.7-122.1-2.4
			c-7.4,11.2-14.5,15.1-28.1,13.7c-32.7-3.4-63.8,3.7-92.5,20.1c-31.7,18.2-55,44.1-69.3,77.7c-1.5,3.4-1.1,4.5,2.8,4.4
			c8.5-0.2,17.1-0.2,25.5,0c4.2,0.1,6.2-1.5,7.6-5.3c6.9-17.8,18-32.6,32.1-45.2c9.2-8.3,19.7-14.8,31-19.8
			c6.3-2.7,12.6-0.3,15.2,5.3c2.6,5.5,0.7,11.2-5.2,14.8c-1.7,1-3.5,1.9-5.3,2.8c-18.1,9.2-32.1,22.8-42,40.5
			c-3.6,6.4-3.5,6.6,3.7,6.6C284.1,563.4,355.6,563.4,427,563.4z M250.1,141.7c-7.2,0.2-14.5,0.2-21.7,1.5c-3.5,0.6-5.5,2.1-6.1,5.7
			c-2.4,15.7-2.6,31.5,0.6,47.1c13,65.4,72.8,112.8,139.5,110.7c1.7,0,4.3,0.7,4.8-1.2s-1.8-2.9-3-4.2c-18-18.1-36.1-36.2-54.2-54.3
			c-1.6-1.6-3.1-3-4.4-4.8c-3.4-4.7-3-10.5,0.8-14.4c3.8-4,9.6-4.7,14.4-1.6c1.9,1.2,3.7,2.9,5.3,4.6c18.2,18.2,36.4,36.4,54.6,54.5
			c1.1,1.1,2,3.3,3.7,2.6c1.7-0.6,1.3-2.8,1.3-4.4c0.3-8.5-0.2-17-1.3-25.5C376.3,196.8,316.4,139.8,250.1,141.7z M411.6,126.2
			c1.3-1.2,2.6-2.5,3.9-3.7c7.6-7.6,15.3-15.4,23-23c6.3-6.3,13.2-6.9,18.1-1.8c5.1,5.2,4.3,11.6-2.1,18.1
			c-4.9,5.1-9.9,10.1-14.9,14.9c-4.4,4.2-9,8.2-14.2,12.9c2.2,0.7,2.7,1,3.1,0.9c2.9-0.3,5.7-0.6,8.7-1c19.3-3.5,37.2-10,49.3-26.6
			c13.7-18.7,16.7-40.5,16.9-62.8c0-3.1-2.1-2.7-4.2-2.7c-8.5,0-17,0.8-25.3,2.6c-20.6,4.5-38.9,12.9-50.6,31.6
			C415.5,97.9,411.5,111.4,411.6,126.2z"/>
		<path fill="#FFFFFF" d="M544.5,154c0.1-6.2,5.3-11.1,11.6-11.2c6.3,0,11.9,5.6,11.7,11.8c-0.2,6.1-6.2,11.4-12.5,11.2
			C549.3,165.7,544.5,160.5,544.5,154z"/>
		<path fill="#FFFFFF" d="M295.2,505.3c-6.3-0.1-11.5-5.2-11.4-11.4c0-6.3,5.1-11,11.6-11.1c6.5,0,11.6,4.8,11.7,11
			C307,500.4,301.8,505.4,295.2,505.3z"/>
	</g>
</g>
<g id="revegetalizacion" display="none">
	<g display="inline">
		<path fill="#1ABC9C" d="M481,354c-8.9-14.2-31.2-41.6-73.1-46.1c-9.3-293,130.9-257.5,130.9-257.5c-66.3,19.4-93.7,72.7-93.7,72.7
			c111,15.3,118.5-66.1,118.2-89.4c0-3.6-2.4-6.9-5.7-8C420.2-19.7,395,200.9,395,200.9C355.1,48.2,262.6,66.3,235.9,75.1
			c-4.3,1.5-6.7,6-5.6,10.3c31.1,119,124.3,87.9,124.3,87.9c-31.4-60.6-88.9-72.7-88.9-72.7c136.2,10.7,124.6,188,123.1,206.9
			c-55.4,2.2-69.7,29.9-79.6,44.4c-2.4,3.5-6.3,5.7-10.6,6.1c-14,1-48.4,5.5-58.7,27.2c0,0,32.4,27.5,77.7,51.7
			c32,17.2,58,51.3,70.5,69.8c3.7,5.4,11.8,5.2,15.1-0.6c11-19.8,33.7-55.3,56.8-62.7c42.9-13.8,92.2-58.2,92.2-58.2
			s-29.3-28-57.8-24.6C488.9,361.1,483.8,358.5,481,354z M310.2,399.7c-7.9,0-14.3-6.4-14.3-14.3s6.4-14.3,14.3-14.3
			s14.3,6.4,14.3,14.3S318.1,399.7,310.2,399.7z M380.2,325.3c3.8,0,7,3.1,7,7c0,3.8-3.1,7-7,7s-7-3.1-7-7
			C373.2,328.4,376.4,325.3,380.2,325.3z M366,448.2c-11.6,0-21-9.4-21-21s9.4-21,21-21c11.6,0,21,9.4,21,21
			C387.1,438.8,377.6,448.2,366,448.2z M401.3,375c-7.9,0-14.3-6.4-14.3-14.3s6.4-14.3,14.3-14.3s14.3,6.4,14.3,14.3
			S409.2,375,401.3,375z M466.1,423.2c-11.6,0-21-9.4-21-21c0-11.6,9.4-21,21-21c11.6,0,21,9.4,21,21
			C487.1,413.7,477.7,423.2,466.1,423.2z M517.7,378.4c3.8,0,7,3.1,7,7c0,3.8-3.1,7-7,7s-7-3.1-7-7
			C510.7,381.6,513.8,378.4,517.7,378.4z"/>
		<path fill="#1ABC9C" d="M120.7,327.7c-0.1-3.8,4.7-5.6,7.2-2.6c11.1,13.7,32.8,46.2,46.3,103.7c18.8,80,81.3,85.3,106.1,90.6
			c0,0,11.6-23.3-13.9-46.9c-23-21.4-42.6-35.4-46.5-69.2c-0.4-3.9,4.3-6.4,7.2-3.7c8.1,7.3,23.4,20.2,50.4,39.7
			c46.1,33.4,106.1,50.9,106.8,157c0,0-88.6,15.7-183.8-70.4C129.1,456.8,121.2,359.4,120.7,327.7z"/>
		<path fill="#1ABC9C" d="M671.3,327.7c0.1-3.8-4.7-5.6-7.2-2.6c-11.1,13.7-32.8,46.2-46.3,103.7c-18.8,80-81.3,85.3-106.1,90.6
			c0,0-11.6-23.3,13.9-46.9c23-21.4,42.6-35.4,46.5-69.2c0.4-3.9-4.3-6.4-7.2-3.7c-8.1,7.3-23.4,20.2-50.4,39.7
			c-46.1,33.4-106.1,50.9-106.8,157c0,0,88.6,15.7,183.8-70.4C662.9,456.8,670.8,359.4,671.3,327.7z"/>
	</g>
	<g display="inline">
		<path fill="#1ABC9C" d="M1137.4,354c-8.9-14.2-31.2-41.6-73.1-46.1c-9.3-293,130.9-257.5,130.9-257.5
			c-66.3,19.4-93.7,72.7-93.7,72.7c111,15.3,118.5-66.1,118.2-89.4c0-3.6-2.4-6.9-5.7-8c-137.5-45.5-162.6,175-162.6,175
			C1011.5,48.2,919,66.3,892.3,75.1c-4.3,1.5-6.7,6-5.6,10.3c31.1,119,124.3,87.9,124.3,87.9c-31.4-60.6-88.9-72.7-88.9-72.7
			c136.2,10.7,124.6,188,123.1,206.9c-55.4,2.2-69.7,29.9-79.6,44.4c-2.4,3.5-6.3,5.7-10.6,6.1c-14,1-48.4,5.5-58.7,27.2
			c0,0,32.4,27.5,77.7,51.7c32,17.2,58,51.3,70.5,69.8c3.7,5.4,11.8,5.2,15.1-0.6c11-19.8,33.7-55.3,56.8-62.7
			c42.9-13.8,92.2-58.2,92.2-58.2s-29.3-28-57.8-24.6C1145.3,361.1,1140.2,358.5,1137.4,354z M966.6,399.7
			c-7.9,0-14.3-6.4-14.3-14.3s6.4-14.3,14.3-14.3c7.9,0,14.3,6.4,14.3,14.3S974.4,399.7,966.6,399.7z M1036.6,325.3c3.8,0,7,3.1,7,7
			c0,3.8-3.1,7-7,7s-7-3.1-7-7C1029.6,328.4,1032.8,325.3,1036.6,325.3z M1022.4,448.2c-11.6,0-21-9.4-21-21s9.4-21,21-21
			s21,9.4,21,21C1043.5,438.8,1034,448.2,1022.4,448.2z M1057.7,375c-7.9,0-14.3-6.4-14.3-14.3s6.4-14.3,14.3-14.3
			c7.9,0,14.3,6.4,14.3,14.3S1065.6,375,1057.7,375z M1122.5,423.2c-11.6,0-21-9.4-21-21c0-11.6,9.4-21,21-21c11.6,0,21,9.4,21,21
			C1143.5,413.7,1134.1,423.2,1122.5,423.2z M1174.1,378.4c3.8,0,7,3.1,7,7c0,3.8-3.1,7-7,7c-3.8,0-7-3.1-7-7
			C1167.1,381.6,1170.2,378.4,1174.1,378.4z"/>
		<path fill="#1ABC9C" d="M777.1,327.7c-0.1-3.8,4.7-5.6,7.2-2.6c11.1,13.7,32.8,46.2,46.3,103.7c18.8,80,81.3,85.3,106.1,90.6
			c0,0,11.6-23.3-13.9-46.9c-23-21.4-42.6-35.4-46.5-69.2c-0.4-3.9,4.3-6.4,7.2-3.7c8.1,7.3,23.4,20.2,50.4,39.7
			c46.1,33.4,106.1,50.9,106.8,157c0,0-88.6,15.7-183.8-70.4C785.5,456.8,777.6,359.4,777.1,327.7z"/>
		<path fill="#1ABC9C" d="M1327.7,327.7c0.1-3.8-4.7-5.6-7.2-2.6c-11.1,13.7-32.8,46.2-46.3,103.7c-18.8,80-81.3,85.3-106.1,90.6
			c0,0-11.6-23.3,13.9-46.9c23-21.4,42.6-35.4,46.5-69.2c0.4-3.9-4.3-6.4-7.2-3.7c-8.1,7.3-23.4,20.2-50.4,39.7
			c-46.1,33.4-106.1,50.9-106.8,157c0,0,88.6,15.7,183.8-70.4C1319.3,456.8,1327.2,359.4,1327.7,327.7z"/>
	</g>
</g>
<g id="Layer_6" display="none">
	<g display="inline">
		<path fill="#FFFFFF" d="M481,354c-8.9-14.2-31.2-41.6-73.1-46.1c-9.3-293,130.9-257.5,130.9-257.5c-66.3,19.4-93.7,72.7-93.7,72.7
			c111,15.3,118.5-66.1,118.2-89.4c0-3.6-2.4-6.9-5.7-8C420.2-19.7,395,200.9,395,200.9C355.1,48.2,262.6,66.3,235.9,75.1
			c-4.3,1.5-6.7,6-5.6,10.3c31.1,119,124.3,87.9,124.3,87.9c-31.4-60.6-88.9-72.7-88.9-72.7c136.2,10.7,124.6,188,123.1,206.9
			c-55.4,2.2-69.7,29.9-79.6,44.4c-2.4,3.5-6.3,5.7-10.6,6.1c-14,1-48.4,5.5-58.7,27.2c0,0,32.4,27.5,77.7,51.7
			c32,17.2,58,51.3,70.5,69.8c3.7,5.4,11.8,5.2,15.1-0.6c11-19.8,33.7-55.3,56.8-62.7c42.9-13.8,92.2-58.2,92.2-58.2
			s-29.3-28-57.8-24.6C488.9,361.1,483.8,358.5,481,354z M310.2,399.7c-7.9,0-14.3-6.4-14.3-14.3s6.4-14.3,14.3-14.3
			s14.3,6.4,14.3,14.3S318.1,399.7,310.2,399.7z M380.2,325.3c3.8,0,7,3.1,7,7c0,3.8-3.1,7-7,7s-7-3.1-7-7
			C373.2,328.4,376.4,325.3,380.2,325.3z M366,448.2c-11.6,0-21-9.4-21-21s9.4-21,21-21c11.6,0,21,9.4,21,21
			C387.1,438.8,377.6,448.2,366,448.2z M401.3,375c-7.9,0-14.3-6.4-14.3-14.3s6.4-14.3,14.3-14.3s14.3,6.4,14.3,14.3
			S409.2,375,401.3,375z M466.1,423.2c-11.6,0-21-9.4-21-21c0-11.6,9.4-21,21-21c11.6,0,21,9.4,21,21
			C487.1,413.7,477.7,423.2,466.1,423.2z M517.7,378.4c3.8,0,7,3.1,7,7c0,3.8-3.1,7-7,7s-7-3.1-7-7
			C510.7,381.6,513.8,378.4,517.7,378.4z"/>
		<path fill="#FFFFFF" d="M120.7,327.7c-0.1-3.8,4.7-5.6,7.2-2.6c11.1,13.7,32.8,46.2,46.3,103.7c18.8,80,81.3,85.3,106.1,90.6
			c0,0,11.6-23.3-13.9-46.9c-23-21.4-42.6-35.4-46.5-69.2c-0.4-3.9,4.3-6.4,7.2-3.7c8.1,7.3,23.4,20.2,50.4,39.7
			c46.1,33.4,106.1,50.9,106.8,157c0,0-88.6,15.7-183.8-70.4C129.1,456.8,121.2,359.4,120.7,327.7z"/>
		<path fill="#FFFFFF" d="M671.3,327.7c0.1-3.8-4.7-5.6-7.2-2.6c-11.1,13.7-32.8,46.2-46.3,103.7c-18.8,80-81.3,85.3-106.1,90.6
			c0,0-11.6-23.3,13.9-46.9c23-21.4,42.6-35.4,46.5-69.2c0.4-3.9-4.3-6.4-7.2-3.7c-8.1,7.3-23.4,20.2-50.4,39.7
			c-46.1,33.4-106.1,50.9-106.8,157c0,0,88.6,15.7,183.8-70.4C662.9,456.8,670.8,359.4,671.3,327.7z"/>
	</g>
</g>
<g id="paisajismo_blanco" display="none">
	<g id="siembra_2_" display="inline">
		<g>
			<path fill="#1ABC9C" d="M90,529.5c0-79.4,0-158.7,0-238.1c0.7-0.4,1.2-0.8,1.9-1.2c27.9-21.7,57.3-20.6,83.3,3.1
				c1.7,1.6,3.4,3,5.2,4.5c21.2,16.2,53.6,16.5,77.4-5.8c25.2-23.7,58.8-22.8,83.8,0.7c4.9,4.6,10.2,8.5,16.3,11.5
				c7,3.3,7.3,3,7.3-4.4c0-44.6,0-89.2,0-133.9c0-7.9-0.6-8.2-8.2-9c-24.1-2.5-47-8.7-67.2-22.1C244.4,104.4,228.5,59.6,228,7.3
				c0-3.6,2.1-4.4,5.2-4.5c10.7-0.3,21.4,0.8,31.9,2.5c60.2,9.6,101.2,48.1,114.1,107.6c1.5,6.5,2.4,13.2,3.6,19.8
				c1.2-3.5,1.7-6.9,2.2-10.2c4.7-29.4,15.3-56.3,36.8-77.8C452.4,14,490.4,2.8,532.6,2.7c4,0,5.2,1.8,5.3,5.6
				c0.3,14.4-1.5,28.5-4.8,42.5c-10,40.6-31.6,72.4-69.9,91.2c-17.5,8.5-36.1,13.3-55.4,14.9c-5.2,0.4-7.2,2.4-7.2,7.8
				c0.2,45.4,0.1,90.8,0.1,136.2c0,5.8,0.6,6.2,5.7,3.9c7.6-3.3,13.9-8.5,20-14c14.6-13.4,31.9-18,51.4-14.6
				c13.2,2.2,23.5,9.3,33,18.1c14.6,13.5,32,17.9,51.5,14.2c12-2.2,21.7-8.7,30.6-16.9c15.1-14.2,33-19,53.4-15.2
				c11.5,2.1,20.7,8.3,29.7,15.3c0,79.4,0,158.7,0,238.1c-2.7,0.1-5.3,0.4-8,0.4c-190,0-380,0-570,0C95.3,530,92.6,529.6,90,529.5z
				 M310,405.6c0.1,26.9,14,49.8,38.6,60.4c21.4,9.2,43.4,9.7,65.2,1.3c23.3-8.9,36.6-26.2,41-50.8c3.6-20-2-37.7-12.7-54.2
				c-10.2-15.8-23.3-29.2-37.3-41.5c-2.6-2.2-5.5-4.2-5.3-8.3c0.1-2.4-1.3-3.5-3.7-2.9c-8.7,1.9-17.4,1.9-26.1,0
				c-2.1-0.4-3.6,0.6-3.5,2.6c0.3,4.4-2.7,6.4-5.4,8.8c-14,12.1-27,25.3-37,41C315.8,374.8,309.6,388.2,310,405.6z"/>
			<path fill="#1ABC9C" d="M382.5,439.9c-4-0.4-8.7-0.4-13.2-1.3c-24.7-5.4-30.8-31.7-23.8-47.4c3.6-8.1,8.5-15.3,14.3-22
				c6.1-7.2,12.5-13.9,19.4-20.1c2.7-2.4,4.6-2.5,7.3-0.1c10.8,9.8,20.7,20.2,28.7,32.5c8.8,13.4,10.9,27.3,3,41.6
				C410.6,436.5,397.3,439.6,382.5,439.9z"/>
		</g>
		<path fill="none" d="M1543.7,363c-1-0.6-1.3-1.9-0.7-2.9l2.5-3.9c0.6-1,1.9-1.2,2.9-0.7l66,39.2c1,0.6,1.3,1.9,0.7,2.9l-2.5,3.9
			c-0.7,1-1.9,1.3-2.9,0.7L1543.7,363z"/>
		<path fill="none" d="M1623.3,288.9c-1-0.7-1.3-2-0.8-3.1l2.6-4.3c0.7-1,2-1.3,3.1-0.8l69,42.1c1,0.7,1.3,2,0.8,3.1l-2.6,4.3
			c-0.7,1-2,1.3-3.1,0.8L1623.3,288.9z"/>
		<path fill="none" d="M1710.8,323.4v208.9h-620.4l137.1-111.6l246.5-43.5l30.5-36.9l23.6,13.8l-2,3.3c-0.6,1-0.3,2.2,0.7,2.9
			l87.4,52c1,0.6,2.4,0.3,2.9-0.7l10.3-16.5c0.6-1,0.3-2.2-0.7-2.9l-87.4-52c-1-0.6-2.4-0.3-2.9,0.7l-6.1,9.8l-23.2-13.5l63.3-76.8
			l36.4,19l-2.1,3.5c-0.7,1-0.3,2.5,0.8,3.1l91.5,55.9c1,0.7,2.5,0.3,3-0.8L1710.8,323.4z"/>
		<polygon fill="none" points="1493.7,334.2 1468,364.5 1234.2,409.5 1310.6,347.2 1414,347.2 1428.2,295.8 		"/>
		<polygon fill="none" points="1560.8,255.4 1496.5,330.9 1429.3,291.7 1454.7,200.1 		"/>
		<polygon fill="none" points="1625.3,68.4 1587.8,223.6 1563.7,251.9 1456,195.6 1471.7,138.9 		"/>
		<path fill="none" d="M1710.8,34.1v286.6c-0.2-0.2-0.3-0.4-0.7-0.6l-91.5-55.9c-1-0.7-2.5-0.3-3,0.8l-6.4,10.5l-35.9-18.7
			l24.3-29.4l41.9-167.1L1710.8,34.1z"/>
		<path fill="none" d="M1698.1,326l-2.6,4.3c-0.7,1-2,1.3-3.1,0.8l-69-42.1c-1-0.7-1.3-2-0.8-3.1l2.6-4.3c0.7-1,2-1.3,3.1-0.8
			l69,42.1C1698.4,323.6,1698.7,324.9,1698.1,326z"/>
		<path fill="none" d="M1615.2,397.7l-2.5,3.9c-0.7,1-1.9,1.3-2.9,0.7l-66-39.2c-1-0.6-1.3-1.9-0.7-2.9l2.5-3.9
			c0.6-1,1.9-1.2,2.9-0.7l66,39.2C1615.4,395.3,1615.8,396.6,1615.2,397.7z M1614.4,394.7l-66-39.2c-1-0.6-2.4-0.3-2.9,0.7l-2.5,3.9
			c-0.7,1-0.3,2.2,0.7,2.9l66,39.2c1,0.6,2.4,0.3,2.9-0.7l2.5-3.9C1615.8,396.6,1615.4,395.3,1614.4,394.7z"/>
	</g>
	<g id="talud_1_" display="inline">
		<path fill="#1ABC9C" d="M665.1,74.6L439.3,181.3l-9.2,33c-0.3-0.2-0.8-0.3-1.1-0.3l-8.1-1.6c-2.5-0.4-4.9,1.1-5.4,3.6l-1.8,9.1
			l-3.5-1.7c-0.3-0.1-0.6-0.2-0.9-0.2c-0.8,0-1.5,0.4-1.8,1.1c-0.4,1-0.1,2.1,0.9,2.7l4.5,2.1l-3.1,16.1c-0.4,2.5,1.1,4.9,3.6,5.4
			l6.3,1.2l-12.4,44.1l-5.8-1.5c-2.5-0.7-4.9,0.9-5.6,3.4l-3,12l-5.7-2.7c-0.3-0.1-0.6-0.2-0.9-0.2c-0.8,0-1.5,0.4-1.8,1.1
			c-0.4,1,0,2.1,0.9,2.7l6.4,3l-3.4,12.9c-0.7,2.5,0.9,4.9,3.4,5.6l4.9,1.2l-6.9,24.5h-91.2L90,534.7v10.5h584.4V74.6H665.1z
			 M454.1,187.5L583,134.3l-34.6,125.2l-15.5,24.2l-92.2-47.5L454.1,187.5z M597.9,445.5l-75.3-41l5.4-11.8l-58.6-33.5l-24.8,35.2
			L259,422.7l45.1-41.8l99.2-4.8l11.6-48.6l54.4,31.7l4.8-5.6l-57-32.3l21.8-78.2l89.5,46.6l-54.3,63.7l58.3,31.9l6-8.4l74.7,45
			L597.9,445.5z M645.6,366.6L577,329.9l4.8-10.6l-53.4-30.1l4.4-5.1l53.1,28.5l5.4-7.5l68,40.2L645.6,366.6z"/>
		<path fill="#1ABC9C" d="M648.7,349.3L594,316.4c-0.9-0.6-2.1-0.2-2.7,0.7l-2.2,3.8c-0.6,0.9-0.2,2.1,0.7,2.7l54.7,32.9
			c0.9,0.6,2.1,0.2,2.7-0.7l2.2-3.7C650,351.1,649.6,349.9,648.7,349.3z"/>
		<path fill="#1ABC9C" d="M601.9,430.5l-2.1,3.5c-0.6,0.9-1.7,1.1-2.6,0.6L539,399.9c-0.9-0.6-1.1-1.7-0.6-2.6l2.1-3.5
			c0.6-0.9,1.7-1.1,2.6-0.6l58.1,34.6C602.1,428.5,602.4,429.6,601.9,430.5z"/>
	</g>
	<g id="alianza_1_" display="inline">
		<g>
			<path fill="#1ABC9C" d="M328.1,435.2c-5.1-0.3-10.1,1.5-14.2,5.2c-3.9,3.6-5.7,2.4-7.2-2c-1.2-3.7-3.6-6.9-6.5-9.4
				c-11.6-10.3-27.1-9.2-36.6,3c-4.7,6-8.9,12.3-13.2,18.5c-2.2,3.3-4,3.4-6.5,0.2c-12.3-15.4-24.5-30.8-36.9-46
				c-2.8-3.4-1.2-6,0.4-8.9c16-27.6,31.9-55.3,47.9-82.9c4.4-7.6,8.9-15.2,13.2-22.9c1.9-3.4,3.8-4.6,7.9-3.1
				c17.6,6.5,35.4,12.7,53.2,19c4.5,1.6,5.1,3.4,1.5,6.6c-7.2,6.7-14.2,13.6-21.2,20.5c-2,1.9-3.5,3.8-3.6,6.9
				c-0.8,17.8-1.9,35.5-2.4,53.3c-0.3,14.2,8.7,20.8,22.5,17.5c12.5-2.9,21.9-9.8,27.9-21.1c3.8-7.2,7.4-14.6,11-21.9
				c1.5-3.1,3.6-5.3,6.7-6.7c7.1-3.1,14-6.6,21.7-8.5c8.5-2.1,16.6-1.5,24.3,3c40,23.2,80,46.3,120,69.6c11.9,7,14.4,19.7,6.2,30.2
				c-6.3,8.1-16,10.1-25.9,4.6c-11.6-6.5-23-13.4-34.5-20c-1.6-0.9-3.3-1.8-4.9-2.5c-1-0.4-2-0.1-2.6,0.9s-0.4,2.1,0.3,2.8
				c1.2,1,2.6,1.9,4,2.8c15.2,8.9,30.5,17.6,45.5,26.6c9.8,5.8,12.7,15.6,8.2,25.3c-5.3,11.5-17,15.5-28.2,9.2
				c-15.8-9-31.5-18.3-47.3-27.3c-2.5-1.3-6.2-5.1-8-1.9c-2.2,3.9,3.1,4.7,5.6,6.2c11.6,7,23.4,13.6,34.8,20.6
				c7.3,4.5,10.7,11.2,8.9,19.9c-1.8,8.8-7.1,14.6-15.8,16.9c-5.8,1.5-10.9-0.8-15.7-3.6c-12-7-24.1-14-36.1-21
				c-1-0.7-2.1-1.2-3.1-1.8c-1.7-0.9-3.6-1.8-4.7,0.4c-1,2,0.8,2.9,2.2,3.7c9,5.3,18,10.6,27,15.8c1.6,0.9,3.3,1.8,4.7,2.8
				c9.8,6.7,12,17.4,5.7,27.4c-6,9.6-16.6,12.4-26.6,6.7c-9.1-5.1-18-10.6-27.1-15.6c-3.3-1.8-3.4-3.7-2.1-7
				c6.1-17.3-4.3-32.9-22.8-34.4c-5.1-0.3-6.1-1.3-3.3-6.1c10.5-17.8-0.7-37.9-21.4-38.2c-5.4-0.1-6.9-1.3-6.5-6.9
				C355.3,447.1,343.1,435.2,328.1,435.2z"/>
			<path fill="#1ABC9C" d="M308.6,391.9c0.7-16.2,1.3-32.3,2-48.4c0.1-3,1.2-5.5,3.4-7.5c12-11.5,23.5-23.4,35.9-34.4
				c16.2-14.4,34.4-19.6,55.6-14.7c16.5,3.7,33.4,6.4,50.4,6.6c17.1,0.2,33.8-2,50.2-6.6c4.6-1.2,7.1-0.4,9.4,3.7
				c19.9,34.8,40,69.6,60.1,104.2c2.6,4.4,2,6.6-2.7,8.9c-9.4,4.4-18.8,9.2-27.9,14.2c-3.7,2-6.6,1.8-10.2-0.3
				c-37.1-21.6-74.5-42.9-111.5-64.7c-11.9-7-23.7-8.4-36.3-3.6c-6.9,2.6-13.5,5.8-20.3,8.7c-3.1,1.3-4.5,4-5.8,6.7
				c-4.7,9.3-8.7,19-14.6,27.6c-5.5,8-13.3,12-22.4,13.7C313.4,407.7,308.2,402.8,308.6,391.9z"/>
			<path fill="#1ABC9C" d="M180,418.6c-6.1,0-9.8-1.8-13.3-3.9c-12.3-7.1-24.5-14.2-36.6-21.2c-13.2-7.6-15.3-15.7-7.6-29
				c21.8-37.8,43.6-75.5,65.4-113.2c2.9-4.9,5.6-10,8.7-14.8c5.4-8.4,14-11.1,22.8-6.4c14.9,8.1,29.7,16.6,44.2,25.4
				c8.7,5.2,10.5,14.6,5.1,24.2c-11.2,19.8-22.6,39.3-33.9,59c-13.5,23.4-27.1,46.8-40.5,70.1C190.5,414.9,185.4,418.2,180,418.6z"
				/>
			<path fill="#1ABC9C" d="M605.3,418.6c-7.4-0.3-12.4-4.2-16.1-10.6c-19.6-34.1-39.2-68.1-58.9-102.1c-5.2-8.9-10.3-17.6-15.3-26.6
				c-5.6-10-3.5-18.9,6.3-24.7c13.8-8.3,27.9-16.4,42-24.2c9.7-5.4,18.7-2.9,24.2,6.6c25.1,43.2,50,86.4,74.9,129.7
				c6.1,10.6,3.5,19.4-6.9,25.6c-13.2,7.9-26.5,15.4-39.8,23C612.5,417.2,609.2,418.6,605.3,418.6z"/>
			<path fill="#1ABC9C" d="M200.5,189.7c-25.2,0-50.4-0.1-75.5,0.1c-5.3,0-7.3-1.2-6.4-7c4.5-31.9,21.5-54.6,50.9-67
				c28.9-12.3,56.6-7.9,81.7,10.8c18.8,14,29.1,33.2,32.3,56.5c0.7,5.5-1.1,6.7-6.2,6.7C251.6,189.6,226.1,189.7,200.5,189.7z"/>
			<path fill="#1ABC9C" d="M582.5,189.7c-25,0-49.9,0-74.9,0c-7.9,0-8-0.2-7-8c5.1-40.1,39.5-71.6,79-72.5
				c41.9-0.9,77.7,28.1,84.9,68.8c2,11.7,2,11.7-9.7,11.7C630.7,189.7,606.6,189.7,582.5,189.7z"/>
			<path fill="#1ABC9C" d="M391.8,189.7c-25,0-49.9,0-74.9,0c-7.5,0-8.3-0.9-7.3-8.1c6-42,41.4-72.7,83.6-72.4
				c40.7,0.3,76.5,32.7,81.2,73.2c0.6,5.2-0.7,7.4-6.4,7.4C442.5,189.5,417.2,189.7,391.8,189.7z"/>
			<path fill="#1ABC9C" d="M391.8,104c-21.6,0-39.3-17.8-39.3-38.9c0.1-21.5,18.3-39.6,39.8-39.3c21.2,0.2,39.1,18.3,39,39.5
				C431.1,86.5,413.3,104.1,391.8,104z"/>
			<path fill="#1ABC9C" d="M543.7,64.7c0.1-21.5,17.6-39.1,39.1-39c21.4,0,39,17.8,39,39.2c0,21.9-17.8,39.6-39.5,39.2
				C560.6,103.9,543.6,86.5,543.7,64.7z"/>
			<path fill="#1ABC9C" d="M239.9,65.1c0,21.7-17.3,39-39,39c-21.8,0-39.2-17.6-39.1-39.6c0.1-21.4,18-39,39.3-38.8
				C222.6,25.9,239.9,43.5,239.9,65.1z"/>
			<path fill="#1ABC9C" d="M349.3,459.9c0.2,4.5-1.3,8.4-3.9,12c-12.6,17.9-25,35.9-37.7,53.6c-7.3,10.1-18.3,12-27.9,5.4
				c-9.9-6.9-11.9-18.1-4.8-28.4c12.7-18.3,25.5-36.5,38.4-54.6c5.4-7.5,13.3-9.7,21.7-6.9C343.6,444,349.2,451.5,349.3,459.9z"/>
			<path fill="#1ABC9C" d="M331,558.2c-8.4-0.3-14.7-4-18.9-11c-4-6.9-3.5-13.7,1-20.1c10.8-15.4,21.5-30.9,32.5-46.1
				c6.7-9.2,17.8-10.6,27.1-4c9.2,6.4,11.8,17.6,5.5,26.9c-10.6,15.5-21.5,30.8-32.4,46.2C342.2,555,337,557.7,331,558.2z"/>
			<path fill="#1ABC9C" d="M282.5,427.1c16.6,0.2,26.2,16.9,17.5,30.5c-7.5,11.8-15.8,23.3-24.4,34.5c-6.3,8.3-16.9,9.4-25.9,3.7
				c-9.1-6-12.7-16.5-7-25.5c8.1-12.7,17.1-25,26-37.1C272.2,428.7,277.4,426.8,282.5,427.1z"/>
			<path fill="#1ABC9C" d="M375,574c-16.6-0.2-26.4-17.2-18.1-30.7c3.7-6.1,7.9-11.9,12.3-17.5c7.5-9.6,18-11,27.5-4.2
				c9.3,6.7,11.4,17.5,4.8,27.5c-3.7,5.6-7.6,11.1-11.7,16.5C386.1,570.8,381,573.9,375,574z"/>
		</g>
	</g>
	<g id="paisajismo_1_" display="inline">
		<g>
			<path fill="#FFFFFF" d="M214.3,245.2c80.7-0.1,145.9,20.7,205.6,59.6c5.2,3.4,9.4,4.2,15.3,2c13.7-4.9,27.8-8.4,42.1-11
				c10.1-1.9,6-9.1,6.9-14.5c0.8-6.1-3.6-5.6-7.5-6c-16.3-1.9-32.5-4-47.5-11c-27.8-12.9-34.8-35.9-19.6-62.6
				c5.1-8.9,11.6-16.6,18.4-24.2c10.3-11.5,11.5-17.2,2.2-29.2c-13.4-17.3-11.2-33.8-0.2-51.1c16.5-26.2,32.6-52.5,48.8-78.9
				c7.6-12.5,15.8-13,25.4-1.6c15.5,19,31.4,37.9,47,57c22.7,27.6,30.5,59.5,24.6,94.6c-1.7,9.9,0.1,16.9,9.2,22.8
				c15.5,10.3,21.7,25.5,17.6,39.6c-2.7,9.8-9.2,17-17.3,22.7C567.8,266,547.5,271,526.4,274c-3.4,0.4-6.9,1.1-10.2,1.1
				c-4.8,0-6.4,2-6.4,6.7c0,9.3,0.1,10,9.7,9.3c17.1-1.1,34.2-1.9,51.3-1.3c31.6,0.9,62.3,6.1,92.3,16.2c7.1,2.4,10.5,6.7,10.6,14.2
				c3.4,127.3-84.1,243.5-208.3,274.2c-92.5,22.9-176.2,2.7-249.3-58.4c-57-47.4-88.2-109.5-96.2-183.2c-3-28.1-1.5-56.2,4.5-84
				c1.6-7.2,5.3-11.7,12.9-13.4C165.6,249.1,194.3,244.6,214.3,245.2z M546.3,313c-14.9,0.9-32.9,1-50.7,4.4
				c-118.9,21.8-205,86.7-257.4,195.9c-2.6,5.4-1.9,8.3,2.9,11.9c36.6,26.5,76.8,43.7,121.7,49.7c4.6,0.6,6.6-0.9,8.2-4.9
				c13.5-32.1,32-61.4,53.6-88.6c7.4-9.4,15.1-18.8,23.7-27.1c4.9-4.8,11.6-4.9,16.2-0.7c4.7,4.3,5.1,10.7,0.9,16.2
				c-1.7,2.2-3.5,4.3-5.3,6.4c-23.9,26.6-43.2,56.4-59.1,88.3c-6.6,13.2-6.6,13.3,8.1,12.6C472.6,574,526.8,550,572,505.6
				c34.2-33.7,55.6-74.3,65.2-121.3c0.8-4,2.1-8.5-4.9-6.7c-33.9,8.5-66.5,20.7-97.2,37.4c-7,3.8-14.2,1.1-15.8-6.4
				c-1.7-7,0.7-12,7.8-16c17.9-10.1,36.6-18.4,55.9-25.9c18.9-7.3,38.3-11.4,57.8-16.2c9.4-2.4,6.1-9.8,7.2-15.5
				c1-6-3.1-7.2-7.5-8.5C610.5,317.1,580.2,313.7,546.3,313z M213.3,266.7c-14.7-0.7-35.4,2.6-56.1,6.4
				c-14.8,2.7-12.9-0.2-15.8,16.6c-2.6,15.3-2.5,15.2,12.6,19.8c27.8,8.5,55.4,17.5,80.6,32.7c4.7,2.8,8.3,6.4,9.7,12
				c1.1,4.8-0.4,8.5-3.8,11.9c-3.3,3.1-6.9,2-10.2,0.3c-8.8-4.2-17.4-8.5-26.2-12.6c-17.8-8.2-35.7-16-54.7-21.2
				c-4.6-1.3-8-1.8-6.7,5.2c1.1,6.1,0.9,12.4,1.8,18.7c7,52.3,27.8,98.2,63.8,136.9c8,8.5,7.9,8.3,13.2-2.2
				c37.8-75.8,94.5-132.3,170.8-169c1.8-0.8,4.7-0.9,4.6-3.4c-0.1-2.1-2.9-2.7-4.6-3.8C339.1,282.9,281.5,267.4,213.3,266.7z
				 M507.2,157.8c2.1-2,3-2.7,3.9-3.5c7.1-6.6,12.7-7.2,18.1-2c5.5,5.4,4.9,11.7-1.9,18.8c-5.5,5.6-11,11.2-16.6,16.6
				c-2,2-3.4,4.2-3.4,7.2c0.1,18,0.1,36.1,0,54c0,3.5,1.5,5.3,4.9,4.9c19.1-2.1,38.1-4.7,54.8-15.2c17.8-11.2,13.2-17.1,1.9-25.1
				c-0.3-0.2-0.7-0.6-1-0.9c-17.5-11.5-20.5-28.2-17.6-47.3C554,139.7,550,116,534,94.6c-12.3-16.3-24.8-32.1-36.8-48.6
				c-3.3-4.6-4.5-3.5-7,0.4c-13.5,22-27.1,44.1-41.1,65.8c-4.9,7.5-5.4,13.7-0.2,21.5c13.4,19.7,13.2,35.7-0.2,54.4
				c-3.1,4.5-7,8.5-10.6,12.7c-3.9,4.4-7.5,8.8-10.2,13.9c-6.4,12.4-4.4,19.4,7.4,26.6c13.7,8.1,29,10.3,44.3,12.5
				c3.3,0.4,4.5-1.3,4.6-4.5c0.6-12.1,1-23.9-11-31.8c-4-2.6-7.1-6.6-10.3-10.1c-5.2-5.6-5.6-10.9-1.6-16.2
				c4.2-5.1,10.1-5.6,16.6-1.7c1.7,1,3.3,3.4,5.3,2.1c1.9-1.1,0.9-3.9,0.9-5.8c0.1-20.5,0-41.1,0.1-61.6c0-8.4,5.1-14.2,11.9-14
				c7,0.1,11,5.1,11.2,13.8C507.3,134.7,507.2,145.4,507.2,157.8z"/>
			<path fill="#FFFFFF" d="M307.2,191.1c-25.1,0-44.6-19.7-44.6-44.7c0-25.4,19.8-45,45.2-44.8c25,0.1,44.4,19.9,44.3,45.1
				C352,171.5,332.3,191.1,307.2,191.1z M328.8,146.1c-0.1-12.1-9.6-21.6-21.7-21.5c-12.1,0.1-21.6,9.6-21.5,21.7
				c0.1,12.1,9.7,21.6,21.7,21.5C319.6,167.7,329,158.3,328.8,146.1z"/>
			<path fill="#FFFFFF" d="M507.2,425.1c0,9.2-16,22.4-24.8,20.6c-4.2-0.8-7-3.3-8.2-7.4c-1.6-4.8-0.3-9.4,3.1-12.7
				c4.4-4,9.3-7.6,14.8-10C499.6,412.4,507.3,417.3,507.2,425.1z"/>
			<path fill="#FFFFFF" d="M267,388.6c-6.3-0.1-14.2-8.9-13.8-15.1c0.2-5.3,6.6-10.9,12.5-10.9c6,0,13.9,8.8,13.7,15.2
				C279.3,383.2,273.1,388.7,267,388.6z"/>
		</g>
	</g>
	<g id="reforestacion_2_" display="inline">
		<g>
			<path fill="#1ABC9C" d="M504,9c6.1,3.4,7.6,8.7,8.2,15.4c1.3,18.1-0.4,35.9-5.1,53.3c-9.6,35.7-33,57.3-68.4,66.5
				c-12.7,3.3-25.6,4.7-38.7,5.2c-3.8,0.1-5.5,1.2-5.5,5.3c0.1,62.2,0.1,124.3,0.1,186.6c0,0.7,0.1,1.3,0.2,2.5
				c8.2-8,16.2-15.7,24.2-23.5c1.3-1.2,0.8-3,0.4-4.6c-10.8-62.9,9.4-114.8,56.5-156.9c6.1-5.5,12.5-10.6,19.4-14.8
				c6.9-4.3,13.5-3.3,17.2,2.4c3.5,5.3,1.9,12.3-4.4,16.5c-19.3,13.4-36,29.2-48.3,49.3c-11.8,19.2-18.4,40-19.9,62.5
				c-0.4,7.8-1.6,15.5,0.6,23.3c2.2-0.3,3.3-2.2,4.5-3.6c23.2-23,46.2-46.1,69.2-69.2c1-1,2-2,3-3c5.8-5.6,12.6-6.2,17.4-1.6
				c4.9,4.7,4.5,11.9-1.3,17.8c-23.9,24.1-47.9,48-71.9,71.9c-1.3,1.3-2.7,2.8-4.7,4.9c10.9,1.8,21.2,1.7,31.1,0
				c61.7-10.1,101.6-46.1,121.3-104.9c6.6-19.9,6.9-40.6,3.4-61.3c-0.7-3.9-2.2-5.6-6.2-6c-6-0.4-11.9-1.2-17.8-1.9
				c-1.5-0.1-2.9-0.1-4.4-0.3c-7.4-1.1-11.5-5.7-11.1-12.3c0.3-6.2,4.9-10.5,12.3-10.7c8.3-0.2,16.6,1.1,24.8,2.4c3,0.4,6,1.3,9,1.9
				c8.9,1.3,12.8,6.7,14.5,15.2c12.9,64.4-7.1,117.7-55.3,160.7c-33.9,30.3-74.2,43.6-119.6,40.8c-6.1-0.3-12.3-1.6-18.2-2.7
				c-2.7-0.4-4.8-0.2-6.9,1.9c-11,11.1-22,22.1-33,33c-3,2.9-1.5,3.6,1.6,4.3c25.5,5.2,45.7,18.7,60.6,39.9c1.7,2.5,3.6,3.9,6.7,3.5
				c11.6-1.5,23.2-1.2,34.7,0c1.3,0.1,3.3,0.7,4-0.8c0.9-1.7-0.7-3-1.7-4.3c-4.2-5.3-9.7-7.9-16.4-8.5c-8-0.8-12.1-5.6-11.5-12.8
				c0.7-6.4,5.6-10,13.4-9.7c2.4,0.1,4.7,0.2,7,0.8c7.5,1.8,14.5,4.8,20,10.5c2.7,2.7,4.4,2.6,7.1,0c7.6-7.2,16.9-11,27.5-11.2
				c7.3-0.2,12.1,3.5,12.8,9.7c0.7,7.1-3.4,12.1-10.9,12.8c-8.7,0.8-15.2,4.5-19.2,12.3c-2.7,5.3-1.9,7.1,3.6,8.8
				c25.2,7.8,47.5,20.6,67.1,38.1c26.5,23.6,44.6,52.6,54.6,86.7c2.5,8.7-2.5,15.1-11.7,15.3c-0.7,0-1.5,0-2.1,0
				c-176.2,0-352.4,0-528.6,0.1c-6.2,0-11-1.5-14.2-7c0-2.9,0-5.8,0-8.7c5.5-16.4,12-32.1,21.4-46.9c23.5-36.9,55.9-62.3,97.1-76.4
				c9.8-3.4,10.8-6.6,3.9-14.6c-4-4.7-9.2-6.9-15.2-7.5c-8.3-0.9-12.4-5.3-11.9-12.5c0.4-6.6,5.5-10.3,13.5-10
				c10.2,0.3,19.1,4,26.5,11c2.8,2.6,4.5,3,7.5,0.2c7.8-7.4,17.3-11.1,28.1-11.2c6.9-0.1,11.6,3.8,12.1,9.9
				c0.7,6.9-3.4,12-10.5,12.6c-7.5,0.7-13.6,3.6-18.1,9.6c-0.7,1-1.8,2.1-0.9,3.4c0.7,1,2,0.8,3,0.7c12.3-1.3,24.6-1.5,36.9-0.1
				c2.6,0.3,3.9-1.3,5.2-3.1c15.5-22.5,36.8-36.1,63.6-40.8c3.8-0.7,5.1-2.1,5.1-6.1c-0.2-18.7-0.1-37.3,0-56c0-4-0.8-5.3-5.3-4.6
				c-91.4,15.1-170.8-55.3-182.1-133.6c-2.9-20.1-1.9-40.1,2.9-59.9c1.5-6.2,5.1-9.8,11.1-11.2c33.5-8.1,66.2-5.6,97.8,8.2
				c30,13.2,53.6,33.9,72,60.9c0.4,0.8,1.1,1.5,1.7,2.1c0.1,0.1,0.3,0.1,0.6,0.1c1.1-1.6,0.6-3.5,0.6-5.2
				c0.1-17.1-0.2-34.1,0.1-51.1c0.3-19.2,4.4-37.8,12.6-55.2c13.3-28.1,36.6-43,65.9-50.1c7.2-1.7,14.5-2.8,21.8-4.2
				C482.8,9,493.4,9,504,9z M413,543.8c71.9,0,143.9,0,215.9,0c5.8,0,5.8,0,3.6-5.5c-6.3-14.9-14.7-28.7-25.5-40.9
				c-31-35.2-69.8-54.4-116.9-56.3c-9.8-0.4-19.6,0.2-29.3,1.2c-5.4,0.6-9.4-1.8-12.3-6.4c-1.1-1.9-2.2-3.7-3.4-5.6
				c-27.8-44.1-93.2-45.7-122.1-2.4c-7.4,11.2-14.5,15.1-28.1,13.7c-32.7-3.4-63.8,3.7-92.5,20.1c-31.7,18.2-55,44.1-69.3,77.7
				c-1.5,3.4-1.1,4.5,2.8,4.4c8.5-0.2,17.1-0.2,25.5,0c4.2,0.1,6.2-1.5,7.6-5.3c6.9-17.8,18-32.6,32.1-45.2
				c9.2-8.3,19.7-14.8,31-19.8c6.3-2.7,12.6-0.3,15.2,5.3c2.6,5.5,0.7,11.2-5.2,14.8c-1.7,1-3.5,1.9-5.3,2.8
				c-18.1,9.2-32.1,22.8-42,40.5c-3.6,6.4-3.5,6.6,3.7,6.6C270.2,543.8,341.7,543.8,413,543.8z M236.1,122.1
				c-7.2,0.2-14.5,0.2-21.7,1.5c-3.5,0.6-5.5,2.1-6.1,5.7c-2.4,15.7-2.6,31.5,0.6,47.1c13,65.4,72.8,112.8,139.5,110.7
				c1.7,0,4.3,0.7,4.8-1.2c0.6-1.9-1.8-2.9-3-4.2c-18-18.1-36.1-36.2-54.2-54.3c-1.6-1.6-3.1-3-4.4-4.8c-3.4-4.7-3-10.5,0.8-14.4
				c3.8-4,9.6-4.7,14.4-1.6c1.9,1.2,3.7,2.9,5.3,4.6c18.2,18.2,36.4,36.4,54.6,54.5c1.1,1.1,2,3.3,3.7,2.6c1.7-0.6,1.3-2.8,1.3-4.4
				c0.3-8.5-0.2-17-1.3-25.5C362.3,177.1,302.4,120.2,236.1,122.1z M397.6,106.6c1.3-1.2,2.6-2.5,3.9-3.7c7.6-7.6,15.3-15.4,23-23
				c6.3-6.3,13.2-6.9,18.1-1.8c5.1,5.2,4.3,11.6-2.1,18.1c-4.9,5.1-9.9,10.1-14.9,14.9c-4.4,4.2-9,8.2-14.2,12.9
				c2.2,0.7,2.7,1,3.1,0.9c2.9-0.3,5.7-0.6,8.7-1c19.3-3.5,37.2-10,49.3-26.6c13.7-18.7,16.7-40.5,16.9-62.8c0-3.1-2.1-2.7-4.2-2.7
				c-8.5,0-17,0.8-25.3,2.6c-20.6,4.5-38.9,12.9-50.6,31.6C401.6,78.2,397.5,91.7,397.6,106.6z"/>
			<path fill="#1ABC9C" d="M530.6,134.3c0.1-6.2,5.3-11.1,11.6-11.2c6.3,0,11.9,5.6,11.7,11.8c-0.2,6.1-6.2,11.4-12.5,11.2
				C535.3,146,530.6,140.8,530.6,134.3z"/>
			<path fill="#1ABC9C" d="M281.3,485.7c-6.3-0.1-11.5-5.2-11.4-11.4c0-6.3,5.1-11,11.6-11.1c6.5,0,11.6,4.8,11.7,11
				C293.1,480.7,287.8,485.8,281.3,485.7z"/>
		</g>
	</g>
	<g id="revegetalizacion_2_" display="inline">
		<g>
			<path fill="#1ABC9C" d="M467.1,334.4c-8.9-14.2-31.2-41.6-73.1-46.1C384.7-4.7,525,30.8,525,30.8c-66.3,19.4-93.7,72.7-93.7,72.7
				c111,15.3,118.5-66.1,118.2-89.4c0-3.6-2.4-6.9-5.7-8c-137.5-45.5-162.6,175-162.6,175C341.2,28.5,248.7,46.6,222,55.4
				c-4.3,1.5-6.7,6-5.6,10.3c31.1,119,124.3,87.9,124.3,87.9c-31.4-60.6-88.9-72.7-88.9-72.7C388,91.6,376.4,269,374.8,287.8
				c-55.4,2.2-69.7,29.9-79.6,44.4c-2.4,3.5-6.3,5.7-10.6,6.1c-14,1-48.4,5.5-58.7,27.2c0,0,32.4,27.5,77.7,51.7
				c32,17.2,58,51.3,70.5,69.8c3.7,5.4,11.8,5.2,15.1-0.6c11-19.8,33.7-55.3,56.8-62.7c42.9-13.8,92.2-58.2,92.2-58.2
				s-29.3-28-57.8-24.6C475,341.5,469.9,338.9,467.1,334.4z M296.2,380c-7.9,0-14.3-6.4-14.3-14.3s6.4-14.3,14.3-14.3
				s14.3,6.4,14.3,14.3S304.1,380,296.2,380z M366.3,305.6c3.8,0,7,3.1,7,7c0,3.8-3.1,7-7,7c-3.8,0-7-3.1-7-7
				S362.4,305.6,366.3,305.6z M352.1,428.6c-11.6,0-21-9.4-21-21c0-11.6,9.4-21,21-21c11.6,0,21,9.4,21,21S363.7,428.6,352.1,428.6z
				 M387.4,355.3c-7.9,0-14.3-6.4-14.3-14.3s6.4-14.3,14.3-14.3c7.9,0,14.3,6.4,14.3,14.3S395.3,355.3,387.4,355.3z M452.1,403.5
				c-11.6,0-21-9.4-21-21c0-11.6,9.4-21,21-21c11.6,0,21,9.4,21,21C473.2,394.1,463.7,403.5,452.1,403.5z M503.7,358.8
				c3.8,0,7,3.1,7,7c0,3.8-3.1,7-7,7c-3.8,0-7-3.1-7-7C496.8,361.9,499.9,358.8,503.7,358.8z"/>
			<path fill="#1ABC9C" d="M106.7,308.1c-0.1-3.8,4.7-5.6,7.2-2.6c11.1,13.7,32.8,46.2,46.3,103.7c18.8,80,81.3,85.3,106.1,90.6
				c0,0,11.6-23.3-13.9-46.9c-23-21.4-42.6-35.4-46.5-69.2c-0.4-3.9,4.3-6.4,7.2-3.7c8.1,7.3,23.4,20.2,50.4,39.7
				c46.1,33.4,106.1,50.9,106.8,157c0,0-88.6,15.7-183.8-70.4C115.2,437.1,107.3,339.8,106.7,308.1z"/>
			<path fill="#1ABC9C" d="M657.4,308.1c0.1-3.8-4.7-5.6-7.2-2.6c-11.1,13.7-32.8,46.2-46.3,103.7c-18.8,80-81.3,85.3-106.1,90.6
				c0,0-11.6-23.3,13.9-46.9c23-21.4,42.6-35.4,46.5-69.2c0.4-3.9-4.3-6.4-7.2-3.7c-8.1,7.3-23.4,20.2-50.4,39.7
				c-46.1,33.4-106.1,50.9-106.8,157c0,0,88.6,15.7,183.8-70.4C648.9,437.1,656.8,339.8,657.4,308.1z"/>
		</g>
	</g>
</g>
<g id="cercos">
	<g>
		<path fill="#FFFFFF" d="M104.6,427.1c3.1-3.8,7.2-5.1,12.1-4.9c16,0.2,32,0.1,48,0c1.8,0,3.7,0.6,6-0.8c-3.1-1.9-6-3.6-8.8-5.4
			c-12-8.2-15.7-23.6-8.7-35.7c7.3-12.6,22.6-17.5,35.5-10.5c21.7,11.9,43,24.4,64.4,37c4.5,2.7,6.5,2.2,9.1-2.4
			c9.3-16.2,28.5-21,40.8-8.9c7.3,7.3,13.8,13.4,24.5,13.5c0.9,0,1.7,0.7,2.6,1.1c7.8,4.2,7.6,4.2,12.7-3.5
			c6.3-9.8,15.5-13.9,26.9-12.6c11.2,1.5,20.1,9.7,22,21c1.1,6.1,3.7,7.3,9.3,7.3c91.9-0.2,183.9-0.1,275.8-0.2
			c5.1,0,9.4,0.9,12.7,4.9c0,14.5,0,29,0,43.4c-2.7,4.4-6.9,5.7-11.7,5.7c-43.4,0-86.8,0-130.2,0c-2,0-4.3-0.3-6.2-1
			c-4-1.3-6.3-4.5-6.2-8.7c0.1-4.5,2.8-7.5,7.1-8.5c2.1-0.6,4.5-0.3,6.9-0.3c38.4,0,76.9,0,115.3-0.1c2.5,0,6.2,1.5,7-1.9
			c1-4.4,1.1-9.1-0.3-13.5c-0.3-1.1-1.9-1.2-3-1.2c-1.7-0.1-3.4-0.1-5.2-0.1c-90,0-180.1,0-270.1,0c-2.1,0-4.5-0.7-7.5,1.1
			c13.6,6.4,24.1,16.9,40.7,16c25.3-1.3,50.6-0.3,76-0.3c2.1,0,4.3-0.1,6.3,0.2c4.6,0.9,7.4,3.9,7.6,8.7c0.2,4.5-2.2,7.6-6.6,8.9
			c-2.5,0.7-5.3,0.8-7.9,0.9c-18.1,0.1-36.1,0-56,0c3.6,2.2,5.7,3.5,7.9,4.9c13.4,8.5,17.5,24.2,9.9,37.2
			c-7.5,12.8-22.9,17.1-36.8,9.3c-21.5-12-42.7-24.3-63.8-36.8c-3.9-2.4-5.5-1.9-7.8,2.1c-7.1,12.7-18.3,18.1-30.8,15.2
			c-7.6-1.7-13.6-6.1-17.2-13c-1.6-2.9-3.4-4-6.7-4c-5.8,0-11.5-1.6-16.1-5.2c-4.4-3.5-6.3-1.9-8.5,2.4c-4.7,9.3-12.6,14.6-23,15.5
			c-13.6,1.1-25.6-8-27.9-21.7c-0.8-5.1-2.8-6.1-7.4-6.1c-33.2,0.1-66.2,0.1-99.4,0.1c-5.3,0-10.3-0.6-13.4-5.7
			C104.6,456.1,104.6,441.6,104.6,427.1z M231.8,456c-1.5-0.6-2.2-0.8-2.8-1.2c-13.9-9.4-28.3-17-46.1-13.9c-1.7,0.3-3.4,0-5.2,0
			c-16.5,0-33.2,0.1-49.7-0.1c-4.4,0-6.5,1.3-6,6c0.1,1.3,0.2,2.7,0,3.9c-0.8,5.5,1.6,7.1,7,7.1c31.8-0.2,63.5-0.1,95.3-0.1
			C226.3,457.7,228.2,458.1,231.8,456z M176.5,385.2c-2.9-0.1-5.2,1.1-6.7,3.5c-3.3,4.7-1.8,9.6,4.4,13.2
			c19.1,11.1,38.2,22.1,57.3,33.2c9.8,5.6,9.6,5.5,15.3-3.8c2.5-3.9,2.2-6-2-8.3c-20.6-11.6-40.9-23.5-61.4-35.3
			C181.3,386.2,179.1,385,176.5,385.2z M448.4,504c0.1-3.9-2.7-6-6-7.9c-19.1-11-38.2-22-57.2-33.2c-11.6-6.7-8.5-6-14.9,3.8
			c-2.8,4.4-1.8,6.4,2.5,8.8c16.4,9.2,32.6,18.8,48.9,28.1c4.6,2.7,9.1,5.6,13.8,7.9C442.4,514.9,448.5,511.3,448.4,504z
			 M331.2,490.7c3.5,0,5.7-2.8,7.5-6.1c6.7-11.7,13.5-23.4,20.2-35.1c4.6-8.1,9.3-16.2,13.8-24.3c1.9-3.4,1.9-7-0.9-10.1
			c-2.5-2.8-5.6-3.1-8.9-2.2c-2.9,0.8-4.5,3.4-6,5.8c-6.2,10.7-12.4,21.5-18.5,32.1c-5.1,8.8-10.2,17.4-15.1,26.2
			C319.7,484,323.2,490.6,331.2,490.7z M251.3,485.9c3.9-0.4,6.5-2.9,8.4-6.2c3.9-6.7,7.8-13.5,11.7-20.2
			c7.2-12.6,14.5-25.1,21.6-37.7c3.4-6,2-11.7-3.1-13.4c-4.9-1.7-8.9,0.1-11.5,4.7c-7.4,13-15.1,26.1-22.6,39.1
			c-3.8,6.6-7.8,13.2-11.4,19.9C240.8,478.9,244.4,486,251.3,485.9z M325.9,434.4c-0.4-4.5-2.4-7.5-6.1-8.8
			c-4.5-1.5-7.9,0.8-10.1,4.4c-5.6,9.2-11,18.5-16.3,28c-3.4,6-2.6,10.8,1.9,13.5c4.4,2.7,9.3,1,12.7-4.8
			c5.5-9.3,10.9-18.7,16.2-28.1C325,437.2,325.5,435.5,325.9,434.4z"/>
		<path fill="#FFFFFF" d="M689.6,189.5c-3.4,3.9-7.6,5.1-12.8,4.9c-16.3-0.2-32.6-0.1-50.2-0.1c2.8,1.8,4.4,2.7,5.8,3.8
			c9.2,6.4,13.9,17.2,11.4,27.9c-2.6,11-8.8,19-20.3,21.5c-7.8,1.6-14.7-1-21.2-4.8c-20.3-11.6-40.7-23.3-60.8-35.2
			c-4.6-2.7-6.7-2.5-9.6,2.5c-11.4,19.7-36.2,19.9-47.8,0.6c-1.6-2.7-3.4-3.7-6.4-3.6c-6.1,0.2-11.8-1.5-16.5-5.3
			c-3.6-2.8-5.4-2.1-7.3,1.7c-4.5,9.1-11.7,14.8-22,16.2c-13.5,1.7-25.3-5.5-28.8-18.7c-1.5-5.4-3.8-6.7-9-6.7
			c-91.9,0.1-184,0.1-275.9,0.2c-5.2,0-9.8-0.8-13.4-4.9c0-14.5,0-29,0-43.4c2.4-4.4,6.3-5.8,11-5.8c32.6,0,65.1-0.1,97.7,0
			c7,0,11.4,3.9,11.4,9.6c0,5.5-4.4,9.1-11.6,9.1c-28,0-56,0.1-84-0.1c-5.5,0-7.8,1.6-7,7.1c0.2,1.3,0.1,2.7,0,4
			c-0.6,4.6,1.7,6.2,6,5.7c0.9-0.1,1.9,0,2.8,0c89.7,0,179.4,0,269.1-0.1c2.8,0,7.2,1.7,8-2c0.8-3.4-3.9-3.7-6.2-5.5
			c-10.2-8-21.9-9.7-34.7-9.4c-36,0.6-71.9,0.2-107.9,0.2c-1.9,0-3.8,0.1-5.7-0.1c-5.6-0.4-9.3-3.8-9.6-8.8c-0.3-5.1,3.3-9,9.1-9.8
			c2-0.2,4.2-0.2,6.3-0.2c28.8,0,57.5,0,86.2,0c2,0,4,0.6,6.5-0.8c-4-2.4-7.9-4.5-11.5-6.7c-12.1-7.6-16.7-22.1-11-34.2
			c6.2-13,20.2-19.1,34.1-13.7c12.8,5.1,23.9,13.3,36,19.9c10.7,6,21.1,12,31.6,18.3c3.9,2.4,6,1.9,8.4-2.2
			c8.7-14.6,21.4-19,35.9-12.9c5.5,2.4,9.6,6.3,12.3,11.5c1.5,2.7,3.1,3.9,6.2,3.8c6.7-0.4,12.8,1.8,18,6c2.5,2,3.8,1.5,5.4-1
			c1.7-2.8,3.4-5.5,5.4-8.1c7.5-9.2,17.8-12,29.2-8.3c10,3.3,17.5,12.4,18,23.4c0.2,5.1,2.7,5.4,6.5,5.4c33.3-0.1,66.7,0,99.9,0
			c5.4,0,10.3,0.6,13.3,5.8C689.6,160.5,689.6,175,689.6,189.5z M566.6,159.8c7.3,4.3,14.4,8.1,21.2,12.4c4,2.6,8.2,3.5,12.9,3.5
			c20.7-0.1,41.5-0.1,62.2-0.1c9.3,0,9.3,0,9.2-9.3c0-7.4,0-7.4-7.6-7.4c-30.8,0-61.6,0-92.4,0C570.5,158.9,568.7,158.4,566.6,159.8
			z M355.1,100.9c-5.2-0.1-8.9,3.4-9.2,7.8c-0.3,4.9,2.6,7.5,6.5,9.8c18.7,10.7,37.2,21.6,56,32.1c12.4,7,9,7.5,16.4-4.5
			c2-3.1,1.3-5.1-1.8-6.9c-21-12-41.9-24.1-62.9-36.1C358.3,102.1,356.3,101.4,355.1,100.9z M617.7,229.1c0.7-0.2,1.8-0.3,2.8-0.8
			c3.1-1.5,5.5-3.7,5.6-7.3c0.1-4.3-2.6-6.9-6.1-8.9c-19-10.9-37.8-21.9-56.8-32.7c-12.6-7.1-8.5-7.6-16.3,4.6
			c-1.9,3-1.7,4.8,1.7,6.7c21,11.9,41.8,24.1,62.7,36.1C613.2,227.8,615.1,228.8,617.7,229.1z M472.3,131.7c0-4-2.1-6.4-5.4-7.6
			c-4-1.5-7.6-0.2-10,3.4c-3.3,4.9-6.1,10.1-9,15.2c-8.7,14.9-17.4,29.9-26,45c-3.7,6.6-1,13.4,5.5,14c4.7,0.6,7.3-2.4,9.4-6
			c11-19.1,22-38.2,33-57.2C471.4,136.2,472.4,134,472.3,131.7z M507.9,206.4c3.7,0.1,6-1.9,7.8-4.8c3-5.3,6.1-10.5,9.2-15.7
			c7.8-13.5,15.6-27,23.4-40.5c0.9-1.5,1.8-2.9,2.4-4.5c1.6-4.6,1.1-8.7-3.5-11.4c-3.8-2.2-8.4-1-11.2,3.5
			c-4.7,7.6-9.1,15.4-13.5,23.2c-7.2,12.4-14.4,24.6-21.4,37.1C497.1,199.6,500.8,206.4,507.9,206.4z M477.7,188.8
			c1.9-0.3,4.5-1,5.8-3.3c6.5-10.9,13-21.8,19.1-32.9c2-3.8,0.6-8.1-3.7-10.1c-3.9-1.9-8.3-1.7-10.7,2.1
			c-6.5,10.7-12.8,21.5-18.8,32.5C466.6,182.4,471.1,188.7,477.7,188.8z"/>
		<path fill="#FFFFFF" d="M689.6,328.9c-2.9,4.4-7.1,5.1-11.9,5.1c-45.6-0.1-91.4,0-137,0c-2,0-4.2,0-7.8,0c3.9,2.4,6.6,3.9,9.2,5.5
			c12.8,8,17.2,23.5,10.2,36.2c-6.9,12.5-23.6,17.6-36.6,10.5c-19.1-10.6-38-21.8-57-32.7c-0.3-0.2-0.7-0.4-1-0.6
			c-3.5-1.9-7.1-5.3-10.6-5.2c-3.7,0-4.4,5.6-6.6,8.5c-12.1,15.5-35.4,14.2-45.2-2.9c-1.6-2.8-3-4-6.5-3.9c-6.4,0.1-12.5-2-17.5-6
			c-2.9-2.2-4.4-1.8-6,1.3c-3.8,8.1-9.8,13.9-18.7,16.4c-15.1,4.3-30.1-4.3-33-19.7c-1.2-6.3-3.7-7.6-9.7-7.6
			c-62.5,0.2-124.9,0.1-187.4,0.2c-4.8,0-9.1-0.7-11.9-5.1c0-14.5,0-29,0-43.4c2.8-4.5,7.1-5.1,11.9-5.1c45.5,0.1,91,0.1,136.6,0
			c2,0,4.2,0.6,6.6-0.7c-3-1.8-5.7-3.4-8.4-5.1c-13.2-8.5-17-23.6-9.3-36.9c7.2-12.4,23.2-16.9,36.3-9.4
			c21.5,12,42.6,24.4,63.8,36.9c4,2.4,6.2,2.2,8.3-2.1c10.3-21.7,40-20.1,48.9-0.3c1,2.1,2.4,2.5,4.5,2.5c7.1-0.2,13.6,1.5,19.1,6.2
			c2.2,2,3.7,1.9,5.3-0.9c2.1-4,4.4-8,7.9-11.1c8-7.2,17.1-9.1,27.1-5.6c10,3.5,16.3,10.8,17.5,21.4c0.6,5.1,2.6,5.7,6.9,5.7
			c30.8-0.1,61.7-0.1,92.5-0.1c2.1,0,4.3-0.1,6.3,0.2c4.8,0.7,7.5,3.7,7.6,8.5c0.1,4.8-2.6,7.9-7.2,9c-2,0.4-4.2,0.2-6.3,0.2
			c-33.2,0-66.3,0-99.4,0c-2,0-4,0-7.2,0c3.7,4.5,8.1,5.6,11.4,8.1c10.6,8,22.3,9.8,35.3,9.6c48-0.6,96-0.2,144-0.2
			c7.5,0,7.5,0,7.5-7.5c0-1.6-0.1-3,0-4.6c0.4-4.4-1.6-5.5-5.7-5.5c-13.2,0.2-26.3,0.1-39.5,0.1c-1.7,0-3.5,0.1-5.2-0.1
			c-5.1-0.4-8.8-4.3-8.8-8.9c0-4.8,3.8-8.9,9.2-8.9c12.4-0.2,24.7-0.1,37.1-0.1c6.5,0,12.9,0.1,19.4,0c4.6-0.1,8.2,1.2,10.8,5.1
			C689.6,299.9,689.6,314.4,689.6,328.9z M319,315.9c0.2-0.6,0.4-1.2,0.7-1.8c-7-4-14.2-8-21-12.3c-4.3-2.6-8.5-3.6-13.5-3.6
			c-51.6,0.1-103.2,0.1-154.8,0.1c-1.3,0-2.7,0.1-4,0c-2.8-0.1-4.3,1-4.2,4c0.1,1.7,0,3.4,0,5.2c0,8.3,0,8.3,8.4,8.3
			c60.7,0,121.5,0,182.2,0C314.9,315.9,316.9,315.9,319,315.9z M537.2,362.8c-0.2-4.3-2.8-6.7-6.4-8.8
			c-18.8-10.8-37.5-21.7-56.3-32.6c-10.8-6.2-10.6-6.1-16.6,4.7c-1.9,3.5-1,4.9,2,6.6c7.6,4.3,15.2,8.8,22.8,13
			c13.4,7.8,26.6,15.5,40.1,23C529.8,373,537.2,369.8,537.2,362.8z M256.9,251.8c-0.2,4.5,3.3,6.7,7,8.9
			c18.3,10.6,36.5,21.2,55,31.6c12.4,7.1,9.2,8.8,17.6-5.2c1.7-2.7,0.9-3.9-1.7-5.3c-5.6-3.1-11.2-6.4-16.9-9.7
			c-15.5-9-31-17.9-46.5-26.8C264.2,241.2,257.1,244.1,256.9,251.8z M462.8,278.5c-0.7-3.5-2.1-6.6-6-7.5c-4.6-1.1-8.2,0.3-10.6,4.6
			c-7,12.3-14,24.4-21.1,36.5c-4.5,7.8-9.1,15.4-13.3,23.3c-2.7,5.1-1.6,9.3,2.6,11.9c4.5,2.8,9.3,1.2,12.7-4.6
			c11.1-19.1,22.1-38.2,33.2-57.3C461.6,283.4,462.6,281.1,462.8,278.5z M383.2,274c0.2-3.1-0.9-5.5-3.7-7.1
			c-2.9-1.7-5.7-1.7-8.7,0.1c-2.1,1.3-3.6,3.4-4.8,5.5c-10.9,18.9-21.9,37.8-32.7,56.8c-3.4,5.8-2.5,10.9,2.1,13.4
			c4.5,2.5,9.3,0.7,12.7-5.1c10.9-18.7,21.7-37.4,32.5-56.2C382,279.1,383.4,276.8,383.2,274z M414,292c0-4.3-1.9-7-5.5-8.1
			c-4.6-1.5-8.2,0.3-10.7,4.5c-5.6,9.4-11.1,19-16.5,28.7c-2.9,5.3-1.8,10.3,2.6,12.8c4.5,2.6,9,1,12.3-4.6
			c5.4-9.1,10.6-18.4,16-27.6C413.3,295.7,414.2,293.9,414,292z"/>
	</g>
</g>
<g id="Layer_10">
	<g>
		<path fill="#1ABC9C" d="M104.6,427.1c3.1-3.8,7.2-5.1,12.1-4.9c16,0.2,32,0.1,48,0c1.8,0,3.7,0.6,6-0.8c-3.1-1.9-6-3.6-8.8-5.4
			c-12-8.2-15.7-23.6-8.7-35.7c7.3-12.6,22.6-17.5,35.5-10.5c21.7,11.9,43,24.4,64.4,37c4.5,2.7,6.5,2.2,9.1-2.4
			c9.3-16.2,28.5-21,40.8-8.9c7.3,7.3,13.8,13.4,24.5,13.5c0.9,0,1.7,0.7,2.6,1.1c7.8,4.2,7.6,4.2,12.7-3.5
			c6.3-9.8,15.5-13.9,26.9-12.6c11.2,1.5,20.1,9.7,22,21c1.1,6.1,3.7,7.3,9.3,7.3c91.9-0.2,183.9-0.1,275.8-0.2
			c5.1,0,9.4,0.9,12.7,4.9c0,14.5,0,29,0,43.4c-2.7,4.4-6.9,5.7-11.7,5.7c-43.4,0-86.8,0-130.2,0c-2,0-4.3-0.3-6.2-1
			c-4-1.3-6.3-4.5-6.2-8.7c0.1-4.5,2.8-7.5,7.1-8.5c2.1-0.6,4.5-0.3,6.9-0.3c38.4,0,76.9,0,115.3-0.1c2.5,0,6.2,1.5,7-1.9
			c1-4.4,1.1-9.1-0.3-13.5c-0.3-1.1-1.9-1.2-3-1.2c-1.7-0.1-3.4-0.1-5.2-0.1c-90,0-180.1,0-270.1,0c-2.1,0-4.5-0.7-7.5,1.1
			c13.6,6.4,24.1,16.9,40.7,16c25.3-1.3,50.6-0.3,76-0.3c2.1,0,4.3-0.1,6.3,0.2c4.6,0.9,7.4,3.9,7.6,8.7c0.2,4.5-2.2,7.6-6.6,8.9
			c-2.5,0.7-5.3,0.8-7.9,0.9c-18.1,0.1-36.1,0-56,0c3.6,2.2,5.7,3.5,7.9,4.9c13.4,8.5,17.5,24.2,9.9,37.2
			c-7.5,12.8-22.9,17.1-36.8,9.3c-21.5-12-42.7-24.3-63.8-36.8c-3.9-2.4-5.5-1.9-7.8,2.1c-7.1,12.7-18.3,18.1-30.8,15.2
			c-7.6-1.7-13.6-6.1-17.2-13c-1.6-2.9-3.4-4-6.7-4c-5.8,0-11.5-1.6-16.1-5.2c-4.4-3.5-6.3-1.9-8.5,2.4c-4.7,9.3-12.6,14.6-23,15.5
			c-13.6,1.1-25.6-8-27.9-21.7c-0.8-5.1-2.8-6.1-7.4-6.1c-33.2,0.1-66.2,0.1-99.4,0.1c-5.3,0-10.3-0.6-13.4-5.7
			C104.6,456.1,104.6,441.6,104.6,427.1z M231.8,456c-1.5-0.6-2.2-0.8-2.8-1.2c-13.9-9.4-28.3-17-46.1-13.9c-1.7,0.3-3.4,0-5.2,0
			c-16.5,0-33.2,0.1-49.7-0.1c-4.4,0-6.5,1.3-6,6c0.1,1.3,0.2,2.7,0,3.9c-0.8,5.5,1.6,7.1,7,7.1c31.8-0.2,63.5-0.1,95.3-0.1
			C226.3,457.7,228.2,458.1,231.8,456z M176.5,385.2c-2.9-0.1-5.2,1.1-6.7,3.5c-3.3,4.7-1.8,9.6,4.4,13.2
			c19.1,11.1,38.2,22.1,57.3,33.2c9.8,5.6,9.6,5.5,15.3-3.8c2.5-3.9,2.2-6-2-8.3c-20.6-11.6-40.9-23.5-61.4-35.3
			C181.3,386.2,179.1,385,176.5,385.2z M448.4,504c0.1-3.9-2.7-6-6-7.9c-19.1-11-38.2-22-57.2-33.2c-11.6-6.7-8.5-6-14.9,3.8
			c-2.8,4.4-1.8,6.4,2.5,8.8c16.4,9.2,32.6,18.8,48.9,28.1c4.6,2.7,9.1,5.6,13.8,7.9C442.4,514.9,448.5,511.3,448.4,504z
			 M331.2,490.7c3.5,0,5.7-2.8,7.5-6.1c6.7-11.7,13.5-23.4,20.2-35.1c4.6-8.1,9.3-16.2,13.8-24.3c1.9-3.4,1.9-7-0.9-10.1
			c-2.5-2.8-5.6-3.1-8.9-2.2c-2.9,0.8-4.5,3.4-6,5.8c-6.2,10.7-12.4,21.5-18.5,32.1c-5.1,8.8-10.2,17.4-15.1,26.2
			C319.7,484,323.2,490.6,331.2,490.7z M251.3,485.9c3.9-0.4,6.5-2.9,8.4-6.2c3.9-6.7,7.8-13.5,11.7-20.2
			c7.2-12.6,14.5-25.1,21.6-37.7c3.4-6,2-11.7-3.1-13.4c-4.9-1.7-8.9,0.1-11.5,4.7c-7.4,13-15.1,26.1-22.6,39.1
			c-3.8,6.6-7.8,13.2-11.4,19.9C240.8,478.9,244.4,486,251.3,485.9z M325.9,434.4c-0.4-4.5-2.4-7.5-6.1-8.8
			c-4.5-1.5-7.9,0.8-10.1,4.4c-5.6,9.2-11,18.5-16.3,28c-3.4,6-2.6,10.8,1.9,13.5c4.4,2.7,9.3,1,12.7-4.8
			c5.5-9.3,10.9-18.7,16.2-28.1C325,437.2,325.5,435.5,325.9,434.4z"/>
		<path fill="#1ABC9C" d="M689.6,189.5c-3.4,3.9-7.6,5.1-12.8,4.9c-16.3-0.2-32.6-0.1-50.2-0.1c2.8,1.8,4.4,2.7,5.8,3.8
			c9.2,6.4,13.9,17.2,11.4,27.9c-2.6,11-8.8,19-20.3,21.5c-7.8,1.6-14.7-1-21.2-4.8c-20.3-11.6-40.7-23.3-60.8-35.2
			c-4.6-2.7-6.7-2.5-9.6,2.5c-11.4,19.7-36.2,19.9-47.8,0.6c-1.6-2.7-3.4-3.7-6.4-3.6c-6.1,0.2-11.8-1.5-16.5-5.3
			c-3.6-2.8-5.4-2.1-7.3,1.7c-4.5,9.1-11.7,14.8-22,16.2c-13.5,1.7-25.3-5.5-28.8-18.7c-1.5-5.4-3.8-6.7-9-6.7
			c-91.9,0.1-184,0.1-275.9,0.2c-5.2,0-9.8-0.8-13.4-4.9c0-14.5,0-29,0-43.4c2.4-4.4,6.3-5.8,11-5.8c32.6,0,65.1-0.1,97.7,0
			c7,0,11.4,3.9,11.4,9.6c0,5.5-4.4,9.1-11.6,9.1c-28,0-56,0.1-84-0.1c-5.5,0-7.8,1.6-7,7.1c0.2,1.3,0.1,2.7,0,4
			c-0.6,4.6,1.7,6.2,6,5.7c0.9-0.1,1.9,0,2.8,0c89.7,0,179.4,0,269.1-0.1c2.8,0,7.2,1.7,8-2c0.8-3.4-3.9-3.7-6.2-5.5
			c-10.2-8-21.9-9.7-34.7-9.4c-36,0.6-71.9,0.2-107.9,0.2c-1.9,0-3.8,0.1-5.7-0.1c-5.6-0.4-9.3-3.8-9.6-8.8c-0.3-5.1,3.3-9,9.1-9.8
			c2-0.2,4.2-0.2,6.3-0.2c28.8,0,57.5,0,86.2,0c2,0,4,0.6,6.5-0.8c-4-2.4-7.9-4.5-11.5-6.7c-12.1-7.6-16.7-22.1-11-34.2
			c6.2-13,20.2-19.1,34.1-13.7c12.8,5.1,23.9,13.3,36,19.9c10.7,6,21.1,12,31.6,18.3c3.9,2.4,6,1.9,8.4-2.2
			c8.7-14.6,21.4-19,35.9-12.9c5.5,2.4,9.6,6.3,12.3,11.5c1.5,2.7,3.1,3.9,6.2,3.8c6.7-0.4,12.8,1.8,18,6c2.5,2,3.8,1.5,5.4-1
			c1.7-2.8,3.4-5.5,5.4-8.1c7.5-9.2,17.8-12,29.2-8.3c10,3.3,17.5,12.4,18,23.4c0.2,5.1,2.7,5.4,6.5,5.4c33.3-0.1,66.7,0,99.9,0
			c5.4,0,10.3,0.6,13.3,5.8C689.6,160.5,689.6,175,689.6,189.5z M566.6,159.8c7.3,4.3,14.4,8.1,21.2,12.4c4,2.6,8.2,3.5,12.9,3.5
			c20.7-0.1,41.5-0.1,62.2-0.1c9.3,0,9.3,0,9.2-9.3c0-7.4,0-7.4-7.6-7.4c-30.8,0-61.6,0-92.4,0C570.5,158.9,568.7,158.4,566.6,159.8
			z M355.1,100.9c-5.2-0.1-8.9,3.4-9.2,7.8c-0.3,4.9,2.6,7.5,6.5,9.8c18.7,10.7,37.2,21.6,56,32.1c12.4,7,9,7.5,16.4-4.5
			c2-3.1,1.3-5.1-1.8-6.9c-21-12-41.9-24.1-62.9-36.1C358.3,102.1,356.3,101.4,355.1,100.9z M617.7,229.1c0.7-0.2,1.8-0.3,2.8-0.8
			c3.1-1.5,5.5-3.7,5.6-7.3c0.1-4.3-2.6-6.9-6.1-8.9c-19-10.9-37.8-21.9-56.8-32.7c-12.6-7.1-8.5-7.6-16.3,4.6
			c-1.9,3-1.7,4.8,1.7,6.7c21,11.9,41.8,24.1,62.7,36.1C613.2,227.8,615.1,228.8,617.7,229.1z M472.3,131.7c0-4-2.1-6.4-5.4-7.6
			c-4-1.5-7.6-0.2-10,3.4c-3.3,4.9-6.1,10.1-9,15.2c-8.7,14.9-17.4,29.9-26,45c-3.7,6.6-1,13.4,5.5,14c4.7,0.6,7.3-2.4,9.4-6
			c11-19.1,22-38.2,33-57.2C471.4,136.2,472.4,134,472.3,131.7z M507.9,206.4c3.7,0.1,6-1.9,7.8-4.8c3-5.3,6.1-10.5,9.2-15.7
			c7.8-13.5,15.6-27,23.4-40.5c0.9-1.5,1.8-2.9,2.4-4.5c1.6-4.6,1.1-8.7-3.5-11.4c-3.8-2.2-8.4-1-11.2,3.5
			c-4.7,7.6-9.1,15.4-13.5,23.2c-7.2,12.4-14.4,24.6-21.4,37.1C497.1,199.6,500.8,206.4,507.9,206.4z M477.7,188.8
			c1.9-0.3,4.5-1,5.8-3.3c6.5-10.9,13-21.8,19.1-32.9c2-3.8,0.6-8.1-3.7-10.1c-3.9-1.9-8.3-1.7-10.7,2.1
			c-6.5,10.7-12.8,21.5-18.8,32.5C466.6,182.4,471.1,188.7,477.7,188.8z"/>
		<path fill="#1ABC9C" d="M689.6,328.9c-2.9,4.4-7.1,5.1-11.9,5.1c-45.6-0.1-91.4,0-137,0c-2,0-4.2,0-7.8,0c3.9,2.4,6.6,3.9,9.2,5.5
			c12.8,8,17.2,23.5,10.2,36.2c-6.9,12.5-23.6,17.6-36.6,10.5c-19.1-10.6-38-21.8-57-32.7c-0.3-0.2-0.7-0.4-1-0.6
			c-3.5-1.9-7.1-5.3-10.6-5.2c-3.7,0-4.4,5.6-6.6,8.5c-12.1,15.5-35.4,14.2-45.2-2.9c-1.6-2.8-3-4-6.5-3.9c-6.4,0.1-12.5-2-17.5-6
			c-2.9-2.2-4.4-1.8-6,1.3c-3.8,8.1-9.8,13.9-18.7,16.4c-15.1,4.3-30.1-4.3-33-19.7c-1.2-6.3-3.7-7.6-9.7-7.6
			c-62.5,0.2-124.9,0.1-187.4,0.2c-4.8,0-9.1-0.7-11.9-5.1c0-14.5,0-29,0-43.4c2.8-4.5,7.1-5.1,11.9-5.1c45.5,0.1,91,0.1,136.6,0
			c2,0,4.2,0.6,6.6-0.7c-3-1.8-5.7-3.4-8.4-5.1c-13.2-8.5-17-23.6-9.3-36.9c7.2-12.4,23.2-16.9,36.3-9.4
			c21.5,12,42.6,24.4,63.8,36.9c4,2.4,6.2,2.2,8.3-2.1c10.3-21.7,40-20.1,48.9-0.3c1,2.1,2.4,2.5,4.5,2.5c7.1-0.2,13.6,1.5,19.1,6.2
			c2.2,2,3.7,1.9,5.3-0.9c2.1-4,4.4-8,7.9-11.1c8-7.2,17.1-9.1,27.1-5.6c10,3.5,16.3,10.8,17.5,21.4c0.6,5.1,2.6,5.7,6.9,5.7
			c30.8-0.1,61.7-0.1,92.5-0.1c2.1,0,4.3-0.1,6.3,0.2c4.8,0.7,7.5,3.7,7.6,8.5c0.1,4.8-2.6,7.9-7.2,9c-2,0.4-4.2,0.2-6.3,0.2
			c-33.2,0-66.3,0-99.4,0c-2,0-4,0-7.2,0c3.7,4.5,8.1,5.6,11.4,8.1c10.6,8,22.3,9.8,35.3,9.6c48-0.6,96-0.2,144-0.2
			c7.5,0,7.5,0,7.5-7.5c0-1.6-0.1-3,0-4.6c0.4-4.4-1.6-5.5-5.7-5.5c-13.2,0.2-26.3,0.1-39.5,0.1c-1.7,0-3.5,0.1-5.2-0.1
			c-5.1-0.4-8.8-4.3-8.8-8.9c0-4.8,3.8-8.9,9.2-8.9c12.4-0.2,24.7-0.1,37.1-0.1c6.5,0,12.9,0.1,19.4,0c4.6-0.1,8.2,1.2,10.8,5.1
			C689.6,299.9,689.6,314.4,689.6,328.9z M319,315.9c0.2-0.6,0.4-1.2,0.7-1.8c-7-4-14.2-8-21-12.3c-4.3-2.6-8.5-3.6-13.5-3.6
			c-51.6,0.1-103.2,0.1-154.8,0.1c-1.3,0-2.7,0.1-4,0c-2.8-0.1-4.3,1-4.2,4c0.1,1.7,0,3.4,0,5.2c0,8.3,0,8.3,8.4,8.3
			c60.7,0,121.5,0,182.2,0C314.9,315.9,316.9,315.9,319,315.9z M537.2,362.8c-0.2-4.3-2.8-6.7-6.4-8.8
			c-18.8-10.8-37.5-21.7-56.3-32.6c-10.8-6.2-10.6-6.1-16.6,4.7c-1.9,3.5-1,4.9,2,6.6c7.6,4.3,15.2,8.8,22.8,13
			c13.4,7.8,26.6,15.5,40.1,23C529.8,373,537.2,369.8,537.2,362.8z M256.9,251.8c-0.2,4.5,3.3,6.7,7,8.9
			c18.3,10.6,36.5,21.2,55,31.6c12.4,7.1,9.2,8.8,17.6-5.2c1.7-2.7,0.9-3.9-1.7-5.3c-5.6-3.1-11.2-6.4-16.9-9.7
			c-15.5-9-31-17.9-46.5-26.8C264.2,241.2,257.1,244.1,256.9,251.8z M462.8,278.5c-0.7-3.5-2.1-6.6-6-7.5c-4.6-1.1-8.2,0.3-10.6,4.6
			c-7,12.3-14,24.4-21.1,36.5c-4.5,7.8-9.1,15.4-13.3,23.3c-2.7,5.1-1.6,9.3,2.6,11.9c4.5,2.8,9.3,1.2,12.7-4.6
			c11.1-19.1,22.1-38.2,33.2-57.3C461.6,283.4,462.6,281.1,462.8,278.5z M383.2,274c0.2-3.1-0.9-5.5-3.7-7.1
			c-2.9-1.7-5.7-1.7-8.7,0.1c-2.1,1.3-3.6,3.4-4.8,5.5c-10.9,18.9-21.9,37.8-32.7,56.8c-3.4,5.8-2.5,10.9,2.1,13.4
			c4.5,2.5,9.3,0.7,12.7-5.1c10.9-18.7,21.7-37.4,32.5-56.2C382,279.1,383.4,276.8,383.2,274z M414,292c0-4.3-1.9-7-5.5-8.1
			c-4.6-1.5-8.2,0.3-10.7,4.5c-5.6,9.4-11.1,19-16.5,28.7c-2.9,5.3-1.8,10.3,2.6,12.8c4.5,2.6,9,1,12.3-4.6
			c5.4-9.1,10.6-18.4,16-27.6C413.3,295.7,414.2,293.9,414,292z"/>
	</g>
</g>
<g id="Layer_9" display="none">
	
		<image display="inline" overflow="visible" enable-background="new    " width="1301" height="460" xlink:href="5875301E.jpg"  transform="matrix(1.1229 0 0 1.1229 -288.6628 650.5551)">
	</image>
	<g display="inline">
		<path fill="#FFFFFF" d="M1066.4,981.3L770.3,674.9c-1.5-1.5-3.4-2.4-5.5-2.4H247.4c-1.9,0-3.8,0.8-5.3,2.1L-82.6,981.6
			c-1.5,1.3-3.3,2.1-5.3,2.1h-90.1c-4.2,0-7.6,3.4-7.6,7.6l0,0c0,4.2,3.4,7.6,7.6,7.6h1306c4.2,0,7.6-3.4,7.6-7.6l0,0
			c0-4.2-3.4-7.6-7.6-7.6h-56.1C1069.9,983.7,1067.9,982.8,1066.4,981.3z M256.7,692.4h503.5c2,0,4,0.8,5.5,2.4l266.7,276
			c4.7,4.8,1.2,12.9-5.5,12.9H-35.4c-6.9,0-10.2-8.4-5.3-13.2l292-276C252.9,693.2,254.8,692.4,256.7,692.4z"/>
		
			<line fill="none" stroke="#FFFFFF" stroke-width="4" stroke-linecap="round" stroke-linejoin="round" stroke-miterlimit="10" x1="-273.8" y1="1019.6" x2="-248.4" y2="1040.6"/>
		
			<line fill="none" stroke="#FFFFFF" stroke-width="4" stroke-linecap="round" stroke-linejoin="round" stroke-miterlimit="10" x1="-273.8" y1="1001.6" x2="-218.4" y2="1046.5"/>
		
			<line fill="none" stroke="#FFFFFF" stroke-width="4" stroke-linecap="round" stroke-linejoin="round" stroke-miterlimit="10" x1="-253.4" y1="1001.6" x2="-198" y2="1046.5"/>
		
			<line fill="none" stroke="#FFFFFF" stroke-width="4" stroke-linecap="round" stroke-linejoin="round" stroke-miterlimit="10" x1="-231.9" y1="1001.6" x2="-176.4" y2="1046.5"/>
		
			<line fill="none" stroke="#FFFFFF" stroke-width="4" stroke-linecap="round" stroke-linejoin="round" stroke-miterlimit="10" x1="-206.8" y1="1007.5" x2="-151.4" y2="1052.5"/>
		
			<line fill="none" stroke="#FFFFFF" stroke-width="4" stroke-linecap="round" stroke-linejoin="round" stroke-miterlimit="10" x1="-184" y1="1010.7" x2="-128.6" y2="1055.6"/>
		
			<line fill="none" stroke="#FFFFFF" stroke-width="4" stroke-linecap="round" stroke-linejoin="round" stroke-miterlimit="10" x1="-166" y1="1010.7" x2="-110.6" y2="1055.6"/>
		
			<line fill="none" stroke="#FFFFFF" stroke-width="4" stroke-linecap="round" stroke-linejoin="round" stroke-miterlimit="10" x1="-141.9" y1="1013.8" x2="-86.5" y2="1058.8"/>
		
			<line fill="none" stroke="#FFFFFF" stroke-width="4" stroke-linecap="round" stroke-linejoin="round" stroke-miterlimit="10" x1="-123.1" y1="1016.1" x2="-67.7" y2="1061"/>
		
			<line fill="none" stroke="#FFFFFF" stroke-width="4" stroke-linecap="round" stroke-linejoin="round" stroke-miterlimit="10" x1="-103.1" y1="1016.1" x2="-47.7" y2="1061"/>
		
			<line fill="none" stroke="#FFFFFF" stroke-width="4" stroke-linecap="round" stroke-linejoin="round" stroke-miterlimit="10" x1="-95.5" y1="1005.2" x2="-39.9" y2="1050.1"/>
		
			<line fill="none" stroke="#FFFFFF" stroke-width="4" stroke-linecap="round" stroke-linejoin="round" stroke-miterlimit="10" x1="-79.4" y1="1005.2" x2="-23.9" y2="1050.1"/>
		
			<line fill="none" stroke="#FFFFFF" stroke-width="4" stroke-linecap="round" stroke-linejoin="round" stroke-miterlimit="10" x1="-53.4" y1="1007.5" x2="2" y2="1052.5"/>
		
			<line fill="none" stroke="#FFFFFF" stroke-width="4" stroke-linecap="round" stroke-linejoin="round" stroke-miterlimit="10" x1="-39.9" y1="1005.2" x2="15.5" y2="1050.1"/>
		
			<line fill="none" stroke="#FFFFFF" stroke-width="4" stroke-linecap="round" stroke-linejoin="round" stroke-miterlimit="10" x1="-10.4" y1="1012.2" x2="45" y2="1057.2"/>
		
			<line fill="none" stroke="#FFFFFF" stroke-width="4" stroke-linecap="round" stroke-linejoin="round" stroke-miterlimit="10" x1="2" y1="1007.5" x2="57.4" y2="1052.5"/>
		
			<line fill="none" stroke="#FFFFFF" stroke-width="4" stroke-linecap="round" stroke-linejoin="round" stroke-miterlimit="10" x1="21.6" y1="1007.5" x2="77" y2="1052.5"/>
		
			<line fill="none" stroke="#FFFFFF" stroke-width="4" stroke-linecap="round" stroke-linejoin="round" stroke-miterlimit="10" x1="40.2" y1="1005.2" x2="95.6" y2="1050.1"/>
		
			<line fill="none" stroke="#FFFFFF" stroke-width="4" stroke-linecap="round" stroke-linejoin="round" stroke-miterlimit="10" x1="54.1" y1="1001.6" x2="109.6" y2="1046.5"/>
		
			<line fill="none" stroke="#FFFFFF" stroke-width="4" stroke-linecap="round" stroke-linejoin="round" stroke-miterlimit="10" x1="79.1" y1="1005.2" x2="134.5" y2="1050.1"/>
		
			<line fill="none" stroke="#FFFFFF" stroke-width="4" stroke-linecap="round" stroke-linejoin="round" stroke-miterlimit="10" x1="97.2" y1="1005.2" x2="152.6" y2="1050.1"/>
		
			<line fill="none" stroke="#FFFFFF" stroke-width="4" stroke-linecap="round" stroke-linejoin="round" stroke-miterlimit="10" x1="117.1" y1="1005.2" x2="172.6" y2="1050.1"/>
		
			<line fill="none" stroke="#FFFFFF" stroke-width="4" stroke-linecap="round" stroke-linejoin="round" stroke-miterlimit="10" x1="134.5" y1="1003.4" x2="190" y2="1048.3"/>
		
			<line fill="none" stroke="#FFFFFF" stroke-width="4" stroke-linecap="round" stroke-linejoin="round" stroke-miterlimit="10" x1="152.6" y1="1003.4" x2="208.1" y2="1048.3"/>
		
			<line fill="none" stroke="#FFFFFF" stroke-width="4" stroke-linecap="round" stroke-linejoin="round" stroke-miterlimit="10" x1="169.2" y1="1003.4" x2="224.7" y2="1048.3"/>
		
			<line fill="none" stroke="#FFFFFF" stroke-width="4" stroke-linecap="round" stroke-linejoin="round" stroke-miterlimit="10" x1="187.8" y1="1003.4" x2="243.3" y2="1048.3"/>
		
			<line fill="none" stroke="#FFFFFF" stroke-width="4" stroke-linecap="round" stroke-linejoin="round" stroke-miterlimit="10" x1="209.7" y1="1005.2" x2="265.1" y2="1050.1"/>
		
			<line fill="none" stroke="#FFFFFF" stroke-width="4" stroke-linecap="round" stroke-linejoin="round" stroke-miterlimit="10" x1="224.7" y1="998.9" x2="280.1" y2="1043.8"/>
		
			<line fill="none" stroke="#FFFFFF" stroke-width="4" stroke-linecap="round" stroke-linejoin="round" stroke-miterlimit="10" x1="256.2" y1="1009" x2="311.6" y2="1053.9"/>
		
			<line fill="none" stroke="#FFFFFF" stroke-width="4" stroke-linecap="round" stroke-linejoin="round" stroke-miterlimit="10" x1="277.9" y1="1009" x2="333.3" y2="1053.9"/>
		
			<line fill="none" stroke="#FFFFFF" stroke-width="4" stroke-linecap="round" stroke-linejoin="round" stroke-miterlimit="10" x1="289.7" y1="1005.2" x2="345.1" y2="1050.1"/>
		
			<line fill="none" stroke="#FFFFFF" stroke-width="4" stroke-linecap="round" stroke-linejoin="round" stroke-miterlimit="10" x1="311.6" y1="1007.3" x2="367.1" y2="1052.3"/>
		
			<line fill="none" stroke="#FFFFFF" stroke-width="4" stroke-linecap="round" stroke-linejoin="round" stroke-miterlimit="10" x1="329.9" y1="1007.3" x2="385.4" y2="1052.3"/>
		
			<line fill="none" stroke="#FFFFFF" stroke-width="4" stroke-linecap="round" stroke-linejoin="round" stroke-miterlimit="10" x1="350.2" y1="1009" x2="405.7" y2="1053.9"/>
		
			<line fill="none" stroke="#FFFFFF" stroke-width="4" stroke-linecap="round" stroke-linejoin="round" stroke-miterlimit="10" x1="370.5" y1="1009" x2="426.1" y2="1053.9"/>
		
			<line fill="none" stroke="#FFFFFF" stroke-width="4" stroke-linecap="round" stroke-linejoin="round" stroke-miterlimit="10" x1="381.2" y1="1003.4" x2="436.6" y2="1048.3"/>
		
			<line fill="none" stroke="#FFFFFF" stroke-width="4" stroke-linecap="round" stroke-linejoin="round" stroke-miterlimit="10" x1="395.8" y1="998.9" x2="451.4" y2="1043.8"/>
		
			<line fill="none" stroke="#FFFFFF" stroke-width="4" stroke-linecap="round" stroke-linejoin="round" stroke-miterlimit="10" x1="427.8" y1="1010.6" x2="483.2" y2="1055.5"/>
		
			<line fill="none" stroke="#FFFFFF" stroke-width="4" stroke-linecap="round" stroke-linejoin="round" stroke-miterlimit="10" x1="441.8" y1="1007.3" x2="497.2" y2="1052.3"/>
		
			<line fill="none" stroke="#FFFFFF" stroke-width="4" stroke-linecap="round" stroke-linejoin="round" stroke-miterlimit="10" x1="455.5" y1="1001.6" x2="510.9" y2="1046.5"/>
		
			<line fill="none" stroke="#FFFFFF" stroke-width="4" stroke-linecap="round" stroke-linejoin="round" stroke-miterlimit="10" x1="477" y1="1001.6" x2="532.5" y2="1046.5"/>
		
			<line fill="none" stroke="#FFFFFF" stroke-width="4" stroke-linecap="round" stroke-linejoin="round" stroke-miterlimit="10" x1="502" y1="1007.5" x2="557.5" y2="1052.5"/>
		
			<line fill="none" stroke="#FFFFFF" stroke-width="4" stroke-linecap="round" stroke-linejoin="round" stroke-miterlimit="10" x1="524.9" y1="1010.7" x2="580.3" y2="1055.6"/>
		
			<line fill="none" stroke="#FFFFFF" stroke-width="4" stroke-linecap="round" stroke-linejoin="round" stroke-miterlimit="10" x1="542.8" y1="1010.7" x2="598.3" y2="1055.6"/>
		
			<line fill="none" stroke="#FFFFFF" stroke-width="4" stroke-linecap="round" stroke-linejoin="round" stroke-miterlimit="10" x1="567" y1="1013.8" x2="622.4" y2="1058.8"/>
		
			<line fill="none" stroke="#FFFFFF" stroke-width="4" stroke-linecap="round" stroke-linejoin="round" stroke-miterlimit="10" x1="585.8" y1="1016.1" x2="641.2" y2="1061"/>
		
			<line fill="none" stroke="#FFFFFF" stroke-width="4" stroke-linecap="round" stroke-linejoin="round" stroke-miterlimit="10" x1="605.8" y1="1016.1" x2="661.2" y2="1061"/>
		
			<line fill="none" stroke="#FFFFFF" stroke-width="4" stroke-linecap="round" stroke-linejoin="round" stroke-miterlimit="10" x1="613.4" y1="1005.2" x2="669" y2="1050.1"/>
		
			<line fill="none" stroke="#FFFFFF" stroke-width="4" stroke-linecap="round" stroke-linejoin="round" stroke-miterlimit="10" x1="629.5" y1="1005.2" x2="685" y2="1050.1"/>
		
			<line fill="none" stroke="#FFFFFF" stroke-width="4" stroke-linecap="round" stroke-linejoin="round" stroke-miterlimit="10" x1="655.5" y1="1007.5" x2="710.9" y2="1052.5"/>
		
			<line fill="none" stroke="#FFFFFF" stroke-width="4" stroke-linecap="round" stroke-linejoin="round" stroke-miterlimit="10" x1="669" y1="1005.2" x2="724.4" y2="1050.1"/>
		
			<line fill="none" stroke="#FFFFFF" stroke-width="4" stroke-linecap="round" stroke-linejoin="round" stroke-miterlimit="10" x1="698.5" y1="1012.2" x2="753.9" y2="1057.2"/>
		
			<line fill="none" stroke="#FFFFFF" stroke-width="4" stroke-linecap="round" stroke-linejoin="round" stroke-miterlimit="10" x1="710.9" y1="1007.5" x2="766.3" y2="1052.5"/>
		
			<line fill="none" stroke="#FFFFFF" stroke-width="4" stroke-linecap="round" stroke-linejoin="round" stroke-miterlimit="10" x1="730.4" y1="1007.5" x2="785.8" y2="1052.5"/>
		
			<line fill="none" stroke="#FFFFFF" stroke-width="4" stroke-linecap="round" stroke-linejoin="round" stroke-miterlimit="10" x1="749.1" y1="1005.2" x2="804.5" y2="1050.1"/>
		
			<line fill="none" stroke="#FFFFFF" stroke-width="4" stroke-linecap="round" stroke-linejoin="round" stroke-miterlimit="10" x1="763" y1="1001.6" x2="818.4" y2="1046.5"/>
		
			<line fill="none" stroke="#FFFFFF" stroke-width="4" stroke-linecap="round" stroke-linejoin="round" stroke-miterlimit="10" x1="788" y1="1005.2" x2="843.4" y2="1050.1"/>
		
			<line fill="none" stroke="#FFFFFF" stroke-width="4" stroke-linecap="round" stroke-linejoin="round" stroke-miterlimit="10" x1="806.1" y1="1005.2" x2="861.5" y2="1050.1"/>
		
			<line fill="none" stroke="#FFFFFF" stroke-width="4" stroke-linecap="round" stroke-linejoin="round" stroke-miterlimit="10" x1="826" y1="1005.2" x2="881.5" y2="1050.1"/>
		
			<line fill="none" stroke="#FFFFFF" stroke-width="4" stroke-linecap="round" stroke-linejoin="round" stroke-miterlimit="10" x1="843.4" y1="1003.4" x2="898.9" y2="1048.3"/>
		
			<line fill="none" stroke="#FFFFFF" stroke-width="4" stroke-linecap="round" stroke-linejoin="round" stroke-miterlimit="10" x1="861.5" y1="1003.4" x2="917" y2="1048.3"/>
		
			<line fill="none" stroke="#FFFFFF" stroke-width="4" stroke-linecap="round" stroke-linejoin="round" stroke-miterlimit="10" x1="878.1" y1="1003.4" x2="933.5" y2="1048.3"/>
		
			<line fill="none" stroke="#FFFFFF" stroke-width="4" stroke-linecap="round" stroke-linejoin="round" stroke-miterlimit="10" x1="896.7" y1="1003.4" x2="952.2" y2="1048.3"/>
		
			<line fill="none" stroke="#FFFFFF" stroke-width="4" stroke-linecap="round" stroke-linejoin="round" stroke-miterlimit="10" x1="918.6" y1="1005.2" x2="974" y2="1050.1"/>
		
			<line fill="none" stroke="#FFFFFF" stroke-width="4" stroke-linecap="round" stroke-linejoin="round" stroke-miterlimit="10" x1="933.5" y1="998.9" x2="988.9" y2="1043.8"/>
		
			<line fill="none" stroke="#FFFFFF" stroke-width="4" stroke-linecap="round" stroke-linejoin="round" stroke-miterlimit="10" x1="965.1" y1="1009" x2="1020.5" y2="1053.9"/>
		
			<line fill="none" stroke="#FFFFFF" stroke-width="4" stroke-linecap="round" stroke-linejoin="round" stroke-miterlimit="10" x1="986.8" y1="1009" x2="1042.2" y2="1053.9"/>
		
			<line fill="none" stroke="#FFFFFF" stroke-width="4" stroke-linecap="round" stroke-linejoin="round" stroke-miterlimit="10" x1="998.6" y1="1005.2" x2="1054.1" y2="1050.1"/>
		
			<line fill="none" stroke="#FFFFFF" stroke-width="4" stroke-linecap="round" stroke-linejoin="round" stroke-miterlimit="10" x1="1020.5" y1="1007.3" x2="1075.9" y2="1052.3"/>
		
			<line fill="none" stroke="#FFFFFF" stroke-width="4" stroke-linecap="round" stroke-linejoin="round" stroke-miterlimit="10" x1="1038.7" y1="1007.3" x2="1094.3" y2="1052.3"/>
		
			<line fill="none" stroke="#FFFFFF" stroke-width="4" stroke-linecap="round" stroke-linejoin="round" stroke-miterlimit="10" x1="1059.1" y1="1009" x2="1114.6" y2="1053.9"/>
		
			<line fill="none" stroke="#FFFFFF" stroke-width="4" stroke-linecap="round" stroke-linejoin="round" stroke-miterlimit="10" x1="1079.4" y1="1009" x2="1139.8" y2="1057.9"/>
		
			<line fill="none" stroke="#FFFFFF" stroke-width="4" stroke-linecap="round" stroke-linejoin="round" stroke-miterlimit="10" x1="1090.1" y1="1003.4" x2="1153.6" y2="1053.9"/>
		
			<line fill="none" stroke="#FFFFFF" stroke-width="4" stroke-linecap="round" stroke-linejoin="round" stroke-miterlimit="10" x1="1107.9" y1="998.9" x2="1163.3" y2="1043.8"/>
	</g>
</g>
</svg>
