<?xml version="1.0" encoding="utf-8"?>
<!-- Generator: Adobe Illustrator 18.1.1, SVG Export Plug-In . SVG Version: 6.00 Build 0)  -->
<svg version="1.1" xmlns="http://www.w3.org/2000/svg" xmlns:xlink="http://www.w3.org/1999/xlink" x="0px" y="0px"
	 viewBox="0 0 544.5 544.5" enable-background="new 0 0 544.5 544.5" xml:space="preserve">
<g id="siembra" display="none">
	<g display="inline">
		<path fill="#1ABC9C" d="M12.4,488.6c0-70.6,0-141.2,0-211.8c0.6-0.4,1.1-0.7,1.7-1.1c24.8-19.3,51-18.3,74.1,2.8
			c1.5,1.4,3,2.7,4.6,4c18.9,14.4,47.7,14.7,68.9-5.2c22.4-21.1,52.3-20.3,74.6,0.6c4.4,4.1,9.1,7.6,14.5,10.2
			c6.2,2.9,6.5,2.7,6.5-3.9c0-39.7,0-79.4,0-119.1c0-7-0.5-7.3-7.3-8c-21.4-2.2-41.8-7.7-59.8-19.7c-40.4-27-54.6-66.9-55-113.4
			c0-3.2,1.9-3.9,4.6-4c9.5-0.3,19,0.7,28.4,2.2c53.6,8.5,90,42.8,101.5,95.7c1.3,5.8,2.1,11.7,3.2,17.6c1.1-3.1,1.5-6.1,2-9.1
			c4.2-26.2,13.6-50.1,32.7-69.2C334.8,30,368.6,20,406.2,19.9c3.6,0,4.6,1.6,4.7,5c0.3,12.8-1.3,25.4-4.3,37.8
			c-8.9,36.1-28.1,64.4-62.2,81.1c-15.6,7.6-32.1,11.8-49.3,13.3c-4.6,0.4-6.4,2.1-6.4,6.9c0.2,40.4,0.1,80.8,0.1,121.2
			c0,5.2,0.5,5.5,5.1,3.5c6.8-2.9,12.4-7.6,17.8-12.5c13-11.9,28.4-16,45.7-13c11.7,2,20.9,8.3,29.4,16.1c13,12,28.5,15.9,45.8,12.6
			c10.7-2,19.3-7.7,27.2-15c13.4-12.6,29.4-16.9,47.5-13.5c10.2,1.9,18.4,7.4,26.4,13.6c0,70.6,0,141.2,0,211.8
			c-2.4,0.1-4.7,0.4-7.1,0.4c-169,0-338.1,0-507.1,0C17.1,489,14.7,488.7,12.4,488.6z M208.1,378.4c0.1,23.9,12.5,44.3,34.3,53.7
			c19,8.2,38.6,8.6,58,1.2c20.7-7.9,32.6-23.3,36.5-45.2c3.2-17.8-1.8-33.5-11.3-48.2c-9.1-14.1-20.7-26-33.2-36.9
			c-2.3-2-4.9-3.7-4.7-7.4c0.1-2.1-1.2-3.1-3.3-2.6c-7.7,1.7-15.5,1.7-23.2,0c-1.9-0.4-3.2,0.5-3.1,2.3c0.3,3.9-2.4,5.7-4.8,7.8
			c-12.5,10.8-24,22.5-32.9,36.5C213.3,351,207.8,362.9,208.1,378.4z"/>
		<path fill="#1ABC9C" d="M272.6,408.9c-3.6-0.4-7.7-0.4-11.7-1.2c-22-4.8-27.4-28.2-21.2-42.2c3.2-7.2,7.6-13.6,12.7-19.6
			c5.4-6.4,11.1-12.4,17.3-17.9c2.4-2.1,4.1-2.2,6.5-0.1c9.6,8.7,18.4,18,25.5,28.9c7.8,11.9,9.7,24.3,2.7,37
			C297.6,405.9,285.8,408.6,272.6,408.9z"/>
	</g>
	<path display="inline" fill="none" d="M1305.7,340.5c-0.9-0.5-1.2-1.7-0.6-2.6l2.2-3.5c0.5-0.9,1.7-1.1,2.6-0.6l58.7,34.9
		c0.9,0.5,1.2,1.7,0.6,2.6l-2.2,3.5c-0.6,0.9-1.7,1.2-2.6,0.6L1305.7,340.5z"/>
	<path display="inline" fill="none" d="M1376.5,274.5c-0.9-0.6-1.2-1.8-0.7-2.8l2.3-3.8c0.6-0.9,1.8-1.2,2.8-0.7l61.4,37.5
		c0.9,0.6,1.2,1.8,0.7,2.8l-2.3,3.8c-0.6,0.9-1.8,1.2-2.8,0.7L1376.5,274.5z"/>
	<path display="inline" fill="none" d="M1454.3,305.2v185.9h-552l122-99.3l219.3-38.7l27.1-32.8l21,12.3l-1.8,2.9
		c-0.5,0.9-0.3,2,0.6,2.6l77.8,46.3c0.9,0.5,2.1,0.3,2.6-0.6l9.2-14.7c0.5-0.9,0.3-2-0.6-2.6l-77.8-46.3c-0.9-0.5-2.1-0.3-2.6,0.6
		l-5.4,8.7l-20.6-12l56.3-68.3l32.4,16.9l-1.9,3.1c-0.6,0.9-0.3,2.2,0.7,2.8l81.4,49.7c0.9,0.6,2.2,0.3,2.7-0.7L1454.3,305.2z"/>
	<polygon display="inline" fill="none" points="1261.2,314.8 1238.3,341.8 1030.3,381.8 1098.3,326.4 1190.3,326.4 1202.9,280.7 	
		"/>
	<polygon display="inline" fill="none" points="1320.9,244.7 1263.7,311.9 1203.9,277 1226.5,195.5 	"/>
	<polygon display="inline" fill="none" points="1378.3,78.4 1344.9,216.4 1323.5,241.6 1227.6,191.5 1241.6,141.1 	"/>
	<path display="inline" fill="none" d="M1454.3,47.8v255c-0.2-0.2-0.3-0.4-0.6-0.5l-81.4-49.7c-0.9-0.6-2.2-0.3-2.7,0.7l-5.7,9.3
		L1332,246l21.6-26.2l37.3-148.7L1454.3,47.8z"/>
	<path display="inline" fill="none" d="M1443,307.5l-2.3,3.8c-0.6,0.9-1.8,1.2-2.8,0.7l-61.4-37.5c-0.9-0.6-1.2-1.8-0.7-2.8l2.3-3.8
		c0.6-0.9,1.8-1.2,2.8-0.7l61.4,37.5C1443.3,305.4,1443.6,306.6,1443,307.5z"/>
	<path display="inline" fill="none" d="M1369.3,371.3l-2.2,3.5c-0.6,0.9-1.7,1.2-2.6,0.6l-58.7-34.9c-0.9-0.5-1.2-1.7-0.6-2.6
		l2.2-3.5c0.5-0.9,1.7-1.1,2.6-0.6l58.7,34.9C1369.5,369.2,1369.8,370.4,1369.3,371.3z M1368.6,368.7l-58.7-34.9
		c-0.9-0.5-2.1-0.3-2.6,0.6l-2.2,3.5c-0.6,0.9-0.3,2,0.6,2.6l58.7,34.9c0.9,0.5,2.1,0.3,2.6-0.6l2.2-3.5
		C1369.8,370.4,1369.5,369.2,1368.6,368.7z"/>
</g>
<g id="talud" display="none">
	<path display="inline" fill="#1ABC9C" d="M524.1,83.9l-200.9,94.9l-8.2,29.4c-0.3-0.2-0.7-0.3-1-0.3l-7.2-1.4
		c-2.2-0.4-4.4,1-4.8,3.2l-1.6,8.1l-3.1-1.5c-0.3-0.1-0.5-0.2-0.8-0.2c-0.7,0-1.3,0.4-1.6,1c-0.4,0.9-0.1,1.9,0.8,2.4l4,1.9
		l-2.8,14.3c-0.4,2.2,1,4.4,3.2,4.8l5.6,1.1l-11,39.2l-5.2-1.3c-2.2-0.6-4.4,0.8-5,3l-2.7,10.7l-5.1-2.4c-0.3-0.1-0.5-0.2-0.8-0.2
		c-0.7,0-1.3,0.4-1.6,1c-0.4,0.9,0,1.9,0.8,2.4l5.7,2.7l-3,11.5c-0.6,2.2,0.8,4.4,3,5l4.4,1.1l-6.1,21.8H198L12.4,493.2v9.3h519.9
		V83.9H524.1z M336.3,184.3L451,137l-30.8,111.4l-13.8,21.5l-82-42.3L336.3,184.3z M464.3,413.9l-67-36.5l4.8-10.5l-52.1-29.8
		l-22.1,31.3l-165.1,25.2l40.1-37.2l88.3-4.3l10.3-43.2l48.4,28.2l4.3-5l-50.7-28.7l19.4-69.6l79.6,41.5L354.2,332l51.9,28.4
		l5.3-7.5l66.5,40L464.3,413.9z M506.7,343.7l-61-32.7l4.3-9.4l-47.5-26.8l3.9-4.5l47.2,25.4l4.8-6.7l60.5,35.8L506.7,343.7z"/>
	<path display="inline" fill="#1ABC9C" d="M509.5,328.3l-48.7-29.3c-0.8-0.5-1.9-0.2-2.4,0.6l-2,3.4c-0.5,0.8-0.2,1.9,0.6,2.4
		l48.7,29.3c0.8,0.5,1.9,0.2,2.4-0.6l2-3.3C510.6,329.9,510.3,328.8,509.5,328.3z"/>
	<path display="inline" fill="#1ABC9C" d="M467.8,400.5l-1.9,3.1c-0.5,0.8-1.5,1-2.3,0.5l-51.7-30.8c-0.8-0.5-1-1.5-0.5-2.3l1.9-3.1
		c0.5-0.8,1.5-1,2.3-0.5l51.7,30.8C468,398.7,468.3,399.7,467.8,400.5z"/>
</g>
<g id="alianza">
	<g>
		<path fill="#1ABC9C" d="M224.2,404.7c-4.5-0.3-9,1.3-12.6,4.6c-3.5,3.2-5.1,2.1-6.4-1.8c-1.1-3.3-3.2-6.1-5.8-8.4
			c-10.3-9.2-24.1-8.2-32.6,2.7c-4.2,5.3-7.9,10.9-11.7,16.5c-2,2.9-3.6,3-5.8,0.2c-10.9-13.7-21.8-27.4-32.8-40.9
			c-2.5-3-1.1-5.3,0.4-7.9c14.2-24.6,28.4-49.2,42.6-73.8c3.9-6.8,7.9-13.5,11.7-20.4c1.7-3,3.4-4.1,7-2.8
			c15.7,5.8,31.5,11.3,47.3,16.9c4,1.4,4.5,3,1.3,5.9c-6.4,6-12.6,12.1-18.9,18.2c-1.8,1.7-3.1,3.4-3.2,6.1
			c-0.7,15.8-1.7,31.6-2.1,47.4c-0.3,12.6,7.7,18.5,20,15.6c11.1-2.6,19.5-8.7,24.8-18.8c3.4-6.4,6.6-13,9.8-19.5
			c1.3-2.8,3.2-4.7,6-6c6.3-2.8,12.5-5.9,19.3-7.6c7.6-1.9,14.8-1.3,21.6,2.7c35.6,20.6,71.2,41.2,106.8,61.9
			c10.6,6.2,12.8,17.5,5.5,26.9c-5.6,7.2-14.2,9-23,4.1c-10.3-5.8-20.5-11.9-30.7-17.8c-1.4-0.8-2.9-1.6-4.4-2.2
			c-0.9-0.4-1.8-0.1-2.3,0.8c-0.5,0.9-0.4,1.9,0.3,2.5c1.1,0.9,2.3,1.7,3.6,2.5c13.5,7.9,27.1,15.7,40.5,23.7
			c8.7,5.2,11.3,13.9,7.3,22.5c-4.7,10.2-15.1,13.8-25.1,8.2c-14.1-8-28-16.3-42.1-24.3c-2.2-1.2-5.5-4.5-7.1-1.7
			c-2,3.5,2.8,4.2,5,5.5c10.3,6.2,20.8,12.1,31,18.3c6.5,4,9.5,10,7.9,17.7c-1.6,7.8-6.3,13-14.1,15c-5.2,1.3-9.7-0.7-14-3.2
			c-10.7-6.2-21.4-12.5-32.1-18.7c-0.9-0.6-1.9-1.1-2.8-1.6c-1.5-0.8-3.2-1.6-4.2,0.4c-0.9,1.8,0.7,2.6,2,3.3c8,4.7,16,9.4,24,14.1
			c1.4,0.8,2.9,1.6,4.2,2.5c8.7,6,10.7,15.5,5.1,24.4c-5.3,8.5-14.8,11-23.7,6c-8.1-4.5-16-9.4-24.1-13.9c-2.9-1.6-3-3.3-1.9-6.2
			c5.4-15.4-3.8-29.3-20.3-30.6c-4.5-0.3-5.4-1.2-2.9-5.4c9.3-15.8-0.6-33.7-19-34c-4.8-0.1-6.1-1.2-5.8-6.1
			C248.4,415.3,237.6,404.7,224.2,404.7z"/>
		<path fill="#1ABC9C" d="M206.9,366.2c0.6-14.4,1.2-28.7,1.8-43.1c0.1-2.7,1.1-4.9,3-6.7c10.7-10.2,20.9-20.8,31.9-30.6
			c14.4-12.8,30.6-17.4,49.5-13.1c14.7,3.3,29.7,5.7,44.8,5.9c15.2,0.2,30.1-1.8,44.7-5.9c4.1-1.1,6.3-0.4,8.4,3.3
			c17.7,31,35.6,61.9,53.5,92.7c2.3,3.9,1.8,5.9-2.4,7.9c-8.4,3.9-16.7,8.2-24.8,12.6c-3.3,1.8-5.9,1.6-9.1-0.3
			c-33-19.2-66.3-38.2-99.2-57.6c-10.6-6.2-21.1-7.5-32.3-3.2c-6.1,2.3-12,5.2-18.1,7.7c-2.8,1.2-4,3.6-5.2,6
			c-4.2,8.3-7.7,16.9-13,24.6c-4.9,7.1-11.8,10.7-19.9,12.2C211.2,380.2,206.5,375.9,206.9,366.2z"/>
		<path fill="#1ABC9C" d="M92.5,389.9c-5.4,0-8.7-1.6-11.8-3.5c-10.9-6.3-21.8-12.6-32.6-18.9c-11.7-6.8-13.6-14-6.8-25.8
			c19.4-33.6,38.8-67.2,58.2-100.7c2.6-4.4,5-8.9,7.7-13.2c4.8-7.5,12.5-9.9,20.3-5.7c13.3,7.2,26.4,14.8,39.3,22.6
			c7.7,4.6,9.3,13,4.5,21.5c-10,17.6-20.1,35-30.2,52.5c-12,20.8-24.1,41.6-36,62.4C101.8,386.6,97.3,389.6,92.5,389.9z"/>
		<path fill="#1ABC9C" d="M470.9,389.9c-6.6-0.3-11-3.7-14.3-9.4c-17.4-30.3-34.9-60.6-52.4-90.8c-4.6-7.9-9.2-15.7-13.6-23.7
			c-5-8.9-3.1-16.8,5.6-22c12.3-7.4,24.8-14.6,37.4-21.5c8.6-4.8,16.6-2.6,21.5,5.9c22.3,38.4,44.5,76.9,66.6,115.4
			c5.4,9.4,3.1,17.3-6.1,22.8c-11.7,7-23.6,13.7-35.4,20.5C477.3,388.7,474.3,389.9,470.9,389.9z"/>
		<path fill="#1ABC9C" d="M110.7,186.3c-22.4,0-44.8-0.1-67.2,0.1c-4.7,0-6.5-1.1-5.7-6.2c4-28.4,19.1-48.6,45.3-59.6
			c25.7-10.9,50.4-7,72.7,9.6c16.7,12.5,25.9,29.5,28.7,50.3c0.6,4.9-1,6-5.5,6C156.2,186.2,133.5,186.3,110.7,186.3z"/>
		<path fill="#1ABC9C" d="M450.6,186.3c-22.2,0-44.4,0-66.6,0c-7,0-7.1-0.2-6.2-7.1c4.5-35.7,35.1-63.7,70.3-64.5
			c37.3-0.8,69.1,25,75.5,61.2c1.8,10.4,1.8,10.4-8.6,10.4C493.5,186.3,472,186.3,450.6,186.3z"/>
		<path fill="#1ABC9C" d="M280.9,186.3c-22.2,0-44.4,0-66.6,0c-6.7,0-7.4-0.8-6.5-7.2c5.3-37.4,36.8-64.7,74.4-64.4
			c36.2,0.3,68.1,29.1,72.2,65.1c0.5,4.6-0.6,6.6-5.7,6.6C326,186.1,303.5,186.3,280.9,186.3z"/>
		<path fill="#1ABC9C" d="M280.9,110c-19.2,0-35-15.8-35-34.6c0.1-19.1,16.3-35.2,35.4-35c18.9,0.2,34.8,16.3,34.7,35.1
			C315.9,94.5,300,110.1,280.9,110z"/>
		<path fill="#1ABC9C" d="M416.1,75.1c0.1-19.1,15.7-34.8,34.8-34.7c19,0,34.7,15.8,34.7,34.9c0,19.5-15.8,35.2-35.1,34.9
			C431.1,109.9,416,94.5,416.1,75.1z"/>
		<path fill="#1ABC9C" d="M145.8,75.4c0,19.3-15.4,34.7-34.7,34.7c-19.4,0-34.9-15.7-34.8-35.2c0.1-19,16-34.7,35-34.5
			C130.4,40.5,145.8,56.2,145.8,75.4z"/>
		<path fill="#1ABC9C" d="M243.1,426.7c0.2,4-1.2,7.5-3.5,10.7c-11.2,15.9-22.2,31.9-33.5,47.7c-6.5,9-16.3,10.7-24.8,4.8
			c-8.8-6.1-10.6-16.1-4.3-25.3c11.3-16.3,22.7-32.5,34.2-48.6c4.8-6.7,11.8-8.6,19.3-6.1C238,412.5,243,419.2,243.1,426.7z"/>
		<path fill="#1ABC9C" d="M226.8,514.1c-7.5-0.3-13.1-3.6-16.8-9.8c-3.6-6.1-3.1-12.2,0.9-17.9c9.6-13.7,19.1-27.5,28.9-41
			c6-8.2,15.8-9.4,24.1-3.6c8.2,5.7,10.5,15.7,4.9,23.9c-9.4,13.8-19.1,27.4-28.8,41.1C236.8,511.3,232.2,513.7,226.8,514.1z"/>
		<path fill="#1ABC9C" d="M183.7,397.5c14.8,0.2,23.3,15,15.6,27.1c-6.7,10.5-14.1,20.7-21.7,30.7c-5.6,7.4-15,8.4-23,3.3
			c-8.1-5.3-11.3-14.7-6.2-22.7c7.2-11.3,15.2-22.2,23.1-33C174.5,398.9,179.1,397.2,183.7,397.5z"/>
		<path fill="#1ABC9C" d="M266,528.2c-14.8-0.2-23.5-15.3-16.1-27.3c3.3-5.4,7-10.6,10.9-15.6c6.7-8.5,16-9.8,24.5-3.7
			c8.3,6,10.1,15.6,4.3,24.5c-3.3,5-6.8,9.9-10.4,14.7C275.8,525.3,271.3,528.1,266,528.2z"/>
	</g>
</g>
<g id="reforestacion" display="none">
	<g display="inline">
		<path fill="#1ABC9C" d="M380.7,25.5c5.4,3,6.8,7.7,7.3,13.7c1.2,16.1-0.4,31.9-4.5,47.4c-8.5,31.8-29.4,51-60.9,59.2
			c-11.3,2.9-22.8,4.2-34.4,4.6c-3.4,0.1-4.9,1.1-4.9,4.7c0.1,55.3,0.1,110.6,0.1,166c0,0.6,0.1,1.2,0.2,2.2
			c7.3-7.1,14.4-14,21.5-20.9c1.2-1.1,0.7-2.7,0.4-4.1c-9.6-56,8.4-102.1,50.3-139.6c5.4-4.9,11.1-9.4,17.3-13.2
			c6.1-3.8,12-2.9,15.3,2.1c3.1,4.7,1.7,10.9-3.9,14.7c-17.2,11.9-32,26-43,43.9c-10.5,17.1-16.4,35.6-17.7,55.6
			c-0.4,6.9-1.4,13.8,0.5,20.7c2-0.3,2.9-2,4-3.2c20.6-20.5,41.1-41,61.6-61.6c0.9-0.9,1.8-1.8,2.7-2.7c5.2-5,11.2-5.5,15.5-1.4
			c4.4,4.2,4,10.6-1.2,15.8c-21.3,21.4-42.6,42.7-64,64c-1.2,1.2-2.4,2.5-4.2,4.4c9.7,1.6,18.9,1.5,27.7,0
			c54.9-9,90.4-41,107.9-93.3c5.9-17.7,6.1-36.1,3-54.5c-0.6-3.5-2-5-5.5-5.3c-5.3-0.4-10.6-1.1-15.8-1.7c-1.3-0.1-2.6-0.1-3.9-0.3
			c-6.6-1-10.2-5.1-9.9-10.9c0.3-5.5,4.4-9.3,10.9-9.5c7.4-0.2,14.8,1,22.1,2.1c2.7,0.4,5.3,1.2,8,1.7c7.9,1.2,11.4,6,12.9,13.5
			c11.5,57.3-6.3,104.7-49.2,143c-30.2,27-66,38.8-106.4,36.3c-5.4-0.3-10.9-1.4-16.2-2.4c-2.4-0.4-4.3-0.2-6.1,1.7
			c-9.8,9.9-19.6,19.7-29.4,29.4c-2.7,2.6-1.3,3.2,1.4,3.8c22.7,4.6,40.7,16.6,53.9,35.5c1.5,2.2,3.2,3.5,6,3.1
			c10.3-1.3,20.6-1.1,30.9,0c1.2,0.1,2.9,0.6,3.6-0.7c0.8-1.5-0.6-2.7-1.5-3.8c-3.7-4.7-8.6-7-14.6-7.6c-7.1-0.7-10.8-5-10.2-11.4
			c0.6-5.7,5-8.9,11.9-8.6c2.1,0.1,4.2,0.2,6.2,0.7c6.7,1.6,12.9,4.3,17.8,9.3c2.4,2.4,3.9,2.3,6.3,0c6.8-6.4,15-9.8,24.5-10
			c6.5-0.2,10.8,3.1,11.4,8.6c0.6,6.3-3,10.8-9.7,11.4c-7.7,0.7-13.5,4-17.1,10.9c-2.4,4.7-1.7,6.3,3.2,7.8
			c22.4,6.9,42.3,18.3,59.7,33.9c23.6,21,39.7,46.8,48.6,77.1c2.2,7.7-2.2,13.4-10.4,13.6c-0.6,0-1.3,0-1.9,0
			c-156.8,0-313.5,0-470.3,0.1c-5.5,0-9.8-1.3-12.6-6.2c0-2.6,0-5.2,0-7.7c4.9-14.6,10.7-28.6,19-41.7c20.9-32.8,49.7-55.4,86.4-68
			c8.7-3,9.6-5.9,3.5-13c-3.6-4.2-8.2-6.1-13.5-6.7c-7.4-0.8-11-4.7-10.6-11.1c0.4-5.9,4.9-9.2,12-8.9c9.1,0.3,17,3.6,23.6,9.8
			c2.5,2.3,4,2.7,6.7,0.2c6.9-6.6,15.4-9.9,25-10c6.1-0.1,10.3,3.4,10.8,8.8c0.6,6.1-3,10.7-9.3,11.2c-6.7,0.6-12.1,3.2-16.1,8.5
			c-0.6,0.9-1.6,1.9-0.8,3c0.6,0.9,1.8,0.7,2.7,0.6c10.9-1.2,21.9-1.3,32.8-0.1c2.3,0.3,3.5-1.2,4.6-2.8
			c13.8-20,32.7-32.1,56.6-36.3c3.4-0.6,4.5-1.9,4.5-5.4c-0.2-16.6-0.1-33.2,0-49.8c0-3.6-0.7-4.7-4.7-4.1
			C177.8,305,107.1,242.4,97.1,172.7c-2.6-17.9-1.7-35.7,2.6-53.3c1.3-5.5,4.5-8.7,9.9-10c29.8-7.2,58.9-5,87,7.3
			c26.7,11.7,47.7,30.2,64.1,54.2c0.4,0.7,1,1.3,1.5,1.9c0.1,0.1,0.3,0.1,0.5,0.1c1-1.4,0.5-3.1,0.5-4.6c0.1-15.2-0.2-30.3,0.1-45.5
			c0.3-17.1,3.9-33.6,11.2-49.1c11.8-25,32.6-38.3,58.6-44.6c6.4-1.5,12.9-2.5,19.4-3.7C361.9,25.5,371.3,25.5,380.7,25.5z
			 M299.8,501.3c64,0,128,0,192.1,0c5.2,0,5.2,0,3.2-4.9c-5.6-13.3-13.1-25.5-22.7-36.4c-27.6-31.3-62.1-48.4-104-50.1
			c-8.7-0.4-17.4,0.2-26.1,1.1c-4.8,0.5-8.4-1.6-10.9-5.7c-1-1.7-2-3.3-3-5c-24.7-39.2-82.9-40.7-108.6-2.1
			c-6.6,10-12.9,13.4-25,12.2c-29.1-3-56.8,3.3-82.3,17.9c-28.2,16.2-48.9,39.2-61.7,69.1c-1.3,3-1,4,2.5,3.9
			c7.6-0.2,15.2-0.2,22.7,0c3.7,0.1,5.5-1.3,6.8-4.7c6.1-15.8,16-29,28.6-40.2c8.2-7.4,17.5-13.2,27.6-17.6
			c5.6-2.4,11.2-0.3,13.5,4.7c2.3,4.9,0.6,10-4.6,13.2c-1.5,0.9-3.1,1.7-4.7,2.5c-16.1,8.2-28.6,20.3-37.4,36
			c-3.2,5.7-3.1,5.9,3.3,5.9C172.7,501.3,236.3,501.3,299.8,501.3z M142.4,126.1c-6.4,0.2-12.9,0.2-19.3,1.3
			c-3.1,0.5-4.9,1.9-5.4,5.1c-2.1,14-2.3,28,0.5,41.9c11.6,58.2,64.8,100.4,124.1,98.5c1.5,0,3.8,0.6,4.3-1.1
			c0.5-1.7-1.6-2.6-2.7-3.7c-16-16.1-32.1-32.2-48.2-48.3c-1.4-1.4-2.8-2.7-3.9-4.3c-3-4.2-2.7-9.3,0.7-12.8
			c3.4-3.6,8.5-4.2,12.8-1.4c1.7,1.1,3.3,2.6,4.7,4.1c16.2,16.2,32.4,32.4,48.6,48.5c1,1,1.8,2.9,3.3,2.3c1.5-0.5,1.2-2.5,1.2-3.9
			c0.3-7.6-0.2-15.1-1.2-22.7C254.7,175.1,201.4,124.4,142.4,126.1z M286.1,112.3c1.2-1.1,2.3-2.2,3.5-3.3
			c6.8-6.8,13.6-13.7,20.5-20.5c5.6-5.6,11.7-6.1,16.1-1.6c4.5,4.6,3.8,10.3-1.9,16.1c-4.4,4.5-8.8,9-13.3,13.3
			c-3.9,3.7-8,7.3-12.6,11.5c2,0.6,2.4,0.9,2.8,0.8c2.6-0.3,5.1-0.5,7.7-0.9c17.2-3.1,33.1-8.9,43.9-23.7c12.2-16.6,14.9-36,15-55.9
			c0-2.8-1.9-2.4-3.7-2.4c-7.6,0-15.1,0.7-22.5,2.3c-18.3,4-34.6,11.5-45,28.1C289.6,87.1,286,99.1,286.1,112.3z"/>
		<path fill="#1ABC9C" d="M404.4,137c0.1-5.5,4.7-9.9,10.3-10c5.6,0,10.6,5,10.4,10.5c-0.2,5.4-5.5,10.1-11.1,10
			C408.6,147.4,404.4,142.8,404.4,137z"/>
		<path fill="#1ABC9C" d="M182.6,449.6c-5.6-0.1-10.2-4.6-10.1-10.1c0-5.6,4.5-9.8,10.3-9.9c5.8,0,10.3,4.3,10.4,9.8
			C193.1,445.2,188.4,449.7,182.6,449.6z"/>
	</g>
</g>
<g id="revegetalizacion" display="none">
	<g display="inline">
		<path fill="#1ABC9C" d="M347.9,315c-7.9-12.6-27.8-37-65-41C274.6,13.3,399.4,44.9,399.4,44.9c-59,17.3-83.4,64.7-83.4,64.7
			c98.8,13.6,105.4-58.8,105.2-79.5c0-3.2-2.1-6.1-5.1-7.1C293.8-17.5,271.4,178.7,271.4,178.7C235.9,42.9,153.6,59,129.8,66.8
			c-3.8,1.3-6,5.3-5,9.2c27.7,105.9,110.6,78.2,110.6,78.2c-27.9-53.9-79.1-64.7-79.1-64.7C277.5,99,267.2,256.8,265.8,273.6
			c-49.3,2-62,26.6-70.8,39.5c-2.1,3.1-5.6,5.1-9.4,5.4c-12.5,0.9-43.1,4.9-52.2,24.2c0,0,28.8,24.5,69.1,46
			c28.5,15.3,51.6,45.6,62.7,62.1c3.3,4.8,10.5,4.6,13.4-0.5c9.8-17.6,30-49.2,50.5-55.8c38.2-12.3,82-51.8,82-51.8
			s-26.1-24.9-51.4-21.9C354.9,321.3,350.4,319,347.9,315z M195.9,355.6c-7,0-12.7-5.7-12.7-12.7s5.7-12.7,12.7-12.7
			c7,0,12.7,5.7,12.7,12.7S202.9,355.6,195.9,355.6z M258.2,289.4c3.4,0,6.2,2.8,6.2,6.2s-2.8,6.2-6.2,6.2c-3.4,0-6.2-2.8-6.2-6.2
			S254.8,289.4,258.2,289.4z M245.6,398.8c-10.3,0-18.7-8.4-18.7-18.7c0-10.3,8.4-18.7,18.7-18.7c10.3,0,18.7,8.4,18.7,18.7
			C264.3,390.4,255.9,398.8,245.6,398.8z M277,333.6c-7,0-12.7-5.7-12.7-12.7s5.7-12.7,12.7-12.7s12.7,5.7,12.7,12.7
			S284,333.6,277,333.6z M334.6,376.5c-10.3,0-18.7-8.4-18.7-18.7c0-10.3,8.4-18.7,18.7-18.7c10.3,0,18.7,8.4,18.7,18.7
			C353.3,368.1,344.9,376.5,334.6,376.5z M380.5,336.7c3.4,0,6.2,2.8,6.2,6.2s-2.8,6.2-6.2,6.2c-3.4,0-6.2-2.8-6.2-6.2
			S377.1,336.7,380.5,336.7z"/>
		<path fill="#1ABC9C" d="M27.3,291.6c-0.1-3.4,4.2-5,6.4-2.3c9.9,12.2,29.2,41.1,41.2,92.3c16.7,71.2,72.3,75.9,94.4,80.6
			c0,0,10.3-20.7-12.4-41.7c-20.5-19-37.9-31.5-41.4-61.6c-0.4-3.5,3.8-5.7,6.4-3.3c7.2,6.5,20.8,18,44.8,35.3
			c41,29.7,94.4,45.3,95,139.7c0,0-78.8,14-163.5-62.6C34.8,406.4,27.8,319.8,27.3,291.6z"/>
		<path fill="#1ABC9C" d="M517.2,291.6c0.1-3.4-4.2-5-6.4-2.3c-9.9,12.2-29.2,41.1-41.2,92.3c-16.7,71.2-72.3,75.9-94.4,80.6
			c0,0-10.3-20.7,12.4-41.7c20.5-19,37.9-31.5,41.4-61.6c0.4-3.5-3.8-5.7-6.4-3.3c-7.2,6.5-20.8,18-44.8,35.3
			c-41,29.7-94.4,45.3-95,139.7c0,0,78.8,14,163.5-62.6C509.7,406.4,516.7,319.8,517.2,291.6z"/>
	</g>
</g>
</svg>
