<?xml version="1.0" encoding="utf-8"?>
<!-- Generator: Adobe Illustrator 18.1.1, SVG Export Plug-In . SVG Version: 6.00 Build 0)  -->
<svg version="1.1" id="Layer_2" xmlns="http://www.w3.org/2000/svg" xmlns:xlink="http://www.w3.org/1999/xlink" x="0px" y="0px"
	 viewBox="0 0 792 612" enable-background="new 0 0 792 612" xml:space="preserve">
<g>
	<polygon fill="#1ABC9C" points="768.7,354.5 748.8,486.9 465.9,430.6 465.9,601 465.9,601 465.9,425.1 439.4,425.1 439.4,601 
		265.7,601 265.7,33.6 434.5,33.6 434.5,296.6 461,296.6 	"/>
	<rect x="239.3" y="184.1" fill="#1ABC9C" stroke="#FFFFFF" stroke-width="4" stroke-miterlimit="10" width="26.5" height="263"/>
	<polygon fill="#1ABC9C" stroke="#FFFFFF" stroke-width="3" stroke-miterlimit="10" points="239.3,253.4 239.3,383 188,383 
		193.8,352.7 193.8,352.7 210.4,265.9 212.8,253.4 	"/>
	<rect x="434.5" y="33.6" fill="#1ABC9C" stroke="#FFFFFF" stroke-miterlimit="10" width="26.5" height="263"/>
	<rect x="439.4" y="425.1" fill="#1ABC9C" stroke="#FFFFFF" stroke-miterlimit="10" width="26.5" height="175.9"/>
	<line fill="none" stroke="#FFFFFF" stroke-width="2" stroke-miterlimit="10" x1="434.5" y1="58.4" x2="458.2" y2="46.8"/>
	<line fill="none" stroke="#FFFFFF" stroke-width="2" stroke-miterlimit="10" x1="434.5" y1="77.9" x2="458.2" y2="66.3"/>
	<line fill="none" stroke="#FFFFFF" stroke-width="2" stroke-miterlimit="10" x1="434.5" y1="97.4" x2="458.2" y2="85.8"/>
	<line fill="none" stroke="#FFFFFF" stroke-width="2" stroke-miterlimit="10" x1="434.5" y1="116.9" x2="458.2" y2="105.3"/>
	<line fill="none" stroke="#FFFFFF" stroke-width="2" stroke-miterlimit="10" x1="434.5" y1="136.4" x2="458.2" y2="124.8"/>
	<line fill="none" stroke="#FFFFFF" stroke-width="2" stroke-miterlimit="10" x1="434.5" y1="155.9" x2="458.2" y2="144.3"/>
	<line fill="none" stroke="#FFFFFF" stroke-width="2" stroke-miterlimit="10" x1="434.5" y1="175.4" x2="458.2" y2="163.8"/>
	<line fill="none" stroke="#FFFFFF" stroke-width="2" stroke-miterlimit="10" x1="434.5" y1="194.9" x2="458.2" y2="183.3"/>
	<line fill="none" stroke="#FFFFFF" stroke-width="2" stroke-miterlimit="10" x1="434.5" y1="214.4" x2="458.2" y2="202.8"/>
	<line fill="none" stroke="#FFFFFF" stroke-width="2" stroke-miterlimit="10" x1="434.5" y1="233.9" x2="458.2" y2="222.3"/>
	<line fill="none" stroke="#FFFFFF" stroke-width="2" stroke-miterlimit="10" x1="434.5" y1="253.4" x2="458.2" y2="241.8"/>
	<line fill="none" stroke="#FFFFFF" stroke-width="2" stroke-miterlimit="10" x1="434.5" y1="272.9" x2="458.2" y2="261.3"/>
	<line fill="none" stroke="#FFFFFF" stroke-width="2" stroke-miterlimit="10" x1="441.5" y1="449.9" x2="461.8" y2="440"/>
	<line fill="none" stroke="#FFFFFF" stroke-width="2" stroke-miterlimit="10" x1="441.5" y1="468" x2="461.8" y2="458.1"/>
	<line fill="none" stroke="#FFFFFF" stroke-width="2" stroke-miterlimit="10" x1="441.5" y1="486.1" x2="461.8" y2="476.2"/>
	<line fill="none" stroke="#FFFFFF" stroke-width="2" stroke-miterlimit="10" x1="441.5" y1="504.2" x2="461.8" y2="494.3"/>
	<line fill="none" stroke="#FFFFFF" stroke-width="2" stroke-miterlimit="10" x1="441.5" y1="522.3" x2="461.8" y2="512.4"/>
	<line fill="none" stroke="#FFFFFF" stroke-width="2" stroke-miterlimit="10" x1="441.5" y1="540.4" x2="461.8" y2="530.5"/>
	<line fill="none" stroke="#FFFFFF" stroke-width="2" stroke-miterlimit="10" x1="441.5" y1="558.6" x2="461.8" y2="548.7"/>
	<line fill="none" stroke="#FFFFFF" stroke-width="2" stroke-miterlimit="10" x1="441.5" y1="576.7" x2="461.8" y2="566.8"/>
	<line fill="none" stroke="#FFFFFF" stroke-width="2" stroke-miterlimit="10" x1="441.5" y1="594.8" x2="461.8" y2="584.9"/>
	<g>
		<path fill="#1ABC9C" d="M149.5,282.3c-2.2,11.8-4.3,23.1-6.4,34.7c-2.8-0.4-5.4-0.8-8.5-1.2c0.1,1,0.2,1.9,0.3,2.8
			c0.1,2.8-2.3,4.3-7.8,4c-5.3-0.3-9.4-2.6-10.1-5.6c-2.1-9.5-3.8-18.9-5.7-28.4c-1.1-5.6-2.2-11.2-3.3-16.8
			c-0.8-4.1,1.9-6.1,7.8-5.6c5.8,0.5,9.8,3,9.9,7.2c0.1,4,3.3,5.9,10.7,6.7C140.6,280.4,144.8,281.4,149.5,282.3z"/>
		<path fill="#1ABC9C" d="M104.3,273.7c2.5,12.7,4.9,24.9,7.4,37.4c-3.5-0.5-6.7-1-10.2-1.5c0.1,1.1,0.1,2,0.1,2.9
			c0,2.8-2.4,4.3-8.1,3.8c-5.4-0.5-9.2-2.7-9.8-5.8c-1.7-8.3-3.3-16.6-5-24.9c-1.4-6.9-2.7-13.8-4-20.7c-0.7-3.6,2.1-5.5,7.6-5.1
			c5.5,0.4,9.1,2.7,10.2,6.4c0,0.1,0.1,0.2,0.1,0.4C92.3,270.5,94.7,273.4,104.3,273.7z"/>
		<path fill="#1ABC9C" d="M77.1,304.8c-3.6-0.6-6.5-1-9.8-1.5c-0.1,1.1-0.2,2-0.2,3c-0.1,2.8-2.7,4.3-8.4,3.6c-6-0.7-9-3-9.6-5.9
			c-1.2-5.7-2.2-11.5-3.3-17.2c-1.8-9.5-3.7-18.9-5.5-28.4c-0.7-3.7,2.3-5.4,8-4.9c5.3,0.5,8.8,2.7,9.8,6.2c0.5,1.9,0.9,3.7,1.3,5.7
			c3.3,0.7,6.4,1.4,10.4,2.2C72.2,280,74.7,292.3,77.1,304.8z"/>
		<path fill="#1ABC9C" d="M43.9,301.5c-11-2-21.2-3.9-32-5.9c2.1-11.4,4.2-22.8,6.4-34.7c4.9,0.9,10.2,1.8,15.4,2.9
			c1.1,0.2,2.8,1.3,3,1.8C39.1,277.5,41.5,289.4,43.9,301.5z"/>
	</g>
	<path fill="#1ABC9C" stroke="#FFFFFF" stroke-miterlimit="10" d="M148.3,327.5c4.8,2.5,20.1,9.2,48.2,11.2l-2.7,14.1h0l-38.9-6.9
		c-5.2-0.9-8.6-5.8-7.8-11L148.3,327.5z"/>
	<path fill="#1ABC9C" stroke="#FFFFFF" stroke-miterlimit="10" d="M203.3,294.9c0.5,0.3,0.9,0.4,1.4,0.5l-6.5,34
		c-0.2,0-0.4,0-0.6-0.1c-31.6-2.2-45.9-10.6-46.1-10.8c-0.5-0.3-1.1-0.5-1.7-0.6l5.3-32.1c0.2,0,0.5,0.1,0.7,0.1
		C156.2,285.9,188,286.2,203.3,294.9z"/>
	<path fill="#1ABC9C" stroke="#FFFFFF" stroke-miterlimit="10" d="M210.4,265.9l-3.8,20c-16.4-8.5-44.7-9.4-49.8-9.5l0.7-4.1
		c0.8-4.7,5-8.2,9.8-8L210.4,265.9z"/>
	<path fill="#FFFFFF" d="M198.3,329.4l-1.8,9.2c-28.1-2-43.4-8.7-48.2-11.2l1.6-9.5c0.6,0.1,1.2,0.3,1.7,0.6
		c0.2,0.1,14.5,8.6,46.1,10.8C197.9,329.4,198.1,329.4,198.3,329.4z"/>
	<path fill="#FFFFFF" d="M206.6,286l-1.8,9.4c-0.5-0.1-1-0.3-1.4-0.5c-15.3-8.7-47.1-9-47.4-9c-0.2,0-0.5,0-0.7-0.1l1.5-9.3
		C161.8,276.6,190.1,277.5,206.6,286z"/>
	<rect x="340.2" y="33.6" fill="#FFFFFF" width="14.9" height="567.4"/>
	<g>
		<path fill="#FFFFFF" d="M755.8,396.3c-1.9,11.9-3.6,23.2-5.4,34.8c-2.8-0.3-5.4-0.6-8.5-1c0.1,1,0.3,1.9,0.3,2.7
			c0.2,2.8-2.1,4.4-7.7,4.3c-5.3-0.2-9.5-2.3-10.2-5.3c-2.3-9.4-4.4-18.8-6.5-28.2c-1.3-5.6-2.5-11.1-3.8-16.7
			c-1-4.1,1.7-6.2,7.7-5.9c5.8,0.3,9.9,2.7,10.1,6.9c0.2,4,3.4,5.8,10.9,6.4C746.8,394.7,751.1,395.6,755.8,396.3z"/>
		<path fill="#FFFFFF" d="M464.9,350.8c2.9,12.7,5.6,24.7,8.4,37.2c-3.5-0.4-6.7-0.8-10.2-1.2c0.1,1.1,0.2,2,0.2,2.9
			c0,2.8-2.3,4.4-8,4c-5.4-0.3-9.3-2.4-10-5.5c-2-8.3-3.8-16.5-5.7-24.8c-1.6-6.9-3.1-13.7-4.6-20.6c-0.8-3.6,2-5.5,7.5-5.3
			c5.5,0.2,9.2,2.4,10.3,6.1c0,0.1,0.1,0.2,0.1,0.3C452.8,347.9,455.3,350.8,464.9,350.8z"/>
		<path fill="#FFFFFF" d="M326.3,329.3c2.9,12.7,5.6,24.7,8.4,37.1c-3.5-0.4-6.7-0.8-10.2-1.2c0.1,1.1,0.2,2,0.2,2.9
			c0.1,2.8-2.3,4.5-8,4c-5.8-0.4-9.3-2.4-10-5.5c-1.9-8.3-3.8-16.5-5.6-24.8c-1.6-6.9-3.1-13.7-4.7-20.6c-0.8-3.6,2-5.5,7.6-5.3
			c5.5,0.2,9.3,2.4,10.3,6.1c0,0.1,0.1,0.2,0.1,0.3C314.1,326.4,316.8,329.2,326.3,329.3z"/>
		<path fill="#FFFFFF" d="M385.1,338.4c10.9,2.3,10.8,2.3,12,7.8c2,9.1,4.1,18.1,6.1,27.2c0.3,1.2,0.4,2.5,0.6,3.9
			c-3.6-0.4-6.7-0.8-9.9-1.2c0,0.9,0,1.6,0,2.2c0.3,3.4-2.6,5.1-8,4.7c-5.5-0.4-9.2-2.5-10-6c-1.8-7.4-3.4-14.9-5.1-22.3
			c-1.6-7.1-3.2-14.2-4.8-21.3c-0.3-1.3-0.5-2.6-0.2-3.8c0.6-2.3,3.8-3.2,8.3-2.8c4.4,0.4,8,1.8,9,4.3
			C383.9,333.6,384.4,335.9,385.1,338.4z"/>
		<path fill="#FFFFFF" d="M438.6,382.7c-3.6-0.5-6.5-0.8-9.9-1.2c-0.1,1.1-0.1,2-0.1,3c0,2.8-2.6,4.3-8.3,3.9
			c-6-0.5-9.1-2.7-9.8-5.7c-1.4-5.7-2.5-11.4-3.8-17.1c-2.1-9.4-4.2-18.8-6.3-28.2c-0.8-3.6,2.2-5.5,7.8-5.1c5.4,0.3,8.9,2.4,10,5.9
			c0.6,1.9,1,3.7,1.5,5.7c3.4,0.6,6.4,1.2,10.5,1.9C433,358,435.8,370.2,438.6,382.7z"/>
		<path fill="#FFFFFF" d="M361,335c2.8,12.3,5.5,24.5,8.2,36.8c-3.6-0.4-6.7-0.8-10.2-1.3c0.2,1,0.3,1.7,0.4,2.5
			c0.4,3-2.8,4.9-7.8,4.5c-5.8-0.5-9.4-2.3-10.1-5.4c-2.2-9.4-4.3-18.8-6.5-28.3c-1.3-5.6-2.6-11.2-3.8-16.7
			c-0.9-3.9,1.7-5.9,7.4-5.7c5.7,0.2,9.5,2.5,10.5,6.4C350.4,333.1,350.4,333.1,361,335z"/>
		<path fill="#FFFFFF" d="M641,378.2c2.9,12.7,5.6,24.7,8.4,37.2c-3.5-0.4-6.7-0.8-10.2-1.2c0.1,1.1,0.2,2,0.2,2.9
			c0,2.8-2.3,4.4-8,4c-5.4-0.3-9.3-2.4-10-5.5c-2-8.3-3.8-16.5-5.7-24.8c-1.6-6.9-3.1-13.7-4.6-20.6c-0.8-3.6,2-5.5,7.5-5.3
			c5.5,0.2,9.2,2.4,10.3,6.1c0,0.1,0.1,0.2,0.1,0.3C628.9,375.3,631.4,378.2,641,378.2z"/>
		<path fill="#FFFFFF" d="M502.4,356.7c2.9,12.7,5.6,24.7,8.4,37.1c-3.5-0.4-6.7-0.8-10.2-1.2c0.1,1.1,0.2,2,0.2,2.9
			c0.1,2.8-2.3,4.5-8,4c-5.8-0.4-9.3-2.4-10-5.5c-1.9-8.3-3.8-16.5-5.6-24.8c-1.6-6.9-3.1-13.7-4.7-20.6c-0.8-3.6,2-5.5,7.6-5.3
			c5.5,0.2,9.3,2.4,10.3,6.1c0,0.1,0.1,0.2,0.1,0.3C490.2,353.8,492.9,356.6,502.4,356.7z"/>
		<path fill="#FFFFFF" d="M561.2,365.8c10.9,2.3,10.8,2.3,12,7.8c2,9.1,4.1,18.1,6.1,27.2c0.3,1.2,0.4,2.5,0.6,3.9
			c-3.6-0.4-6.7-0.8-9.9-1.2c0,0.9,0,1.6,0,2.2c0.3,3.4-2.6,5.1-8,4.7c-5.5-0.4-9.2-2.5-10-6c-1.8-7.4-3.4-14.9-5.1-22.3
			c-1.6-7.1-3.2-14.2-4.8-21.3c-0.3-1.3-0.5-2.6-0.2-3.8c0.6-2.3,3.8-3.2,8.3-2.8c4.4,0.4,8,1.8,9,4.3
			C560,361,560.5,363.3,561.2,365.8z"/>
		<path fill="#FFFFFF" d="M614.7,410.1c-3.6-0.5-6.5-0.8-9.9-1.2c-0.1,1.1-0.1,2-0.1,3c0,2.8-2.6,4.3-8.3,3.9
			c-6-0.5-9.1-2.7-9.8-5.7c-1.4-5.7-2.5-11.4-3.8-17.1c-2.1-9.4-4.2-18.8-6.3-28.2c-0.8-3.6,2.2-5.5,7.8-5.1c5.4,0.3,8.9,2.4,10,5.9
			c0.6,1.9,1,3.7,1.5,5.7c3.4,0.6,6.4,1.2,10.5,1.9C609.1,385.4,611.9,397.6,614.7,410.1z"/>
		<path fill="#FFFFFF" d="M710.4,389c2.9,12.7,5.6,24.7,8.4,37.2c-3.5-0.4-6.7-0.8-10.2-1.2c0.1,1.1,0.2,2,0.2,2.9
			c0,2.8-2.3,4.4-8,4c-5.4-0.3-9.3-2.4-10-5.5c-2-8.3-3.8-16.5-5.7-24.8c-1.6-6.9-3.1-13.7-4.6-20.6c-0.8-3.6,2-5.5,7.5-5.3
			c5.5,0.2,9.2,2.4,10.3,6.1c0,0.1,0.1,0.2,0.1,0.3C698.3,386.2,700.8,389,710.4,389z"/>
		<path fill="#FFFFFF" d="M684.1,420.9c-3.6-0.5-6.5-0.8-9.9-1.2c-0.1,1.1-0.1,2-0.1,3c0,2.8-2.6,4.3-8.3,3.9
			c-6-0.5-9.1-2.7-9.8-5.7c-1.4-5.7-2.5-11.4-3.8-17.1c-2.1-9.4-4.2-18.8-6.3-28.2c-0.8-3.6,2.2-5.5,7.8-5.1c5.4,0.3,8.9,2.4,10,5.9
			c0.6,1.9,1,3.7,1.5,5.7c3.4,0.6,6.4,1.2,10.5,1.9C678.5,396.2,681.3,408.4,684.1,420.9z"/>
		<path fill="#FFFFFF" d="M537.1,362.4c2.8,12.3,5.5,24.5,8.2,36.8c-3.6-0.4-6.7-0.8-10.2-1.3c0.2,1,0.3,1.7,0.4,2.5
			c0.4,3-2.8,4.9-7.8,4.5c-5.8-0.5-9.4-2.3-10.1-5.4c-2.2-9.4-4.3-18.8-6.5-28.3c-1.3-5.6-2.6-11.2-3.8-16.7
			c-0.9-3.9,1.7-5.9,7.4-5.7c5.7,0.2,9.5,2.5,10.5,6.4C526.4,360.5,526.4,360.5,537.1,362.4z"/>
		<path fill="#FFFFFF" d="M300,361.1c-11.1-1.7-21.3-3.3-32.1-5c1.8-11.5,3.6-22.9,5.4-34.8c4.9,0.8,10.2,1.5,15.4,2.5
			c1.1,0.2,2.9,1.2,3,1.7C294.6,337.3,297.3,349.1,300,361.1z"/>
	</g>
</g>
</svg>
