<?xml version="1.0" encoding="utf-8"?>
<!-- Generator: Adobe Illustrator 18.1.1, SVG Export Plug-In . SVG Version: 6.00 Build 0)  -->
<svg version="1.1" xmlns="http://www.w3.org/2000/svg" xmlns:xlink="http://www.w3.org/1999/xlink" x="0px" y="0px"
	 viewBox="0 0 600 600" enable-background="new 0 0 600 600" xml:space="preserve">
<g id="Layer_1" display="none">
	<g id="siembra">
		<g display="inline">
			<path fill="#1ABC9C" d="M13.7,538.4c0-77.8,0-155.6,0-233.4c0.7-0.4,1.2-0.8,1.9-1.2c27.3-21.3,56.2-20.2,81.7,3.1
				c1.7,1.5,3.3,3,5.1,4.4c20.8,15.9,52.6,16.2,75.9-5.7c24.7-23.3,57.6-22.4,82.2,0.7c4.8,4.5,10,8.4,16,11.2
				c6.8,3.2,7.2,3,7.2-4.3c0-43.7,0-87.5,0-131.2c0-7.7-0.6-8-8-8.8c-23.6-2.4-46.1-8.5-65.9-21.7c-44.5-29.8-60.2-73.7-60.6-125
				c0-3.5,2.1-4.3,5.1-4.4c10.5-0.3,20.9,0.8,31.3,2.4c59.1,9.4,99.2,47.2,111.8,105.5c1.4,6.4,2.3,12.9,3.5,19.4
				c1.2-3.4,1.7-6.7,2.2-10c4.6-28.9,15-55.2,36-76.3c30-30,67.2-41,108.7-41.1c4,0,5.1,1.8,5.2,5.5c0.3,14.1-1.4,28-4.7,41.7
				c-9.8,39.8-31,71-68.5,89.4c-17.2,8.4-35.4,13-54.3,14.7c-5.1,0.4-7.1,2.3-7.1,7.6c0.2,44.5,0.1,89,0.1,133.6
				c0,5.7,0.6,6.1,5.6,3.9c7.5-3.2,13.7-8.4,19.6-13.8c14.3-13.1,31.3-17.6,50.4-14.3c12.9,2.2,23,9.1,32.4,17.7
				c14.3,13.2,31.4,17.5,50.5,13.9c11.8-2.2,21.3-8.5,30-16.5c14.8-13.9,32.4-18.6,52.3-14.9c11.2,2.1,20.3,8.2,29.1,15
				c0,77.8,0,155.6,0,233.4c-2.6,0.1-5.2,0.4-7.8,0.4c-186.2,0-372.6,0-558.8,0C18.8,538.8,16.2,538.5,13.7,538.4z M229.3,417
				c0.1,26.3,13.8,48.8,37.8,59.2c20.9,9,42.5,9.5,63.9,1.3c22.8-8.7,35.9-25.7,40.2-49.8c3.5-19.6-2-36.9-12.5-53.1
				c-10-15.5-22.8-28.7-36.6-40.7c-2.5-2.2-5.4-4.1-5.2-8.2c0.1-2.3-1.3-3.4-3.6-2.9c-8.5,1.9-17.1,1.9-25.6,0
				c-2.1-0.4-3.5,0.6-3.4,2.5c0.3,4.3-2.6,6.3-5.3,8.6c-13.8,11.9-26.4,24.8-36.3,40.2C235,386.8,229,399.9,229.3,417z"/>
			<path fill="#1ABC9C" d="M300.4,450.6c-4-0.4-8.5-0.4-12.9-1.3c-24.2-5.3-30.2-31.1-23.4-46.5c3.5-7.9,8.4-15,14-21.6
				c6-7.1,12.2-13.7,19.1-19.7c2.6-2.3,4.5-2.4,7.2-0.1c10.6,9.6,20.3,19.8,28.1,31.8c8.6,13.1,10.7,26.8,3,40.8
				C327.9,447.3,314.9,450.2,300.4,450.6z"/>
		</g>
		<path display="inline" fill="none" d="M1438.8,375.2c-1-0.6-1.3-1.9-0.7-2.9l2.4-3.9c0.6-1,1.9-1.2,2.9-0.7l64.7,38.5
			c1,0.6,1.3,1.9,0.7,2.9l-2.4,3.9c-0.7,1-1.9,1.3-2.9,0.7L1438.8,375.2z"/>
		<path display="inline" fill="none" d="M1516.8,302.5c-1-0.7-1.3-2-0.8-3.1l2.5-4.2c0.7-1,2-1.3,3.1-0.8l67.7,41.3
			c1,0.7,1.3,2,0.8,3.1l-2.5,4.2c-0.7,1-2,1.3-3.1,0.8L1516.8,302.5z"/>
		<path display="inline" fill="none" d="M1602.5,336.3v204.8H994.3l134.4-109.4l241.7-42.6l29.9-36.1l23.1,13.6l-2,3.2
			c-0.6,1-0.3,2.2,0.7,2.9l85.7,51c1,0.6,2.3,0.3,2.9-0.7l10.1-16.2c0.6-1,0.3-2.2-0.7-2.9l-85.7-51c-1-0.6-2.3-0.3-2.9,0.7l-6,9.6
			l-22.7-13.2l62-75.3l35.7,18.6l-2.1,3.4c-0.7,1-0.3,2.4,0.8,3.1l89.7,54.8c1,0.7,2.4,0.3,3-0.8L1602.5,336.3z"/>
		<polygon display="inline" fill="none" points="1389.8,346.9 1364.5,376.6 1135.3,420.7 1210.2,359.7 1311.6,359.7 1325.5,309.3 		
			"/>
		<polygon display="inline" fill="none" points="1455.5,269.6 1392.5,343.7 1326.6,305.2 1351.5,215.4 		"/>
		<polygon display="inline" fill="none" points="1518.8,86.4 1482,238.5 1458.4,266.2 1352.7,211 1368.2,155.5 		"/>
		<path display="inline" fill="none" d="M1602.5,52.7v281c-0.2-0.2-0.3-0.4-0.7-0.6l-89.7-54.8c-1-0.7-2.4-0.3-3,0.8l-6.3,10.2
			l-35.2-18.3l23.8-28.9l41.1-163.9L1602.5,52.7z"/>
		<path display="inline" fill="none" d="M1590.1,338.8l-2.5,4.2c-0.7,1-2,1.3-3.1,0.8l-67.7-41.3c-1-0.7-1.3-2-0.8-3.1l2.5-4.2
			c0.7-1,2-1.3,3.1-0.8l67.7,41.3C1590.4,336.5,1590.7,337.9,1590.1,338.8z"/>
		<path display="inline" fill="none" d="M1508.9,409.1l-2.4,3.9c-0.7,1-1.9,1.3-2.9,0.7l-64.7-38.5c-1-0.6-1.3-1.9-0.7-2.9l2.4-3.9
			c0.6-1,1.9-1.2,2.9-0.7l64.7,38.5C1509.1,406.8,1509.4,408.2,1508.9,409.1z M1508.1,406.3l-64.7-38.5c-1-0.6-2.3-0.3-2.9,0.7
			l-2.4,3.9c-0.7,1-0.3,2.2,0.7,2.9l64.7,38.5c1,0.6,2.3,0.3,2.9-0.7l2.4-3.9C1509.4,408.2,1509.1,406.8,1508.1,406.3z"/>
	</g>
	<g id="talud">
		<path display="inline" fill="#1ABC9C" d="M577.5,92.5L356.1,197l-9,32.4c-0.3-0.2-0.8-0.3-1.1-0.3l-7.9-1.5
			c-2.4-0.4-4.8,1.1-5.3,3.5L331,240l-3.4-1.7c-0.3-0.1-0.6-0.2-0.9-0.2c-0.8,0-1.4,0.4-1.8,1.1c-0.4,1-0.1,2.1,0.9,2.6l4.4,2.1
			l-3.1,15.8c-0.4,2.4,1.1,4.8,3.5,5.3l6.2,1.2l-12.1,43.2L319,308c-2.4-0.7-4.8,0.9-5.5,3.3l-3,11.8l-5.6-2.6
			c-0.3-0.1-0.6-0.2-0.9-0.2c-0.8,0-1.4,0.4-1.8,1.1c-0.4,1,0,2.1,0.9,2.6l6.3,3l-3.3,12.7c-0.7,2.4,0.9,4.8,3.3,5.5l4.8,1.2
			l-6.7,24h-89.4L13.7,543.5v10.2h572.9V92.5H577.5z M370.6,203.1L497,151L463,273.7l-15.2,23.7l-90.4-46.6L370.6,203.1z
			 M511.6,456.1l-73.8-40.2l5.3-11.6l-57.4-32.8L361.3,406l-181.9,27.8l44.2-41l97.3-4.7l11.3-47.6l53.3,31.1l4.7-5.5l-55.9-31.6
			l21.4-76.7l87.7,45.7l-53.2,62.5l57.2,31.3l5.8-8.3l73.3,44.1L511.6,456.1z M558.3,378.7l-67.2-36l4.7-10.4l-52.3-29.5l4.3-5
			l52,28l5.3-7.4l66.7,39.4L558.3,378.7z"/>
		<path display="inline" fill="#1ABC9C" d="M561.4,361.8l-53.7-32.3c-0.9-0.6-2.1-0.2-2.6,0.7l-2.2,3.7c-0.6,0.9-0.2,2.1,0.7,2.6
			l53.7,32.3c0.9,0.6,2.1,0.2,2.6-0.7l2.2-3.6C562.6,363.5,562.3,362.3,561.4,361.8z"/>
		<path display="inline" fill="#1ABC9C" d="M515.5,441.3l-2.1,3.4c-0.6,0.9-1.7,1.1-2.5,0.6l-57-33.9c-0.9-0.6-1.1-1.7-0.6-2.5
			l2.1-3.4c0.6-0.9,1.7-1.1,2.5-0.6l57,33.9C515.7,439.3,516,440.4,515.5,441.3z"/>
	</g>
	<g id="alianza">
		<g display="inline">
			<path fill="#1ABC9C" d="M247.1,446c-5-0.3-9.9,1.4-13.9,5.1c-3.9,3.5-5.6,2.3-7.1-2c-1.2-3.6-3.5-6.7-6.4-9.3
				c-11.3-10.1-26.6-9-35.9,3c-4.6,5.8-8.7,12-12.9,18.2c-2.2,3.2-4,3.3-6.4,0.2c-12-15.1-24-30.2-36.1-45.1
				c-2.8-3.3-1.2-5.8,0.4-8.7c15.6-27.1,31.3-54.2,46.9-81.3c4.3-7.5,8.7-14.9,12.9-22.5c1.9-3.3,3.7-4.5,7.7-3.1
				c17.3,6.4,34.7,12.5,52.1,18.6c4.4,1.5,5,3.3,1.4,6.5c-7.1,6.6-13.9,13.3-20.8,20.1c-2,1.9-3.4,3.7-3.5,6.7
				c-0.8,17.4-1.9,34.8-2.3,52.2c-0.3,13.9,8.5,20.4,22,17.2c12.2-2.9,21.5-9.6,27.3-20.7c3.7-7.1,7.3-14.3,10.8-21.5
				c1.4-3.1,3.5-5.2,6.6-6.6c6.9-3.1,13.8-6.5,21.3-8.4c8.4-2.1,16.3-1.4,23.8,3c39.2,22.7,78.5,45.4,117.7,68.2
				c11.7,6.8,14.1,19.3,6.1,29.6c-6.2,7.9-15.6,9.9-25.3,4.5c-11.3-6.4-22.6-13.1-33.8-19.6c-1.5-0.9-3.2-1.8-4.8-2.4
				c-1-0.4-2-0.1-2.5,0.9s-0.4,2.1,0.3,2.8c1.2,1,2.5,1.9,4,2.8c14.9,8.7,29.9,17.3,44.6,26.1c9.6,5.7,12.5,15.3,8,24.8
				c-5.2,11.2-16.6,15.2-27.7,9c-15.5-8.8-30.9-18-46.4-26.8c-2.4-1.3-6.1-5-7.8-1.9c-2.2,3.9,3.1,4.6,5.5,6.1
				c11.3,6.8,22.9,13.3,34.2,20.2c7.2,4.4,10.5,11,8.7,19.5c-1.8,8.6-6.9,14.3-15.5,16.5c-5.7,1.4-10.7-0.8-15.4-3.5
				c-11.8-6.8-23.6-13.8-35.4-20.6c-1-0.7-2.1-1.2-3.1-1.8c-1.7-0.9-3.5-1.8-4.6,0.4c-1,2,0.8,2.9,2.2,3.6
				c8.8,5.2,17.6,10.4,26.4,15.5c1.5,0.9,3.2,1.8,4.6,2.8c9.6,6.6,11.8,17.1,5.6,26.9c-5.8,9.4-16.3,12.1-26.1,6.6
				c-8.9-5-17.6-10.4-26.6-15.3c-3.2-1.8-3.3-3.6-2.1-6.8c6-17-4.2-32.3-22.4-33.7c-5-0.3-6-1.3-3.2-6c10.2-17.4-0.7-37.1-20.9-37.5
				c-5.3-0.1-6.7-1.3-6.4-6.7C273.7,457.6,261.8,446,247.1,446z"/>
			<path fill="#1ABC9C" d="M228,403.5c0.7-15.9,1.3-31.6,2-47.5c0.1-3,1.2-5.4,3.3-7.4c11.8-11.2,23-22.9,35.2-33.7
				c15.9-14.1,33.7-19.2,54.5-14.4c16.2,3.6,32.7,6.3,49.4,6.5c16.7,0.2,33.2-2,49.3-6.5c4.5-1.2,6.9-0.4,9.3,3.6
				c19.5,34.2,39.2,68.2,59,102.1c2.5,4.3,2,6.5-2.6,8.7c-9.3,4.3-18.4,9-27.3,13.9c-3.6,2-6.5,1.8-10-0.3
				c-36.4-21.2-73.1-42.1-109.3-63.5c-11.7-6.8-23.3-8.3-35.6-3.5c-6.7,2.5-13.2,5.7-19.9,8.5c-3.1,1.3-4.4,4-5.7,6.6
				c-4.6,9.1-8.5,18.6-14.3,27.1c-5.4,7.8-13,11.8-21.9,13.4C232.7,419,227.5,414.2,228,403.5z"/>
			<path fill="#1ABC9C" d="M101.9,429.6c-6,0-9.6-1.8-13-3.9c-12-6.9-24-13.9-35.9-20.8c-12.9-7.5-15-15.4-7.5-28.4
				c21.4-37,42.8-74,64.1-111c2.9-4.8,5.5-9.8,8.5-14.5c5.3-8.3,13.8-10.9,22.4-6.3c14.7,7.9,29.1,16.3,43.3,24.9
				c8.5,5.1,10.2,14.3,5,23.7c-11,19.4-22.1,38.6-33.3,57.9c-13.2,22.9-26.6,45.8-39.7,68.8C112.2,426,107.2,429.3,101.9,429.6z"/>
			<path fill="#1ABC9C" d="M518.9,429.6c-7.3-0.3-12.1-4.1-15.8-10.4c-19.2-33.4-38.5-66.8-57.7-100.1c-5.1-8.7-10.1-17.3-15-26.1
				c-5.5-9.8-3.4-18.5,6.2-24.2c13.6-8.2,27.3-16.1,41.2-23.7c9.5-5.3,18.3-2.9,23.7,6.5c24.6,42.3,49,84.7,73.4,127.2
				c6,10.4,3.4,19.1-6.7,25.1c-12.9,7.7-26,15.1-39,22.6C526,428.3,522.6,429.6,518.9,429.6z"/>
			<path fill="#1ABC9C" d="M122,205.3c-24.7,0-49.4-0.1-74,0.1c-5.2,0-7.2-1.2-6.3-6.8c4.4-31.3,21-53.6,49.9-65.7
				c28.3-12,55.5-7.7,80.1,10.6c18.4,13.8,28.5,32.5,31.6,55.4c0.7,5.4-1.1,6.6-6.1,6.6C172.1,205.2,147.1,205.3,122,205.3z"/>
			<path fill="#1ABC9C" d="M496.5,205.3c-24.5,0-48.9,0-73.4,0c-7.7,0-7.8-0.2-6.8-7.8c5-39.3,38.7-70.2,77.5-71.1
				c41.1-0.9,76.1,27.5,83.2,67.4c2,11.5,2,11.5-9.5,11.5C543.8,205.3,520.1,205.3,496.5,205.3z"/>
			<path fill="#1ABC9C" d="M309.5,205.3c-24.5,0-48.9,0-73.4,0c-7.4,0-8.2-0.9-7.2-7.9c5.8-41.2,40.6-71.3,82-71
				c39.9,0.3,75,32.1,79.6,71.7c0.6,5.1-0.7,7.3-6.3,7.3C359.2,205.1,334.4,205.3,309.5,205.3z"/>
			<path fill="#1ABC9C" d="M309.5,121.2c-21.2,0-38.6-17.4-38.6-38.1c0.1-21,18-38.8,39-38.6c20.8,0.2,38.3,18,38.2,38.7
				C348.1,104.1,330.6,121.3,309.5,121.2z"/>
			<path fill="#1ABC9C" d="M458.5,82.8c0.1-21,17.3-38.3,38.3-38.2c20.9,0,38.2,17.4,38.2,38.5c0,21.5-17.4,38.8-38.7,38.5
				C475,121.1,458.4,104.1,458.5,82.8z"/>
			<path fill="#1ABC9C" d="M160.7,83.1c0,21.3-17,38.2-38.2,38.2C101,121.3,84,104,84.1,82.5c0.1-20.9,17.6-38.2,38.6-38
				C143.7,44.6,160.7,61.9,160.7,83.1z"/>
			<path fill="#1ABC9C" d="M267.9,470.2c0.2,4.4-1.3,8.3-3.9,11.8c-12.3,17.5-24.5,35.2-36.9,52.6c-7.2,9.9-18,11.8-27.3,5.3
				c-9.7-6.7-11.7-17.7-4.7-27.9c12.5-18,25-35.8,37.7-53.6c5.3-7.4,13-9.5,21.3-6.7C262.3,454.5,267.8,461.9,267.9,470.2z"/>
			<path fill="#1ABC9C" d="M249.9,566.5c-8.3-0.3-14.4-4-18.5-10.8c-4-6.7-3.4-13.4,1-19.7c10.6-15.1,21-30.3,31.8-45.2
				c6.6-9,17.4-10.4,26.6-4c9,6.3,11.6,17.3,5.4,26.3c-10.4,15.2-21,30.2-31.7,45.3C260.9,563.4,255.9,566.1,249.9,566.5z"/>
			<path fill="#1ABC9C" d="M202.4,438c16.3,0.2,25.7,16.5,17.2,29.9c-7.4,11.6-15.5,22.8-23.9,33.8c-6.2,8.2-16.5,9.3-25.3,3.6
				c-8.9-5.8-12.5-16.2-6.8-25c7.9-12.5,16.7-24.5,25.5-36.4C192.3,439.6,197.4,437.7,202.4,438z"/>
			<path fill="#1ABC9C" d="M293.1,582c-16.3-0.2-25.9-16.9-17.7-30.1c3.6-6,7.7-11.7,12-17.2c7.4-9.4,17.6-10.8,27-4.1
				c9.1,6.6,11.1,17.2,4.7,27c-3.6,5.5-7.5,10.9-11.5,16.2C303.9,578.8,299,581.9,293.1,582z"/>
		</g>
	</g>
	<g id="paisajismo">
		<g display="inline">
			<path fill="#1ABC9C" d="M131,242.3c75.5-0.1,136.5,19.4,192.4,55.8c4.8,3.2,8.8,3.9,14.3,1.9c12.8-4.6,26-7.9,39.4-10.4
				c9.5-1.8,5.6-8.5,6.4-13.6c0.8-5.7-3.4-5.3-7.1-5.6c-15.2-1.8-30.4-3.7-44.5-10.4c-26-12.1-32.6-33.6-18.3-58.6
				c4.7-8.3,10.8-15.5,17.3-22.6c9.7-10.7,10.7-16.1,2.1-27.3c-12.6-16.2-10.5-31.6-0.2-47.8c15.4-24.5,30.5-49.1,45.6-73.8
				c7.2-11.7,14.9-12.2,23.8-1.4c14.5,17.7,29.3,35.5,44,53.3c21.3,25.9,28.5,55.6,23,88.6c-1.5,9.3,0.1,15.8,8.6,21.4
				c14.5,9.7,20.3,23.9,16.5,37c-2.5,9.1-8.6,15.9-16.2,21.3c-16.4,11.8-35.5,16.4-55.1,19.3c-3.2,0.4-6.4,1.1-9.6,1.1
				c-4.5,0-6,1.9-6,6.3c0,8.7,0.1,9.4,9,8.7c16-1.1,32-1.8,47.9-1.2c29.5,0.9,58.3,5.7,86.4,15.1c6.6,2.2,9.8,6.3,9.9,13.2
				c3.2,119.2-78.7,227.9-194.9,256.6c-86.6,21.5-165,2.5-233.3-54.7C79.3,470.1,50.1,412,42.6,343c-2.9-26.3-1.3-52.6,4.2-78.6
				c1.4-6.7,5-10.9,12.1-12.6C85.5,246,112.3,241.8,131,242.3z M441.8,305.8c-14,0.9-30.9,1-47.5,4.1
				C283,330.2,202.4,391,153.4,493.2c-2.4,5.1-1.8,7.8,2.8,11.1c34.3,24.8,71.8,40.9,113.9,46.5c4.3,0.6,6.2-0.9,7.7-4.6
				c12.7-30.1,30-57.4,50.1-82.9c6.9-8.8,14.1-17.5,22.1-25.3c4.6-4.5,10.8-4.6,15.1-0.7c4.4,4,4.7,10,0.9,15.1c-1.5,2.1-3.3,4-5,6
				c-22.4,24.9-40.4,52.8-55.3,82.6c-6.2,12.3-6.2,12.5,7.6,11.8c59.3-3,110.1-25.5,152.3-67c32-31.5,52.1-69.5,61-113.5
				c0.8-3.7,2-8-4.6-6.3c-31.7,8-62.3,19.4-91,35c-6.5,3.5-13.2,1.1-14.9-6c-1.5-6.5,0.7-11.2,7.3-15c16.7-9.5,34.3-17.3,52.2-24.2
				c17.6-6.8,35.9-10.6,54.1-15.1c8.8-2.2,5.7-9.1,6.7-14.5c1-5.6-3-6.7-7.1-8C501.8,309.5,473.4,306.4,441.8,305.8z M130.1,262.5
				c-13.8-0.7-33.2,2.4-52.5,6c-13.9,2.5-12.1-0.2-14.9,15.5c-2.4,14.3-2.3,14.2,11.8,18.5c26,8,51.9,16.4,75.4,30.6
				c4.4,2.6,7.8,6,9,11.2c1.1,4.5-0.4,8-3.5,11.1c-3.1,3-6.4,1.9-9.6,0.3c-8.2-3.9-16.3-8-24.5-11.8c-16.6-7.7-33.5-15-51.2-19.8
				c-4.3-1.2-7.5-1.7-6.3,4.8c1.1,5.7,0.9,11.6,1.7,17.4c6.5,48.9,26,91.9,59.7,128.2c7.5,8,7.4,7.8,12.3-2.1
				c35.4-70.9,88.5-123.9,159.9-158.2c1.7-0.8,4.4-0.9,4.3-3.2c-0.1-2-2.8-2.5-4.3-3.5C247.8,277.6,193.9,263,130.1,262.5z
				 M405.2,160.6c2-1.9,2.9-2.5,3.6-3.3c6.6-6.2,11.9-6.7,17-1.9c5.2,5.1,4.6,10.9-1.8,17.5c-5.2,5.3-10.4,10.5-15.5,15.5
				c-1.9,1.9-3.2,3.9-3.2,6.7c0.1,16.9,0.1,33.7,0,50.5c0,3.3,1.3,5,4.6,4.6c17.9-2,35.7-4.4,51.3-14.2c16.6-10.5,12.3-16,1.8-23.5
				c-0.3-0.2-0.7-0.6-1-0.9c-16.4-10.7-19.2-26.4-16.5-44.3c3.4-24-0.3-46.2-15.3-66.1c-11.5-15.2-23.3-30.1-34.4-45.4
				c-3.1-4.3-4.2-3.3-6.5,0.4c-12.7,20.6-25.3,41.2-38.5,61.5c-4.6,7.1-5.1,12.8-0.2,20.1c12.6,18.4,12.3,33.5-0.2,50.9
				c-3,4.2-6.5,8-9.9,11.9c-3.6,4.1-7.1,8.2-9.6,13c-6,11.6-4.1,18.2,6.9,24.9c12.8,7.6,27.1,9.7,41.4,11.7c3.1,0.4,4.2-1.2,4.3-4.2
				c0.6-11.3,1-22.4-10.4-29.8c-3.7-2.4-6.6-6.2-9.7-9.5c-4.8-5.3-5.3-10.2-1.4-15.1c3.9-4.7,9.5-5.3,15.5-1.5c1.5,1,3.1,3.2,5,2
				c1.8-1.1,0.9-3.6,0.9-5.5c0.1-19.2,0-38.5,0.1-57.6c0-7.9,4.7-13.2,11.1-13.1c6.5,0.1,10.4,4.7,10.5,12.9
				C405.3,138.8,405.2,149,405.2,160.6z"/>
			<path fill="#1ABC9C" d="M218,191.6c-23.5,0-41.8-18.4-41.8-41.9c0-23.8,18.5-42.1,42.3-42c23.4,0.1,41.5,18.6,41.4,42.2
				C259.9,173.3,241.5,191.6,218,191.6z M238.2,149.5c-0.1-11.3-8.9-20.2-20.3-20.1s-20.2,8.9-20.1,20.3c0.1,11.3,9,20.2,20.3,20.1
				C229.6,169.8,238.3,160.9,238.2,149.5z"/>
			<path fill="#1ABC9C" d="M405.2,410.7c0,8.6-15,20.9-23.3,19.3c-3.9-0.8-6.5-3.1-7.7-6.9c-1.4-4.5-0.3-8.8,3-11.9
				c4.1-3.7,8.7-7.2,13.9-9.4C398,398.8,405.3,403.4,405.2,410.7z"/>
			<path fill="#1ABC9C" d="M180.4,376.4c-5.8-0.1-13.2-8.3-12.9-14.1c0.2-5,6.2-10.2,11.7-10.2c5.6,0,13,8.2,12.8,14.2
				C191.8,371.5,186,376.5,180.4,376.4z"/>
		</g>
	</g>
	<g id="carretera" display="inline">
		<path fill="#1ABC9C" d="M584.1,76.8c-54,3.2-98.3,39.9-111,92.2c-0.4,1.7-0.3,3.6-2.2,4.7c-0.7-0.4-1.2-0.8-1.8-1.2
			c-38.5-26.8-87.5-5.7-94.7,40.7c-1.7,10.5-0.2,21-0.9,31.5c0.7,1,1.4,1.9,1.9,2.9c30.7,66.6,61.5,133,92.1,199.6
			c12.2,26.4,24.2,53,36.4,79.6c0.1,8.5,5.7,15,8.5,22.5c1.7,4.7,5,6.4,10.2,6.4c19.7-0.3,39.4-0.1,59.3-0.1c2.5,0,5.1,0.8,7.5-0.7
			c0-2.8,0.1-5.6,0.1-8.4c0-98.8,0-197.7,0-296.5c0-55.3,0-110.7,0-166.2C589.5,79.9,590.3,76.4,584.1,76.8z M541.3,490.8
			c-2.5-1.5-3-4.2-4-6.4c-37.7-81.5-75.3-163.2-113.1-244.7c-3.3-7.1-3.3-14.1-2.2-21.2c1.1-7.7,7.2-11,14.8-9.1
			c3.7,0.7,6.1,3.4,8.7,5.6c18,14.9,35.8,29.9,53.8,44.8c1.2,1,2.5,1.9,4.7,3.6c4.4-23.6,8.7-46.3,13-69.1
			c2.3-19.2,8.4-36.7,24.2-50.6L541.3,490.8L541.3,490.8z"/>
		<path fill="#1ABC9C" d="M230.3,219.5c-1.3-38.1-35.5-65.1-72.6-57.4c-9.3,1.9-17.2,6.6-25,11.9c-0.6-1.3-1-2.1-1.2-3
			c-10.6-50.6-55.2-90.6-108.7-94c-7.5-0.4-8.3,1.7-8.3,8c0.1,154.2,0.1,308.4,0.1,462.6c0,2.3,0.1,4.6,0.1,7.1
			c2.1,1.4,4.5,0.7,6.8,0.7c19.4,0.1,38.8-0.3,58.2,0.2c6.8,0.2,10-2.4,12.7-8.2c17-37.5,34.4-74.7,51.6-112.1
			c24.7-53.7,49.6-107.3,74.2-161.1c4.4-9.7,10.7-18.7,12.3-29.6C230.5,236.3,230.6,227.9,230.3,219.5z M180.9,237.1
			c-30.9,67-61.8,134-92.7,200.9c-8,17.5-16.2,35-25.3,52.3V143.8c15.9,13.8,21.8,31.3,24.2,50.6c4.3,22.6,8.5,45.3,13,69.2
			c8.2-6.7,15.6-12.9,23-19.1c12.3-10.2,24.7-20.6,37-31c2.1-1.8,4.1-4,7.1-4.3c6.7-1.5,12,0.6,14,6.5
			C183.6,222.9,184.1,230.3,180.9,237.1z"/>
		<path fill="#1ABC9C" d="M278.5,288.2c0-14.4-0.1-28.9-0.1-43.4c15.9,0,31.7,0,47.6,0c0,14.4-0.1,28.9-0.1,43.4
			c-1.8,1.8-4.1,2.2-6.4,2.2c-11.6,0.2-23,0.2-34.6,0C282.5,290.4,280.2,289.9,278.5,288.2z"/>
		<path fill="#1ABC9C" d="M326.3,526.7c-0.1,9.7-0.2,19.4-0.3,29.2c-15.9,0-31.7,0-47.6,0c-0.1-9.7-0.2-19.4-0.3-29.2l0.4,0.1
			c1.8-1.8,4.1-2.2,6.4-2.2c11.6-0.2,23-0.2,34.6,0c2.3,0,4.6,0.3,6.4,2.2L326.3,526.7z"/>
		<path fill="#1ABC9C" d="M278.5,407.4c-0.1-12.9,0-25.7-0.3-38.6c-0.1-4.3,1.8-5,5.4-5c12.3,0.2,24.8,0.2,37.1,0
			c3.6,0,5.5,0.7,5.4,5c-0.3,12.8-0.2,25.7-0.3,38.6c-1.8,1.8-4.1,2.1-6.4,2.2c-11.6,0.2-23,0.2-34.6,0
			C282.5,409.6,280.2,409.3,278.5,407.4z"/>
		<path fill="#1ABC9C" d="M325.7,526.7c-15.8,0-31.5,0-47.3,0c-0.1-12.6,0-25.2-0.3-37.8c-0.1-3.7,0.9-5.4,5.1-5.4
			c12.6,0.2,25.2,0.2,37.8,0c4.2-0.1,5.1,1.5,5.1,5.4C325.8,501.5,325.8,514.2,325.7,526.7z"/>
		<path fill="#1ABC9C" d="M278.5,407.4c15.8,0,31.5,0,47.4,0c0.1,7.9,0,15.9,0.3,23.8c0.1,3.9-1,5.4-5.1,5.4
			c-12.6-0.2-25.2-0.2-37.8,0c-4.1,0.1-5.2-1.5-5.1-5.4C278.5,423.4,278.3,415.3,278.5,407.4z"/>
		<path fill="#1ABC9C" d="M278.5,288.2c15.8,0,31.5,0,47.4,0c0.1,7.9,0.1,15.9,0.3,23.8c0.1,3.3-1.1,4.5-4.4,4.4
			c-13-0.1-26.1-0.1-39.1,0c-3.3,0-4.5-1.1-4.4-4.4C278.3,303.9,278.3,296.1,278.5,288.2z"/>
	</g>
	<g id="reforestacion">
		<g display="inline">
			<path fill="#1ABC9C" d="M419.5,28.1c6,3.3,7.5,8.5,8,15.1c1.3,17.7-0.4,35.2-5,52.2c-9.4,35-32.4,56.2-67.1,65.2
				c-12.5,3.2-25.1,4.6-37.9,5.1c-3.7,0.1-5.4,1.2-5.4,5.2c0.1,60.9,0.1,121.9,0.1,182.9c0,0.7,0.1,1.3,0.2,2.4
				c8-7.8,15.9-15.4,23.7-23c1.3-1.2,0.8-3,0.4-4.5c-10.6-61.7,9.3-112.5,55.4-153.8c6-5.4,12.2-10.4,19.1-14.5
				c6.7-4.2,13.2-3.2,16.9,2.3c3.4,5.2,1.9,12-4.3,16.2c-19,13.1-35.3,28.7-47.4,48.4c-11.6,18.8-18.1,39.2-19.5,61.3
				c-0.4,7.6-1.5,15.2,0.6,22.8c2.2-0.3,3.2-2.2,4.4-3.5c22.7-22.6,45.3-45.2,67.9-67.9c1-1,2-2,3-3c5.7-5.5,12.3-6.1,17.1-1.5
				c4.8,4.6,4.4,11.7-1.3,17.4c-23.5,23.6-46.9,47.1-70.5,70.5c-1.3,1.3-2.6,2.8-4.6,4.8c10.7,1.8,20.8,1.7,30.5,0
				c60.5-9.9,99.6-45.2,118.9-102.8c6.5-19.5,6.7-39.8,3.3-60.1c-0.7-3.9-2.2-5.5-6.1-5.8c-5.8-0.4-11.7-1.2-17.4-1.9
				c-1.4-0.1-2.9-0.1-4.3-0.3c-7.3-1.1-11.2-5.6-10.9-12c0.3-6.1,4.8-10.2,12-10.5c8.2-0.2,16.3,1.1,24.4,2.3c3,0.4,5.8,1.3,8.8,1.9
				c8.7,1.3,12.6,6.6,14.2,14.9c12.7,63.1-6.9,115.4-54.2,157.6c-33.3,29.8-72.7,42.8-117.2,40c-6-0.3-12-1.5-17.9-2.6
				c-2.6-0.4-4.7-0.2-6.7,1.9c-10.8,10.9-21.6,21.7-32.4,32.4c-3,2.9-1.4,3.5,1.5,4.2c25,5.1,44.8,18.3,59.4,39.1
				c1.7,2.4,3.5,3.9,6.6,3.4c11.3-1.4,22.7-1.2,34,0c1.3,0.1,3.2,0.7,4-0.8c0.9-1.7-0.7-3-1.7-4.2c-4.1-5.2-9.5-7.7-16.1-8.4
				c-7.8-0.8-11.9-5.5-11.2-12.6c0.7-6.3,5.5-9.8,13.1-9.5c2.3,0.1,4.6,0.2,6.8,0.8c7.4,1.8,14.2,4.7,19.6,10.2
				c2.6,2.6,4.3,2.5,6.9,0c7.5-7.1,16.5-10.8,27-11c7.2-0.2,11.9,3.4,12.6,9.5c0.7,6.9-3.3,11.9-10.7,12.6
				c-8.5,0.8-14.9,4.4-18.8,12c-2.6,5.2-1.9,6.9,3.5,8.6c24.7,7.6,46.6,20.2,65.8,37.4c26,23.1,43.7,51.6,53.6,85
				c2.4,8.5-2.4,14.8-11.5,15c-0.7,0-1.4,0-2.1,0c-172.8,0-345.5,0-518.2,0.1c-6.1,0-10.8-1.4-13.9-6.8c0-2.9,0-5.7,0-8.5
				c5.4-16.1,11.8-31.5,20.9-46c23-36.1,54.8-61,95.2-74.9c9.6-3.3,10.6-6.5,3.9-14.3c-4-4.6-9-6.7-14.9-7.4
				c-8.2-0.9-12.1-5.2-11.7-12.2c0.4-6.5,5.4-10.1,13.2-9.8c10,0.3,18.7,4,26,10.8c2.8,2.5,4.4,3,7.4,0.2c7.6-7.3,17-10.9,27.5-11
				c6.7-0.1,11.3,3.7,11.9,9.7c0.7,6.7-3.3,11.8-10.2,12.3c-7.4,0.7-13.3,3.5-17.7,9.4c-0.7,1-1.8,2.1-0.9,3.3c0.7,1,2,0.8,3,0.7
				c12-1.3,24.1-1.4,36.1-0.1c2.5,0.3,3.9-1.3,5.1-3.1c15.2-22,36-35.4,62.4-40c3.7-0.7,5-2.1,5-6c-0.2-18.3-0.1-36.6,0-54.9
				c0-4-0.8-5.2-5.2-4.5c-89.6,14.8-167.5-54.2-178.5-131c-2.9-19.7-1.9-39.3,2.9-58.7c1.4-6.1,5-9.6,10.9-11
				c32.8-7.9,64.9-5.5,95.9,8c29.4,12.9,52.6,33.3,70.6,59.7c0.4,0.8,1.1,1.4,1.7,2.1c0.1,0.1,0.3,0.1,0.6,0.1
				c1.1-1.5,0.6-3.4,0.6-5.1c0.1-16.7-0.2-33.4,0.1-50.1c0.3-18.8,4.3-37,12.3-54.1c13-27.5,35.9-42.2,64.6-49.1
				c7.1-1.7,14.2-2.8,21.4-4.1C398.8,28.1,409.1,28.1,419.5,28.1z M330.4,552.4c70.5,0,141,0,211.7,0c5.7,0,5.7,0,3.5-5.4
				c-6.2-14.7-14.4-28.1-25-40.1c-30.4-34.5-68.4-53.3-114.6-55.2c-9.6-0.4-19.2,0.2-28.8,1.2c-5.3,0.6-9.3-1.8-12-6.3
				c-1.1-1.9-2.2-3.6-3.3-5.5c-27.2-43.2-91.3-44.8-119.7-2.3c-7.3,11-14.2,14.8-27.5,13.4c-32.1-3.3-62.6,3.6-90.7,19.7
				c-31.1,17.9-53.9,43.2-68,76.1c-1.4,3.3-1.1,4.4,2.8,4.3c8.4-0.2,16.7-0.2,25,0c4.1,0.1,6.1-1.4,7.5-5.2
				c6.7-17.4,17.6-32,31.5-44.3c9-8.2,19.3-14.5,30.4-19.4c6.2-2.6,12.3-0.3,14.9,5.2c2.5,5.4,0.7,11-5.1,14.5
				c-1.7,1-3.4,1.9-5.2,2.8c-17.7,9-31.5,22.4-41.2,39.7c-3.5,6.3-3.4,6.5,3.6,6.5C190.3,552.4,260.4,552.4,330.4,552.4z M156.9,139
				c-7.1,0.2-14.2,0.2-21.3,1.4c-3.4,0.6-5.4,2.1-6,5.6c-2.3,15.4-2.5,30.9,0.6,46.2C143,256.3,201.7,302.8,267,300.7
				c1.7,0,4.2,0.7,4.7-1.2s-1.8-2.9-3-4.1c-17.6-17.7-35.4-35.5-53.1-53.2c-1.5-1.5-3.1-3-4.3-4.7c-3.3-4.6-3-10.2,0.8-14.1
				c3.7-4,9.4-4.6,14.1-1.5c1.9,1.2,3.6,2.9,5.2,4.5c17.9,17.9,35.7,35.7,53.6,53.4c1.1,1.1,2,3.2,3.6,2.5c1.7-0.6,1.3-2.8,1.3-4.3
				c0.3-8.4-0.2-16.6-1.3-25C280.7,192.9,221.9,137.1,156.9,139z M315.3,123.7c1.3-1.2,2.5-2.4,3.9-3.6c7.5-7.5,15-15.1,22.6-22.6
				c6.2-6.2,12.9-6.7,17.7-1.8c5,5.1,4.2,11.3-2.1,17.7c-4.8,5-9.7,9.9-14.7,14.7c-4.3,4.1-8.8,8-13.9,12.7c2.2,0.7,2.6,1,3.1,0.9
				c2.9-0.3,5.6-0.6,8.5-1c19-3.4,36.5-9.8,48.4-26.1c13.4-18.3,16.4-39.7,16.5-61.6c0-3.1-2.1-2.6-4.1-2.6
				c-8.4,0-16.6,0.8-24.8,2.5c-20.2,4.4-38.1,12.7-49.6,31C319.1,96,315.2,109.2,315.3,123.7z"/>
			<path fill="#1ABC9C" d="M445.6,151c0.1-6.1,5.2-10.9,11.3-11c6.2,0,11.7,5.5,11.5,11.6c-0.2,6-6.1,11.1-12.2,11
				C450.2,162.4,445.6,157.4,445.6,151z"/>
			<path fill="#1ABC9C" d="M201.2,495.4c-6.2-0.1-11.2-5.1-11.1-11.1c0-6.2,5-10.8,11.3-10.9c6.4,0,11.3,4.7,11.5,10.8
				C212.8,490.6,207.6,495.5,201.2,495.4z"/>
		</g>
	</g>
	<g id="revegetalizacion">
		<g display="inline">
			<path fill="#1ABC9C" d="M383.4,347.1c-8.7-13.9-30.6-40.8-71.6-45.2C302.6,14.7,440.1,49.5,440.1,49.5
				c-65,19.1-91.9,71.3-91.9,71.3c108.9,15,116.1-64.8,115.9-87.6c0-3.5-2.3-6.7-5.6-7.8C323.7-19.3,299.1,196.9,299.1,196.9
				C259.9,47.3,169.3,65,143,73.6c-4.2,1.4-6.6,5.8-5.5,10.1c30.5,116.7,121.9,86.2,121.9,86.2c-30.7-59.4-87.2-71.3-87.2-71.3
				C305.8,109.1,294.4,283,292.9,301.5c-54.3,2.2-68.3,29.3-78,43.5c-2.3,3.4-6.2,5.6-10.4,6c-13.8,1-47.5,5.4-57.5,26.7
				c0,0,31.7,27,76.1,50.7c31.4,16.9,56.9,50.2,69.1,68.4c3.6,5.3,11.6,5.1,14.8-0.6c10.8-19.4,33.1-54.2,55.6-61.5
				c42.1-13.6,90.4-57.1,90.4-57.1s-28.8-27.4-56.6-24.1C391.1,354,386.1,351.5,383.4,347.1z M215.9,391.8c-7.7,0-14-6.3-14-14
				s6.3-14,14-14c7.7,0,14,6.3,14,14S223.6,391.8,215.9,391.8z M284.5,318.9c3.7,0,6.8,3.1,6.8,6.8s-3.1,6.8-6.8,6.8
				c-3.7,0-6.8-3.1-6.8-6.8S280.8,318.9,284.5,318.9z M270.6,439.4c-11.3,0-20.6-9.3-20.6-20.6c0-11.3,9.3-20.6,20.6-20.6
				c11.3,0,20.6,9.3,20.6,20.6C291.2,430.2,282,439.4,270.6,439.4z M305.2,367.6c-7.7,0-14-6.3-14-14s6.3-14,14-14s14,6.3,14,14
				S312.9,367.6,305.2,367.6z M368.7,414.9c-11.3,0-20.6-9.3-20.6-20.6c0-11.3,9.3-20.6,20.6-20.6c11.3,0,20.6,9.3,20.6,20.6
				C389.3,405.6,380.1,414.9,368.7,414.9z M419.3,371c3.7,0,6.8,3.1,6.8,6.8s-3.1,6.8-6.8,6.8c-3.7,0-6.8-3.1-6.8-6.8
				S415.5,371,419.3,371z"/>
			<path fill="#1ABC9C" d="M30.1,321.3c-0.1-3.7,4.6-5.5,7.1-2.5c10.9,13.4,32.2,45.3,45.4,101.7c18.4,78.5,79.7,83.6,104,88.8
				c0,0,11.3-22.8-13.7-46c-22.6-20.9-41.8-34.7-45.6-67.9c-0.4-3.9,4.2-6.3,7.1-3.6c7.9,7.2,22.9,19.8,49.4,38.9
				c45.2,32.7,104,49.9,104.7,153.9c0,0-86.8,15.4-180.2-69C38.3,447.8,30.6,352.4,30.1,321.3z"/>
			<path fill="#1ABC9C" d="M569.9,321.3c0.1-3.7-4.6-5.5-7.1-2.5c-10.9,13.4-32.2,45.3-45.4,101.7c-18.4,78.5-79.7,83.6-104,88.8
				c0,0-11.3-22.8,13.7-46c22.6-20.9,41.8-34.7,45.6-67.9c0.4-3.9-4.2-6.3-7.1-3.6c-7.9,7.2-22.9,19.8-49.4,38.9
				c-45.2,32.7-104,49.9-104.7,153.9c0,0,86.8,15.4,180.2-69C561.7,447.8,569.4,352.4,569.9,321.3z"/>
		</g>
	</g>
</g>
<g id="Layer_2">
	<g id="siembra_1_" display="none">
		<g display="inline">
			<path fill="#1ABC9C" d="M13.7,538.4c0-77.8,0-155.6,0-233.4c0.7-0.4,1.2-0.8,1.9-1.2c27.3-21.3,56.2-20.2,81.7,3.1
				c1.7,1.5,3.3,3,5.1,4.4c20.8,15.9,52.6,16.2,75.9-5.7c24.7-23.3,57.6-22.4,82.2,0.7c4.8,4.5,10,8.4,16,11.2
				c6.8,3.2,7.2,3,7.2-4.3c0-43.7,0-87.5,0-131.2c0-7.7-0.6-8-8-8.8c-23.6-2.4-46.1-8.5-65.9-21.7c-44.5-29.8-60.2-73.7-60.6-125
				c0-3.5,2.1-4.3,5.1-4.4c10.5-0.3,20.9,0.8,31.3,2.4c59.1,9.4,99.2,47.2,111.8,105.5c1.4,6.4,2.3,12.9,3.5,19.4
				c1.2-3.4,1.7-6.7,2.2-10c4.6-28.9,15-55.2,36-76.3c30-30,67.2-41,108.7-41.1c4,0,5.1,1.8,5.2,5.5c0.3,14.1-1.4,28-4.7,41.7
				c-9.8,39.8-31,71-68.5,89.4c-17.2,8.4-35.4,13-54.3,14.7c-5.1,0.4-7.1,2.3-7.1,7.6c0.2,44.5,0.1,89,0.1,133.6
				c0,5.7,0.6,6.1,5.6,3.9c7.5-3.2,13.7-8.4,19.6-13.8c14.3-13.1,31.3-17.6,50.4-14.3c12.9,2.2,23,9.1,32.4,17.7
				c14.3,13.2,31.4,17.5,50.5,13.9c11.8-2.2,21.3-8.5,30-16.5c14.8-13.9,32.4-18.6,52.3-14.9c11.2,2.1,20.3,8.2,29.1,15
				c0,77.8,0,155.6,0,233.4c-2.6,0.1-5.2,0.4-7.8,0.4c-186.2,0-372.6,0-558.8,0C18.8,538.8,16.2,538.5,13.7,538.4z M229.3,417
				c0.1,26.3,13.8,48.8,37.8,59.2c20.9,9,42.5,9.5,63.9,1.3c22.8-8.7,35.9-25.7,40.2-49.8c3.5-19.6-2-36.9-12.5-53.1
				c-10-15.5-22.8-28.7-36.6-40.7c-2.5-2.2-5.4-4.1-5.2-8.2c0.1-2.3-1.3-3.4-3.6-2.9c-8.5,1.9-17.1,1.9-25.6,0
				c-2.1-0.4-3.5,0.6-3.4,2.5c0.3,4.3-2.6,6.3-5.3,8.6c-13.8,11.9-26.4,24.8-36.3,40.2C235,386.8,229,399.9,229.3,417z"/>
			<path fill="#1ABC9C" d="M300.4,450.6c-4-0.4-8.5-0.4-12.9-1.3c-24.2-5.3-30.2-31.1-23.4-46.5c3.5-7.9,8.4-15,14-21.6
				c6-7.1,12.2-13.7,19.1-19.7c2.6-2.3,4.5-2.4,7.2-0.1c10.6,9.6,20.3,19.8,28.1,31.8c8.6,13.1,10.7,26.8,3,40.8
				C327.9,447.3,314.9,450.2,300.4,450.6z"/>
		</g>
		<path display="inline" fill="none" d="M1438.8,375.2c-1-0.6-1.3-1.9-0.7-2.9l2.4-3.9c0.6-1,1.9-1.2,2.9-0.7l64.7,38.5
			c1,0.6,1.3,1.9,0.7,2.9l-2.4,3.9c-0.7,1-1.9,1.3-2.9,0.7L1438.8,375.2z"/>
		<path display="inline" fill="none" d="M1516.8,302.5c-1-0.7-1.3-2-0.8-3.1l2.5-4.2c0.7-1,2-1.3,3.1-0.8l67.7,41.3
			c1,0.7,1.3,2,0.8,3.1l-2.5,4.2c-0.7,1-2,1.3-3.1,0.8L1516.8,302.5z"/>
		<path display="inline" fill="none" d="M1602.5,336.3v204.8H994.3l134.4-109.4l241.7-42.6l29.9-36.1l23.1,13.6l-2,3.2
			c-0.6,1-0.3,2.2,0.7,2.9l85.7,51c1,0.6,2.3,0.3,2.9-0.7l10.1-16.2c0.6-1,0.3-2.2-0.7-2.9l-85.7-51c-1-0.6-2.3-0.3-2.9,0.7l-6,9.6
			l-22.7-13.2l62-75.3l35.7,18.6l-2.1,3.4c-0.7,1-0.3,2.4,0.8,3.1l89.7,54.8c1,0.7,2.4,0.3,3-0.8L1602.5,336.3z"/>
		<polygon display="inline" fill="none" points="1389.8,346.9 1364.5,376.6 1135.3,420.7 1210.2,359.7 1311.6,359.7 1325.5,309.3 		
			"/>
		<polygon display="inline" fill="none" points="1455.5,269.6 1392.5,343.7 1326.6,305.2 1351.5,215.4 		"/>
		<polygon display="inline" fill="none" points="1518.8,86.4 1482,238.5 1458.4,266.2 1352.7,211 1368.2,155.5 		"/>
		<path display="inline" fill="none" d="M1602.5,52.7v281c-0.2-0.2-0.3-0.4-0.7-0.6l-89.7-54.8c-1-0.7-2.4-0.3-3,0.8l-6.3,10.2
			l-35.2-18.3l23.8-28.9l41.1-163.9L1602.5,52.7z"/>
		<path display="inline" fill="none" d="M1590.1,338.8l-2.5,4.2c-0.7,1-2,1.3-3.1,0.8l-67.7-41.3c-1-0.7-1.3-2-0.8-3.1l2.5-4.2
			c0.7-1,2-1.3,3.1-0.8l67.7,41.3C1590.4,336.5,1590.7,337.9,1590.1,338.8z"/>
		<path display="inline" fill="none" d="M1508.9,409.1l-2.4,3.9c-0.7,1-1.9,1.3-2.9,0.7l-64.7-38.5c-1-0.6-1.3-1.9-0.7-2.9l2.4-3.9
			c0.6-1,1.9-1.2,2.9-0.7l64.7,38.5C1509.1,406.8,1509.4,408.2,1508.9,409.1z M1508.1,406.3l-64.7-38.5c-1-0.6-2.3-0.3-2.9,0.7
			l-2.4,3.9c-0.7,1-0.3,2.2,0.7,2.9l64.7,38.5c1,0.6,2.3,0.3,2.9-0.7l2.4-3.9C1509.4,408.2,1509.1,406.8,1508.1,406.3z"/>
	</g>
	<g id="talud_1_" display="none">
		<path display="inline" fill="#1ABC9C" d="M577.5,92.5L356.1,197l-9,32.4c-0.3-0.2-0.8-0.3-1.1-0.3l-7.9-1.5
			c-2.4-0.4-4.8,1.1-5.3,3.5L331,240l-3.4-1.7c-0.3-0.1-0.6-0.2-0.9-0.2c-0.8,0-1.4,0.4-1.8,1.1c-0.4,1-0.1,2.1,0.9,2.6l4.4,2.1
			l-3.1,15.8c-0.4,2.4,1.1,4.8,3.5,5.3l6.2,1.2l-12.1,43.2L319,308c-2.4-0.7-4.8,0.9-5.5,3.3l-3,11.8l-5.6-2.6
			c-0.3-0.1-0.6-0.2-0.9-0.2c-0.8,0-1.4,0.4-1.8,1.1c-0.4,1,0,2.1,0.9,2.6l6.3,3l-3.3,12.7c-0.7,2.4,0.9,4.8,3.3,5.5l4.8,1.2
			l-6.7,24h-89.4L13.7,543.5v10.2h572.9V92.5H577.5z M370.6,203.1L497,151L463,273.7l-15.2,23.7l-90.4-46.6L370.6,203.1z
			 M511.6,456.1l-73.8-40.2l5.3-11.6l-57.4-32.8L361.3,406l-181.9,27.8l44.2-41l97.3-4.7l11.3-47.6l53.3,31.1l4.7-5.5l-55.9-31.6
			l21.4-76.7l87.7,45.7l-53.2,62.5l57.2,31.3l5.8-8.3l73.3,44.1L511.6,456.1z M558.3,378.7l-67.2-36l4.7-10.4l-52.3-29.5l4.3-5
			l52,28l5.3-7.4l66.7,39.4L558.3,378.7z"/>
		<path display="inline" fill="#1ABC9C" d="M561.4,361.8l-53.7-32.3c-0.9-0.6-2.1-0.2-2.6,0.7l-2.2,3.7c-0.6,0.9-0.2,2.1,0.7,2.6
			l53.7,32.3c0.9,0.6,2.1,0.2,2.6-0.7l2.2-3.6C562.6,363.5,562.3,362.3,561.4,361.8z"/>
		<path display="inline" fill="#1ABC9C" d="M515.5,441.3l-2.1,3.4c-0.6,0.9-1.7,1.1-2.5,0.6l-57-33.9c-0.9-0.6-1.1-1.7-0.6-2.5
			l2.1-3.4c0.6-0.9,1.7-1.1,2.5-0.6l57,33.9C515.7,439.3,516,440.4,515.5,441.3z"/>
	</g>
	<g id="alianza_1_" display="none">
		<g display="inline">
			<path fill="#1ABC9C" d="M247.1,446c-5-0.3-9.9,1.4-13.9,5.1c-3.9,3.5-5.6,2.3-7.1-2c-1.2-3.6-3.5-6.7-6.4-9.3
				c-11.3-10.1-26.6-9-35.9,3c-4.6,5.8-8.7,12-12.9,18.2c-2.2,3.2-4,3.3-6.4,0.2c-12-15.1-24-30.2-36.1-45.1
				c-2.8-3.3-1.2-5.8,0.4-8.7c15.6-27.1,31.3-54.2,46.9-81.3c4.3-7.5,8.7-14.9,12.9-22.5c1.9-3.3,3.7-4.5,7.7-3.1
				c17.3,6.4,34.7,12.5,52.1,18.6c4.4,1.5,5,3.3,1.4,6.5c-7.1,6.6-13.9,13.3-20.8,20.1c-2,1.9-3.4,3.7-3.5,6.7
				c-0.8,17.4-1.9,34.8-2.3,52.2c-0.3,13.9,8.5,20.4,22,17.2c12.2-2.9,21.5-9.6,27.3-20.7c3.7-7.1,7.3-14.3,10.8-21.5
				c1.4-3.1,3.5-5.2,6.6-6.6c6.9-3.1,13.8-6.5,21.3-8.4c8.4-2.1,16.3-1.4,23.8,3c39.2,22.7,78.5,45.4,117.7,68.2
				c11.7,6.8,14.1,19.3,6.1,29.6c-6.2,7.9-15.6,9.9-25.3,4.5c-11.3-6.4-22.6-13.1-33.8-19.6c-1.5-0.9-3.2-1.8-4.8-2.4
				c-1-0.4-2-0.1-2.5,0.9s-0.4,2.1,0.3,2.8c1.2,1,2.5,1.9,4,2.8c14.9,8.7,29.9,17.3,44.6,26.1c9.6,5.7,12.5,15.3,8,24.8
				c-5.2,11.2-16.6,15.2-27.7,9c-15.5-8.8-30.9-18-46.4-26.8c-2.4-1.3-6.1-5-7.8-1.9c-2.2,3.9,3.1,4.6,5.5,6.1
				c11.3,6.8,22.9,13.3,34.2,20.2c7.2,4.4,10.5,11,8.7,19.5c-1.8,8.6-6.9,14.3-15.5,16.5c-5.7,1.4-10.7-0.8-15.4-3.5
				c-11.8-6.8-23.6-13.8-35.4-20.6c-1-0.7-2.1-1.2-3.1-1.8c-1.7-0.9-3.5-1.8-4.6,0.4c-1,2,0.8,2.9,2.2,3.6
				c8.8,5.2,17.6,10.4,26.4,15.5c1.5,0.9,3.2,1.8,4.6,2.8c9.6,6.6,11.8,17.1,5.6,26.9c-5.8,9.4-16.3,12.1-26.1,6.6
				c-8.9-5-17.6-10.4-26.6-15.3c-3.2-1.8-3.3-3.6-2.1-6.8c6-17-4.2-32.3-22.4-33.7c-5-0.3-6-1.3-3.2-6c10.2-17.4-0.7-37.1-20.9-37.5
				c-5.3-0.1-6.7-1.3-6.4-6.7C273.7,457.6,261.8,446,247.1,446z"/>
			<path fill="#1ABC9C" d="M228,403.5c0.7-15.9,1.3-31.6,2-47.5c0.1-3,1.2-5.4,3.3-7.4c11.8-11.2,23-22.9,35.2-33.7
				c15.9-14.1,33.7-19.2,54.5-14.4c16.2,3.6,32.7,6.3,49.4,6.5c16.7,0.2,33.2-2,49.3-6.5c4.5-1.2,6.9-0.4,9.3,3.6
				c19.5,34.2,39.2,68.2,59,102.1c2.5,4.3,2,6.5-2.6,8.7c-9.3,4.3-18.4,9-27.3,13.9c-3.6,2-6.5,1.8-10-0.3
				c-36.4-21.2-73.1-42.1-109.3-63.5c-11.7-6.8-23.3-8.3-35.6-3.5c-6.7,2.5-13.2,5.7-19.9,8.5c-3.1,1.3-4.4,4-5.7,6.6
				c-4.6,9.1-8.5,18.6-14.3,27.1c-5.4,7.8-13,11.8-21.9,13.4C232.7,419,227.5,414.2,228,403.5z"/>
			<path fill="#1ABC9C" d="M101.9,429.6c-6,0-9.6-1.8-13-3.9c-12-6.9-24-13.9-35.9-20.8c-12.9-7.5-15-15.4-7.5-28.4
				c21.4-37,42.8-74,64.1-111c2.9-4.8,5.5-9.8,8.5-14.5c5.3-8.3,13.8-10.9,22.4-6.3c14.7,7.9,29.1,16.3,43.3,24.9
				c8.5,5.1,10.2,14.3,5,23.7c-11,19.4-22.1,38.6-33.3,57.9c-13.2,22.9-26.6,45.8-39.7,68.8C112.2,426,107.2,429.3,101.9,429.6z"/>
			<path fill="#1ABC9C" d="M518.9,429.6c-7.3-0.3-12.1-4.1-15.8-10.4c-19.2-33.4-38.5-66.8-57.7-100.1c-5.1-8.7-10.1-17.3-15-26.1
				c-5.5-9.8-3.4-18.5,6.2-24.2c13.6-8.2,27.3-16.1,41.2-23.7c9.5-5.3,18.3-2.9,23.7,6.5c24.6,42.3,49,84.7,73.4,127.2
				c6,10.4,3.4,19.1-6.7,25.1c-12.9,7.7-26,15.1-39,22.6C526,428.3,522.6,429.6,518.9,429.6z"/>
			<path fill="#1ABC9C" d="M122,205.3c-24.7,0-49.4-0.1-74,0.1c-5.2,0-7.2-1.2-6.3-6.8c4.4-31.3,21-53.6,49.9-65.7
				c28.3-12,55.5-7.7,80.1,10.6c18.4,13.8,28.5,32.5,31.6,55.4c0.7,5.4-1.1,6.6-6.1,6.6C172.1,205.2,147.1,205.3,122,205.3z"/>
			<path fill="#1ABC9C" d="M496.5,205.3c-24.5,0-48.9,0-73.4,0c-7.7,0-7.8-0.2-6.8-7.8c5-39.3,38.7-70.2,77.5-71.1
				c41.1-0.9,76.1,27.5,83.2,67.4c2,11.5,2,11.5-9.5,11.5C543.8,205.3,520.1,205.3,496.5,205.3z"/>
			<path fill="#1ABC9C" d="M309.5,205.3c-24.5,0-48.9,0-73.4,0c-7.4,0-8.2-0.9-7.2-7.9c5.8-41.2,40.6-71.3,82-71
				c39.9,0.3,75,32.1,79.6,71.7c0.6,5.1-0.7,7.3-6.3,7.3C359.2,205.1,334.4,205.3,309.5,205.3z"/>
			<path fill="#1ABC9C" d="M309.5,121.2c-21.2,0-38.6-17.4-38.6-38.1c0.1-21,18-38.8,39-38.6c20.8,0.2,38.3,18,38.2,38.7
				C348.1,104.1,330.6,121.3,309.5,121.2z"/>
			<path fill="#1ABC9C" d="M458.5,82.8c0.1-21,17.3-38.3,38.3-38.2c20.9,0,38.2,17.4,38.2,38.5c0,21.5-17.4,38.8-38.7,38.5
				C475,121.1,458.4,104.1,458.5,82.8z"/>
			<path fill="#1ABC9C" d="M160.7,83.1c0,21.3-17,38.2-38.2,38.2C101,121.3,84,104,84.1,82.5c0.1-20.9,17.6-38.2,38.6-38
				C143.7,44.6,160.7,61.9,160.7,83.1z"/>
			<path fill="#1ABC9C" d="M267.9,470.2c0.2,4.4-1.3,8.3-3.9,11.8c-12.3,17.5-24.5,35.2-36.9,52.6c-7.2,9.9-18,11.8-27.3,5.3
				c-9.7-6.7-11.7-17.7-4.7-27.9c12.5-18,25-35.8,37.7-53.6c5.3-7.4,13-9.5,21.3-6.7C262.3,454.5,267.8,461.9,267.9,470.2z"/>
			<path fill="#1ABC9C" d="M249.9,566.5c-8.3-0.3-14.4-4-18.5-10.8c-4-6.7-3.4-13.4,1-19.7c10.6-15.1,21-30.3,31.8-45.2
				c6.6-9,17.4-10.4,26.6-4c9,6.3,11.6,17.3,5.4,26.3c-10.4,15.2-21,30.2-31.7,45.3C260.9,563.4,255.9,566.1,249.9,566.5z"/>
			<path fill="#1ABC9C" d="M202.4,438c16.3,0.2,25.7,16.5,17.2,29.9c-7.4,11.6-15.5,22.8-23.9,33.8c-6.2,8.2-16.5,9.3-25.3,3.6
				c-8.9-5.8-12.5-16.2-6.8-25c7.9-12.5,16.7-24.5,25.5-36.4C192.3,439.6,197.4,437.7,202.4,438z"/>
			<path fill="#1ABC9C" d="M293.1,582c-16.3-0.2-25.9-16.9-17.7-30.1c3.6-6,7.7-11.7,12-17.2c7.4-9.4,17.6-10.8,27-4.1
				c9.1,6.6,11.1,17.2,4.7,27c-3.6,5.5-7.5,10.9-11.5,16.2C303.9,578.8,299,581.9,293.1,582z"/>
		</g>
	</g>
	<g id="paisajismo_1_" display="none">
		<g display="inline">
			<path fill="#1ABC9C" d="M131,242.3c75.5-0.1,136.5,19.4,192.4,55.8c4.8,3.2,8.8,3.9,14.3,1.9c12.8-4.6,26-7.9,39.4-10.4
				c9.5-1.8,5.6-8.5,6.4-13.6c0.8-5.7-3.4-5.3-7.1-5.6c-15.2-1.8-30.4-3.7-44.5-10.4c-26-12.1-32.6-33.6-18.3-58.6
				c4.7-8.3,10.8-15.5,17.3-22.6c9.7-10.7,10.7-16.1,2.1-27.3c-12.6-16.2-10.5-31.6-0.2-47.8c15.4-24.5,30.5-49.1,45.6-73.8
				c7.2-11.7,14.9-12.2,23.8-1.4c14.5,17.7,29.3,35.5,44,53.3c21.3,25.9,28.5,55.6,23,88.6c-1.5,9.3,0.1,15.8,8.6,21.4
				c14.5,9.7,20.3,23.9,16.5,37c-2.5,9.1-8.6,15.9-16.2,21.3c-16.4,11.8-35.5,16.4-55.1,19.3c-3.2,0.4-6.4,1.1-9.6,1.1
				c-4.5,0-6,1.9-6,6.3c0,8.7,0.1,9.4,9,8.7c16-1.1,32-1.8,47.9-1.2c29.5,0.9,58.3,5.7,86.4,15.1c6.6,2.2,9.8,6.3,9.9,13.2
				c3.2,119.2-78.7,227.9-194.9,256.6c-86.6,21.5-165,2.5-233.3-54.7C79.3,470.1,50.1,412,42.6,343c-2.9-26.3-1.3-52.6,4.2-78.6
				c1.4-6.7,5-10.9,12.1-12.6C85.5,246,112.3,241.8,131,242.3z M441.8,305.8c-14,0.9-30.9,1-47.5,4.1
				C283,330.2,202.4,391,153.4,493.2c-2.4,5.1-1.8,7.8,2.8,11.1c34.3,24.8,71.8,40.9,113.9,46.5c4.3,0.6,6.2-0.9,7.7-4.6
				c12.7-30.1,30-57.4,50.1-82.9c6.9-8.8,14.1-17.5,22.1-25.3c4.6-4.5,10.8-4.6,15.1-0.7c4.4,4,4.7,10,0.9,15.1c-1.5,2.1-3.3,4-5,6
				c-22.4,24.9-40.4,52.8-55.3,82.6c-6.2,12.3-6.2,12.5,7.6,11.8c59.3-3,110.1-25.5,152.3-67c32-31.5,52.1-69.5,61-113.5
				c0.8-3.7,2-8-4.6-6.3c-31.7,8-62.3,19.4-91,35c-6.5,3.5-13.2,1.1-14.9-6c-1.5-6.5,0.7-11.2,7.3-15c16.7-9.5,34.3-17.3,52.2-24.2
				c17.6-6.8,35.9-10.6,54.1-15.1c8.8-2.2,5.7-9.1,6.7-14.5c1-5.6-3-6.7-7.1-8C501.8,309.5,473.4,306.4,441.8,305.8z M130.1,262.5
				c-13.8-0.7-33.2,2.4-52.5,6c-13.9,2.5-12.1-0.2-14.9,15.5c-2.4,14.3-2.3,14.2,11.8,18.5c26,8,51.9,16.4,75.4,30.6
				c4.4,2.6,7.8,6,9,11.2c1.1,4.5-0.4,8-3.5,11.1c-3.1,3-6.4,1.9-9.6,0.3c-8.2-3.9-16.3-8-24.5-11.8c-16.6-7.7-33.5-15-51.2-19.8
				c-4.3-1.2-7.5-1.7-6.3,4.8c1.1,5.7,0.9,11.6,1.7,17.4c6.5,48.9,26,91.9,59.7,128.2c7.5,8,7.4,7.8,12.3-2.1
				c35.4-70.9,88.5-123.9,159.9-158.2c1.7-0.8,4.4-0.9,4.3-3.2c-0.1-2-2.8-2.5-4.3-3.5C247.8,277.6,193.9,263,130.1,262.5z
				 M405.2,160.6c2-1.9,2.9-2.5,3.6-3.3c6.6-6.2,11.9-6.7,17-1.9c5.2,5.1,4.6,10.9-1.8,17.5c-5.2,5.3-10.4,10.5-15.5,15.5
				c-1.9,1.9-3.2,3.9-3.2,6.7c0.1,16.9,0.1,33.7,0,50.5c0,3.3,1.3,5,4.6,4.6c17.9-2,35.7-4.4,51.3-14.2c16.6-10.5,12.3-16,1.8-23.5
				c-0.3-0.2-0.7-0.6-1-0.9c-16.4-10.7-19.2-26.4-16.5-44.3c3.4-24-0.3-46.2-15.3-66.1c-11.5-15.2-23.3-30.1-34.4-45.4
				c-3.1-4.3-4.2-3.3-6.5,0.4c-12.7,20.6-25.3,41.2-38.5,61.5c-4.6,7.1-5.1,12.8-0.2,20.1c12.6,18.4,12.3,33.5-0.2,50.9
				c-3,4.2-6.5,8-9.9,11.9c-3.6,4.1-7.1,8.2-9.6,13c-6,11.6-4.1,18.2,6.9,24.9c12.8,7.6,27.1,9.7,41.4,11.7c3.1,0.4,4.2-1.2,4.3-4.2
				c0.6-11.3,1-22.4-10.4-29.8c-3.7-2.4-6.6-6.2-9.7-9.5c-4.8-5.3-5.3-10.2-1.4-15.1c3.9-4.7,9.5-5.3,15.5-1.5c1.5,1,3.1,3.2,5,2
				c1.8-1.1,0.9-3.6,0.9-5.5c0.1-19.2,0-38.5,0.1-57.6c0-7.9,4.7-13.2,11.1-13.1c6.5,0.1,10.4,4.7,10.5,12.9
				C405.3,138.8,405.2,149,405.2,160.6z"/>
			<path fill="#1ABC9C" d="M218,191.6c-23.5,0-41.8-18.4-41.8-41.9c0-23.8,18.5-42.1,42.3-42c23.4,0.1,41.5,18.6,41.4,42.2
				C259.9,173.3,241.5,191.6,218,191.6z M238.2,149.5c-0.1-11.3-8.9-20.2-20.3-20.1s-20.2,8.9-20.1,20.3c0.1,11.3,9,20.2,20.3,20.1
				C229.6,169.8,238.3,160.9,238.2,149.5z"/>
			<path fill="#1ABC9C" d="M405.2,410.7c0,8.6-15,20.9-23.3,19.3c-3.9-0.8-6.5-3.1-7.7-6.9c-1.4-4.5-0.3-8.8,3-11.9
				c4.1-3.7,8.7-7.2,13.9-9.4C398,398.8,405.3,403.4,405.2,410.7z"/>
			<path fill="#1ABC9C" d="M180.4,376.4c-5.8-0.1-13.2-8.3-12.9-14.1c0.2-5,6.2-10.2,11.7-10.2c5.6,0,13,8.2,12.8,14.2
				C191.8,371.5,186,376.5,180.4,376.4z"/>
		</g>
	</g>
	<g id="carretera_1_">
		<path fill="#FFFFFF" d="M584.1,76.8c-54,3.2-98.3,39.9-111,92.2c-0.4,1.7-0.3,3.6-2.2,4.7c-0.7-0.4-1.2-0.8-1.8-1.2
			c-38.5-26.8-87.5-5.7-94.7,40.7c-1.7,10.5-0.2,21-0.9,31.5c0.7,1,1.4,1.9,1.9,2.9c30.7,66.6,61.5,133,92.1,199.6
			c12.2,26.4,24.2,53,36.4,79.6c0.1,8.5,5.7,15,8.5,22.5c1.7,4.7,5,6.4,10.2,6.4c19.7-0.3,39.4-0.1,59.3-0.1c2.5,0,5.1,0.8,7.5-0.7
			c0-2.8,0.1-5.6,0.1-8.4c0-98.8,0-197.7,0-296.5c0-55.3,0-110.7,0-166.2C589.5,79.9,590.3,76.4,584.1,76.8z M541.3,490.8
			c-2.5-1.5-3-4.2-4-6.4c-37.7-81.5-75.3-163.2-113.1-244.7c-3.3-7.1-3.3-14.1-2.2-21.2c1.1-7.7,7.2-11,14.8-9.1
			c3.7,0.7,6.1,3.4,8.7,5.6c18,14.9,35.8,29.9,53.8,44.8c1.2,1,2.5,1.9,4.7,3.6c4.4-23.6,8.7-46.3,13-69.1
			c2.3-19.2,8.4-36.7,24.2-50.6L541.3,490.8L541.3,490.8z"/>
		<path fill="#FFFFFF" d="M230.3,219.5c-1.3-38.1-35.5-65.1-72.6-57.4c-9.3,1.9-17.2,6.6-25,11.9c-0.6-1.3-1-2.1-1.2-3
			c-10.6-50.6-55.2-90.6-108.7-94c-7.5-0.4-8.3,1.7-8.3,8c0.1,154.2,0.1,308.4,0.1,462.6c0,2.3,0.1,4.6,0.1,7.1
			c2.1,1.4,4.5,0.7,6.8,0.7c19.4,0.1,38.8-0.3,58.2,0.2c6.8,0.2,10-2.4,12.7-8.2c17-37.5,34.4-74.7,51.6-112.1
			c24.7-53.7,49.6-107.3,74.2-161.1c4.4-9.7,10.7-18.7,12.3-29.6C230.5,236.3,230.6,227.9,230.3,219.5z M180.9,237.1
			c-30.9,67-61.8,134-92.7,200.9c-8,17.5-16.2,35-25.3,52.3V143.8c15.9,13.8,21.8,31.3,24.2,50.6c4.3,22.6,8.5,45.3,13,69.2
			c8.2-6.7,15.6-12.9,23-19.1c12.3-10.2,24.7-20.6,37-31c2.1-1.8,4.1-4,7.1-4.3c6.7-1.5,12,0.6,14,6.5
			C183.6,222.9,184.1,230.3,180.9,237.1z"/>
		<path fill="#FFFFFF" d="M278.5,288.2c0-14.4-0.1-28.9-0.1-43.4c15.9,0,31.7,0,47.6,0c0,14.4-0.1,28.9-0.1,43.4
			c-1.8,1.8-4.1,2.2-6.4,2.2c-11.6,0.2-23,0.2-34.6,0C282.5,290.4,280.2,289.9,278.5,288.2z"/>
		<path fill="#FFFFFF" d="M326.3,526.7c-0.1,9.7-0.2,19.4-0.3,29.2c-15.9,0-31.7,0-47.6,0c-0.1-9.7-0.2-19.4-0.3-29.2l0.4,0.1
			c1.8-1.8,4.1-2.2,6.4-2.2c11.6-0.2,23-0.2,34.6,0c2.3,0,4.6,0.3,6.4,2.2L326.3,526.7z"/>
		<path fill="#FFFFFF" d="M278.5,407.4c-0.1-12.9,0-25.7-0.3-38.6c-0.1-4.3,1.8-5,5.4-5c12.3,0.2,24.8,0.2,37.1,0
			c3.6,0,5.5,0.7,5.4,5c-0.3,12.8-0.2,25.7-0.3,38.6c-1.8,1.8-4.1,2.1-6.4,2.2c-11.6,0.2-23,0.2-34.6,0
			C282.5,409.6,280.2,409.3,278.5,407.4z"/>
		<path fill="#FFFFFF" d="M325.7,526.7c-15.8,0-31.5,0-47.3,0c-0.1-12.6,0-25.2-0.3-37.8c-0.1-3.7,0.9-5.4,5.1-5.4
			c12.6,0.2,25.2,0.2,37.8,0c4.2-0.1,5.1,1.5,5.1,5.4C325.8,501.5,325.8,514.2,325.7,526.7z"/>
		<path fill="#FFFFFF" d="M278.5,407.4c15.8,0,31.5,0,47.4,0c0.1,7.9,0,15.9,0.3,23.8c0.1,3.9-1,5.4-5.1,5.4
			c-12.6-0.2-25.2-0.2-37.8,0c-4.1,0.1-5.2-1.5-5.1-5.4C278.5,423.4,278.3,415.3,278.5,407.4z"/>
		<path fill="#FFFFFF" d="M278.5,288.2c15.8,0,31.5,0,47.4,0c0.1,7.9,0.1,15.9,0.3,23.8c0.1,3.3-1.1,4.5-4.4,4.4
			c-13-0.1-26.1-0.1-39.1,0c-3.3,0-4.5-1.1-4.4-4.4C278.3,303.9,278.3,296.1,278.5,288.2z"/>
	</g>
	<g id="reforestacion_1_" display="none">
		<g display="inline">
			<path fill="#1ABC9C" d="M419.5,28.1c6,3.3,7.5,8.5,8,15.1c1.3,17.7-0.4,35.2-5,52.2c-9.4,35-32.4,56.2-67.1,65.2
				c-12.5,3.2-25.1,4.6-37.9,5.1c-3.7,0.1-5.4,1.2-5.4,5.2c0.1,60.9,0.1,121.9,0.1,182.9c0,0.7,0.1,1.3,0.2,2.4
				c8-7.8,15.9-15.4,23.7-23c1.3-1.2,0.8-3,0.4-4.5c-10.6-61.7,9.3-112.5,55.4-153.8c6-5.4,12.2-10.4,19.1-14.5
				c6.7-4.2,13.2-3.2,16.9,2.3c3.4,5.2,1.9,12-4.3,16.2c-19,13.1-35.3,28.7-47.4,48.4c-11.6,18.8-18.1,39.2-19.5,61.3
				c-0.4,7.6-1.5,15.2,0.6,22.8c2.2-0.3,3.2-2.2,4.4-3.5c22.7-22.6,45.3-45.2,67.9-67.9c1-1,2-2,3-3c5.7-5.5,12.3-6.1,17.1-1.5
				c4.8,4.6,4.4,11.7-1.3,17.4c-23.5,23.6-46.9,47.1-70.5,70.5c-1.3,1.3-2.6,2.8-4.6,4.8c10.7,1.8,20.8,1.7,30.5,0
				c60.5-9.9,99.6-45.2,118.9-102.8c6.5-19.5,6.7-39.8,3.3-60.1c-0.7-3.9-2.2-5.5-6.1-5.8c-5.8-0.4-11.7-1.2-17.4-1.9
				c-1.4-0.1-2.9-0.1-4.3-0.3c-7.3-1.1-11.2-5.6-10.9-12c0.3-6.1,4.8-10.2,12-10.5c8.2-0.2,16.3,1.1,24.4,2.3c3,0.4,5.8,1.3,8.8,1.9
				c8.7,1.3,12.6,6.6,14.2,14.9c12.7,63.1-6.9,115.4-54.2,157.6c-33.3,29.8-72.7,42.8-117.2,40c-6-0.3-12-1.5-17.9-2.6
				c-2.6-0.4-4.7-0.2-6.7,1.9c-10.8,10.9-21.6,21.7-32.4,32.4c-3,2.9-1.4,3.5,1.5,4.2c25,5.1,44.8,18.3,59.4,39.1
				c1.7,2.4,3.5,3.9,6.6,3.4c11.3-1.4,22.7-1.2,34,0c1.3,0.1,3.2,0.7,4-0.8c0.9-1.7-0.7-3-1.7-4.2c-4.1-5.2-9.5-7.7-16.1-8.4
				c-7.8-0.8-11.9-5.5-11.2-12.6c0.7-6.3,5.5-9.8,13.1-9.5c2.3,0.1,4.6,0.2,6.8,0.8c7.4,1.8,14.2,4.7,19.6,10.2
				c2.6,2.6,4.3,2.5,6.9,0c7.5-7.1,16.5-10.8,27-11c7.2-0.2,11.9,3.4,12.6,9.5c0.7,6.9-3.3,11.9-10.7,12.6
				c-8.5,0.8-14.9,4.4-18.8,12c-2.6,5.2-1.9,6.9,3.5,8.6c24.7,7.6,46.6,20.2,65.8,37.4c26,23.1,43.7,51.6,53.6,85
				c2.4,8.5-2.4,14.8-11.5,15c-0.7,0-1.4,0-2.1,0c-172.8,0-345.5,0-518.2,0.1c-6.1,0-10.8-1.4-13.9-6.8c0-2.9,0-5.7,0-8.5
				c5.4-16.1,11.8-31.5,20.9-46c23-36.1,54.8-61,95.2-74.9c9.6-3.3,10.6-6.5,3.9-14.3c-4-4.6-9-6.7-14.9-7.4
				c-8.2-0.9-12.1-5.2-11.7-12.2c0.4-6.5,5.4-10.1,13.2-9.8c10,0.3,18.7,4,26,10.8c2.8,2.5,4.4,3,7.4,0.2c7.6-7.3,17-10.9,27.5-11
				c6.7-0.1,11.3,3.7,11.9,9.7c0.7,6.7-3.3,11.8-10.2,12.3c-7.4,0.7-13.3,3.5-17.7,9.4c-0.7,1-1.8,2.1-0.9,3.3c0.7,1,2,0.8,3,0.7
				c12-1.3,24.1-1.4,36.1-0.1c2.5,0.3,3.9-1.3,5.1-3.1c15.2-22,36-35.4,62.4-40c3.7-0.7,5-2.1,5-6c-0.2-18.3-0.1-36.6,0-54.9
				c0-4-0.8-5.2-5.2-4.5c-89.6,14.8-167.5-54.2-178.5-131c-2.9-19.7-1.9-39.3,2.9-58.7c1.4-6.1,5-9.6,10.9-11
				c32.8-7.9,64.9-5.5,95.9,8c29.4,12.9,52.6,33.3,70.6,59.7c0.4,0.8,1.1,1.4,1.7,2.1c0.1,0.1,0.3,0.1,0.6,0.1
				c1.1-1.5,0.6-3.4,0.6-5.1c0.1-16.7-0.2-33.4,0.1-50.1c0.3-18.8,4.3-37,12.3-54.1c13-27.5,35.9-42.2,64.6-49.1
				c7.1-1.7,14.2-2.8,21.4-4.1C398.8,28.1,409.1,28.1,419.5,28.1z M330.4,552.4c70.5,0,141,0,211.7,0c5.7,0,5.7,0,3.5-5.4
				c-6.2-14.7-14.4-28.1-25-40.1c-30.4-34.5-68.4-53.3-114.6-55.2c-9.6-0.4-19.2,0.2-28.8,1.2c-5.3,0.6-9.3-1.8-12-6.3
				c-1.1-1.9-2.2-3.6-3.3-5.5c-27.2-43.2-91.3-44.8-119.7-2.3c-7.3,11-14.2,14.8-27.5,13.4c-32.1-3.3-62.6,3.6-90.7,19.7
				c-31.1,17.9-53.9,43.2-68,76.1c-1.4,3.3-1.1,4.4,2.8,4.3c8.4-0.2,16.7-0.2,25,0c4.1,0.1,6.1-1.4,7.5-5.2
				c6.7-17.4,17.6-32,31.5-44.3c9-8.2,19.3-14.5,30.4-19.4c6.2-2.6,12.3-0.3,14.9,5.2c2.5,5.4,0.7,11-5.1,14.5
				c-1.7,1-3.4,1.9-5.2,2.8c-17.7,9-31.5,22.4-41.2,39.7c-3.5,6.3-3.4,6.5,3.6,6.5C190.3,552.4,260.4,552.4,330.4,552.4z M156.9,139
				c-7.1,0.2-14.2,0.2-21.3,1.4c-3.4,0.6-5.4,2.1-6,5.6c-2.3,15.4-2.5,30.9,0.6,46.2C143,256.3,201.7,302.8,267,300.7
				c1.7,0,4.2,0.7,4.7-1.2s-1.8-2.9-3-4.1c-17.6-17.7-35.4-35.5-53.1-53.2c-1.5-1.5-3.1-3-4.3-4.7c-3.3-4.6-3-10.2,0.8-14.1
				c3.7-4,9.4-4.6,14.1-1.5c1.9,1.2,3.6,2.9,5.2,4.5c17.9,17.9,35.7,35.7,53.6,53.4c1.1,1.1,2,3.2,3.6,2.5c1.7-0.6,1.3-2.8,1.3-4.3
				c0.3-8.4-0.2-16.6-1.3-25C280.7,192.9,221.9,137.1,156.9,139z M315.3,123.7c1.3-1.2,2.5-2.4,3.9-3.6c7.5-7.5,15-15.1,22.6-22.6
				c6.2-6.2,12.9-6.7,17.7-1.8c5,5.1,4.2,11.3-2.1,17.7c-4.8,5-9.7,9.9-14.7,14.7c-4.3,4.1-8.8,8-13.9,12.7c2.2,0.7,2.6,1,3.1,0.9
				c2.9-0.3,5.6-0.6,8.5-1c19-3.4,36.5-9.8,48.4-26.1c13.4-18.3,16.4-39.7,16.5-61.6c0-3.1-2.1-2.6-4.1-2.6
				c-8.4,0-16.6,0.8-24.8,2.5c-20.2,4.4-38.1,12.7-49.6,31C319.1,96,315.2,109.2,315.3,123.7z"/>
			<path fill="#1ABC9C" d="M445.6,151c0.1-6.1,5.2-10.9,11.3-11c6.2,0,11.7,5.5,11.5,11.6c-0.2,6-6.1,11.1-12.2,11
				C450.2,162.4,445.6,157.4,445.6,151z"/>
			<path fill="#1ABC9C" d="M201.2,495.4c-6.2-0.1-11.2-5.1-11.1-11.1c0-6.2,5-10.8,11.3-10.9c6.4,0,11.3,4.7,11.5,10.8
				C212.8,490.6,207.6,495.5,201.2,495.4z"/>
		</g>
	</g>
	<g id="revegetalizacion_1_" display="none">
		<g display="inline">
			<path fill="#1ABC9C" d="M383.4,347.1c-8.7-13.9-30.6-40.8-71.6-45.2C302.6,14.7,440.1,49.5,440.1,49.5
				c-65,19.1-91.9,71.3-91.9,71.3c108.9,15,116.1-64.8,115.9-87.6c0-3.5-2.3-6.7-5.6-7.8C323.7-19.3,299.1,196.9,299.1,196.9
				C259.9,47.3,169.3,65,143,73.6c-4.2,1.4-6.6,5.8-5.5,10.1c30.5,116.7,121.9,86.2,121.9,86.2c-30.7-59.4-87.2-71.3-87.2-71.3
				C305.8,109.1,294.4,283,292.9,301.5c-54.3,2.2-68.3,29.3-78,43.5c-2.3,3.4-6.2,5.6-10.4,6c-13.8,1-47.5,5.4-57.5,26.7
				c0,0,31.7,27,76.1,50.7c31.4,16.9,56.9,50.2,69.1,68.4c3.6,5.3,11.6,5.1,14.8-0.6c10.8-19.4,33.1-54.2,55.6-61.5
				c42.1-13.6,90.4-57.1,90.4-57.1s-28.8-27.4-56.6-24.1C391.1,354,386.1,351.5,383.4,347.1z M215.9,391.8c-7.7,0-14-6.3-14-14
				s6.3-14,14-14c7.7,0,14,6.3,14,14S223.6,391.8,215.9,391.8z M284.5,318.9c3.7,0,6.8,3.1,6.8,6.8s-3.1,6.8-6.8,6.8
				c-3.7,0-6.8-3.1-6.8-6.8S280.8,318.9,284.5,318.9z M270.6,439.4c-11.3,0-20.6-9.3-20.6-20.6c0-11.3,9.3-20.6,20.6-20.6
				c11.3,0,20.6,9.3,20.6,20.6C291.2,430.2,282,439.4,270.6,439.4z M305.2,367.6c-7.7,0-14-6.3-14-14s6.3-14,14-14s14,6.3,14,14
				S312.9,367.6,305.2,367.6z M368.7,414.9c-11.3,0-20.6-9.3-20.6-20.6c0-11.3,9.3-20.6,20.6-20.6c11.3,0,20.6,9.3,20.6,20.6
				C389.3,405.6,380.1,414.9,368.7,414.9z M419.3,371c3.7,0,6.8,3.1,6.8,6.8s-3.1,6.8-6.8,6.8c-3.7,0-6.8-3.1-6.8-6.8
				S415.5,371,419.3,371z"/>
			<path fill="#1ABC9C" d="M30.1,321.3c-0.1-3.7,4.6-5.5,7.1-2.5c10.9,13.4,32.2,45.3,45.4,101.7c18.4,78.5,79.7,83.6,104,88.8
				c0,0,11.3-22.8-13.7-46c-22.6-20.9-41.8-34.7-45.6-67.9c-0.4-3.9,4.2-6.3,7.1-3.6c7.9,7.2,22.9,19.8,49.4,38.9
				c45.2,32.7,104,49.9,104.7,153.9c0,0-86.8,15.4-180.2-69C38.3,447.8,30.6,352.4,30.1,321.3z"/>
			<path fill="#1ABC9C" d="M569.9,321.3c0.1-3.7-4.6-5.5-7.1-2.5c-10.9,13.4-32.2,45.3-45.4,101.7c-18.4,78.5-79.7,83.6-104,88.8
				c0,0-11.3-22.8,13.7-46c22.6-20.9,41.8-34.7,45.6-67.9c0.4-3.9-4.2-6.3-7.1-3.6c-7.9,7.2-22.9,19.8-49.4,38.9
				c-45.2,32.7-104,49.9-104.7,153.9c0,0,86.8,15.4,180.2-69C561.7,447.8,569.4,352.4,569.9,321.3z"/>
		</g>
	</g>
</g>
</svg>
