<?xml version="1.0" encoding="utf-8"?>
<!-- Generator: Adobe Illustrator 18.1.1, SVG Export Plug-In . SVG Version: 6.00 Build 0)  -->
<svg version="1.1" xmlns="http://www.w3.org/2000/svg" xmlns:xlink="http://www.w3.org/1999/xlink" x="0px" y="0px"
	 viewBox="0 0 544.5 544.5" enable-background="new 0 0 544.5 544.5" xml:space="preserve">
<g id="siembra" display="none">
	<g display="inline">
		<path fill="#1ABC9C" d="M12.4,488.6c0-70.6,0-141.2,0-211.8c0.6-0.4,1.1-0.7,1.7-1.1c24.8-19.3,51-18.3,74.1,2.8
			c1.5,1.4,3,2.7,4.6,4c18.9,14.4,47.7,14.7,68.9-5.2c22.4-21.1,52.3-20.3,74.6,0.6c4.4,4.1,9.1,7.6,14.5,10.2
			c6.2,2.9,6.5,2.7,6.5-3.9c0-39.7,0-79.4,0-119.1c0-7-0.5-7.3-7.3-8c-21.4-2.2-41.8-7.7-59.8-19.7c-40.4-27-54.6-66.9-55-113.4
			c0-3.2,1.9-3.9,4.6-4c9.5-0.3,19,0.7,28.4,2.2c53.6,8.5,90,42.8,101.5,95.7c1.3,5.8,2.1,11.7,3.2,17.6c1.1-3.1,1.5-6.1,2-9.1
			c4.2-26.2,13.6-50.1,32.7-69.2C334.8,30,368.6,20,406.2,19.9c3.6,0,4.6,1.6,4.7,5c0.3,12.8-1.3,25.4-4.3,37.8
			c-8.9,36.1-28.1,64.4-62.2,81.1c-15.6,7.6-32.1,11.8-49.3,13.3c-4.6,0.4-6.4,2.1-6.4,6.9c0.2,40.4,0.1,80.8,0.1,121.2
			c0,5.2,0.5,5.5,5.1,3.5c6.8-2.9,12.4-7.6,17.8-12.5c13-11.9,28.4-16,45.7-13c11.7,2,20.9,8.3,29.4,16.1c13,12,28.5,15.9,45.8,12.6
			c10.7-2,19.3-7.7,27.2-15c13.4-12.6,29.4-16.9,47.5-13.5c10.2,1.9,18.4,7.4,26.4,13.6c0,70.6,0,141.2,0,211.8
			c-2.4,0.1-4.7,0.4-7.1,0.4c-169,0-338.1,0-507.1,0C17.1,489,14.7,488.7,12.4,488.6z M208.1,378.4c0.1,23.9,12.5,44.3,34.3,53.7
			c19,8.2,38.6,8.6,58,1.2c20.7-7.9,32.6-23.3,36.5-45.2c3.2-17.8-1.8-33.5-11.3-48.2c-9.1-14.1-20.7-26-33.2-36.9
			c-2.3-2-4.9-3.7-4.7-7.4c0.1-2.1-1.2-3.1-3.3-2.6c-7.7,1.7-15.5,1.7-23.2,0c-1.9-0.4-3.2,0.5-3.1,2.3c0.3,3.9-2.4,5.7-4.8,7.8
			c-12.5,10.8-24,22.5-32.9,36.5C213.3,351,207.8,362.9,208.1,378.4z"/>
		<path fill="#1ABC9C" d="M272.6,408.9c-3.6-0.4-7.7-0.4-11.7-1.2c-22-4.8-27.4-28.2-21.2-42.2c3.2-7.2,7.6-13.6,12.7-19.6
			c5.4-6.4,11.1-12.4,17.3-17.9c2.4-2.1,4.1-2.2,6.5-0.1c9.6,8.7,18.4,18,25.5,28.9c7.8,11.9,9.7,24.3,2.7,37
			C297.6,405.9,285.8,408.6,272.6,408.9z"/>
	</g>
	<path display="inline" fill="none" d="M1305.7,340.5c-0.9-0.5-1.2-1.7-0.6-2.6l2.2-3.5c0.5-0.9,1.7-1.1,2.6-0.6l58.7,34.9
		c0.9,0.5,1.2,1.7,0.6,2.6l-2.2,3.5c-0.6,0.9-1.7,1.2-2.6,0.6L1305.7,340.5z"/>
	<path display="inline" fill="none" d="M1376.5,274.5c-0.9-0.6-1.2-1.8-0.7-2.8l2.3-3.8c0.6-0.9,1.8-1.2,2.8-0.7l61.4,37.5
		c0.9,0.6,1.2,1.8,0.7,2.8l-2.3,3.8c-0.6,0.9-1.8,1.2-2.8,0.7L1376.5,274.5z"/>
	<path display="inline" fill="none" d="M1454.3,305.2v185.9h-552l122-99.3l219.3-38.7l27.1-32.8l21,12.3l-1.8,2.9
		c-0.5,0.9-0.3,2,0.6,2.6l77.8,46.3c0.9,0.5,2.1,0.3,2.6-0.6l9.2-14.7c0.5-0.9,0.3-2-0.6-2.6l-77.8-46.3c-0.9-0.5-2.1-0.3-2.6,0.6
		l-5.4,8.7l-20.6-12l56.3-68.3l32.4,16.9l-1.9,3.1c-0.6,0.9-0.3,2.2,0.7,2.8l81.4,49.7c0.9,0.6,2.2,0.3,2.7-0.7L1454.3,305.2z"/>
	<polygon display="inline" fill="none" points="1261.2,314.8 1238.3,341.8 1030.3,381.8 1098.3,326.4 1190.3,326.4 1202.9,280.7 	
		"/>
	<polygon display="inline" fill="none" points="1320.9,244.7 1263.7,311.9 1203.9,277 1226.5,195.5 	"/>
	<polygon display="inline" fill="none" points="1378.3,78.4 1344.9,216.4 1323.5,241.6 1227.6,191.5 1241.6,141.1 	"/>
	<path display="inline" fill="none" d="M1454.3,47.8v255c-0.2-0.2-0.3-0.4-0.6-0.5l-81.4-49.7c-0.9-0.6-2.2-0.3-2.7,0.7l-5.7,9.3
		L1332,246l21.6-26.2l37.3-148.7L1454.3,47.8z"/>
	<path display="inline" fill="none" d="M1443,307.5l-2.3,3.8c-0.6,0.9-1.8,1.2-2.8,0.7l-61.4-37.5c-0.9-0.6-1.2-1.8-0.7-2.8l2.3-3.8
		c0.6-0.9,1.8-1.2,2.8-0.7l61.4,37.5C1443.3,305.4,1443.6,306.6,1443,307.5z"/>
	<path display="inline" fill="none" d="M1369.3,371.3l-2.2,3.5c-0.6,0.9-1.7,1.2-2.6,0.6l-58.7-34.9c-0.9-0.5-1.2-1.7-0.6-2.6
		l2.2-3.5c0.5-0.9,1.7-1.1,2.6-0.6l58.7,34.9C1369.5,369.2,1369.8,370.4,1369.3,371.3z M1368.6,368.7l-58.7-34.9
		c-0.9-0.5-2.1-0.3-2.6,0.6l-2.2,3.5c-0.6,0.9-0.3,2,0.6,2.6l58.7,34.9c0.9,0.5,2.1,0.3,2.6-0.6l2.2-3.5
		C1369.8,370.4,1369.5,369.2,1368.6,368.7z"/>
</g>
<g id="talud" display="none">
	<path display="inline" fill="#1ABC9C" d="M524.1,83.9l-200.9,94.9l-8.2,29.4c-0.3-0.2-0.7-0.3-1-0.3l-7.2-1.4
		c-2.2-0.4-4.4,1-4.8,3.2l-1.6,8.1l-3.1-1.5c-0.3-0.1-0.5-0.2-0.8-0.2c-0.7,0-1.3,0.4-1.6,1c-0.4,0.9-0.1,1.9,0.8,2.4l4,1.9
		l-2.8,14.3c-0.4,2.2,1,4.4,3.2,4.8l5.6,1.1l-11,39.2l-5.2-1.3c-2.2-0.6-4.4,0.8-5,3l-2.7,10.7l-5.1-2.4c-0.3-0.1-0.5-0.2-0.8-0.2
		c-0.7,0-1.3,0.4-1.6,1c-0.4,0.9,0,1.9,0.8,2.4l5.7,2.7l-3,11.5c-0.6,2.2,0.8,4.4,3,5l4.4,1.1l-6.1,21.8H198L12.4,493.2v9.3h519.9
		V83.9H524.1z M336.3,184.3L451,137l-30.8,111.4l-13.8,21.5l-82-42.3L336.3,184.3z M464.3,413.9l-67-36.5l4.8-10.5l-52.1-29.8
		l-22.1,31.3l-165.1,25.2l40.1-37.2l88.3-4.3l10.3-43.2l48.4,28.2l4.3-5l-50.7-28.7l19.4-69.6l79.6,41.5L354.2,332l51.9,28.4
		l5.3-7.5l66.5,40L464.3,413.9z M506.7,343.7l-61-32.7l4.3-9.4l-47.5-26.8l3.9-4.5l47.2,25.4l4.8-6.7l60.5,35.8L506.7,343.7z"/>
	<path display="inline" fill="#1ABC9C" d="M509.5,328.3l-48.7-29.3c-0.8-0.5-1.9-0.2-2.4,0.6l-2,3.4c-0.5,0.8-0.2,1.9,0.6,2.4
		l48.7,29.3c0.8,0.5,1.9,0.2,2.4-0.6l2-3.3C510.6,329.9,510.3,328.8,509.5,328.3z"/>
	<path display="inline" fill="#1ABC9C" d="M467.8,400.5l-1.9,3.1c-0.5,0.8-1.5,1-2.3,0.5l-51.7-30.8c-0.8-0.5-1-1.5-0.5-2.3l1.9-3.1
		c0.5-0.8,1.5-1,2.3-0.5l51.7,30.8C468,398.7,468.3,399.7,467.8,400.5z"/>
</g>
<g id="alianza" display="none">
	<g display="inline">
		<path fill="#1ABC9C" d="M224.2,404.7c-4.5-0.3-9,1.3-12.6,4.6c-3.5,3.2-5.1,2.1-6.4-1.8c-1.1-3.3-3.2-6.1-5.8-8.4
			c-10.3-9.2-24.1-8.2-32.6,2.7c-4.2,5.3-7.9,10.9-11.7,16.5c-2,2.9-3.6,3-5.8,0.2c-10.9-13.7-21.8-27.4-32.8-40.9
			c-2.5-3-1.1-5.3,0.4-7.9c14.2-24.6,28.4-49.2,42.6-73.8c3.9-6.8,7.9-13.5,11.7-20.4c1.7-3,3.4-4.1,7-2.8
			c15.7,5.8,31.5,11.3,47.3,16.9c4,1.4,4.5,3,1.3,5.9c-6.4,6-12.6,12.1-18.9,18.2c-1.8,1.7-3.1,3.4-3.2,6.1
			c-0.7,15.8-1.7,31.6-2.1,47.4c-0.3,12.6,7.7,18.5,20,15.6c11.1-2.6,19.5-8.7,24.8-18.8c3.4-6.4,6.6-13,9.8-19.5
			c1.3-2.8,3.2-4.7,6-6c6.3-2.8,12.5-5.9,19.3-7.6c7.6-1.9,14.8-1.3,21.6,2.7c35.6,20.6,71.2,41.2,106.8,61.9
			c10.6,6.2,12.8,17.5,5.5,26.9c-5.6,7.2-14.2,9-23,4.1c-10.3-5.8-20.5-11.9-30.7-17.8c-1.4-0.8-2.9-1.6-4.4-2.2
			c-0.9-0.4-1.8-0.1-2.3,0.8c-0.5,0.9-0.4,1.9,0.3,2.5c1.1,0.9,2.3,1.7,3.6,2.5c13.5,7.9,27.1,15.7,40.5,23.7
			c8.7,5.2,11.3,13.9,7.3,22.5c-4.7,10.2-15.1,13.8-25.1,8.2c-14.1-8-28-16.3-42.1-24.3c-2.2-1.2-5.5-4.5-7.1-1.7
			c-2,3.5,2.8,4.2,5,5.5c10.3,6.2,20.8,12.1,31,18.3c6.5,4,9.5,10,7.9,17.7c-1.6,7.8-6.3,13-14.1,15c-5.2,1.3-9.7-0.7-14-3.2
			c-10.7-6.2-21.4-12.5-32.1-18.7c-0.9-0.6-1.9-1.1-2.8-1.6c-1.5-0.8-3.2-1.6-4.2,0.4c-0.9,1.8,0.7,2.6,2,3.3c8,4.7,16,9.4,24,14.1
			c1.4,0.8,2.9,1.6,4.2,2.5c8.7,6,10.7,15.5,5.1,24.4c-5.3,8.5-14.8,11-23.7,6c-8.1-4.5-16-9.4-24.1-13.9c-2.9-1.6-3-3.3-1.9-6.2
			c5.4-15.4-3.8-29.3-20.3-30.6c-4.5-0.3-5.4-1.2-2.9-5.4c9.3-15.8-0.6-33.7-19-34c-4.8-0.1-6.1-1.2-5.8-6.1
			C248.4,415.3,237.6,404.7,224.2,404.7z"/>
		<path fill="#1ABC9C" d="M206.9,366.2c0.6-14.4,1.2-28.7,1.8-43.1c0.1-2.7,1.1-4.9,3-6.7c10.7-10.2,20.9-20.8,31.9-30.6
			c14.4-12.8,30.6-17.4,49.5-13.1c14.7,3.3,29.7,5.7,44.8,5.9c15.2,0.2,30.1-1.8,44.7-5.9c4.1-1.1,6.3-0.4,8.4,3.3
			c17.7,31,35.6,61.9,53.5,92.7c2.3,3.9,1.8,5.9-2.4,7.9c-8.4,3.9-16.7,8.2-24.8,12.6c-3.3,1.8-5.9,1.6-9.1-0.3
			c-33-19.2-66.3-38.2-99.2-57.6c-10.6-6.2-21.1-7.5-32.3-3.2c-6.1,2.3-12,5.2-18.1,7.7c-2.8,1.2-4,3.6-5.2,6
			c-4.2,8.3-7.7,16.9-13,24.6c-4.9,7.1-11.8,10.7-19.9,12.2C211.2,380.2,206.5,375.9,206.9,366.2z"/>
		<path fill="#1ABC9C" d="M92.5,389.9c-5.4,0-8.7-1.6-11.8-3.5c-10.9-6.3-21.8-12.6-32.6-18.9c-11.7-6.8-13.6-14-6.8-25.8
			c19.4-33.6,38.8-67.2,58.2-100.7c2.6-4.4,5-8.9,7.7-13.2c4.8-7.5,12.5-9.9,20.3-5.7c13.3,7.2,26.4,14.8,39.3,22.6
			c7.7,4.6,9.3,13,4.5,21.5c-10,17.6-20.1,35-30.2,52.5c-12,20.8-24.1,41.6-36,62.4C101.8,386.6,97.3,389.6,92.5,389.9z"/>
		<path fill="#1ABC9C" d="M470.9,389.9c-6.6-0.3-11-3.7-14.3-9.4c-17.4-30.3-34.9-60.6-52.4-90.8c-4.6-7.9-9.2-15.7-13.6-23.7
			c-5-8.9-3.1-16.8,5.6-22c12.3-7.4,24.8-14.6,37.4-21.5c8.6-4.8,16.6-2.6,21.5,5.9c22.3,38.4,44.5,76.9,66.6,115.4
			c5.4,9.4,3.1,17.3-6.1,22.8c-11.7,7-23.6,13.7-35.4,20.5C477.3,388.7,474.3,389.9,470.9,389.9z"/>
		<path fill="#1ABC9C" d="M110.7,186.3c-22.4,0-44.8-0.1-67.2,0.1c-4.7,0-6.5-1.1-5.7-6.2c4-28.4,19.1-48.6,45.3-59.6
			c25.7-10.9,50.4-7,72.7,9.6c16.7,12.5,25.9,29.5,28.7,50.3c0.6,4.9-1,6-5.5,6C156.2,186.2,133.5,186.3,110.7,186.3z"/>
		<path fill="#1ABC9C" d="M450.6,186.3c-22.2,0-44.4,0-66.6,0c-7,0-7.1-0.2-6.2-7.1c4.5-35.7,35.1-63.7,70.3-64.5
			c37.3-0.8,69.1,25,75.5,61.2c1.8,10.4,1.8,10.4-8.6,10.4C493.5,186.3,472,186.3,450.6,186.3z"/>
		<path fill="#1ABC9C" d="M280.9,186.3c-22.2,0-44.4,0-66.6,0c-6.7,0-7.4-0.8-6.5-7.2c5.3-37.4,36.8-64.7,74.4-64.4
			c36.2,0.3,68.1,29.1,72.2,65.1c0.5,4.6-0.6,6.6-5.7,6.6C326,186.1,303.5,186.3,280.9,186.3z"/>
		<path fill="#1ABC9C" d="M280.9,110c-19.2,0-35-15.8-35-34.6c0.1-19.1,16.3-35.2,35.4-35c18.9,0.2,34.8,16.3,34.7,35.1
			C315.9,94.5,300,110.1,280.9,110z"/>
		<path fill="#1ABC9C" d="M416.1,75.1c0.1-19.1,15.7-34.8,34.8-34.7c19,0,34.7,15.8,34.7,34.9c0,19.5-15.8,35.2-35.1,34.9
			C431.1,109.9,416,94.5,416.1,75.1z"/>
		<path fill="#1ABC9C" d="M145.8,75.4c0,19.3-15.4,34.7-34.7,34.7c-19.4,0-34.9-15.7-34.8-35.2c0.1-19,16-34.7,35-34.5
			C130.4,40.5,145.8,56.2,145.8,75.4z"/>
		<path fill="#1ABC9C" d="M243.1,426.7c0.2,4-1.2,7.5-3.5,10.7c-11.2,15.9-22.2,31.9-33.5,47.7c-6.5,9-16.3,10.7-24.8,4.8
			c-8.8-6.1-10.6-16.1-4.3-25.3c11.3-16.3,22.7-32.5,34.2-48.6c4.8-6.7,11.8-8.6,19.3-6.1C238,412.5,243,419.2,243.1,426.7z"/>
		<path fill="#1ABC9C" d="M226.8,514.1c-7.5-0.3-13.1-3.6-16.8-9.8c-3.6-6.1-3.1-12.2,0.9-17.9c9.6-13.7,19.1-27.5,28.9-41
			c6-8.2,15.8-9.4,24.1-3.6c8.2,5.7,10.5,15.7,4.9,23.9c-9.4,13.8-19.1,27.4-28.8,41.1C236.8,511.3,232.2,513.7,226.8,514.1z"/>
		<path fill="#1ABC9C" d="M183.7,397.5c14.8,0.2,23.3,15,15.6,27.1c-6.7,10.5-14.1,20.7-21.7,30.7c-5.6,7.4-15,8.4-23,3.3
			c-8.1-5.3-11.3-14.7-6.2-22.7c7.2-11.3,15.2-22.2,23.1-33C174.5,398.9,179.1,397.2,183.7,397.5z"/>
		<path fill="#1ABC9C" d="M266,528.2c-14.8-0.2-23.5-15.3-16.1-27.3c3.3-5.4,7-10.6,10.9-15.6c6.7-8.5,16-9.8,24.5-3.7
			c8.3,6,10.1,15.6,4.3,24.5c-3.3,5-6.8,9.9-10.4,14.7C275.8,525.3,271.3,528.1,266,528.2z"/>
	</g>
</g>
<g id="paisajismo" display="none">
	<g display="inline">
		<path fill="#1ABC9C" d="M118.9,219.9c68.5-0.1,123.9,17.6,174.6,50.6c4.4,2.9,8,3.5,13,1.7c11.6-4.2,23.6-7.2,35.8-9.4
			c8.6-1.6,5.1-7.7,5.8-12.3c0.7-5.2-3.1-4.8-6.4-5.1c-13.8-1.6-27.6-3.4-40.4-9.4c-23.6-11-29.6-30.5-16.6-53.2
			c4.3-7.5,9.8-14.1,15.7-20.5c8.8-9.7,9.7-14.6,1.9-24.8c-11.4-14.7-9.5-28.7-0.2-43.4c14-22.2,27.7-44.6,41.4-67
			c6.5-10.6,13.5-11.1,21.6-1.3C378.3,41.9,391.7,58,405,74.2c19.3,23.5,25.9,50.5,20.9,80.4c-1.4,8.4,0.1,14.3,7.8,19.4
			c13.2,8.8,18.4,21.7,15,33.6c-2.3,8.3-7.8,14.4-14.7,19.3c-14.9,10.7-32.2,14.9-50,17.5c-2.9,0.4-5.8,1-8.7,1
			c-4.1,0-5.4,1.7-5.4,5.7c0,7.9,0.1,8.5,8.2,7.9c14.5-1,29-1.6,43.5-1.1c26.8,0.8,52.9,5.2,78.4,13.7c6,2,8.9,5.7,9,12
			c2.9,108.2-71.4,206.8-176.9,232.9c-78.6,19.5-149.7,2.3-211.7-49.6C72,426.6,45.5,373.9,38.7,311.3c-2.6-23.9-1.2-47.7,3.8-71.3
			c1.3-6.1,4.5-9.9,11-11.4C77.6,223.2,101.9,219.4,118.9,219.9z M400.9,277.5c-12.7,0.8-28,0.9-43.1,3.7
			c-101,18.5-174.1,73.6-218.6,166.4c-2.2,4.6-1.6,7.1,2.5,10.1c31.1,22.5,65.2,37.1,103.4,42.2c3.9,0.5,5.6-0.8,7-4.2
			c11.5-27.3,27.2-52.1,45.5-75.2c6.3-8,12.8-15.9,20.1-23c4.2-4.1,9.8-4.2,13.7-0.6c4,3.6,4.3,9.1,0.8,13.7c-1.4,1.9-3,3.6-4.5,5.4
			c-20.3,22.6-36.7,47.9-50.2,75c-5.6,11.2-5.6,11.3,6.9,10.7c53.8-2.7,99.9-23.1,138.2-60.8c29-28.6,47.3-63.1,55.4-103
			c0.7-3.4,1.8-7.3-4.2-5.7c-28.8,7.3-56.5,17.6-82.6,31.8c-5.9,3.2-12,1-13.5-5.4c-1.4-5.9,0.6-10.2,6.6-13.6
			c15.2-8.6,31.1-15.7,47.4-22c16-6.2,32.6-9.6,49.1-13.7c8-2,5.2-8.3,6.1-13.2c0.9-5.1-2.7-6.1-6.4-7.3
			C455.4,280.9,429.6,278.1,400.9,277.5z M118.1,238.2c-12.5-0.6-30.1,2.2-47.6,5.4c-12.6,2.3-11-0.2-13.5,14.1
			c-2.2,13-2.1,12.9,10.7,16.8c23.6,7.3,47.1,14.9,68.4,27.8c4,2.4,7.1,5.4,8.2,10.2c1,4.1-0.4,7.3-3.2,10.1
			c-2.8,2.7-5.8,1.7-8.7,0.3c-7.4-3.5-14.8-7.3-22.2-10.7c-15.1-7-30.4-13.6-46.5-18c-3.9-1.1-6.8-1.5-5.7,4.4
			c1,5.2,0.8,10.5,1.5,15.8c5.9,44.4,23.6,83.4,54.2,116.3c6.8,7.3,6.7,7.1,11.2-1.9C157,364.5,205.2,316.4,270,285.2
			c1.5-0.7,4-0.8,3.9-2.9c-0.1-1.8-2.5-2.3-3.9-3.2C224.9,251.9,176,238.7,118.1,238.2z M367.7,145.7c1.8-1.7,2.6-2.3,3.3-3
			c6-5.6,10.8-6.1,15.4-1.7c4.7,4.6,4.2,9.9-1.6,15.9c-4.7,4.8-9.4,9.5-14.1,14.1c-1.7,1.7-2.9,3.5-2.9,6.1
			c0.1,15.3,0.1,30.6,0,45.8c0,3,1.2,4.5,4.2,4.2c16.2-1.8,32.4-4,46.6-12.9c15.1-9.5,11.2-14.5,1.6-21.3c-0.3-0.2-0.6-0.5-0.9-0.8
			c-14.9-9.7-17.4-24-15-40.2c3.1-21.8-0.3-41.9-13.9-60c-10.4-13.8-21.1-27.3-31.2-41.2c-2.8-3.9-3.8-3-5.9,0.4
			c-11.5,18.7-23,37.4-34.9,55.8c-4.2,6.4-4.6,11.6-0.2,18.2c11.4,16.7,11.2,30.4-0.2,46.2c-2.7,3.8-5.9,7.3-9,10.8
			c-3.3,3.7-6.4,7.4-8.7,11.8c-5.4,10.5-3.7,16.5,6.3,22.6c11.6,6.9,24.6,8.8,37.6,10.6c2.8,0.4,3.8-1.1,3.9-3.8
			c0.5-10.3,0.9-20.3-9.4-27c-3.4-2.2-6-5.6-8.8-8.6c-4.4-4.8-4.8-9.3-1.3-13.7c3.5-4.3,8.6-4.8,14.1-1.4c1.4,0.9,2.8,2.9,4.5,1.8
			c1.6-1,0.8-3.3,0.8-5c0.1-17.4,0-34.9,0.1-52.3c0-7.2,4.3-12,10.1-11.9c5.9,0.1,9.4,4.3,9.5,11.7
			C367.8,126,367.7,135.2,367.7,145.7z"/>
		<path fill="#1ABC9C" d="M197.8,173.9c-21.3,0-37.9-16.7-37.9-38c0-21.6,16.8-38.2,38.4-38.1c21.2,0.1,37.7,16.9,37.6,38.3
			C235.9,157.3,219.2,173.9,197.8,173.9z M216.2,135.7c-0.1-10.3-8.1-18.3-18.4-18.2c-10.3,0.1-18.3,8.1-18.2,18.4
			c0.1,10.3,8.2,18.3,18.4,18.2C208.4,154.1,216.3,146,216.2,135.7z"/>
		<path fill="#1ABC9C" d="M367.7,372.7c0,7.8-13.6,19-21.1,17.5c-3.5-0.7-5.9-2.8-7-6.3c-1.3-4.1-0.3-8,2.7-10.8
			c3.7-3.4,7.9-6.5,12.6-8.5C361.2,361.9,367.8,366.1,367.7,372.7z"/>
		<path fill="#1ABC9C" d="M163.7,341.6c-5.3-0.1-12-7.5-11.7-12.8c0.2-4.5,5.6-9.3,10.6-9.3c5.1,0,11.8,7.4,11.6,12.9
			C174.1,337.1,168.8,341.7,163.7,341.6z"/>
	</g>
</g>
<g id="carretera" display="none">
	<path display="inline" fill="#1ABC9C" d="M530.1,69.7c-49,2.9-89.2,36.2-100.7,83.7c-0.4,1.5-0.3,3.3-2,4.3
		c-0.6-0.4-1.1-0.7-1.6-1.1c-34.9-24.3-79.4-5.2-85.9,36.9c-1.5,9.5-0.2,19.1-0.8,28.6c0.6,0.9,1.3,1.7,1.7,2.6
		c27.9,60.4,55.8,120.7,83.6,181.1c11.1,24,22,48.1,33,72.2c0.1,7.7,5.2,13.6,7.7,20.4c1.5,4.3,4.5,5.8,9.3,5.8
		c17.9-0.3,35.8-0.1,53.8-0.1c2.3,0,4.6,0.7,6.8-0.6c0-2.5,0.1-5.1,0.1-7.6c0-89.7,0-179.4,0-269.1c0-50.2,0-100.5,0-150.8
		C535,72.5,535.7,69.3,530.1,69.7z M491.2,445.4c-2.3-1.4-2.7-3.8-3.6-5.8c-34.2-74-68.3-148.1-102.6-222.1c-3-6.4-3-12.8-2-19.2
		c1-7,6.5-10,13.4-8.3c3.4,0.6,5.5,3.1,7.9,5.1c16.3,13.5,32.5,27.1,48.8,40.7c1.1,0.9,2.3,1.7,4.3,3.3c4-21.4,7.9-42,11.8-62.7
		c2.1-17.4,7.6-33.3,22-45.9V445.4z"/>
	<path display="inline" fill="#1ABC9C" d="M209,199.2c-1.2-34.6-32.2-59.1-65.9-52.1c-8.4,1.7-15.6,6-22.7,10.8
		c-0.5-1.2-0.9-1.9-1.1-2.7c-9.6-45.9-50.1-82.2-98.6-85.3c-6.8-0.4-7.5,1.5-7.5,7.3c0.1,139.9,0.1,279.9,0.1,419.8
		c0,2.1,0.1,4.2,0.1,6.4c1.9,1.3,4.1,0.6,6.2,0.6c17.6,0.1,35.2-0.3,52.8,0.2c6.2,0.2,9.1-2.2,11.5-7.4
		c15.4-34,31.2-67.8,46.8-101.7c22.4-48.7,45-97.4,67.3-146.2c4-8.8,9.7-17,11.2-26.9C209.2,214.4,209.3,206.8,209,199.2z
		 M164.2,215.2c-28,60.8-56.1,121.6-84.1,182.3c-7.3,15.9-14.7,31.8-23,47.5V130.5c14.4,12.5,19.8,28.4,22,45.9
		c3.9,20.5,7.7,41.1,11.8,62.8c7.4-6.1,14.2-11.7,20.9-17.3c11.2-9.3,22.4-18.7,33.6-28.1c1.9-1.6,3.7-3.6,6.4-3.9
		c6.1-1.4,10.9,0.5,12.7,5.9C166.6,202.3,167.1,209,164.2,215.2z"/>
	<path display="inline" fill="#1ABC9C" d="M252.7,261.5c0-13.1-0.1-26.2-0.1-39.4c14.4,0,28.8,0,43.2,0c0,13.1-0.1,26.2-0.1,39.4
		c-1.6,1.6-3.7,2-5.8,2c-10.5,0.2-20.9,0.2-31.4,0C256.4,263.5,254.3,263.1,252.7,261.5z"/>
	<path display="inline" fill="#1ABC9C" d="M296.1,478c-0.1,8.8-0.2,17.6-0.3,26.5c-14.4,0-28.8,0-43.2,0c-0.1-8.8-0.2-17.6-0.3-26.5
		c0,0,0.4,0.1,0.4,0.1c1.6-1.6,3.7-2,5.8-2c10.5-0.2,20.9-0.2,31.4,0c2.1,0,4.2,0.3,5.8,2L296.1,478z"/>
	<path display="inline" fill="#1ABC9C" d="M252.7,369.7c-0.1-11.7,0-23.3-0.3-35c-0.1-3.9,1.6-4.5,4.9-4.5c11.2,0.2,22.5,0.2,33.7,0
		c3.3,0,5,0.6,4.9,4.5c-0.3,11.6-0.2,23.3-0.3,35c-1.6,1.6-3.7,1.9-5.8,2c-10.5,0.2-20.9,0.2-31.4,0
		C256.4,371.7,254.3,371.4,252.7,369.7z"/>
	<path display="inline" fill="#1ABC9C" d="M295.6,478c-14.3,0-28.6,0-42.9,0c-0.1-11.4,0-22.9-0.3-34.3c-0.1-3.4,0.8-4.9,4.6-4.9
		c11.4,0.2,22.9,0.2,34.3,0c3.8-0.1,4.6,1.4,4.6,4.9C295.7,455.1,295.7,466.6,295.6,478z"/>
	<path display="inline" fill="#1ABC9C" d="M252.7,369.7c14.3,0,28.6,0,43,0c0.1,7.2,0,14.4,0.3,21.6c0.1,3.5-0.9,4.9-4.6,4.9
		c-11.4-0.2-22.9-0.2-34.3,0c-3.7,0.1-4.7-1.4-4.6-4.9C252.7,384.2,252.6,376.9,252.7,369.7z"/>
	<path display="inline" fill="#1ABC9C" d="M252.7,261.5c14.3,0,28.6,0,43,0c0.1,7.2,0.1,14.4,0.3,21.6c0.1,3-1,4.1-4,4
		c-11.8-0.1-23.7-0.1-35.5,0c-3,0-4.1-1-4-4C252.6,275.8,252.6,268.7,252.7,261.5z"/>
</g>
<g id="Layer_8" display="none">
	<g display="inline">
		<path fill="#1ABC9C" d="M22.3,200.1c2.2-12.2,4.1-24.4,8.7-36C53.2,107.5,94,73,154.3,63.3c44.8-7.2,85.1,4.6,120.5,33.1
			c3.4,2.8,5.6,2.6,9-0.1c24.5-20,52.5-31.4,84.1-34.2c30.7-2.7,59.5,3.5,86.7,17.6c5.8,3,8.4,7.5,7.3,12.4c-1,4.6-4.8,7.8-9.6,8.3
			c-3.2,0.3-5.9-1.1-8.5-2.5c-20.6-10.6-42.5-15.8-65.7-15c-33.1,1.1-62.4,12.1-86.4,34.8c-25.1,23.6-49,48.4-73.3,72.9
			c-9.4,9.5-9.4,22.9-0.5,31.9c8.8,8.9,22.3,9.1,32,0c9.1-8.6,18-17.5,26.6-26.6c4.6-4.9,9.9-6.9,16.5-6.8
			c10.5,0.2,21.1-0.2,31.6,0.1c15.8,0.5,28.6-5.6,39.4-16.6c5.5-5.6,11-11.3,16.7-16.6c5.9-5.5,14.1-4.2,17.3,2.5
			c2.1,4.5,1.1,8.7-2.2,12c-10.8,10.7-20.4,22.7-33.8,30.4c-4.1,2.4-1.8,3.9,0.1,5.9c31.6,31.6,63.2,63.1,94.7,94.7
			c4.1,4.1,8.3,8.3,10.9,13.7c1.3,2.6,2.5,2.4,4.4,0.5c25.6-24.9,40.7-54.7,43-90.7c1.6-25.2-3.4-48.8-15.1-71.1
			c-4.6-8.8-3.4-15,3-18.1c6.1-3,11.5-0.1,16,8.6c31,60.3,21,130.7-25.7,179.8c-7.3,7.6-14.9,14.9-22.4,22.3
			c-1.5,1.4-2.5,3.1-3.5,4.8c-6.6,11.5-16.6,18.1-29.8,19.6c-3,0.3-4.6,1.1-4.8,4.3c-1.3,18.8-17.6,34.6-35.8,35
			c-2.7,0.1-3.2,1.9-3.6,4c-4.5,22.6-13.4,31.5-35.4,35.2c-2.8,0.5-3.8,1.8-4.1,4.6c-1.8,15.9-10,27.3-24.9,32.9
			c-15.3,5.7-28.9,1.9-40.6-9.2c-4.7-4.5-9.5-9-13.8-13.9c-3.3-3.8-5.6-3.3-8.7,0.2c-5,5.4-10,10.9-16.4,14.7
			c-24.1,14.3-53,0.8-57.8-27.1c-0.8-4.6-2.2-6.3-6.9-7c-18.5-3-30.5-15.5-32.7-34.2c-0.5-4.3-3-4.6-6-5
			c-17.1-2.5-28.4-12.2-32.1-28.8c-1.7-7.7-4.5-10-11.9-11.6c-15.2-3.3-24.4-13.8-28-28.9c-0.7-3.1-2-5.4-4.3-7.6
			c-23.2-22.8-38.4-49.9-44.8-81.9c-0.9-4.4-1.6-8.8-2.4-13.3C22.3,222.1,22.3,211.1,22.3,200.1z M176.5,83c-4,0-8-0.1-12,0
			c-2.3,0.1-4.6,0.6-6.9,0.9c-41.1,6.5-72.7,27.4-94.8,62.5c-17.9,28.5-23.2,59.9-17.8,92.9c3.9,24.1,14.2,45.5,30.2,64
			c2.4,2.7,3.6,3.7,6.7,0.2c7.4-8.4,15.1-16.6,23.9-23.5c13.3-10.4,33.6-9.8,46.5,1c8.1,6.7,12.8,15.3,14.1,25.7
			c0.3,2.3,0,5.2,3.8,5.3c17.4,0.5,33.7,14.9,35.6,35.2c0.3,3,1.6,3.8,4.4,4.1c18.8,2,32.6,15.6,34.7,34.5c0.4,3.4,1.6,4.3,4.8,4.8
			c24.3,3.1,39,24.3,33.2,48.2c-0.6,2.5-0.1,4.1,1.6,5.8c6.1,6,12,12.1,18.1,18c5.9,5.7,14.2,6.9,20.8,3.3
			c6.5-3.5,9.5-10.1,8.4-18.3c-0.6-4.4-3.2-7.6-6.2-10.6c-16.9-16.9-33.8-33.8-50.7-50.7c-1.6-1.6-3.3-3.4-4.6-5.3
			c-2.8-4.2-2.2-9.4,1.2-12.9c3.3-3.4,8.7-4.2,12.9-1.5c2,1.2,3.7,2.9,5.4,4.5c16.9,16.7,33.7,33.4,50.6,50.1c1.4,1.4,2.9,2.8,4.5,4
			c9.7,6.8,22.3,2.6,26.1-8.6c2.5-7.6-0.3-13.7-5.6-19c-25.9-25.9-51.8-51.8-77.7-77.7c-5.8-5.8-6.2-12.1-1.4-16.7
			c4.7-4.5,10.4-3.8,16.3,1.9c1,0.9,1.9,1.9,2.8,2.8c24.4,24.4,48.7,48.7,73.1,73.1c2.3,2.3,4.5,4.5,7.4,6
			c11.6,6.3,25.2-1.8,25.3-15c0-5.9-2.9-10-6.8-13.9c-25.1-25-50.2-50.1-75.2-75.2c-1.9-1.9-3.8-3.9-5.2-6.1
			c-2.7-4.2-1.8-9.5,1.7-12.8c3.6-3.4,8.7-3.9,12.9-1.1c1.9,1.3,3.6,2.9,5.3,4.6c24.8,24.8,49.7,49.6,74.5,74.5
			c1.7,1.7,3.3,3.4,5.2,4.7c9.5,7,24,1.8,26.5-9.5c1.5-6.9-0.6-12.8-5.6-17.8c-35.5-35.5-71-70.9-106.4-106.4
			c-1.8-1.8-3.7-2.6-6.2-2.5c-12,0.1-24.1,0.2-36.1,0.1c-3.1,0-5.3,1.1-7.4,3.3c-7.7,7.9-15.4,15.8-23.4,23.4
			c-22.4,21.4-56.6,16.1-70.3-10.8c-8.7-17.1-5.3-36.7,9.4-51.5c18.6-18.8,37.3-37.5,56.1-56c3.2-3.2,3.3-4.7-0.3-7.6
			C235.3,92.3,207.6,82.6,176.5,83z M110.4,345.3c5.4,0,9.3-1.6,12.6-4.8c6.1-6,12.2-11.9,18-18.1c6.1-6.6,6-16.4,0.2-22.8
			c-6.2-6.8-15.9-8.1-23-2.2c-7.6,6.2-14.6,13.2-20.8,20.9c-4.3,5.4-4.5,11.8-1.3,17.9C99.3,342.2,104.5,345,110.4,345.3z
			 M246.1,411.9c-2.8-0.2-6.3,0.3-8.9,2.5c-8.4,6.9-16.4,14.2-22.8,23.1c-4.7,6.6-2.9,15.9,3.1,21.4c5.7,5.2,15.8,6,21.7,0.7
			c7.2-6.4,14.1-13.3,20.5-20.5c4.6-5.2,4.8-11.7,1.7-17.8C258.6,415.2,253.6,411.9,246.1,411.9z M191.4,423.7
			c2.6,0.2,6.3-1.1,9.2-3.8c6.8-6.4,13.6-12.8,19.7-19.8c5.9-6.9,4.8-17.1-1.6-23.1c-6.4-6-16.7-6.2-23.2,0
			c-6.3,5.9-12.5,12.1-18.4,18.4c-5.1,5.5-5.5,12.1-2.7,18.7C177.2,420.6,182.8,423.7,191.4,423.7z M133.7,367
			c-0.2,7.3,2.8,12.5,9.1,15.6c6.4,3.2,12.8,2.7,18.3-1.9c7.2-6,13.8-12.6,19.8-19.8c5.9-7.1,5.1-17-1.4-23.1
			c-6.6-6.2-16.3-6.6-23.1-0.3c-6.5,6-12.6,12.4-18.8,18.7C134.7,359.3,133.5,363.1,133.7,367z"/>
		<path fill="#1ABC9C" d="M484.4,124.2c-5.7,0-10.1-4.5-10.2-10.2c0-5.8,4.8-10.6,10.5-10.5c5.4,0.1,10.3,5,10.3,10.3
			C495,119.6,490.3,124.3,484.4,124.2z"/>
		<path fill="#1ABC9C" d="M254.1,339.9c5.8,0,10.4,4.7,10.3,10.6c-0.1,5.6-4.8,10.2-10.3,10.2c-5.5,0-10.2-4.6-10.3-10.2
			C243.6,344.6,248.2,340,254.1,339.9z"/>
	</g>
</g>
<g id="Layer_9" display="none">
	<g display="inline">
		<path fill="#1ABC9C" d="M277.1,290.2c-49.7-0.1-90.4-40.9-90.4-90.7c0-49.2,41.5-90.7,90.7-90.8c49.9-0.1,91,41.3,90.8,91.5
			C368.1,249.9,327.1,290.3,277.1,290.2z M268.4,225.1c1.8,0,3.4-0.7,4.6-1.9c12.5-12.7,25-25.5,37.4-38.3c1.7-1.8,2.7-4,1.3-6.5
			c-1.4-2.6-3.6-3.9-6.6-4c-2.9,0-4.7,1.7-6.5,3.5c-8.3,8.3-16.6,16.6-24.9,24.9c-5.4,5.4-5.4,5.4-10.6,0.2
			c-2.4-2.4-4.8-4.9-7.2-7.2c-3.7-3.5-7.9-3.9-10.8-1c-3.2,3.1-3.1,6.8,0.7,10.7c5.6,5.7,11.3,11.3,16.9,17
			C264.2,224,266,225.2,268.4,225.1z"/>
		<path fill="#1ABC9C" d="M522.5,418.3c0,17.7,0,35.5,0,53.2c0,16.2-6.9,23.1-23,23.1c-9,0-18.1,0-27.1,0c-6.4,0-12.2-1.6-16.5-6.6
			c-1.8-2.1-3.4-2.2-5.8-1c-10.5,5.1-21.7,6.8-33.2,6.8c-27.3-0.1-54.5,0.1-81.8-0.1c-16.9-0.1-30.1-13-28.3-29.3
			c0.9-7.9-0.9-11.4-7.1-15.9c-9-6.5-11.7-16.5-7.9-27.4c1.3-3.8,1-5.9-2.5-8.5c-14.2-10.3-15.5-28.8-3-41.3c1.9-1.9,2.2-3.1,1-5.6
			c-9.3-19.8,3.7-40.2,25.7-40.3c15.7-0.1,31.4-0.1,47,0c4.1,0,5.1-1.2,3.8-5.1c-3.8-11.5-5.9-23.2-3.1-35.2
			c4.4-18.8,22-32.9,41.1-33.2c13.5-0.2,23.2,8.6,23.8,22.2c0.7,14.7,1.7,29.3,8.2,42.9c5.3,11.1,11.1,21.9,16.7,32.8
			c1.1,2.2,2.1,2.8,3.9,0.5c4.5-5.6,10.7-7.5,17.7-7.4c10.1,0.1,20.1,0,30.2,0.1c12.5,0.1,20.1,7.6,20.1,20.1
			C522.6,381.5,522.5,399.9,522.5,418.3z M378.6,477.8C378.6,477.8,378.6,477.9,378.6,477.8c13.1,0,26.2-0.1,39.4,0.1
			c10.1,0.1,19.5-2.4,28.5-6.8c3-1.5,4.3-3.3,4.3-6.7c-0.1-28.3-0.1-56.6,0-84.9c0-2.3,0-4.5-2-6c-7.7-5.7-11.3-14.3-15.8-22.3
			c-12.9-23-24.8-46.3-23.5-73.9c0.3-6.9-4.1-9.5-11.1-8.2c-12.8,2.2-22,13.1-22.1,26.1c-0.1,6.4,0.8,12.5,2.8,18.6
			c1.8,5.5,3.6,11,5.1,16.6c1.7,6.3-0.9,10.3-7.4,11.4c-2,0.4-4.1,0.4-6.1,0.4c-18.1,0-36.1,0-54.2,0c-10.3,0-15.4,3.5-15.5,10.7
			c-0.1,7.5,4.6,10.8,15.6,10.8c6.1,0,12.3-0.1,18.4,0.3c5.3,0.4,8.7,4,8.6,8.4c-0.1,4.6-3.8,7.9-9.5,7.9c-8.5,0.1-17,0.1-25.6,0
			c-2.8,0-5.5,0.3-8,1.5c-4.2,2.1-6.6,5.4-5.9,10.3c0.7,4.9,3.7,8,8.5,9c2,0.4,4.1,0.3,6.1,0.3c10.4,0,20.8-0.1,31.2,0.1
			c6,0.2,9.5,3.8,9.2,8.8c-0.3,4.7-3.9,7.7-9.6,7.8c-6.8,0.1-13.6,0-20.5,0.1c-8.1,0.1-12.8,4.1-12.7,10.7
			c0.1,6.3,4.8,10.2,12.7,10.2c11.9,0.1,23.9,0,35.8,0.1c6.3,0.1,10.4,3.4,10.5,8.2c0.1,4.9-4.4,8.5-10.7,8.5
			c-7.2,0.1-14.3,0-21.5,0.1c-4.7,0-8.3,2-10.1,6.4c-3.4,7.9,1.9,15.3,11.2,15.4C349.3,478,364,477.8,378.6,477.8z M506.9,469.7
			c0-4.7-3.9-8.5-8.4-8.5c-4.5,0.1-8.4,4.1-8.4,8.6c-0.1,4.5,3.8,8.6,8.3,8.8C502.9,478.8,506.9,474.6,506.9,469.7z"/>
		<path fill="#1ABC9C" d="M29,419.2c0-18.4,0-36.8,0-55.2c0-12.9,7-20,19.8-20.1c10.9-0.1,21.8,0,32.7,0c6.7-0.1,12.4,2.1,16.7,7.3
			c1.2,1.4,2.1,3,3.5,0.2c6.7-14,15.3-27,20.4-41.8c3.2-9.3,4.5-18.8,4.4-28.6c-0.2-21.3,13.6-32,34.2-26.6
			c21.5,5.6,35.4,26.7,32.2,48.7c-0.9,6.3-2,12.5-4.2,18.4c-1.5,3.9-0.3,5,3.8,5c15.5-0.2,31-0.1,46.5-0.1
			c23.1,0.1,35.3,19.1,25.7,40c-1.1,2.4-1.3,4,0.9,5.7c12,9.1,9.7,33-3.7,41.5c-3.1,1.9-3.9,3.6-2.5,7.3
			c4.7,12.9-0.2,25.2-12.5,32.2c-2.6,1.5-3.5,2.8-2.8,6c4.6,19.2-7.3,35.1-27.3,35.4c-29.1,0.5-58.3,0.3-87.5,0
			c-9.2-0.1-18.3-2.1-26.6-6.4c-2.8-1.4-4.9-1.4-7.1,1.2c-3.4,4-7.9,5.7-13.2,5.7c-11.8-0.1-23.5,0.1-35.3-0.1
			c-11.1-0.1-18.1-7.2-18.1-18.4C28.9,457.4,29,438.3,29,419.2z M171.6,479.1C171.6,479.1,171.6,479.1,171.6,479.1
			c15.3,0,30.7,0.1,46-0.1c6.3-0.1,10.6-4.4,10.9-10c0.3-5.5-3.8-10-10.1-10.9c-1.7-0.2-3.4-0.1-5.1-0.1c-6.6,0-13.3,0.1-19.9-0.1
			c-4.5-0.1-7.4-2.4-7.8-7.1c-0.4-4.6,2-7.9,6.6-8.8c2.7-0.5,5.4-0.6,8.1-0.6c11.4-0.1,22.8,0,34.3-0.3c5.5-0.2,9.1-4,9.5-8.9
			c0.4-5.4-2.5-9.7-7.7-11.2c-1.8-0.5-3.7-0.7-5.5-0.7c-5.1-0.1-10.2,0-15.3,0c-1.4,0-2.7,0-4.1,0c-5.6-0.2-9.2-3.3-9.3-8.1
			c-0.1-4.8,3.5-8,9.2-8c10.9-0.1,21.8,0.1,32.7-0.1c8.5-0.1,13.2-4.4,13.2-11.7c0-6.4-4.8-10.2-13.2-10.3
			c-8.7-0.1-17.4,0.1-26.1-0.1c-6.4-0.1-9.9-3.5-9.7-8.8c0.2-4.9,3.8-7.8,10-7.9c7.5-0.1,15,0.1,22.5-0.1
			c6.6-0.2,10.7-4.7,10.5-11.3c-0.1-6.9-4.3-10.6-12.2-10.6c-18.9-0.1-37.8,0-56.8,0c-15.1,0-17.4-3.1-12.6-17.4
			c3.4-10.2,6.6-20.4,5.9-31.4c-0.7-11.2-9.3-21.3-20.1-23.6c-9.4-2-13,0.9-13.3,10.5c-0.5,18.2-4.6,35.4-13.3,51.5
			c-4.9,9.1-10,18.2-14.8,27.4c-2.5,4.8-5.2,9.2-9.5,12.5c-2.3,1.8-3.2,4.1-3.2,7.1c0.1,28.6,0.1,57.3,0,85.9c0,3.1,1.1,5.1,3.9,6.4
			c8.4,4,17,7,26.4,6.9C145,479,158.3,479.1,171.6,479.1z M53.4,461.2c-4.5-0.1-8.3,3.7-8.5,8.4c-0.1,5,3.5,9,8.3,9.1
			c4.4,0,8.5-4,8.6-8.4C61.9,465.6,58,461.3,53.4,461.2z"/>
		<path fill="#1ABC9C" d="M382.6,68.3c-0.1,0.5-0.3,1.9-0.6,3.2c-2.9,10.9-5.8,21.7-8.8,32.6c-1.5,5.5-5.6,8.4-10,7.3
			c-4.6-1.1-7.1-5.8-5.7-11.4c2.7-11.3,5.5-22.5,8.4-33.7c1.4-5.5,5.5-8.4,9.9-7.6C380.1,59.4,382.7,62.8,382.6,68.3z"/>
		<path fill="#1ABC9C" d="M189.7,111.9c-3.3-0.3-6.3-2-7.3-5.7c-3.4-12.8-6.7-25.7-9.7-38.6c-0.9-3.9,2.1-7.7,6.2-8.7
			c4.3-1,7.9,0.5,9.1,4.6c3.7,13.1,7,26.3,10.1,39.6C199.1,107.3,194.7,111.7,189.7,111.9z"/>
		<path fill="#1ABC9C" d="M451.2,134.9c4.5,0.2,7.1,2.6,7.9,6.7c0.9,4.3-1.3,7.4-5.2,8.8c-4.2,1.5-8.5,2.4-12.8,3.5
			c-7.9,2-15.8,4-23.8,5.9c-5.7,1.3-9.8-1-11-6c-1.1-4.5,1.4-8.1,6.9-9.6c11.7-3.1,23.4-5.9,35.1-8.9
			C449.2,135.1,450.3,135,451.2,134.9z"/>
		<path fill="#1ABC9C" d="M106.4,135.1c4.7,1.1,10.6,2.6,16.6,4.1c6.6,1.7,13.2,3.2,19.8,5.1c5,1.4,7.5,5.5,6.4,10
			c-1,4-5.5,6.8-10.1,5.7c-12.2-2.9-24.5-5.9-36.6-9.2c-4.4-1.2-6.6-5.4-5.7-9.5C97.5,137.4,100.7,135.1,106.4,135.1z"/>
		<path fill="#1ABC9C" d="M422.6,102.2c0.2,3-1.3,5.2-3.3,7.2c-8,7.7-15.9,15.4-23.9,23c-4,3.8-8.4,3.8-11.8,0.4
			c-3.3-3.3-3.4-8.1,0.3-11.8c8.3-8.3,16.8-16.4,25.4-24.5c2.4-2.3,5.3-3,8.5-1.5C420.7,96.5,422.4,98.8,422.6,102.2z"/>
		<path fill="#1ABC9C" d="M174.8,127.3c-0.3,3.1-1.8,5.6-4.8,7.1c-2.9,1.5-5.8,1.4-8.1-0.8c-8.9-8.6-17.7-17.3-26.3-26.3
			c-3.1-3.3-2.6-7.2,0.5-10.5c3.2-3.3,7.7-3.5,11.4-0.1c6.9,6.5,13.5,13.4,20.3,20.1c1.6,1.6,3.1,3.1,4.6,4.8
			C173.8,123.1,174.7,124.9,174.8,127.3z"/>
	</g>
</g>
<g id="Layer_10" display="none">
	<g display="inline">
		<path fill="#1ABC9C" d="M255.2,276.7c2.7-0.8,3.8-2.6,5.1-3.9c29.9-29.8,59.7-59.8,89.6-89.6c12.5-12.4,28.5-14,41.6-4.2
			c4.2,3.1,7.3,7.2,9.3,12c1.2,2.9,2.1,2.9,4.5,1c10.3-8.1,21.7-9.6,33.3-3.5c11.4,6,16.9,15.8,16.4,28.8c-0.3,6.6-2.8,12.5-7,17.6
			c-1.5,1.8-2.3,2.7,0.6,4.1c17.1,8.8,22.5,23.2,15.5,41.3c-0.9,2.3-0.7,3.4,1.7,4.6c8.9,4.4,8.8,4.5,13.8-4.3
			c15.9-27.8,26.7-57.4,29.9-89.4c4.8-47.3-6.4-89.2-42.6-122.1c-20.2-18.3-44.2-28.4-71.5-30.7C353,35,316.9,50.6,284.4,76.8
			c-3.9,3.2-7.1,9.1-11.9,8.9c-4.4-0.2-7.7-5.7-11.5-8.8c-24.8-20.2-52.4-34.5-84.6-38.1C117.2,32.2,66.9,64.2,45.2,116
			c-0.6,1.5-1.4,3-1.8,4.6c-0.9,3.4-2.7,4.4-6.2,3.1c-12-4.3-11.8-2.1-6.5-14.1c21.1-48,57.3-77.5,109.2-86.1
			c35.1-5.8,68.2,2.2,99.2,19.2c10.6,5.8,20.6,12.4,29.9,20.2c2.9,2.4,4.6,2.3,7.5,0c24.9-19.9,52.7-33.5,84.4-39.1
			c57.2-10.1,116.8,17.9,145.6,68.5c17.3,30.5,22.6,63.3,19.3,97.9c-3.8,40.3-18.4,76.7-39.6,110.8c-1.5,2.3-2.1,4.5-1.6,7.4
			c1.5,9.7-0.9,18.6-7.8,25.6c-18.7,19.1-37.7,37.9-56.6,56.8c-2,2-3.5,2.2-5.8,0.2c-8.8-8.1-8.9-8-0.4-16.5
			c16.2-16.2,32.4-32.5,48.7-48.7c3.3-3.3,6-6.9,6.1-12c0.1-6-2.2-10.7-7.6-13.3c-5.5-2.6-10.9-2.2-15.8,1.7
			c-1.5,1.2-2.9,2.7-4.3,4.1c-20.8,20.8-41.6,41.5-62.2,62.4c-2.9,2.9-4.6,3.1-7.5,0.1c-7.6-7.9-7.7-7.7,0-15.5
			c24.7-24.7,49.5-49.5,74.2-74.2c4.1-4,6.8-8.5,5.5-14.5c-2.5-11.1-14.6-15.4-23.6-8.4c-1.6,1.2-2.9,2.7-4.3,4.1
			c-25.1,25.1-50.2,50.2-75.3,75.3c-4.8,4.8-4.9,4.9-9.5,0.1c-7.6-7.7-7.4-5.6-0.1-13c31.6-31.7,63.2-63.3,94.9-94.9
			c3.4-3.4,5.9-7,5.8-12.1c0-6.1-2.6-10.6-8-13.1c-5.6-2.7-10.9-1.9-15.7,2.1c-1.5,1.3-2.9,2.7-4.3,4.1
			c-31.7,31.7-63.5,63.5-95.2,95.2c-4.5,4.5-4.6,4.6-9.2-0.1c-7.5-7.6-7.5-5.5-0.1-13c24.7-24.8,49.5-49.5,74.2-74.2
			c3.7-3.7,6.9-7.5,6.8-13.2c-0.1-5.9-2.7-10.2-7.8-12.8c-5.1-2.6-10.3-2.2-15,1.2c-1.9,1.3-3.4,3.1-5.1,4.7
			C321,235,282.4,273.6,243.8,312.2c-5.4,5.4-5.4,5.4-10.7,0c-6.9-7-7.1-5.6-0.1-11.8c4.9-4.3,5.3-9.5,5.7-15.1
			c1-16.3,2-32.6,3-48.9c0.6-9.1-5-16.4-14.3-18.6c-9.3-2.2-9.3-2.2-12.1,6.7c-8.5,27.8-17,55.5-25.4,83.3c-2.7,8.7-0.1,17.4,0.4,26
			c1,17.8,2.8,35.5,4.3,53.2c0.2,2.9-1.4,4.6-3.2,6.3c-10,10-19.9,20.3-30.2,30c-4.3,4.1-4.9,8.2-3.1,13.3c3.1,9,8.1,16.9,13.8,24.5
			c13.8,18.2,30,33.8,49.7,45.5c4.7,2.8,9.7,4.9,14.9,6.5c4,1.2,6.8,0.2,9.7-2.7c15.4-15.6,31-31,46.5-46.6c2.7-2.7,5.6-4.4,9.2-5.3
			c10.6-2.5,21.1-5.4,31.7-7.8c3.9-0.9,6.9-2.7,9.7-5.5c9.3-9.6,18.9-18.9,28.3-28.4c2.7-2.8,4.6-3.4,7.5-0.2
			c8.7,9.3,8.7,6.4,0,15.2c-9.4,9.5-18.9,18.9-28.3,28.4c-2.5,2.6-5.4,4.2-8.9,5c-10.8,2.6-21.5,5.4-32.3,7.9
			c-3.5,0.8-6.3,2.5-8.8,5.1c-14.6,14.8-29.6,29.3-44,44.2c-6.9,7.2-14.9,8.7-23.9,6.3c-14.7-3.8-27-12.1-38.6-21.6
			c-19-15.5-35.4-33.2-46.9-55c-1.8-3.5-3.3-7.2-4.6-10.9c-3.9-11.1-2.6-21,6.9-29.1c4.7-4,4.4-4.3-0.1-8.5
			c-32.7-29.5-63.1-61.1-87.2-98.2c-20.1-30.9-34.9-64-40.8-100.6c-3.5-21.6-4.1-43.3,0-65c0.7-3.9,1.9-5.3,6.2-4.3
			c9.8,2.3,10,2.1,8.7,12c-6,46.3,5.4,89,27.5,129.3c22.2,40.6,52.8,74.4,86.3,105.7c4.1,3.8,8.4,7.4,12.5,11.3
			c2,1.9,3.6,2.1,5.3-0.1c0.1-0.1,0.2-0.3,0.4-0.3c9.1-6,10.1-14.3,8.7-24.5c-1.9-14.3-1.7-29-3.9-43.3c-2.3-14.7,2.9-27.6,6.9-40.9
			c8.4-27.6,16.8-55.2,25.1-82.9c1.1-3.5,2.8-4.3,6.1-3.6c6.6,1.4,13.3,2.4,19.9,3.9c16.3,3.7,26.7,17.1,26,33.8
			C256.7,249.5,255.9,262.9,255.2,276.7z"/>
		<path fill="#1ABC9C" d="M424.6,66.4c0,7.8,0,7.8-8.3,7.8c-7.8,0-7.8,0-7.8-7.9c0-8.2,0-8.2,8.2-8.2
			C424.6,58.1,424.6,58.1,424.6,66.4z"/>
		<path fill="#1ABC9C" d="M445.7,89.1c-7.6,0-7.6,0-7.6-8.2c0-8,0-8,8.4-8c7.7,0,7.7,0,7.7,8.6C454.3,89.1,454.3,89.1,445.7,89.1z"
			/>
		<path fill="#1ABC9C" d="M395.6,392.9c2.6,0.5,3.7,2.2,5,3.6c7.6,7.7,7.5,5.9,0.1,13.4c-4.7,4.7-4.7,4.7-9.6-0.2
			c-7.3-7.4-6.9-5.6,0-12.6C392.7,395.6,394.3,394.2,395.6,392.9z"/>
	</g>
</g>
<g id="Layer_11">
	<g>
		<path fill="#1ABC9C" d="M227.7,403.8c-41.1-35-39.1-88.8-9-120.3c30.9-32.4,82.2-33.7,114.5-3.4c32.5,30.5,37.2,87.3-5.4,123.7
			c16.1-1.4,29.5,5.6,43.5,9.9c14.4,4.4,29.3,5.9,44.3,6.1c10.1,0.2,20.2,0.1,30.3,0c3.4,0,6.9,0.6,8.2,3.8c1.7,4.2,4.7,4.5,8.4,4.3
			c6-0.2,12.1-0.2,18.2,0c13.3,0.3,20.9,14.1,13.9,25.3c-6.2,9.9-15.2,15.5-27.1,15.7c-2.4,0-4.7,0.1-7.1,0
			c-2.6-0.1-4.4,0.4-5.5,3.2c-1.5,3.6-4.7,5-8.6,4.9c-25.3-0.6-50.8,2.2-75.8-4.2c-3.3-0.8-3.7,0.7-3.7,3.4
			c0.1,11.8-0.1,23.5,0.1,35.3c0.1,4.2-0.9,6.1-5.6,5.9c-13.3-0.4-11.2,1.5-11.3-11.2c-0.1-14.6-0.1-29.3,0-43.9
			c0-8.3,4.6-12.1,12.4-9.6c23.6,7.7,48,7.6,72.4,7.4c2.6,0,4.1-0.8,4.1-3.7c-0.1-5.4-0.1-10.8,0-16.1c0.1-3-1.5-3.7-4.1-3.7
			c-7.6,0.1-15.1-0.1-22.7,0c-19.4,0.3-38.2-3.2-56.2-10.1c-11.4-4.4-22.9-6.3-35-6.1c-7.9,0.2-15.8,0.1-23.7,0
			c-3.4,0-3.8,1-2.1,3.8c4.5,7.3,8.8,14.7,13.3,22c2.5,4,2.6,7.8,0.5,11.9c-7.5,14.9-14.9,29.8-22.4,44.7c-1.8,3.7-4.2,6.5-8.8,6.4
			c-4.6,0-6.9-2.9-8.7-6.6c-7.4-14.7-14.7-29.5-22.1-44.2c-2.2-4.3-2.2-8.2,0.4-12.4c4.5-7.1,8.6-14.4,13-21.6
			c1.7-2.8,1.8-4.2-2.1-4c-13.3,0.4-26.6-0.7-39.8,0.8c-3.5,0.4-7.1,1-10.3,2.3c-25.8,10.7-52.7,14.3-80.4,13.1
			c-11-0.5-11-0.1-11,10.8c0,12.6,0,12.5,12.8,12.6c21.8,0.3,43.3-0.8,64.3-7.5c6.9-2.2,11.6,1.7,11.7,8.9c0.1,17,0,34,0.1,51
			c0,3.8-1.4,5-5,4.9c-14.1-0.3-11.7,1.6-11.9-11.6c-0.1-9.8-0.1-19.5,0-29.3c0.1-3.4-0.9-4.5-4.4-3.6c-25.2,6.4-50.8,3.4-76.3,4
			c-2.7,0.1-5.5-1-6.4-3.3c-2-5.3-6-4.9-10.2-4.7c-12.3,0.5-21.7-4.8-28.8-14.6c-3-4.2-3.8-9-2.8-13.9c1.5-7.2,7.7-12.3,15.2-12.5
			c6.6-0.2,13.1-0.1,19.7,0c2.7,0,4.7-0.2,5.9-3.3c1.6-3.9,5.1-4.8,9.1-4.9c14.1-0.2,28.2,0.4,42.3-0.6c12.5-0.9,24.7-3,36.5-7
			C200.9,407.9,212.9,402.5,227.7,403.8z M278.3,403.6c3.1-0.4,7.7-0.6,12.1-1.6c29.7-6.4,50-30.6,51.1-61.3
			c0.2-4.9,1.6-10.9-4.3-14.5c-38.9-24-78.4-24.8-118.5-3.1c-2.2,1.2-3.8,2.8-4.1,5.4c-0.5,3.8-1.2,7.7-1.1,11.5
			C214.3,375,241.9,402.5,278.3,403.6z M228.9,298.7c34-11.9,66.7-11.1,99.9,3C304.3,267.4,253.1,267.4,228.9,298.7z M291.4,452.9
			c-0.2-0.7-0.2-1.2-0.5-1.6c-3.9-6.7-7.8-13.3-11.9-19.9c-1.6-2.6-2.7-0.6-3.6,0.8c-3.6,5.9-7.1,11.8-10.6,17.7
			c-1.2,1.9-1.2,3.7-0.2,5.7c3.7,7.2,7.3,14.4,10.8,21.6c1.5,3,2.7,3.1,4.2,0c3.5-7.2,7.2-14.4,10.8-21.7
			C290.9,454.7,291.1,453.7,291.4,452.9z M467.7,444.6C467.7,444.7,467.7,444.7,467.7,444.6c-3.2,0.1-6.4,0-9.5,0.1
			c-2.2,0-2.7,1.6-2.7,3.4c0,1.7-0.1,3.6,2.3,3.7c6,0.3,12.1,0.8,17.4-3c1.2-0.8,3.2-1.6,2.8-3.2c-0.4-2-2.5-0.9-3.9-1
			C472.1,444.5,469.9,444.6,467.7,444.6z M88.5,444.6c-2.5,0-5,0-7.6,0c-0.9,0-2.3-0.4-2.7,0.7c-0.5,1.4,0.8,2,1.7,2.8
			c4.8,4,10.5,3.9,16.3,3.9c2.7,0,3.4-1.3,3.5-3.8c0-2.6-1.1-3.7-3.6-3.6C93.5,444.7,91,444.7,88.5,444.6z"/>
		<path fill="#1ABC9C" d="M278.1,32.2c45,0.1,80.7,36.1,80.6,81.4c0,45.2-36.2,80.8-81.8,80.7c-44.8-0.1-80.4-36.3-80.4-81.7
			C196.6,67.8,232.7,32.2,278.1,32.2z M276.4,49.2c-7.7,0.5-15.8,1.8-23.5,5c-2.9,1.2-3.9,1.8-1.4,5.1c4.4,5.6,9.9,5.5,15.8,5.2
			c4.9-0.3,8.7,1.3,10.4,6.1c2.7,7.8,5.3,15.6,7.8,23.4c1.1,3.6,0.3,6.9-2.5,9.7c-5,4.9-10,10-15,15c-2,2-4.4,3.4-7.2,2.9
			c-9.5-1.6-16.9,2.2-23.6,8.4c-2.1,1.9-4.5,3.5-6.8,5.2c-11,8.2-11,9-1.7,19.3c2.1,2.3,3.5,2.3,5.8,0.5c5.9-4.7,12.1-9.1,18.1-13.7
			c3.5-2.7,7.4-6,11.8-3.6c7.6,4.1,17.5,5,21.6,14.3c0.3,0.8,0.5,1.6,0.7,2.4c1.3,5.1,2.8,10.1,3.7,15.2c0.8,4.8,2.6,6,7.4,4.3
			c11.1-3.9,20.4-10.2,28.1-19c3.5-4,3.3-4.6-1.7-6.3c-10.7-3.6-21.4-7-32-10.8c-7-2.5-8.9-8-4.9-14.4c3-4.7,5.9-9.5,9.3-13.8
			c3.8-4.9,5-10.2,5-16.3c-0.1-19.5-2.5-15.4,13.5-26.3c0.1-0.1,0.3-0.2,0.4-0.3c3.2-1.7,2.6-3.1,0-5
			C304.1,53.4,291.1,49.6,276.4,49.2z M213.4,114.1c0.2,2.1,0.6,4.9,0.8,7.8c0.2,3.1,1.5,2.8,3.5,1.3c5.8-4.4,11.8-8.4,17.3-13.1
			c4.8-4.1,9.9-5.6,16.2-5.4c12.1,0.4,17.6-7.8,13.6-19.2c-1-3-2.5-4.7-5.7-4.2c-6.9,1.1-12-1.6-16.2-6.9c-1.6-2-3.7-3.5-5.3-5.4
			c-2.2-2.7-3.9-2.2-6.1,0.1C219.6,81.5,214,96.4,213.4,114.1z M341.7,113.4c-0.1-10-2.7-20.3-7.1-29c-3.6-7.2-3.7-7.3-10.2-2.7
			c-2.7,1.9-6.7,3-6.1,7.6c1.4,12.1-0.5,23.3-9.2,32.6c-1.8,1.9-1.1,3.2,1.2,4c8,2.6,15.9,5.2,23.8,8c2.7,0.9,3.9,0.1,4.7-2.6
			C340.9,125.4,341,119.2,341.7,113.4z M271.3,176.9c2.2,0.5,3.1-1.2,2-4.8c-0.9-2.9-1.4-5.9-2.2-8.8c-1.8-6.5-7.6-8.5-13-4.5
			c-3.2,2.4-6.4,4.9-9.7,7.2c-2.2,1.5-2.8,2.7,0.1,4.2C255.2,173.5,262.2,175.8,271.3,176.9z"/>
		<path fill="#1ABC9C" d="M197.2,234.5c0,44.9-36.2,81-81.3,80.9c-45.1,0-81-36.3-80.9-81.8c0.1-44.8,36.3-80.4,81.8-80.3
			C161.5,153.4,197.3,189.5,197.2,234.5z M67.2,274.8c0.5-14.7,6.6-25.7,17.9-33.5c3.6-2.5,4.3-4.1,2.1-8.2
			c-6.3-12-5.2-23.9,2.9-34.6c8.4-11.1,20.1-15.1,33.6-12c21.1,4.9,31.3,28,21.2,47.3c-1,1.9-3.3,3.8,0,5.9
			c12.7,8,19.6,19.4,20.3,34.7c18.4-19.1,21.6-57.3-1.1-82.1c-24.4-26.9-64.4-29.1-90.5-5.6C46.4,211.1,46.5,251.5,67.2,274.8z
			 M116.2,250.9c-2.5,0-5-0.1-7.6,0c-14.3,0.7-23.7,10.1-24.4,24.4c-0.2,3.2,0.2,6.4-0.1,9.6c-0.4,3.8,1.3,5.8,4.7,7.3
			c17.5,7.9,35,8.1,52.8,0.9c4.9-2,6.7-4.7,6.6-10.1C147.9,258.8,140.2,250.9,116.2,250.9z M116.2,202.6c-8.3,0-15.9,7.6-15.7,15.9
			c0.1,8.1,7.6,15.5,15.6,15.5c8.2,0.1,15.9-7.7,15.8-15.9C131.7,210,124.2,202.6,116.2,202.6z"/>
		<path fill="#1ABC9C" d="M439.5,153.3c45,0.1,80.7,36.1,80.6,81.4c0,45.2-36.1,80.9-81.8,80.8c-44.8-0.1-80.4-36.3-80.4-81.7
			C358,188.9,394.1,153.3,439.5,153.3z M439,298.6c35.5-0.9,63.8-27.8,64-63.9c0.2-35.8-27.7-64.2-64-64.2
			c-35.5,0-63.8,27.6-64,63.7C374.9,269.8,402.7,297.6,439,298.6z"/>
		<path fill="#1ABC9C" d="M83.6,347.8c-8.1,0-8.1,0-8.1-8.7c0-8.1,0-8.2,8.7-8.1c9.1,0,8.1-0.6,8.1,9.2
			C92.3,347.8,92.3,347.8,83.6,347.8z"/>
		<path fill="#1ABC9C" d="M479.8,339.4c0,8.4,0,8.4-8.5,8.4c-8.4,0-8.4,0-8.4-9c0-7.9,0-7.9,9-7.9
			C479.8,330.9,479.8,330.9,479.8,339.4z"/>
		<path fill="#1ABC9C" d="M92.3,371.8c0,8.2,0,8.2-8.6,8.2c-9.2,0-8.2,0.6-8.2-9.1c0-7.7,0-7.7,9.1-7.7
			C92.3,363.2,92.3,363.2,92.3,371.8z"/>
		<path fill="#1ABC9C" d="M479.8,372c0,8.1,0,8.1-8.8,8.1c-8.1,0-8.1,0-8.1-8.8c0-8.1,0-8.1,9.3-8.1
			C479.8,363.2,479.8,363.2,479.8,372z"/>
		<path fill="#1ABC9C" d="M92.3,404.1c0,8.2,0,8.2-8.6,8.2c-9.2,0-8.2,0.6-8.2-9.1c0-7.7,0-7.7,9.1-7.7
			C92.3,395.5,92.3,395.5,92.3,404.1z"/>
		<path fill="#1ABC9C" d="M479.8,403.9c0,8.4,0,8.4-8.4,8.4c-8.4,0-8.4,0-8.4-8.9c0-7.9,0-7.9,8.9-7.9
			C479.8,395.5,479.8,395.5,479.8,403.9z"/>
		<path fill="#1ABC9C" d="M230.5,330.9c3.6-0.7,6.8,0.3,9.3,4.9c2.3,4.3,9.2,4.1,11.3-0.4c2.2-4.6,5.4-4.6,9.4-4.5
			c10.4,0.1,11.6,2.1,6.8,11.6c-4.7,9.3-14.1,14.3-25,13.3c-9.3-0.9-17.6-7.7-20.5-17c-2.1-6.8-1.4-7.8,5.8-7.8
			C228.3,330.9,229,330.9,230.5,330.9z"/>
		<path fill="#1ABC9C" d="M309.8,355.8c-11.8,0-22-8.3-24.1-19.6c-0.7-3.5,0-5.6,4.2-5.3c2.3,0.2,4.7,0.1,7,0
			c3.1-0.2,5.1,0.7,6.7,3.8c2.8,5.4,9.8,5.6,12.5,0.2c1.8-3.6,4.2-4.3,7.6-4c1.2,0.1,2.3,0,3.5,0c7.7,0,8.5,1.2,6,8.4
			C329.7,349.5,320.6,355.9,309.8,355.8z"/>
		<path fill="#1ABC9C" d="M438.6,283.2c-8,0-8,0-8-7.9c0-3.9-0.2-7.7,0-11.6c0.2-3.4-1-5-4.6-4.8c-2.5,0.2-5,0.1-7.6,0
			c-13.4-0.2-24.6-9.1-27.7-22.2c-3-12.3,2.9-25.5,14.4-31.6c3.2-1.7,5.7-3.9,7.9-6.7c13.2-17.4,39-17.3,52.1,0.3
			c2.1,2.8,4.4,4.8,7.5,6.4c11.7,6,17.6,19.5,14.5,32c-3.3,12.9-14.3,21.7-27.4,21.9c-12.3,0.2-12.3,0.2-12.3,12.6
			c0,0.8,0,1.7,0,2.5C447.4,284,448.4,283.1,438.6,283.2z M439,242.1C439,242.1,439,242.1,439,242.1c6.4,0,12.8,0.2,19.1-0.1
			c7.3-0.3,11.8-4.3,12.5-10.7c0.6-5.7-2.8-10.1-9.6-12.2c-3.4-1-6-2.8-7.4-6.1c-2.7-6.5-7.7-10.3-14.7-10.2
			c-6.8,0.1-11.6,3.9-14.3,10.2c-1.3,3.2-3.6,5-6.9,6c-7.6,2.4-11,6.8-10.1,12.8c1,6.5,5.6,10.1,13.4,10.3
			C426.9,242.2,433,242.1,439,242.1z"/>
	</g>
</g>
<g id="reforestacion" display="none">
	<g display="inline">
		<path fill="#1ABC9C" d="M380.7,25.5c5.4,3,6.8,7.7,7.3,13.7c1.2,16.1-0.4,31.9-4.5,47.4c-8.5,31.8-29.4,51-60.9,59.2
			c-11.3,2.9-22.8,4.2-34.4,4.6c-3.4,0.1-4.9,1.1-4.9,4.7c0.1,55.3,0.1,110.6,0.1,166c0,0.6,0.1,1.2,0.2,2.2
			c7.3-7.1,14.4-14,21.5-20.9c1.2-1.1,0.7-2.7,0.4-4.1c-9.6-56,8.4-102.1,50.3-139.6c5.4-4.9,11.1-9.4,17.3-13.2
			c6.1-3.8,12-2.9,15.3,2.1c3.1,4.7,1.7,10.9-3.9,14.7c-17.2,11.9-32,26-43,43.9c-10.5,17.1-16.4,35.6-17.7,55.6
			c-0.4,6.9-1.4,13.8,0.5,20.7c2-0.3,2.9-2,4-3.2c20.6-20.5,41.1-41,61.6-61.6c0.9-0.9,1.8-1.8,2.7-2.7c5.2-5,11.2-5.5,15.5-1.4
			c4.4,4.2,4,10.6-1.2,15.8c-21.3,21.4-42.6,42.7-64,64c-1.2,1.2-2.4,2.5-4.2,4.4c9.7,1.6,18.9,1.5,27.7,0
			c54.9-9,90.4-41,107.9-93.3c5.9-17.7,6.1-36.1,3-54.5c-0.6-3.5-2-5-5.5-5.3c-5.3-0.4-10.6-1.1-15.8-1.7c-1.3-0.1-2.6-0.1-3.9-0.3
			c-6.6-1-10.2-5.1-9.9-10.9c0.3-5.5,4.4-9.3,10.9-9.5c7.4-0.2,14.8,1,22.1,2.1c2.7,0.4,5.3,1.2,8,1.7c7.9,1.2,11.4,6,12.9,13.5
			c11.5,57.3-6.3,104.7-49.2,143c-30.2,27-66,38.8-106.4,36.3c-5.4-0.3-10.9-1.4-16.2-2.4c-2.4-0.4-4.3-0.2-6.1,1.7
			c-9.8,9.9-19.6,19.7-29.4,29.4c-2.7,2.6-1.3,3.2,1.4,3.8c22.7,4.6,40.7,16.6,53.9,35.5c1.5,2.2,3.2,3.5,6,3.1
			c10.3-1.3,20.6-1.1,30.9,0c1.2,0.1,2.9,0.6,3.6-0.7c0.8-1.5-0.6-2.7-1.5-3.8c-3.7-4.7-8.6-7-14.6-7.6c-7.1-0.7-10.8-5-10.2-11.4
			c0.6-5.7,5-8.9,11.9-8.6c2.1,0.1,4.2,0.2,6.2,0.7c6.7,1.6,12.9,4.3,17.8,9.3c2.4,2.4,3.9,2.3,6.3,0c6.8-6.4,15-9.8,24.5-10
			c6.5-0.2,10.8,3.1,11.4,8.6c0.6,6.3-3,10.8-9.7,11.4c-7.7,0.7-13.5,4-17.1,10.9c-2.4,4.7-1.7,6.3,3.2,7.8
			c22.4,6.9,42.3,18.3,59.7,33.9c23.6,21,39.7,46.8,48.6,77.1c2.2,7.7-2.2,13.4-10.4,13.6c-0.6,0-1.3,0-1.9,0
			c-156.8,0-313.5,0-470.3,0.1c-5.5,0-9.8-1.3-12.6-6.2c0-2.6,0-5.2,0-7.7c4.9-14.6,10.7-28.6,19-41.7c20.9-32.8,49.7-55.4,86.4-68
			c8.7-3,9.6-5.9,3.5-13c-3.6-4.2-8.2-6.1-13.5-6.7c-7.4-0.8-11-4.7-10.6-11.1c0.4-5.9,4.9-9.2,12-8.9c9.1,0.3,17,3.6,23.6,9.8
			c2.5,2.3,4,2.7,6.7,0.2c6.9-6.6,15.4-9.9,25-10c6.1-0.1,10.3,3.4,10.8,8.8c0.6,6.1-3,10.7-9.3,11.2c-6.7,0.6-12.1,3.2-16.1,8.5
			c-0.6,0.9-1.6,1.9-0.8,3c0.6,0.9,1.8,0.7,2.7,0.6c10.9-1.2,21.9-1.3,32.8-0.1c2.3,0.3,3.5-1.2,4.6-2.8
			c13.8-20,32.7-32.1,56.6-36.3c3.4-0.6,4.5-1.9,4.5-5.4c-0.2-16.6-0.1-33.2,0-49.8c0-3.6-0.7-4.7-4.7-4.1
			C177.8,305,107.1,242.4,97.1,172.7c-2.6-17.9-1.7-35.7,2.6-53.3c1.3-5.5,4.5-8.7,9.9-10c29.8-7.2,58.9-5,87,7.3
			c26.7,11.7,47.7,30.2,64.1,54.2c0.4,0.7,1,1.3,1.5,1.9c0.1,0.1,0.3,0.1,0.5,0.1c1-1.4,0.5-3.1,0.5-4.6c0.1-15.2-0.2-30.3,0.1-45.5
			c0.3-17.1,3.9-33.6,11.2-49.1c11.8-25,32.6-38.3,58.6-44.6c6.4-1.5,12.9-2.5,19.4-3.7C361.9,25.5,371.3,25.5,380.7,25.5z
			 M299.8,501.3c64,0,128,0,192.1,0c5.2,0,5.2,0,3.2-4.9c-5.6-13.3-13.1-25.5-22.7-36.4c-27.6-31.3-62.1-48.4-104-50.1
			c-8.7-0.4-17.4,0.2-26.1,1.1c-4.8,0.5-8.4-1.6-10.9-5.7c-1-1.7-2-3.3-3-5c-24.7-39.2-82.9-40.7-108.6-2.1
			c-6.6,10-12.9,13.4-25,12.2c-29.1-3-56.8,3.3-82.3,17.9c-28.2,16.2-48.9,39.2-61.7,69.1c-1.3,3-1,4,2.5,3.9
			c7.6-0.2,15.2-0.2,22.7,0c3.7,0.1,5.5-1.3,6.8-4.7c6.1-15.8,16-29,28.6-40.2c8.2-7.4,17.5-13.2,27.6-17.6
			c5.6-2.4,11.2-0.3,13.5,4.7c2.3,4.9,0.6,10-4.6,13.2c-1.5,0.9-3.1,1.7-4.7,2.5c-16.1,8.2-28.6,20.3-37.4,36
			c-3.2,5.7-3.1,5.9,3.3,5.9C172.7,501.3,236.3,501.3,299.8,501.3z M142.4,126.1c-6.4,0.2-12.9,0.2-19.3,1.3
			c-3.1,0.5-4.9,1.9-5.4,5.1c-2.1,14-2.3,28,0.5,41.9c11.6,58.2,64.8,100.4,124.1,98.5c1.5,0,3.8,0.6,4.3-1.1
			c0.5-1.7-1.6-2.6-2.7-3.7c-16-16.1-32.1-32.2-48.2-48.3c-1.4-1.4-2.8-2.7-3.9-4.3c-3-4.2-2.7-9.3,0.7-12.8
			c3.4-3.6,8.5-4.2,12.8-1.4c1.7,1.1,3.3,2.6,4.7,4.1c16.2,16.2,32.4,32.4,48.6,48.5c1,1,1.8,2.9,3.3,2.3c1.5-0.5,1.2-2.5,1.2-3.9
			c0.3-7.6-0.2-15.1-1.2-22.7C254.7,175.1,201.4,124.4,142.4,126.1z M286.1,112.3c1.2-1.1,2.3-2.2,3.5-3.3
			c6.8-6.8,13.6-13.7,20.5-20.5c5.6-5.6,11.7-6.1,16.1-1.6c4.5,4.6,3.8,10.3-1.9,16.1c-4.4,4.5-8.8,9-13.3,13.3
			c-3.9,3.7-8,7.3-12.6,11.5c2,0.6,2.4,0.9,2.8,0.8c2.6-0.3,5.1-0.5,7.7-0.9c17.2-3.1,33.1-8.9,43.9-23.7c12.2-16.6,14.9-36,15-55.9
			c0-2.8-1.9-2.4-3.7-2.4c-7.6,0-15.1,0.7-22.5,2.3c-18.3,4-34.6,11.5-45,28.1C289.6,87.1,286,99.1,286.1,112.3z"/>
		<path fill="#1ABC9C" d="M404.4,137c0.1-5.5,4.7-9.9,10.3-10c5.6,0,10.6,5,10.4,10.5c-0.2,5.4-5.5,10.1-11.1,10
			C408.6,147.4,404.4,142.8,404.4,137z"/>
		<path fill="#1ABC9C" d="M182.6,449.6c-5.6-0.1-10.2-4.6-10.1-10.1c0-5.6,4.5-9.8,10.3-9.9c5.8,0,10.3,4.3,10.4,9.8
			C193.1,445.2,188.4,449.7,182.6,449.6z"/>
	</g>
</g>
<g id="revegetalizacion" display="none">
	<g display="inline">
		<path fill="#1ABC9C" d="M347.9,315c-7.9-12.6-27.8-37-65-41C274.6,13.3,399.4,44.9,399.4,44.9c-59,17.3-83.4,64.7-83.4,64.7
			c98.8,13.6,105.4-58.8,105.2-79.5c0-3.2-2.1-6.1-5.1-7.1C293.8-17.5,271.4,178.7,271.4,178.7C235.9,42.9,153.6,59,129.8,66.8
			c-3.8,1.3-6,5.3-5,9.2c27.7,105.9,110.6,78.2,110.6,78.2c-27.9-53.9-79.1-64.7-79.1-64.7C277.5,99,267.2,256.8,265.8,273.6
			c-49.3,2-62,26.6-70.8,39.5c-2.1,3.1-5.6,5.1-9.4,5.4c-12.5,0.9-43.1,4.9-52.2,24.2c0,0,28.8,24.5,69.1,46
			c28.5,15.3,51.6,45.6,62.7,62.1c3.3,4.8,10.5,4.6,13.4-0.5c9.8-17.6,30-49.2,50.5-55.8c38.2-12.3,82-51.8,82-51.8
			s-26.1-24.9-51.4-21.9C354.9,321.3,350.4,319,347.9,315z M195.9,355.6c-7,0-12.7-5.7-12.7-12.7s5.7-12.7,12.7-12.7
			c7,0,12.7,5.7,12.7,12.7S202.9,355.6,195.9,355.6z M258.2,289.4c3.4,0,6.2,2.8,6.2,6.2s-2.8,6.2-6.2,6.2c-3.4,0-6.2-2.8-6.2-6.2
			S254.8,289.4,258.2,289.4z M245.6,398.8c-10.3,0-18.7-8.4-18.7-18.7c0-10.3,8.4-18.7,18.7-18.7c10.3,0,18.7,8.4,18.7,18.7
			C264.3,390.4,255.9,398.8,245.6,398.8z M277,333.6c-7,0-12.7-5.7-12.7-12.7s5.7-12.7,12.7-12.7s12.7,5.7,12.7,12.7
			S284,333.6,277,333.6z M334.6,376.5c-10.3,0-18.7-8.4-18.7-18.7c0-10.3,8.4-18.7,18.7-18.7c10.3,0,18.7,8.4,18.7,18.7
			C353.3,368.1,344.9,376.5,334.6,376.5z M380.5,336.7c3.4,0,6.2,2.8,6.2,6.2s-2.8,6.2-6.2,6.2c-3.4,0-6.2-2.8-6.2-6.2
			S377.1,336.7,380.5,336.7z"/>
		<path fill="#1ABC9C" d="M27.3,291.6c-0.1-3.4,4.2-5,6.4-2.3c9.9,12.2,29.2,41.1,41.2,92.3c16.7,71.2,72.3,75.9,94.4,80.6
			c0,0,10.3-20.7-12.4-41.7c-20.5-19-37.9-31.5-41.4-61.6c-0.4-3.5,3.8-5.7,6.4-3.3c7.2,6.5,20.8,18,44.8,35.3
			c41,29.7,94.4,45.3,95,139.7c0,0-78.8,14-163.5-62.6C34.8,406.4,27.8,319.8,27.3,291.6z"/>
		<path fill="#1ABC9C" d="M517.2,291.6c0.1-3.4-4.2-5-6.4-2.3c-9.9,12.2-29.2,41.1-41.2,92.3c-16.7,71.2-72.3,75.9-94.4,80.6
			c0,0-10.3-20.7,12.4-41.7c20.5-19,37.9-31.5,41.4-61.6c0.4-3.5-3.8-5.7-6.4-3.3c-7.2,6.5-20.8,18-44.8,35.3
			c-41,29.7-94.4,45.3-95,139.7c0,0,78.8,14,163.5-62.6C509.7,406.4,516.7,319.8,517.2,291.6z"/>
	</g>
</g>
</svg>
