<?xml version="1.0" encoding="utf-8"?>
<!-- Generator: Adobe Illustrator 18.1.1, SVG Export Plug-In . SVG Version: 6.00 Build 0)  -->
<svg version="1.1" xmlns="http://www.w3.org/2000/svg" xmlns:xlink="http://www.w3.org/1999/xlink" x="0px" y="0px"
	 viewBox="0 0 544.5 544.5" enable-background="new 0 0 544.5 544.5" xml:space="preserve">
<g id="siembra" display="none">
	<g display="inline">
		<path fill="#1ABC9C" d="M12.4,488.6c0-70.6,0-141.2,0-211.8c0.6-0.4,1.1-0.7,1.7-1.1c24.8-19.3,51-18.3,74.1,2.8
			c1.5,1.4,3,2.7,4.6,4c18.9,14.4,47.7,14.7,68.9-5.2c22.4-21.1,52.3-20.3,74.6,0.6c4.4,4.1,9.1,7.6,14.5,10.2
			c6.2,2.9,6.5,2.7,6.5-3.9c0-39.7,0-79.4,0-119.1c0-7-0.5-7.3-7.3-8c-21.4-2.2-41.8-7.7-59.8-19.7c-40.4-27-54.6-66.9-55-113.4
			c0-3.2,1.9-3.9,4.6-4c9.5-0.3,19,0.7,28.4,2.2c53.6,8.5,90,42.8,101.5,95.7c1.3,5.8,2.1,11.7,3.2,17.6c1.1-3.1,1.5-6.1,2-9.1
			c4.2-26.2,13.6-50.1,32.7-69.2C334.8,30,368.6,20,406.2,19.9c3.6,0,4.6,1.6,4.7,5c0.3,12.8-1.3,25.4-4.3,37.8
			c-8.9,36.1-28.1,64.4-62.2,81.1c-15.6,7.6-32.1,11.8-49.3,13.3c-4.6,0.4-6.4,2.1-6.4,6.9c0.2,40.4,0.1,80.8,0.1,121.2
			c0,5.2,0.5,5.5,5.1,3.5c6.8-2.9,12.4-7.6,17.8-12.5c13-11.9,28.4-16,45.7-13c11.7,2,20.9,8.3,29.4,16.1c13,12,28.5,15.9,45.8,12.6
			c10.7-2,19.3-7.7,27.2-15c13.4-12.6,29.4-16.9,47.5-13.5c10.2,1.9,18.4,7.4,26.4,13.6c0,70.6,0,141.2,0,211.8
			c-2.4,0.1-4.7,0.4-7.1,0.4c-169,0-338.1,0-507.1,0C17.1,489,14.7,488.7,12.4,488.6z M208.1,378.4c0.1,23.9,12.5,44.3,34.3,53.7
			c19,8.2,38.6,8.6,58,1.2c20.7-7.9,32.6-23.3,36.5-45.2c3.2-17.8-1.8-33.5-11.3-48.2c-9.1-14.1-20.7-26-33.2-36.9
			c-2.3-2-4.9-3.7-4.7-7.4c0.1-2.1-1.2-3.1-3.3-2.6c-7.7,1.7-15.5,1.7-23.2,0c-1.9-0.4-3.2,0.5-3.1,2.3c0.3,3.9-2.4,5.7-4.8,7.8
			c-12.5,10.8-24,22.5-32.9,36.5C213.3,351,207.8,362.9,208.1,378.4z"/>
		<path fill="#1ABC9C" d="M272.6,408.9c-3.6-0.4-7.7-0.4-11.7-1.2c-22-4.8-27.4-28.2-21.2-42.2c3.2-7.2,7.6-13.6,12.7-19.6
			c5.4-6.4,11.1-12.4,17.3-17.9c2.4-2.1,4.1-2.2,6.5-0.1c9.6,8.7,18.4,18,25.5,28.9c7.8,11.9,9.7,24.3,2.7,37
			C297.6,405.9,285.8,408.6,272.6,408.9z"/>
	</g>
</g>
<g id="Siembra_blanco" display="none">
	<g display="inline">
		<path fill="#FFFFFF" d="M12.4,488.6c0-70.6,0-141.2,0-211.8c0.6-0.4,1.1-0.7,1.7-1.1c24.8-19.3,51-18.3,74.1,2.8
			c1.5,1.4,3,2.7,4.6,4c18.9,14.4,47.7,14.7,68.9-5.2c22.4-21.1,52.3-20.3,74.6,0.6c4.4,4.1,9.1,7.6,14.5,10.2
			c6.2,2.9,6.5,2.7,6.5-3.9c0-39.7,0-79.4,0-119.1c0-7-0.5-7.3-7.3-8c-21.4-2.2-41.8-7.7-59.8-19.7c-40.4-27-54.6-66.9-55-113.4
			c0-3.2,1.9-3.9,4.6-4c9.5-0.3,19,0.7,28.4,2.2c53.6,8.5,90,42.8,101.5,95.7c1.3,5.8,2.1,11.7,3.2,17.6c1.1-3.1,1.5-6.1,2-9.1
			c4.2-26.2,13.6-50.1,32.7-69.2C334.8,30,368.6,20,406.2,19.9c3.6,0,4.6,1.6,4.7,5c0.3,12.8-1.3,25.4-4.3,37.8
			c-8.9,36.1-28.1,64.4-62.2,81.1c-15.6,7.6-32.1,11.8-49.3,13.3c-4.6,0.4-6.4,2.1-6.4,6.9c0.2,40.4,0.1,80.8,0.1,121.2
			c0,5.2,0.5,5.5,5.1,3.5c6.8-2.9,12.4-7.6,17.8-12.5c13-11.9,28.4-16,45.7-13c11.7,2,20.9,8.3,29.4,16.1c13,12,28.5,15.9,45.8,12.6
			c10.7-2,19.3-7.7,27.2-15c13.4-12.6,29.4-16.9,47.5-13.5c10.2,1.9,18.4,7.4,26.4,13.6c0,70.6,0,141.2,0,211.8
			c-2.4,0.1-4.7,0.4-7.1,0.4c-169,0-338.1,0-507.1,0C17.1,489,14.7,488.7,12.4,488.6z M208.1,378.4c0.1,23.9,12.5,44.3,34.3,53.7
			c19,8.2,38.6,8.6,58,1.2c20.7-7.9,32.6-23.3,36.5-45.2c3.2-17.8-1.8-33.5-11.3-48.2c-9.1-14.1-20.7-26-33.2-36.9
			c-2.3-2-4.9-3.7-4.7-7.4c0.1-2.1-1.2-3.1-3.3-2.6c-7.7,1.7-15.5,1.7-23.2,0c-1.9-0.4-3.2,0.5-3.1,2.3c0.3,3.9-2.4,5.7-4.8,7.8
			c-12.5,10.8-24,22.5-32.9,36.5C213.3,351,207.8,362.9,208.1,378.4z"/>
		<path fill="#FFFFFF" d="M272.6,408.9c-3.6-0.4-7.7-0.4-11.7-1.2c-22-4.8-27.4-28.2-21.2-42.2c3.2-7.2,7.6-13.6,12.7-19.6
			c5.4-6.4,11.1-12.4,17.3-17.9c2.4-2.1,4.1-2.2,6.5-0.1c9.6,8.7,18.4,18,25.5,28.9c7.8,11.9,9.7,24.3,2.7,37
			C297.6,405.9,285.8,408.6,272.6,408.9z"/>
	</g>
</g>
<g id="reforestacion" display="none">
	<g display="inline">
		<path fill="#1ABC9C" d="M380.7,25.5c5.4,3,6.8,7.7,7.3,13.7c1.2,16.1-0.4,31.9-4.5,47.4c-8.5,31.8-29.4,51-60.9,59.2
			c-11.3,2.9-22.8,4.2-34.4,4.6c-3.4,0.1-4.9,1.1-4.9,4.7c0.1,55.3,0.1,110.6,0.1,166c0,0.6,0.1,1.2,0.2,2.2
			c7.3-7.1,14.4-14,21.5-20.9c1.2-1.1,0.7-2.7,0.4-4.1c-9.6-56,8.4-102.1,50.3-139.6c5.4-4.9,11.1-9.4,17.3-13.2
			c6.1-3.8,12-2.9,15.3,2.1c3.1,4.7,1.7,10.9-3.9,14.7c-17.2,11.9-32,26-43,43.9c-10.5,17.1-16.4,35.6-17.7,55.6
			c-0.4,6.9-1.4,13.8,0.5,20.7c2-0.3,2.9-2,4-3.2c20.6-20.5,41.1-41,61.6-61.6c0.9-0.9,1.8-1.8,2.7-2.7c5.2-5,11.2-5.5,15.5-1.4
			c4.4,4.2,4,10.6-1.2,15.8c-21.3,21.4-42.6,42.7-64,64c-1.2,1.2-2.4,2.5-4.2,4.4c9.7,1.6,18.9,1.5,27.7,0
			c54.9-9,90.4-41,107.9-93.3c5.9-17.7,6.1-36.1,3-54.5c-0.6-3.5-2-5-5.5-5.3c-5.3-0.4-10.6-1.1-15.8-1.7c-1.3-0.1-2.6-0.1-3.9-0.3
			c-6.6-1-10.2-5.1-9.9-10.9c0.3-5.5,4.4-9.3,10.9-9.5c7.4-0.2,14.8,1,22.1,2.1c2.7,0.4,5.3,1.2,8,1.7c7.9,1.2,11.4,6,12.9,13.5
			c11.5,57.3-6.3,104.7-49.2,143c-30.2,27-66,38.8-106.4,36.3c-5.4-0.3-10.9-1.4-16.2-2.4c-2.4-0.4-4.3-0.2-6.1,1.7
			c-9.8,9.9-19.6,19.7-29.4,29.4c-2.7,2.6-1.3,3.2,1.4,3.8c22.7,4.6,40.7,16.6,53.9,35.5c1.5,2.2,3.2,3.5,6,3.1
			c10.3-1.3,20.6-1.1,30.9,0c1.2,0.1,2.9,0.6,3.6-0.7c0.8-1.5-0.6-2.7-1.5-3.8c-3.7-4.7-8.6-7-14.6-7.6c-7.1-0.7-10.8-5-10.2-11.4
			c0.6-5.7,5-8.9,11.9-8.6c2.1,0.1,4.2,0.2,6.2,0.7c6.7,1.6,12.9,4.3,17.8,9.3c2.4,2.4,3.9,2.3,6.3,0c6.8-6.4,15-9.8,24.5-10
			c6.5-0.2,10.8,3.1,11.4,8.6c0.6,6.3-3,10.8-9.7,11.4c-7.7,0.7-13.5,4-17.1,10.9c-2.4,4.7-1.7,6.3,3.2,7.8
			c22.4,6.9,42.3,18.3,59.7,33.9c23.6,21,39.7,46.8,48.6,77.1c2.2,7.7-2.2,13.4-10.4,13.6c-0.6,0-1.3,0-1.9,0
			c-156.8,0-313.5,0-470.3,0.1c-5.5,0-9.8-1.3-12.6-6.2c0-2.6,0-5.2,0-7.7c4.9-14.6,10.7-28.6,19-41.7c20.9-32.8,49.7-55.4,86.4-68
			c8.7-3,9.6-5.9,3.5-13c-3.6-4.2-8.2-6.1-13.5-6.7c-7.4-0.8-11-4.7-10.6-11.1c0.4-5.9,4.9-9.2,12-8.9c9.1,0.3,17,3.6,23.6,9.8
			c2.5,2.3,4,2.7,6.7,0.2c6.9-6.6,15.4-9.9,25-10c6.1-0.1,10.3,3.4,10.8,8.8c0.6,6.1-3,10.7-9.3,11.2c-6.7,0.6-12.1,3.2-16.1,8.5
			c-0.6,0.9-1.6,1.9-0.8,3c0.6,0.9,1.8,0.7,2.7,0.6c10.9-1.2,21.9-1.3,32.8-0.1c2.3,0.3,3.5-1.2,4.6-2.8
			c13.8-20,32.7-32.1,56.6-36.3c3.4-0.6,4.5-1.9,4.5-5.4c-0.2-16.6-0.1-33.2,0-49.8c0-3.6-0.7-4.7-4.7-4.1
			C177.8,305,107.1,242.4,97.1,172.7c-2.6-17.9-1.7-35.7,2.6-53.3c1.3-5.5,4.5-8.7,9.9-10c29.8-7.2,58.9-5,87,7.3
			c26.7,11.7,47.7,30.2,64.1,54.2c0.4,0.7,1,1.3,1.5,1.9c0.1,0.1,0.3,0.1,0.5,0.1c1-1.4,0.5-3.1,0.5-4.6c0.1-15.2-0.2-30.3,0.1-45.5
			c0.3-17.1,3.9-33.6,11.2-49.1c11.8-25,32.6-38.3,58.6-44.6c6.4-1.5,12.9-2.5,19.4-3.7C361.9,25.5,371.3,25.5,380.7,25.5z
			 M299.8,501.3c64,0,128,0,192.1,0c5.2,0,5.2,0,3.2-4.9c-5.6-13.3-13.1-25.5-22.7-36.4c-27.6-31.3-62.1-48.4-104-50.1
			c-8.7-0.4-17.4,0.2-26.1,1.1c-4.8,0.5-8.4-1.6-10.9-5.7c-1-1.7-2-3.3-3-5c-24.7-39.2-82.9-40.7-108.6-2.1
			c-6.6,10-12.9,13.4-25,12.2c-29.1-3-56.8,3.3-82.3,17.9c-28.2,16.2-48.9,39.2-61.7,69.1c-1.3,3-1,4,2.5,3.9
			c7.6-0.2,15.2-0.2,22.7,0c3.7,0.1,5.5-1.3,6.8-4.7c6.1-15.8,16-29,28.6-40.2c8.2-7.4,17.5-13.2,27.6-17.6
			c5.6-2.4,11.2-0.3,13.5,4.7c2.3,4.9,0.6,10-4.6,13.2c-1.5,0.9-3.1,1.7-4.7,2.5c-16.1,8.2-28.6,20.3-37.4,36
			c-3.2,5.7-3.1,5.9,3.3,5.9C172.7,501.3,236.3,501.3,299.8,501.3z M142.4,126.1c-6.4,0.2-12.9,0.2-19.3,1.3
			c-3.1,0.5-4.9,1.9-5.4,5.1c-2.1,14-2.3,28,0.5,41.9c11.6,58.2,64.8,100.4,124.1,98.5c1.5,0,3.8,0.6,4.3-1.1
			c0.5-1.7-1.6-2.6-2.7-3.7c-16-16.1-32.1-32.2-48.2-48.3c-1.4-1.4-2.8-2.7-3.9-4.3c-3-4.2-2.7-9.3,0.7-12.8
			c3.4-3.6,8.5-4.2,12.8-1.4c1.7,1.1,3.3,2.6,4.7,4.1c16.2,16.2,32.4,32.4,48.6,48.5c1,1,1.8,2.9,3.3,2.3c1.5-0.5,1.2-2.5,1.2-3.9
			c0.3-7.6-0.2-15.1-1.2-22.7C254.7,175.1,201.4,124.4,142.4,126.1z M286.1,112.3c1.2-1.1,2.3-2.2,3.5-3.3
			c6.8-6.8,13.6-13.7,20.5-20.5c5.6-5.6,11.7-6.1,16.1-1.6c4.5,4.6,3.8,10.3-1.9,16.1c-4.4,4.5-8.8,9-13.3,13.3
			c-3.9,3.7-8,7.3-12.6,11.5c2,0.6,2.4,0.9,2.8,0.8c2.6-0.3,5.1-0.5,7.7-0.9c17.2-3.1,33.1-8.9,43.9-23.7c12.2-16.6,14.9-36,15-55.9
			c0-2.8-1.9-2.4-3.7-2.4c-7.6,0-15.1,0.7-22.5,2.3c-18.3,4-34.6,11.5-45,28.1C289.6,87.1,286,99.1,286.1,112.3z"/>
		<path fill="#1ABC9C" d="M404.4,137c0.1-5.5,4.7-9.9,10.3-10c5.6,0,10.6,5,10.4,10.5c-0.2,5.4-5.5,10.1-11.1,10
			C408.6,147.4,404.4,142.8,404.4,137z"/>
		<path fill="#1ABC9C" d="M182.6,449.6c-5.6-0.1-10.2-4.6-10.1-10.1c0-5.6,4.5-9.8,10.3-9.9c5.8,0,10.3,4.3,10.4,9.8
			C193.1,445.2,188.4,449.7,182.6,449.6z"/>
	</g>
</g>
<g id="reforestacion_blanco" display="none">
	<g display="inline">
		<path fill="#FFFFFF" d="M380.7,25.5c5.4,3,6.8,7.7,7.3,13.7c1.2,16.1-0.4,31.9-4.5,47.4c-8.5,31.8-29.4,51-60.9,59.2
			c-11.3,2.9-22.8,4.2-34.4,4.6c-3.4,0.1-4.9,1.1-4.9,4.7c0.1,55.3,0.1,110.6,0.1,166c0,0.6,0.1,1.2,0.2,2.2
			c7.3-7.1,14.4-14,21.5-20.9c1.2-1.1,0.7-2.7,0.4-4.1c-9.6-56,8.4-102.1,50.3-139.6c5.4-4.9,11.1-9.4,17.3-13.2
			c6.1-3.8,12-2.9,15.3,2.1c3.1,4.7,1.7,10.9-3.9,14.7c-17.2,11.9-32,26-43,43.9c-10.5,17.1-16.4,35.6-17.7,55.6
			c-0.4,6.9-1.4,13.8,0.5,20.7c2-0.3,2.9-2,4-3.2c20.6-20.5,41.1-41,61.6-61.6c0.9-0.9,1.8-1.8,2.7-2.7c5.2-5,11.2-5.5,15.5-1.4
			c4.4,4.2,4,10.6-1.2,15.8c-21.3,21.4-42.6,42.7-64,64c-1.2,1.2-2.4,2.5-4.2,4.4c9.7,1.6,18.9,1.5,27.7,0
			c54.9-9,90.4-41,107.9-93.3c5.9-17.7,6.1-36.1,3-54.5c-0.6-3.5-2-5-5.5-5.3c-5.3-0.4-10.6-1.1-15.8-1.7c-1.3-0.1-2.6-0.1-3.9-0.3
			c-6.6-1-10.2-5.1-9.9-10.9c0.3-5.5,4.4-9.3,10.9-9.5c7.4-0.2,14.8,1,22.1,2.1c2.7,0.4,5.3,1.2,8,1.7c7.9,1.2,11.4,6,12.9,13.5
			c11.5,57.3-6.3,104.7-49.2,143c-30.2,27-66,38.8-106.4,36.3c-5.4-0.3-10.9-1.4-16.2-2.4c-2.4-0.4-4.3-0.2-6.1,1.7
			c-9.8,9.9-19.6,19.7-29.4,29.4c-2.7,2.6-1.3,3.2,1.4,3.8c22.7,4.6,40.7,16.6,53.9,35.5c1.5,2.2,3.2,3.5,6,3.1
			c10.3-1.3,20.6-1.1,30.9,0c1.2,0.1,2.9,0.6,3.6-0.7c0.8-1.5-0.6-2.7-1.5-3.8c-3.7-4.7-8.6-7-14.6-7.6c-7.1-0.7-10.8-5-10.2-11.4
			c0.6-5.7,5-8.9,11.9-8.6c2.1,0.1,4.2,0.2,6.2,0.7c6.7,1.6,12.9,4.3,17.8,9.3c2.4,2.4,3.9,2.3,6.3,0c6.8-6.4,15-9.8,24.5-10
			c6.5-0.2,10.8,3.1,11.4,8.6c0.6,6.3-3,10.8-9.7,11.4c-7.7,0.7-13.5,4-17.1,10.9c-2.4,4.7-1.7,6.3,3.2,7.8
			c22.4,6.9,42.3,18.3,59.7,33.9c23.6,21,39.7,46.8,48.6,77.1c2.2,7.7-2.2,13.4-10.4,13.6c-0.6,0-1.3,0-1.9,0
			c-156.8,0-313.5,0-470.3,0.1c-5.5,0-9.8-1.3-12.6-6.2c0-2.6,0-5.2,0-7.7c4.9-14.6,10.7-28.6,19-41.7c20.9-32.8,49.7-55.4,86.4-68
			c8.7-3,9.6-5.9,3.5-13c-3.6-4.2-8.2-6.1-13.5-6.7c-7.4-0.8-11-4.7-10.6-11.1c0.4-5.9,4.9-9.2,12-8.9c9.1,0.3,17,3.6,23.6,9.8
			c2.5,2.3,4,2.7,6.7,0.2c6.9-6.6,15.4-9.9,25-10c6.1-0.1,10.3,3.4,10.8,8.8c0.6,6.1-3,10.7-9.3,11.2c-6.7,0.6-12.1,3.2-16.1,8.5
			c-0.6,0.9-1.6,1.9-0.8,3c0.6,0.9,1.8,0.7,2.7,0.6c10.9-1.2,21.9-1.3,32.8-0.1c2.3,0.3,3.5-1.2,4.6-2.8
			c13.8-20,32.7-32.1,56.6-36.3c3.4-0.6,4.5-1.9,4.5-5.4c-0.2-16.6-0.1-33.2,0-49.8c0-3.6-0.7-4.7-4.7-4.1
			C177.8,305,107.1,242.4,97.1,172.7c-2.6-17.9-1.7-35.7,2.6-53.3c1.3-5.5,4.5-8.7,9.9-10c29.8-7.2,58.9-5,87,7.3
			c26.7,11.7,47.7,30.2,64.1,54.2c0.4,0.7,1,1.3,1.5,1.9c0.1,0.1,0.3,0.1,0.5,0.1c1-1.4,0.5-3.1,0.5-4.6c0.1-15.2-0.2-30.3,0.1-45.5
			c0.3-17.1,3.9-33.6,11.2-49.1c11.8-25,32.6-38.3,58.6-44.6c6.4-1.5,12.9-2.5,19.4-3.7C361.9,25.5,371.3,25.5,380.7,25.5z
			 M299.8,501.3c64,0,128,0,192.1,0c5.2,0,5.2,0,3.2-4.9c-5.6-13.3-13.1-25.5-22.7-36.4c-27.6-31.3-62.1-48.4-104-50.1
			c-8.7-0.4-17.4,0.2-26.1,1.1c-4.8,0.5-8.4-1.6-10.9-5.7c-1-1.7-2-3.3-3-5c-24.7-39.2-82.9-40.7-108.6-2.1
			c-6.6,10-12.9,13.4-25,12.2c-29.1-3-56.8,3.3-82.3,17.9c-28.2,16.2-48.9,39.2-61.7,69.1c-1.3,3-1,4,2.5,3.9
			c7.6-0.2,15.2-0.2,22.7,0c3.7,0.1,5.5-1.3,6.8-4.7c6.1-15.8,16-29,28.6-40.2c8.2-7.4,17.5-13.2,27.6-17.6
			c5.6-2.4,11.2-0.3,13.5,4.7c2.3,4.9,0.6,10-4.6,13.2c-1.5,0.9-3.1,1.7-4.7,2.5c-16.1,8.2-28.6,20.3-37.4,36
			c-3.2,5.7-3.1,5.9,3.3,5.9C172.7,501.3,236.3,501.3,299.8,501.3z M142.4,126.1c-6.4,0.2-12.9,0.2-19.3,1.3
			c-3.1,0.5-4.9,1.9-5.4,5.1c-2.1,14-2.3,28,0.5,41.9c11.6,58.2,64.8,100.4,124.1,98.5c1.5,0,3.8,0.6,4.3-1.1
			c0.5-1.7-1.6-2.6-2.7-3.7c-16-16.1-32.1-32.2-48.2-48.3c-1.4-1.4-2.8-2.7-3.9-4.3c-3-4.2-2.7-9.3,0.7-12.8
			c3.4-3.6,8.5-4.2,12.8-1.4c1.7,1.1,3.3,2.6,4.7,4.1c16.2,16.2,32.4,32.4,48.6,48.5c1,1,1.8,2.9,3.3,2.3c1.5-0.5,1.2-2.5,1.2-3.9
			c0.3-7.6-0.2-15.1-1.2-22.7C254.7,175.1,201.4,124.4,142.4,126.1z M286.1,112.3c1.2-1.1,2.3-2.2,3.5-3.3
			c6.8-6.8,13.6-13.7,20.5-20.5c5.6-5.6,11.7-6.1,16.1-1.6c4.5,4.6,3.8,10.3-1.9,16.1c-4.4,4.5-8.8,9-13.3,13.3
			c-3.9,3.7-8,7.3-12.6,11.5c2,0.6,2.4,0.9,2.8,0.8c2.6-0.3,5.1-0.5,7.7-0.9c17.2-3.1,33.1-8.9,43.9-23.7c12.2-16.6,14.9-36,15-55.9
			c0-2.8-1.9-2.4-3.7-2.4c-7.6,0-15.1,0.7-22.5,2.3c-18.3,4-34.6,11.5-45,28.1C289.6,87.1,286,99.1,286.1,112.3z"/>
		<path fill="#FFFFFF" d="M404.4,137c0.1-5.5,4.7-9.9,10.3-10c5.6,0,10.6,5,10.4,10.5c-0.2,5.4-5.5,10.1-11.1,10
			C408.6,147.4,404.4,142.8,404.4,137z"/>
		<path fill="#FFFFFF" d="M182.6,449.6c-5.6-0.1-10.2-4.6-10.1-10.1c0-5.6,4.5-9.8,10.3-9.9c5.8,0,10.3,4.3,10.4,9.8
			C193.1,445.2,188.4,449.7,182.6,449.6z"/>
	</g>
</g>
<g id="revegetalizacion" display="none">
	<g display="inline">
		<path fill="#1ABC9C" d="M347.9,315c-7.9-12.6-27.8-37-65-41C274.6,13.3,399.4,44.9,399.4,44.9c-59,17.3-83.4,64.7-83.4,64.7
			c98.8,13.6,105.4-58.8,105.2-79.5c0-3.2-2.1-6.1-5.1-7.1C293.8-17.5,271.4,178.7,271.4,178.7C235.9,42.9,153.6,59,129.8,66.8
			c-3.8,1.3-6,5.3-5,9.2c27.7,105.9,110.6,78.2,110.6,78.2c-27.9-53.9-79.1-64.7-79.1-64.7C277.5,99,267.2,256.8,265.8,273.6
			c-49.3,2-62,26.6-70.8,39.5c-2.1,3.1-5.6,5.1-9.4,5.4c-12.5,0.9-43.1,4.9-52.2,24.2c0,0,28.8,24.5,69.1,46
			c28.5,15.3,51.6,45.6,62.7,62.1c3.3,4.8,10.5,4.6,13.4-0.5c9.8-17.6,30-49.2,50.5-55.8c38.2-12.3,82-51.8,82-51.8
			s-26.1-24.9-51.4-21.9C354.9,321.3,350.4,319,347.9,315z M195.9,355.6c-7,0-12.7-5.7-12.7-12.7s5.7-12.7,12.7-12.7
			c7,0,12.7,5.7,12.7,12.7S202.9,355.6,195.9,355.6z M258.2,289.4c3.4,0,6.2,2.8,6.2,6.2s-2.8,6.2-6.2,6.2c-3.4,0-6.2-2.8-6.2-6.2
			S254.8,289.4,258.2,289.4z M245.6,398.8c-10.3,0-18.7-8.4-18.7-18.7c0-10.3,8.4-18.7,18.7-18.7c10.3,0,18.7,8.4,18.7,18.7
			C264.3,390.4,255.9,398.8,245.6,398.8z M277,333.6c-7,0-12.7-5.7-12.7-12.7s5.7-12.7,12.7-12.7s12.7,5.7,12.7,12.7
			S284,333.6,277,333.6z M334.6,376.5c-10.3,0-18.7-8.4-18.7-18.7c0-10.3,8.4-18.7,18.7-18.7c10.3,0,18.7,8.4,18.7,18.7
			C353.3,368.1,344.9,376.5,334.6,376.5z M380.5,336.7c3.4,0,6.2,2.8,6.2,6.2s-2.8,6.2-6.2,6.2c-3.4,0-6.2-2.8-6.2-6.2
			S377.1,336.7,380.5,336.7z"/>
		<path fill="#1ABC9C" d="M27.3,291.6c-0.1-3.4,4.2-5,6.4-2.3c9.9,12.2,29.2,41.1,41.2,92.3c16.7,71.2,72.3,75.9,94.4,80.6
			c0,0,10.3-20.7-12.4-41.7c-20.5-19-37.9-31.5-41.4-61.6c-0.4-3.5,3.8-5.7,6.4-3.3c7.2,6.5,20.8,18,44.8,35.3
			c41,29.7,94.4,45.3,95,139.7c0,0-78.8,14-163.5-62.6C34.8,406.4,27.8,319.8,27.3,291.6z"/>
		<path fill="#1ABC9C" d="M517.2,291.6c0.1-3.4-4.2-5-6.4-2.3c-9.9,12.2-29.2,41.1-41.2,92.3c-16.7,71.2-72.3,75.9-94.4,80.6
			c0,0-10.3-20.7,12.4-41.7c20.5-19,37.9-31.5,41.4-61.6c0.4-3.5-3.8-5.7-6.4-3.3c-7.2,6.5-20.8,18-44.8,35.3
			c-41,29.7-94.4,45.3-95,139.7c0,0,78.8,14,163.5-62.6C509.7,406.4,516.7,319.8,517.2,291.6z"/>
	</g>
</g>
<g id="Layer_6">
	<g>
		<path fill="#FFFFFF" d="M347.9,315c-7.9-12.6-27.8-37-65-41C274.6,13.3,399.4,44.9,399.4,44.9c-59,17.3-83.4,64.7-83.4,64.7
			c98.8,13.6,105.4-58.8,105.2-79.5c0-3.2-2.1-6.1-5.1-7.1C293.8-17.5,271.4,178.7,271.4,178.7C235.9,42.9,153.6,59,129.8,66.8
			c-3.8,1.3-6,5.3-5,9.2c27.7,105.9,110.6,78.2,110.6,78.2c-27.9-53.9-79.1-64.7-79.1-64.7C277.5,99,267.2,256.8,265.8,273.6
			c-49.3,2-62,26.6-70.8,39.5c-2.1,3.1-5.6,5.1-9.4,5.4c-12.5,0.9-43.1,4.9-52.2,24.2c0,0,28.8,24.5,69.1,46
			c28.5,15.3,51.6,45.6,62.7,62.1c3.3,4.8,10.5,4.6,13.4-0.5c9.8-17.6,30-49.2,50.5-55.8c38.2-12.3,82-51.8,82-51.8
			s-26.1-24.9-51.4-21.9C354.9,321.3,350.4,319,347.9,315z M195.9,355.6c-7,0-12.7-5.7-12.7-12.7s5.7-12.7,12.7-12.7
			c7,0,12.7,5.7,12.7,12.7S202.9,355.6,195.9,355.6z M258.2,289.4c3.4,0,6.2,2.8,6.2,6.2s-2.8,6.2-6.2,6.2c-3.4,0-6.2-2.8-6.2-6.2
			S254.8,289.4,258.2,289.4z M245.6,398.8c-10.3,0-18.7-8.4-18.7-18.7c0-10.3,8.4-18.7,18.7-18.7c10.3,0,18.7,8.4,18.7,18.7
			C264.3,390.4,255.9,398.8,245.6,398.8z M277,333.6c-7,0-12.7-5.7-12.7-12.7s5.7-12.7,12.7-12.7s12.7,5.7,12.7,12.7
			S284,333.6,277,333.6z M334.6,376.5c-10.3,0-18.7-8.4-18.7-18.7c0-10.3,8.4-18.7,18.7-18.7c10.3,0,18.7,8.4,18.7,18.7
			C353.3,368.1,344.9,376.5,334.6,376.5z M380.5,336.7c3.4,0,6.2,2.8,6.2,6.2s-2.8,6.2-6.2,6.2c-3.4,0-6.2-2.8-6.2-6.2
			S377.1,336.7,380.5,336.7z"/>
		<path fill="#FFFFFF" d="M27.3,291.6c-0.1-3.4,4.2-5,6.4-2.3c9.9,12.2,29.2,41.1,41.2,92.3c16.7,71.2,72.3,75.9,94.4,80.6
			c0,0,10.3-20.7-12.4-41.7c-20.5-19-37.9-31.5-41.4-61.6c-0.4-3.5,3.8-5.7,6.4-3.3c7.2,6.5,20.8,18,44.8,35.3
			c41,29.7,94.4,45.3,95,139.7c0,0-78.8,14-163.5-62.6C34.8,406.4,27.8,319.8,27.3,291.6z"/>
		<path fill="#FFFFFF" d="M517.2,291.6c0.1-3.4-4.2-5-6.4-2.3c-9.9,12.2-29.2,41.1-41.2,92.3c-16.7,71.2-72.3,75.9-94.4,80.6
			c0,0-10.3-20.7,12.4-41.7c20.5-19,37.9-31.5,41.4-61.6c0.4-3.5-3.8-5.7-6.4-3.3c-7.2,6.5-20.8,18-44.8,35.3
			c-41,29.7-94.4,45.3-95,139.7c0,0,78.8,14,163.5-62.6C509.7,406.4,516.7,319.8,517.2,291.6z"/>
	</g>
</g>
</svg>
