<?xml version="1.0" encoding="utf-8"?>
<!-- Generator: Adobe Illustrator 18.1.1, SVG Export Plug-In . SVG Version: 6.00 Build 0)  -->
<svg version="1.1" xmlns="http://www.w3.org/2000/svg" xmlns:xlink="http://www.w3.org/1999/xlink" x="0px" y="0px"
	 viewBox="0 0 544.5 544.5" enable-background="new 0 0 544.5 544.5" xml:space="preserve">
<g id="siembra" display="none">
	<g display="inline">
		<path fill="#1ABC9C" d="M12.4,488.6c0-70.6,0-141.2,0-211.8c0.6-0.4,1.1-0.7,1.7-1.1c24.8-19.3,51-18.3,74.1,2.8
			c1.5,1.4,3,2.7,4.6,4c18.9,14.4,47.7,14.7,68.9-5.2c22.4-21.1,52.3-20.3,74.6,0.6c4.4,4.1,9.1,7.6,14.5,10.2
			c6.2,2.9,6.5,2.7,6.5-3.9c0-39.7,0-79.4,0-119.1c0-7-0.5-7.3-7.3-8c-21.4-2.2-41.8-7.7-59.8-19.7c-40.4-27-54.6-66.9-55-113.4
			c0-3.2,1.9-3.9,4.6-4c9.5-0.3,19,0.7,28.4,2.2c53.6,8.5,90,42.8,101.5,95.7c1.3,5.8,2.1,11.7,3.2,17.6c1.1-3.1,1.5-6.1,2-9.1
			c4.2-26.2,13.6-50.1,32.7-69.2C334.8,30,368.6,20,406.2,19.9c3.6,0,4.6,1.6,4.7,5c0.3,12.8-1.3,25.4-4.3,37.8
			c-8.9,36.1-28.1,64.4-62.2,81.1c-15.6,7.6-32.1,11.8-49.3,13.3c-4.6,0.4-6.4,2.1-6.4,6.9c0.2,40.4,0.1,80.8,0.1,121.2
			c0,5.2,0.5,5.5,5.1,3.5c6.8-2.9,12.4-7.6,17.8-12.5c13-11.9,28.4-16,45.7-13c11.7,2,20.9,8.3,29.4,16.1c13,12,28.5,15.9,45.8,12.6
			c10.7-2,19.3-7.7,27.2-15c13.4-12.6,29.4-16.9,47.5-13.5c10.2,1.9,18.4,7.4,26.4,13.6c0,70.6,0,141.2,0,211.8
			c-2.4,0.1-4.7,0.4-7.1,0.4c-169,0-338.1,0-507.1,0C17.1,489,14.7,488.7,12.4,488.6z M208.1,378.4c0.1,23.9,12.5,44.3,34.3,53.7
			c19,8.2,38.6,8.6,58,1.2c20.7-7.9,32.6-23.3,36.5-45.2c3.2-17.8-1.8-33.5-11.3-48.2c-9.1-14.1-20.7-26-33.2-36.9
			c-2.3-2-4.9-3.7-4.7-7.4c0.1-2.1-1.2-3.1-3.3-2.6c-7.7,1.7-15.5,1.7-23.2,0c-1.9-0.4-3.2,0.5-3.1,2.3c0.3,3.9-2.4,5.7-4.8,7.8
			c-12.5,10.8-24,22.5-32.9,36.5C213.3,351,207.8,362.9,208.1,378.4z"/>
		<path fill="#1ABC9C" d="M272.6,408.9c-3.6-0.4-7.7-0.4-11.7-1.2c-22-4.8-27.4-28.2-21.2-42.2c3.2-7.2,7.6-13.6,12.7-19.6
			c5.4-6.4,11.1-12.4,17.3-17.9c2.4-2.1,4.1-2.2,6.5-0.1c9.6,8.7,18.4,18,25.5,28.9c7.8,11.9,9.7,24.3,2.7,37
			C297.6,405.9,285.8,408.6,272.6,408.9z"/>
	</g>
</g>
<g id="Siembra_blanco" display="none">
	<g display="inline">
		<path fill="#FFFFFF" d="M12.4,488.6c0-70.6,0-141.2,0-211.8c0.6-0.4,1.1-0.7,1.7-1.1c24.8-19.3,51-18.3,74.1,2.8
			c1.5,1.4,3,2.7,4.6,4c18.9,14.4,47.7,14.7,68.9-5.2c22.4-21.1,52.3-20.3,74.6,0.6c4.4,4.1,9.1,7.6,14.5,10.2
			c6.2,2.9,6.5,2.7,6.5-3.9c0-39.7,0-79.4,0-119.1c0-7-0.5-7.3-7.3-8c-21.4-2.2-41.8-7.7-59.8-19.7c-40.4-27-54.6-66.9-55-113.4
			c0-3.2,1.9-3.9,4.6-4c9.5-0.3,19,0.7,28.4,2.2c53.6,8.5,90,42.8,101.5,95.7c1.3,5.8,2.1,11.7,3.2,17.6c1.1-3.1,1.5-6.1,2-9.1
			c4.2-26.2,13.6-50.1,32.7-69.2C334.8,30,368.6,20,406.2,19.9c3.6,0,4.6,1.6,4.7,5c0.3,12.8-1.3,25.4-4.3,37.8
			c-8.9,36.1-28.1,64.4-62.2,81.1c-15.6,7.6-32.1,11.8-49.3,13.3c-4.6,0.4-6.4,2.1-6.4,6.9c0.2,40.4,0.1,80.8,0.1,121.2
			c0,5.2,0.5,5.5,5.1,3.5c6.8-2.9,12.4-7.6,17.8-12.5c13-11.9,28.4-16,45.7-13c11.7,2,20.9,8.3,29.4,16.1c13,12,28.5,15.9,45.8,12.6
			c10.7-2,19.3-7.7,27.2-15c13.4-12.6,29.4-16.9,47.5-13.5c10.2,1.9,18.4,7.4,26.4,13.6c0,70.6,0,141.2,0,211.8
			c-2.4,0.1-4.7,0.4-7.1,0.4c-169,0-338.1,0-507.1,0C17.1,489,14.7,488.7,12.4,488.6z M208.1,378.4c0.1,23.9,12.5,44.3,34.3,53.7
			c19,8.2,38.6,8.6,58,1.2c20.7-7.9,32.6-23.3,36.5-45.2c3.2-17.8-1.8-33.5-11.3-48.2c-9.1-14.1-20.7-26-33.2-36.9
			c-2.3-2-4.9-3.7-4.7-7.4c0.1-2.1-1.2-3.1-3.3-2.6c-7.7,1.7-15.5,1.7-23.2,0c-1.9-0.4-3.2,0.5-3.1,2.3c0.3,3.9-2.4,5.7-4.8,7.8
			c-12.5,10.8-24,22.5-32.9,36.5C213.3,351,207.8,362.9,208.1,378.4z"/>
		<path fill="#FFFFFF" d="M272.6,408.9c-3.6-0.4-7.7-0.4-11.7-1.2c-22-4.8-27.4-28.2-21.2-42.2c3.2-7.2,7.6-13.6,12.7-19.6
			c5.4-6.4,11.1-12.4,17.3-17.9c2.4-2.1,4.1-2.2,6.5-0.1c9.6,8.7,18.4,18,25.5,28.9c7.8,11.9,9.7,24.3,2.7,37
			C297.6,405.9,285.8,408.6,272.6,408.9z"/>
	</g>
</g>
<g id="reforestacion" display="none">
	<g display="inline">
		<path fill="#1ABC9C" d="M380.7,25.5c5.4,3,6.8,7.7,7.3,13.7c1.2,16.1-0.4,31.9-4.5,47.4c-8.5,31.8-29.4,51-60.9,59.2
			c-11.3,2.9-22.8,4.2-34.4,4.6c-3.4,0.1-4.9,1.1-4.9,4.7c0.1,55.3,0.1,110.6,0.1,166c0,0.6,0.1,1.2,0.2,2.2
			c7.3-7.1,14.4-14,21.5-20.9c1.2-1.1,0.7-2.7,0.4-4.1c-9.6-56,8.4-102.1,50.3-139.6c5.4-4.9,11.1-9.4,17.3-13.2
			c6.1-3.8,12-2.9,15.3,2.1c3.1,4.7,1.7,10.9-3.9,14.7c-17.2,11.9-32,26-43,43.9c-10.5,17.1-16.4,35.6-17.7,55.6
			c-0.4,6.9-1.4,13.8,0.5,20.7c2-0.3,2.9-2,4-3.2c20.6-20.5,41.1-41,61.6-61.6c0.9-0.9,1.8-1.8,2.7-2.7c5.2-5,11.2-5.5,15.5-1.4
			c4.4,4.2,4,10.6-1.2,15.8c-21.3,21.4-42.6,42.7-64,64c-1.2,1.2-2.4,2.5-4.2,4.4c9.7,1.6,18.9,1.5,27.7,0
			c54.9-9,90.4-41,107.9-93.3c5.9-17.7,6.1-36.1,3-54.5c-0.6-3.5-2-5-5.5-5.3c-5.3-0.4-10.6-1.1-15.8-1.7c-1.3-0.1-2.6-0.1-3.9-0.3
			c-6.6-1-10.2-5.1-9.9-10.9c0.3-5.5,4.4-9.3,10.9-9.5c7.4-0.2,14.8,1,22.1,2.1c2.7,0.4,5.3,1.2,8,1.7c7.9,1.2,11.4,6,12.9,13.5
			c11.5,57.3-6.3,104.7-49.2,143c-30.2,27-66,38.8-106.4,36.3c-5.4-0.3-10.9-1.4-16.2-2.4c-2.4-0.4-4.3-0.2-6.1,1.7
			c-9.8,9.9-19.6,19.7-29.4,29.4c-2.7,2.6-1.3,3.2,1.4,3.8c22.7,4.6,40.7,16.6,53.9,35.5c1.5,2.2,3.2,3.5,6,3.1
			c10.3-1.3,20.6-1.1,30.9,0c1.2,0.1,2.9,0.6,3.6-0.7c0.8-1.5-0.6-2.7-1.5-3.8c-3.7-4.7-8.6-7-14.6-7.6c-7.1-0.7-10.8-5-10.2-11.4
			c0.6-5.7,5-8.9,11.9-8.6c2.1,0.1,4.2,0.2,6.2,0.7c6.7,1.6,12.9,4.3,17.8,9.3c2.4,2.4,3.9,2.3,6.3,0c6.8-6.4,15-9.8,24.5-10
			c6.5-0.2,10.8,3.1,11.4,8.6c0.6,6.3-3,10.8-9.7,11.4c-7.7,0.7-13.5,4-17.1,10.9c-2.4,4.7-1.7,6.3,3.2,7.8
			c22.4,6.9,42.3,18.3,59.7,33.9c23.6,21,39.7,46.8,48.6,77.1c2.2,7.7-2.2,13.4-10.4,13.6c-0.6,0-1.3,0-1.9,0
			c-156.8,0-313.5,0-470.3,0.1c-5.5,0-9.8-1.3-12.6-6.2c0-2.6,0-5.2,0-7.7c4.9-14.6,10.7-28.6,19-41.7c20.9-32.8,49.7-55.4,86.4-68
			c8.7-3,9.6-5.9,3.5-13c-3.6-4.2-8.2-6.1-13.5-6.7c-7.4-0.8-11-4.7-10.6-11.1c0.4-5.9,4.9-9.2,12-8.9c9.1,0.3,17,3.6,23.6,9.8
			c2.5,2.3,4,2.7,6.7,0.2c6.9-6.6,15.4-9.9,25-10c6.1-0.1,10.3,3.4,10.8,8.8c0.6,6.1-3,10.7-9.3,11.2c-6.7,0.6-12.1,3.2-16.1,8.5
			c-0.6,0.9-1.6,1.9-0.8,3c0.6,0.9,1.8,0.7,2.7,0.6c10.9-1.2,21.9-1.3,32.8-0.1c2.3,0.3,3.5-1.2,4.6-2.8
			c13.8-20,32.7-32.1,56.6-36.3c3.4-0.6,4.5-1.9,4.5-5.4c-0.2-16.6-0.1-33.2,0-49.8c0-3.6-0.7-4.7-4.7-4.1
			C177.8,305,107.1,242.4,97.1,172.7c-2.6-17.9-1.7-35.7,2.6-53.3c1.3-5.5,4.5-8.7,9.9-10c29.8-7.2,58.9-5,87,7.3
			c26.7,11.7,47.7,30.2,64.1,54.2c0.4,0.7,1,1.3,1.5,1.9c0.1,0.1,0.3,0.1,0.5,0.1c1-1.4,0.5-3.1,0.5-4.6c0.1-15.2-0.2-30.3,0.1-45.5
			c0.3-17.1,3.9-33.6,11.2-49.1c11.8-25,32.6-38.3,58.6-44.6c6.4-1.5,12.9-2.5,19.4-3.7C361.9,25.5,371.3,25.5,380.7,25.5z
			 M299.8,501.3c64,0,128,0,192.1,0c5.2,0,5.2,0,3.2-4.9c-5.6-13.3-13.1-25.5-22.7-36.4c-27.6-31.3-62.1-48.4-104-50.1
			c-8.7-0.4-17.4,0.2-26.1,1.1c-4.8,0.5-8.4-1.6-10.9-5.7c-1-1.7-2-3.3-3-5c-24.7-39.2-82.9-40.7-108.6-2.1
			c-6.6,10-12.9,13.4-25,12.2c-29.1-3-56.8,3.3-82.3,17.9c-28.2,16.2-48.9,39.2-61.7,69.1c-1.3,3-1,4,2.5,3.9
			c7.6-0.2,15.2-0.2,22.7,0c3.7,0.1,5.5-1.3,6.8-4.7c6.1-15.8,16-29,28.6-40.2c8.2-7.4,17.5-13.2,27.6-17.6
			c5.6-2.4,11.2-0.3,13.5,4.7c2.3,4.9,0.6,10-4.6,13.2c-1.5,0.9-3.1,1.7-4.7,2.5c-16.1,8.2-28.6,20.3-37.4,36
			c-3.2,5.7-3.1,5.9,3.3,5.9C172.7,501.3,236.3,501.3,299.8,501.3z M142.4,126.1c-6.4,0.2-12.9,0.2-19.3,1.3
			c-3.1,0.5-4.9,1.9-5.4,5.1c-2.1,14-2.3,28,0.5,41.9c11.6,58.2,64.8,100.4,124.1,98.5c1.5,0,3.8,0.6,4.3-1.1
			c0.5-1.7-1.6-2.6-2.7-3.7c-16-16.1-32.1-32.2-48.2-48.3c-1.4-1.4-2.8-2.7-3.9-4.3c-3-4.2-2.7-9.3,0.7-12.8
			c3.4-3.6,8.5-4.2,12.8-1.4c1.7,1.1,3.3,2.6,4.7,4.1c16.2,16.2,32.4,32.4,48.6,48.5c1,1,1.8,2.9,3.3,2.3c1.5-0.5,1.2-2.5,1.2-3.9
			c0.3-7.6-0.2-15.1-1.2-22.7C254.7,175.1,201.4,124.4,142.4,126.1z M286.1,112.3c1.2-1.1,2.3-2.2,3.5-3.3
			c6.8-6.8,13.6-13.7,20.5-20.5c5.6-5.6,11.7-6.1,16.1-1.6c4.5,4.6,3.8,10.3-1.9,16.1c-4.4,4.5-8.8,9-13.3,13.3
			c-3.9,3.7-8,7.3-12.6,11.5c2,0.6,2.4,0.9,2.8,0.8c2.6-0.3,5.1-0.5,7.7-0.9c17.2-3.1,33.1-8.9,43.9-23.7c12.2-16.6,14.9-36,15-55.9
			c0-2.8-1.9-2.4-3.7-2.4c-7.6,0-15.1,0.7-22.5,2.3c-18.3,4-34.6,11.5-45,28.1C289.6,87.1,286,99.1,286.1,112.3z"/>
		<path fill="#1ABC9C" d="M404.4,137c0.1-5.5,4.7-9.9,10.3-10c5.6,0,10.6,5,10.4,10.5c-0.2,5.4-5.5,10.1-11.1,10
			C408.6,147.4,404.4,142.8,404.4,137z"/>
		<path fill="#1ABC9C" d="M182.6,449.6c-5.6-0.1-10.2-4.6-10.1-10.1c0-5.6,4.5-9.8,10.3-9.9c5.8,0,10.3,4.3,10.4,9.8
			C193.1,445.2,188.4,449.7,182.6,449.6z"/>
	</g>
</g>
<g id="reforestacion_blanco" display="none">
	<g display="inline">
		<path fill="#FFFFFF" d="M380.7,25.5c5.4,3,6.8,7.7,7.3,13.7c1.2,16.1-0.4,31.9-4.5,47.4c-8.5,31.8-29.4,51-60.9,59.2
			c-11.3,2.9-22.8,4.2-34.4,4.6c-3.4,0.1-4.9,1.1-4.9,4.7c0.1,55.3,0.1,110.6,0.1,166c0,0.6,0.1,1.2,0.2,2.2
			c7.3-7.1,14.4-14,21.5-20.9c1.2-1.1,0.7-2.7,0.4-4.1c-9.6-56,8.4-102.1,50.3-139.6c5.4-4.9,11.1-9.4,17.3-13.2
			c6.1-3.8,12-2.9,15.3,2.1c3.1,4.7,1.7,10.9-3.9,14.7c-17.2,11.9-32,26-43,43.9c-10.5,17.1-16.4,35.6-17.7,55.6
			c-0.4,6.9-1.4,13.8,0.5,20.7c2-0.3,2.9-2,4-3.2c20.6-20.5,41.1-41,61.6-61.6c0.9-0.9,1.8-1.8,2.7-2.7c5.2-5,11.2-5.5,15.5-1.4
			c4.4,4.2,4,10.6-1.2,15.8c-21.3,21.4-42.6,42.7-64,64c-1.2,1.2-2.4,2.5-4.2,4.4c9.7,1.6,18.9,1.5,27.7,0
			c54.9-9,90.4-41,107.9-93.3c5.9-17.7,6.1-36.1,3-54.5c-0.6-3.5-2-5-5.5-5.3c-5.3-0.4-10.6-1.1-15.8-1.7c-1.3-0.1-2.6-0.1-3.9-0.3
			c-6.6-1-10.2-5.1-9.9-10.9c0.3-5.5,4.4-9.3,10.9-9.5c7.4-0.2,14.8,1,22.1,2.1c2.7,0.4,5.3,1.2,8,1.7c7.9,1.2,11.4,6,12.9,13.5
			c11.5,57.3-6.3,104.7-49.2,143c-30.2,27-66,38.8-106.4,36.3c-5.4-0.3-10.9-1.4-16.2-2.4c-2.4-0.4-4.3-0.2-6.1,1.7
			c-9.8,9.9-19.6,19.7-29.4,29.4c-2.7,2.6-1.3,3.2,1.4,3.8c22.7,4.6,40.7,16.6,53.9,35.5c1.5,2.2,3.2,3.5,6,3.1
			c10.3-1.3,20.6-1.1,30.9,0c1.2,0.1,2.9,0.6,3.6-0.7c0.8-1.5-0.6-2.7-1.5-3.8c-3.7-4.7-8.6-7-14.6-7.6c-7.1-0.7-10.8-5-10.2-11.4
			c0.6-5.7,5-8.9,11.9-8.6c2.1,0.1,4.2,0.2,6.2,0.7c6.7,1.6,12.9,4.3,17.8,9.3c2.4,2.4,3.9,2.3,6.3,0c6.8-6.4,15-9.8,24.5-10
			c6.5-0.2,10.8,3.1,11.4,8.6c0.6,6.3-3,10.8-9.7,11.4c-7.7,0.7-13.5,4-17.1,10.9c-2.4,4.7-1.7,6.3,3.2,7.8
			c22.4,6.9,42.3,18.3,59.7,33.9c23.6,21,39.7,46.8,48.6,77.1c2.2,7.7-2.2,13.4-10.4,13.6c-0.6,0-1.3,0-1.9,0
			c-156.8,0-313.5,0-470.3,0.1c-5.5,0-9.8-1.3-12.6-6.2c0-2.6,0-5.2,0-7.7c4.9-14.6,10.7-28.6,19-41.7c20.9-32.8,49.7-55.4,86.4-68
			c8.7-3,9.6-5.9,3.5-13c-3.6-4.2-8.2-6.1-13.5-6.7c-7.4-0.8-11-4.7-10.6-11.1c0.4-5.9,4.9-9.2,12-8.9c9.1,0.3,17,3.6,23.6,9.8
			c2.5,2.3,4,2.7,6.7,0.2c6.9-6.6,15.4-9.9,25-10c6.1-0.1,10.3,3.4,10.8,8.8c0.6,6.1-3,10.7-9.3,11.2c-6.7,0.6-12.1,3.2-16.1,8.5
			c-0.6,0.9-1.6,1.9-0.8,3c0.6,0.9,1.8,0.7,2.7,0.6c10.9-1.2,21.9-1.3,32.8-0.1c2.3,0.3,3.5-1.2,4.6-2.8
			c13.8-20,32.7-32.1,56.6-36.3c3.4-0.6,4.5-1.9,4.5-5.4c-0.2-16.6-0.1-33.2,0-49.8c0-3.6-0.7-4.7-4.7-4.1
			C177.8,305,107.1,242.4,97.1,172.7c-2.6-17.9-1.7-35.7,2.6-53.3c1.3-5.5,4.5-8.7,9.9-10c29.8-7.2,58.9-5,87,7.3
			c26.7,11.7,47.7,30.2,64.1,54.2c0.4,0.7,1,1.3,1.5,1.9c0.1,0.1,0.3,0.1,0.5,0.1c1-1.4,0.5-3.1,0.5-4.6c0.1-15.2-0.2-30.3,0.1-45.5
			c0.3-17.1,3.9-33.6,11.2-49.1c11.8-25,32.6-38.3,58.6-44.6c6.4-1.5,12.9-2.5,19.4-3.7C361.9,25.5,371.3,25.5,380.7,25.5z
			 M299.8,501.3c64,0,128,0,192.1,0c5.2,0,5.2,0,3.2-4.9c-5.6-13.3-13.1-25.5-22.7-36.4c-27.6-31.3-62.1-48.4-104-50.1
			c-8.7-0.4-17.4,0.2-26.1,1.1c-4.8,0.5-8.4-1.6-10.9-5.7c-1-1.7-2-3.3-3-5c-24.7-39.2-82.9-40.7-108.6-2.1
			c-6.6,10-12.9,13.4-25,12.2c-29.1-3-56.8,3.3-82.3,17.9c-28.2,16.2-48.9,39.2-61.7,69.1c-1.3,3-1,4,2.5,3.9
			c7.6-0.2,15.2-0.2,22.7,0c3.7,0.1,5.5-1.3,6.8-4.7c6.1-15.8,16-29,28.6-40.2c8.2-7.4,17.5-13.2,27.6-17.6
			c5.6-2.4,11.2-0.3,13.5,4.7c2.3,4.9,0.6,10-4.6,13.2c-1.5,0.9-3.1,1.7-4.7,2.5c-16.1,8.2-28.6,20.3-37.4,36
			c-3.2,5.7-3.1,5.9,3.3,5.9C172.7,501.3,236.3,501.3,299.8,501.3z M142.4,126.1c-6.4,0.2-12.9,0.2-19.3,1.3
			c-3.1,0.5-4.9,1.9-5.4,5.1c-2.1,14-2.3,28,0.5,41.9c11.6,58.2,64.8,100.4,124.1,98.5c1.5,0,3.8,0.6,4.3-1.1
			c0.5-1.7-1.6-2.6-2.7-3.7c-16-16.1-32.1-32.2-48.2-48.3c-1.4-1.4-2.8-2.7-3.9-4.3c-3-4.2-2.7-9.3,0.7-12.8
			c3.4-3.6,8.5-4.2,12.8-1.4c1.7,1.1,3.3,2.6,4.7,4.1c16.2,16.2,32.4,32.4,48.6,48.5c1,1,1.8,2.9,3.3,2.3c1.5-0.5,1.2-2.5,1.2-3.9
			c0.3-7.6-0.2-15.1-1.2-22.7C254.7,175.1,201.4,124.4,142.4,126.1z M286.1,112.3c1.2-1.1,2.3-2.2,3.5-3.3
			c6.8-6.8,13.6-13.7,20.5-20.5c5.6-5.6,11.7-6.1,16.1-1.6c4.5,4.6,3.8,10.3-1.9,16.1c-4.4,4.5-8.8,9-13.3,13.3
			c-3.9,3.7-8,7.3-12.6,11.5c2,0.6,2.4,0.9,2.8,0.8c2.6-0.3,5.1-0.5,7.7-0.9c17.2-3.1,33.1-8.9,43.9-23.7c12.2-16.6,14.9-36,15-55.9
			c0-2.8-1.9-2.4-3.7-2.4c-7.6,0-15.1,0.7-22.5,2.3c-18.3,4-34.6,11.5-45,28.1C289.6,87.1,286,99.1,286.1,112.3z"/>
		<path fill="#FFFFFF" d="M404.4,137c0.1-5.5,4.7-9.9,10.3-10c5.6,0,10.6,5,10.4,10.5c-0.2,5.4-5.5,10.1-11.1,10
			C408.6,147.4,404.4,142.8,404.4,137z"/>
		<path fill="#FFFFFF" d="M182.6,449.6c-5.6-0.1-10.2-4.6-10.1-10.1c0-5.6,4.5-9.8,10.3-9.9c5.8,0,10.3,4.3,10.4,9.8
			C193.1,445.2,188.4,449.7,182.6,449.6z"/>
	</g>
</g>
<g id="revegetalizacion" display="none">
	<g display="inline">
		<path fill="#1ABC9C" d="M347.9,315c-7.9-12.6-27.8-37-65-41C274.6,13.3,399.4,44.9,399.4,44.9c-59,17.3-83.4,64.7-83.4,64.7
			c98.8,13.6,105.4-58.8,105.2-79.5c0-3.2-2.1-6.1-5.1-7.1C293.8-17.5,271.4,178.7,271.4,178.7C235.9,42.9,153.6,59,129.8,66.8
			c-3.8,1.3-6,5.3-5,9.2c27.7,105.9,110.6,78.2,110.6,78.2c-27.9-53.9-79.1-64.7-79.1-64.7C277.5,99,267.2,256.8,265.8,273.6
			c-49.3,2-62,26.6-70.8,39.5c-2.1,3.1-5.6,5.1-9.4,5.4c-12.5,0.9-43.1,4.9-52.2,24.2c0,0,28.8,24.5,69.1,46
			c28.5,15.3,51.6,45.6,62.7,62.1c3.3,4.8,10.5,4.6,13.4-0.5c9.8-17.6,30-49.2,50.5-55.8c38.2-12.3,82-51.8,82-51.8
			s-26.1-24.9-51.4-21.9C354.9,321.3,350.4,319,347.9,315z M195.9,355.6c-7,0-12.7-5.7-12.7-12.7s5.7-12.7,12.7-12.7
			c7,0,12.7,5.7,12.7,12.7S202.9,355.6,195.9,355.6z M258.2,289.4c3.4,0,6.2,2.8,6.2,6.2s-2.8,6.2-6.2,6.2c-3.4,0-6.2-2.8-6.2-6.2
			S254.8,289.4,258.2,289.4z M245.6,398.8c-10.3,0-18.7-8.4-18.7-18.7c0-10.3,8.4-18.7,18.7-18.7c10.3,0,18.7,8.4,18.7,18.7
			C264.3,390.4,255.9,398.8,245.6,398.8z M277,333.6c-7,0-12.7-5.7-12.7-12.7s5.7-12.7,12.7-12.7s12.7,5.7,12.7,12.7
			S284,333.6,277,333.6z M334.6,376.5c-10.3,0-18.7-8.4-18.7-18.7c0-10.3,8.4-18.7,18.7-18.7c10.3,0,18.7,8.4,18.7,18.7
			C353.3,368.1,344.9,376.5,334.6,376.5z M380.5,336.7c3.4,0,6.2,2.8,6.2,6.2s-2.8,6.2-6.2,6.2c-3.4,0-6.2-2.8-6.2-6.2
			S377.1,336.7,380.5,336.7z"/>
		<path fill="#1ABC9C" d="M27.3,291.6c-0.1-3.4,4.2-5,6.4-2.3c9.9,12.2,29.2,41.1,41.2,92.3c16.7,71.2,72.3,75.9,94.4,80.6
			c0,0,10.3-20.7-12.4-41.7c-20.5-19-37.9-31.5-41.4-61.6c-0.4-3.5,3.8-5.7,6.4-3.3c7.2,6.5,20.8,18,44.8,35.3
			c41,29.7,94.4,45.3,95,139.7c0,0-78.8,14-163.5-62.6C34.8,406.4,27.8,319.8,27.3,291.6z"/>
		<path fill="#1ABC9C" d="M517.2,291.6c0.1-3.4-4.2-5-6.4-2.3c-9.9,12.2-29.2,41.1-41.2,92.3c-16.7,71.2-72.3,75.9-94.4,80.6
			c0,0-10.3-20.7,12.4-41.7c20.5-19,37.9-31.5,41.4-61.6c0.4-3.5-3.8-5.7-6.4-3.3c-7.2,6.5-20.8,18-44.8,35.3
			c-41,29.7-94.4,45.3-95,139.7c0,0,78.8,14,163.5-62.6C509.7,406.4,516.7,319.8,517.2,291.6z"/>
	</g>
</g>
<g id="Layer_6" display="none">
	<g display="inline">
		<path fill="#FFFFFF" d="M347.9,315c-7.9-12.6-27.8-37-65-41C274.6,13.3,399.4,44.9,399.4,44.9c-59,17.3-83.4,64.7-83.4,64.7
			c98.8,13.6,105.4-58.8,105.2-79.5c0-3.2-2.1-6.1-5.1-7.1C293.8-17.5,271.4,178.7,271.4,178.7C235.9,42.9,153.6,59,129.8,66.8
			c-3.8,1.3-6,5.3-5,9.2c27.7,105.9,110.6,78.2,110.6,78.2c-27.9-53.9-79.1-64.7-79.1-64.7C277.5,99,267.2,256.8,265.8,273.6
			c-49.3,2-62,26.6-70.8,39.5c-2.1,3.1-5.6,5.1-9.4,5.4c-12.5,0.9-43.1,4.9-52.2,24.2c0,0,28.8,24.5,69.1,46
			c28.5,15.3,51.6,45.6,62.7,62.1c3.3,4.8,10.5,4.6,13.4-0.5c9.8-17.6,30-49.2,50.5-55.8c38.2-12.3,82-51.8,82-51.8
			s-26.1-24.9-51.4-21.9C354.9,321.3,350.4,319,347.9,315z M195.9,355.6c-7,0-12.7-5.7-12.7-12.7s5.7-12.7,12.7-12.7
			c7,0,12.7,5.7,12.7,12.7S202.9,355.6,195.9,355.6z M258.2,289.4c3.4,0,6.2,2.8,6.2,6.2s-2.8,6.2-6.2,6.2c-3.4,0-6.2-2.8-6.2-6.2
			S254.8,289.4,258.2,289.4z M245.6,398.8c-10.3,0-18.7-8.4-18.7-18.7c0-10.3,8.4-18.7,18.7-18.7c10.3,0,18.7,8.4,18.7,18.7
			C264.3,390.4,255.9,398.8,245.6,398.8z M277,333.6c-7,0-12.7-5.7-12.7-12.7s5.7-12.7,12.7-12.7s12.7,5.7,12.7,12.7
			S284,333.6,277,333.6z M334.6,376.5c-10.3,0-18.7-8.4-18.7-18.7c0-10.3,8.4-18.7,18.7-18.7c10.3,0,18.7,8.4,18.7,18.7
			C353.3,368.1,344.9,376.5,334.6,376.5z M380.5,336.7c3.4,0,6.2,2.8,6.2,6.2s-2.8,6.2-6.2,6.2c-3.4,0-6.2-2.8-6.2-6.2
			S377.1,336.7,380.5,336.7z"/>
		<path fill="#FFFFFF" d="M27.3,291.6c-0.1-3.4,4.2-5,6.4-2.3c9.9,12.2,29.2,41.1,41.2,92.3c16.7,71.2,72.3,75.9,94.4,80.6
			c0,0,10.3-20.7-12.4-41.7c-20.5-19-37.9-31.5-41.4-61.6c-0.4-3.5,3.8-5.7,6.4-3.3c7.2,6.5,20.8,18,44.8,35.3
			c41,29.7,94.4,45.3,95,139.7c0,0-78.8,14-163.5-62.6C34.8,406.4,27.8,319.8,27.3,291.6z"/>
		<path fill="#FFFFFF" d="M517.2,291.6c0.1-3.4-4.2-5-6.4-2.3c-9.9,12.2-29.2,41.1-41.2,92.3c-16.7,71.2-72.3,75.9-94.4,80.6
			c0,0-10.3-20.7,12.4-41.7c20.5-19,37.9-31.5,41.4-61.6c0.4-3.5-3.8-5.7-6.4-3.3c-7.2,6.5-20.8,18-44.8,35.3
			c-41,29.7-94.4,45.3-95,139.7c0,0,78.8,14,163.5-62.6C509.7,406.4,516.7,319.8,517.2,291.6z"/>
	</g>
</g>
<g id="paisajismo_blanco" display="none">
	<g id="siembra_2_">
		<g display="inline">
			<path fill="#1ABC9C" d="M0,471.1c0-70.6,0-141.2,0-211.8c0.6-0.4,1.1-0.7,1.7-1.1c24.8-19.3,51-18.3,74.1,2.8
				c1.5,1.4,3,2.7,4.6,4c18.9,14.4,47.7,14.7,68.9-5.2c22.4-21.1,52.3-20.3,74.6,0.6c4.4,4.1,9.1,7.6,14.5,10.2
				c6.2,2.9,6.5,2.7,6.5-3.9c0-39.7,0-79.4,0-119.1c0-7-0.5-7.3-7.3-8c-21.4-2.2-41.8-7.7-59.8-19.7c-40.4-27-54.6-66.9-55-113.4
				c0-3.2,1.9-3.9,4.6-4c9.5-0.3,19,0.7,28.4,2.2c53.6,8.5,90,42.8,101.5,95.7c1.3,5.8,2.1,11.7,3.2,17.6c1.1-3.1,1.5-6.1,2-9.1
				c4.2-26.2,13.6-50.1,32.7-69.2c27.2-27.2,61-37.2,98.6-37.3c3.6,0,4.6,1.6,4.7,5c0.3,12.8-1.3,25.4-4.3,37.8
				c-8.9,36.1-28.1,64.4-62.2,81.1c-15.6,7.6-32.1,11.8-49.3,13.3c-4.6,0.4-6.4,2.1-6.4,6.9c0.2,40.4,0.1,80.8,0.1,121.2
				c0,5.2,0.5,5.5,5.1,3.5c6.8-2.9,12.4-7.6,17.8-12.5c13-11.9,28.4-16,45.7-13c11.7,2,20.9,8.3,29.4,16.1
				c13,12,28.5,15.9,45.8,12.6c10.7-2,19.3-7.7,27.2-15c13.4-12.6,29.4-16.9,47.5-13.5c10.2,1.9,18.4,7.4,26.4,13.6
				c0,70.6,0,141.2,0,211.8c-2.4,0.1-4.7,0.4-7.1,0.4c-169,0-338.1,0-507.1,0C4.7,471.5,2.3,471.2,0,471.1z M195.7,360.9
				c0.1,23.9,12.5,44.3,34.3,53.7c19,8.2,38.6,8.6,58,1.2c20.7-7.9,32.6-23.3,36.5-45.2c3.2-17.8-1.8-33.5-11.3-48.2
				c-9.1-14.1-20.7-26-33.2-36.9c-2.3-2-4.9-3.7-4.7-7.4c0.1-2.1-1.2-3.1-3.3-2.6c-7.7,1.7-15.5,1.7-23.2,0
				c-1.9-0.4-3.2,0.5-3.1,2.3c0.3,3.9-2.4,5.7-4.8,7.8c-12.5,10.8-24,22.5-32.9,36.5C200.9,333.5,195.4,345.4,195.7,360.9z"/>
			<path fill="#1ABC9C" d="M260.2,391.4c-3.6-0.4-7.7-0.4-11.7-1.2c-22-4.8-27.4-28.2-21.2-42.2c3.2-7.2,7.6-13.6,12.7-19.6
				c5.4-6.4,11.1-12.4,17.3-17.9c2.4-2.1,4.1-2.2,6.5-0.1c9.6,8.7,18.4,18,25.5,28.9c7.8,11.9,9.7,24.3,2.7,37
				C285.2,388.4,273.4,391.1,260.2,391.4z"/>
		</g>
		<path display="inline" fill="none" d="M1293.4,323c-0.9-0.5-1.2-1.7-0.6-2.6l2.2-3.5c0.5-0.9,1.7-1.1,2.6-0.6l58.7,34.9
			c0.9,0.5,1.2,1.7,0.6,2.6l-2.2,3.5c-0.6,0.9-1.7,1.2-2.6,0.6L1293.4,323z"/>
		<path display="inline" fill="none" d="M1364.2,257c-0.9-0.6-1.2-1.8-0.7-2.8l2.3-3.8c0.6-0.9,1.8-1.2,2.8-0.7l61.4,37.5
			c0.9,0.6,1.2,1.8,0.7,2.8l-2.3,3.8c-0.6,0.9-1.8,1.2-2.8,0.7L1364.2,257z"/>
		<path display="inline" fill="none" d="M1442,287.7v185.9H890l122-99.3l219.3-38.7l27.1-32.8l21,12.3l-1.8,2.9
			c-0.5,0.9-0.3,2,0.6,2.6l77.8,46.3c0.9,0.5,2.1,0.3,2.6-0.6l9.2-14.7c0.5-0.9,0.3-2-0.6-2.6l-77.8-46.3c-0.9-0.5-2.1-0.3-2.6,0.6
			l-5.4,8.7l-20.6-12l56.3-68.3l32.4,16.9l-1.9,3.1c-0.6,0.9-0.3,2.2,0.7,2.8l81.4,49.7c0.9,0.6,2.2,0.3,2.7-0.7L1442,287.7z"/>
		<polygon display="inline" fill="none" points="1248.9,297.3 1226,324.3 1018,364.3 1086,308.9 1178,308.9 1190.6,263.2 		"/>
		<polygon display="inline" fill="none" points="1308.6,227.2 1251.4,294.4 1191.6,259.5 1214.2,178 		"/>
		<polygon display="inline" fill="none" points="1366,60.9 1332.6,198.9 1311.2,224.1 1215.3,174 1229.3,123.6 		"/>
		<path display="inline" fill="none" d="M1442,30.3v255c-0.2-0.2-0.3-0.4-0.6-0.5l-81.4-49.7c-0.9-0.6-2.2-0.3-2.7,0.7l-5.7,9.3
			l-31.9-16.6l21.6-26.2l37.3-148.7L1442,30.3z"/>
		<path display="inline" fill="none" d="M1430.7,290l-2.3,3.8c-0.6,0.9-1.8,1.2-2.8,0.7l-61.4-37.5c-0.9-0.6-1.2-1.8-0.7-2.8
			l2.3-3.8c0.6-0.9,1.8-1.2,2.8-0.7l61.4,37.5C1431,287.9,1431.3,289.1,1430.7,290z"/>
		<path display="inline" fill="none" d="M1357,353.8l-2.2,3.5c-0.6,0.9-1.7,1.2-2.6,0.6l-58.7-34.9c-0.9-0.5-1.2-1.7-0.6-2.6
			l2.2-3.5c0.5-0.9,1.7-1.1,2.6-0.6l58.7,34.9C1357.2,351.7,1357.5,352.9,1357,353.8z M1356.3,351.2l-58.7-34.9
			c-0.9-0.5-2.1-0.3-2.6,0.6l-2.2,3.5c-0.6,0.9-0.3,2,0.6,2.6l58.7,34.9c0.9,0.5,2.1,0.3,2.6-0.6l2.2-3.5
			C1357.5,352.9,1357.2,351.7,1356.3,351.2z"/>
	</g>
	<g id="talud_1_">
		<path display="inline" fill="#1ABC9C" d="M511.7,66.4l-200.9,94.9l-8.2,29.4c-0.3-0.2-0.7-0.3-1-0.3l-7.2-1.4
			c-2.2-0.4-4.4,1-4.8,3.2l-1.6,8.1l-3.1-1.5c-0.3-0.1-0.5-0.2-0.8-0.2c-0.7,0-1.3,0.4-1.6,1c-0.4,0.9-0.1,1.9,0.8,2.4l4,1.9
			l-2.8,14.3c-0.4,2.2,1,4.4,3.2,4.8l5.6,1.1l-11,39.2l-5.2-1.3c-2.2-0.6-4.4,0.8-5,3l-2.7,10.7l-5.1-2.4c-0.3-0.1-0.5-0.2-0.8-0.2
			c-0.7,0-1.3,0.4-1.6,1c-0.4,0.9,0,1.9,0.8,2.4l5.7,2.7l-3,11.5c-0.6,2.2,0.8,4.4,3,5l4.4,1.1l-6.1,21.8h-81.1L0,475.7v9.3h519.9
			V66.4H511.7z M323.9,166.8l114.7-47.3l-30.8,111.4L394,252.4l-82-42.3L323.9,166.8z M451.9,396.4l-67-36.5l4.8-10.5l-52.1-29.8
			l-22.1,31.3l-165.1,25.2l40.1-37.2l88.3-4.3l10.3-43.2l48.4,28.2l4.3-5l-50.7-28.7l19.4-69.6l79.6,41.5l-48.3,56.7l51.9,28.4
			l5.3-7.5l66.5,40L451.9,396.4z M494.3,326.2l-61-32.7l4.3-9.4l-47.5-26.8l3.9-4.5l47.2,25.4l4.8-6.7l60.5,35.8L494.3,326.2z"/>
		<path display="inline" fill="#1ABC9C" d="M497.1,310.8l-48.7-29.3c-0.8-0.5-1.9-0.2-2.4,0.6l-2,3.4c-0.5,0.8-0.2,1.9,0.6,2.4
			l48.7,29.3c0.8,0.5,1.9,0.2,2.4-0.6l2-3.3C498.2,312.4,497.9,311.3,497.1,310.8z"/>
		<path display="inline" fill="#1ABC9C" d="M455.4,383l-1.9,3.1c-0.5,0.8-1.5,1-2.3,0.5l-51.7-30.8c-0.8-0.5-1-1.5-0.5-2.3l1.9-3.1
			c0.5-0.8,1.5-1,2.3-0.5l51.7,30.8C455.6,381.2,455.9,382.2,455.4,383z"/>
	</g>
	<g id="alianza_1_">
		<g display="inline">
			<path fill="#1ABC9C" d="M211.8,387.2c-4.5-0.3-9,1.3-12.6,4.6c-3.5,3.2-5.1,2.1-6.4-1.8c-1.1-3.3-3.2-6.1-5.8-8.4
				c-10.3-9.2-24.1-8.2-32.6,2.7c-4.2,5.3-7.9,10.9-11.7,16.5c-2,2.9-3.6,3-5.8,0.2c-10.9-13.7-21.8-27.4-32.8-40.9
				c-2.5-3-1.1-5.3,0.4-7.9c14.2-24.6,28.4-49.2,42.6-73.8c3.9-6.8,7.9-13.5,11.7-20.4c1.7-3,3.4-4.1,7-2.8
				c15.7,5.8,31.5,11.3,47.3,16.9c4,1.4,4.5,3,1.3,5.9c-6.4,6-12.6,12.1-18.9,18.2c-1.8,1.7-3.1,3.4-3.2,6.1
				c-0.7,15.8-1.7,31.6-2.1,47.4c-0.3,12.6,7.7,18.5,20,15.6c11.1-2.6,19.5-8.7,24.8-18.8c3.4-6.4,6.6-13,9.8-19.5
				c1.3-2.8,3.2-4.7,6-6c6.3-2.8,12.5-5.9,19.3-7.6c7.6-1.9,14.8-1.3,21.6,2.7c35.6,20.6,71.2,41.2,106.8,61.9
				c10.6,6.2,12.8,17.5,5.5,26.9c-5.6,7.2-14.2,9-23,4.1c-10.3-5.8-20.5-11.9-30.7-17.8c-1.4-0.8-2.9-1.6-4.4-2.2
				c-0.9-0.4-1.8-0.1-2.3,0.8s-0.4,1.9,0.3,2.5c1.1,0.9,2.3,1.7,3.6,2.5c13.5,7.9,27.1,15.7,40.5,23.7c8.7,5.2,11.3,13.9,7.3,22.5
				c-4.7,10.2-15.1,13.8-25.1,8.2c-14.1-8-28-16.3-42.1-24.3c-2.2-1.2-5.5-4.5-7.1-1.7c-2,3.5,2.8,4.2,5,5.5
				c10.3,6.2,20.8,12.1,31,18.3c6.5,4,9.5,10,7.9,17.7c-1.6,7.8-6.3,13-14.1,15c-5.2,1.3-9.7-0.7-14-3.2
				c-10.7-6.2-21.4-12.5-32.1-18.7c-0.9-0.6-1.9-1.1-2.8-1.6c-1.5-0.8-3.2-1.6-4.2,0.4c-0.9,1.8,0.7,2.6,2,3.3c8,4.7,16,9.4,24,14.1
				c1.4,0.8,2.9,1.6,4.2,2.5c8.7,6,10.7,15.5,5.1,24.4c-5.3,8.5-14.8,11-23.7,6c-8.1-4.5-16-9.4-24.1-13.9c-2.9-1.6-3-3.3-1.9-6.2
				c5.4-15.4-3.8-29.3-20.3-30.6c-4.5-0.3-5.4-1.2-2.9-5.4c9.3-15.8-0.6-33.7-19-34c-4.8-0.1-6.1-1.2-5.8-6.1
				C236,397.8,225.2,387.2,211.8,387.2z"/>
			<path fill="#1ABC9C" d="M194.5,348.7c0.6-14.4,1.2-28.7,1.8-43.1c0.1-2.7,1.1-4.9,3-6.7c10.7-10.2,20.9-20.8,31.9-30.6
				c14.4-12.8,30.6-17.4,49.5-13.1c14.7,3.3,29.7,5.7,44.8,5.9c15.2,0.2,30.1-1.8,44.7-5.9c4.1-1.1,6.3-0.4,8.4,3.3
				c17.7,31,35.6,61.9,53.5,92.7c2.3,3.9,1.8,5.9-2.4,7.9c-8.4,3.9-16.7,8.2-24.8,12.6c-3.3,1.8-5.9,1.6-9.1-0.3
				c-33-19.2-66.3-38.2-99.2-57.6c-10.6-6.2-21.1-7.5-32.3-3.2c-6.1,2.3-12,5.2-18.1,7.7c-2.8,1.2-4,3.6-5.2,6
				c-4.2,8.3-7.7,16.9-13,24.6c-4.9,7.1-11.8,10.7-19.9,12.2C198.8,362.7,194.1,358.4,194.5,348.7z"/>
			<path fill="#1ABC9C" d="M80.1,372.4c-5.4,0-8.7-1.6-11.8-3.5c-10.9-6.3-21.8-12.6-32.6-18.9c-11.7-6.8-13.6-14-6.8-25.8
				c19.4-33.6,38.8-67.2,58.2-100.7c2.6-4.4,5-8.9,7.7-13.2c4.8-7.5,12.5-9.9,20.3-5.7c13.3,7.2,26.4,14.8,39.3,22.6
				c7.7,4.6,9.3,13,4.5,21.5c-10,17.6-20.1,35-30.2,52.5c-12,20.8-24.1,41.6-36,62.4C89.4,369.1,84.9,372.1,80.1,372.4z"/>
			<path fill="#1ABC9C" d="M458.5,372.4c-6.6-0.3-11-3.7-14.3-9.4c-17.4-30.3-34.9-60.6-52.4-90.8c-4.6-7.9-9.2-15.7-13.6-23.7
				c-5-8.9-3.1-16.8,5.6-22c12.3-7.4,24.8-14.6,37.4-21.5c8.6-4.8,16.6-2.6,21.5,5.9c22.3,38.4,44.5,76.9,66.6,115.4
				c5.4,9.4,3.1,17.3-6.1,22.8c-11.7,7-23.6,13.7-35.4,20.5C464.9,371.2,461.9,372.4,458.5,372.4z"/>
			<path fill="#1ABC9C" d="M98.3,168.8c-22.4,0-44.8-0.1-67.2,0.1c-4.7,0-6.5-1.1-5.7-6.2c4-28.4,19.1-48.6,45.3-59.6
				c25.7-10.9,50.4-7,72.7,9.6c16.7,12.5,25.9,29.5,28.7,50.3c0.6,4.9-1,6-5.5,6C143.8,168.7,121.1,168.8,98.3,168.8z"/>
			<path fill="#1ABC9C" d="M438.2,168.8c-22.2,0-44.4,0-66.6,0c-7,0-7.1-0.2-6.2-7.1c4.5-35.7,35.1-63.7,70.3-64.5
				c37.3-0.8,69.1,25,75.5,61.2c1.8,10.4,1.8,10.4-8.6,10.4C481.1,168.8,459.6,168.8,438.2,168.8z"/>
			<path fill="#1ABC9C" d="M268.5,168.8c-22.2,0-44.4,0-66.6,0c-6.7,0-7.4-0.8-6.5-7.2c5.3-37.4,36.8-64.7,74.4-64.4
				c36.2,0.3,68.1,29.1,72.2,65.1c0.5,4.6-0.6,6.6-5.7,6.6C313.6,168.6,291.1,168.8,268.5,168.8z"/>
			<path fill="#1ABC9C" d="M268.5,92.5c-19.2,0-35-15.8-35-34.6c0.1-19.1,16.3-35.2,35.4-35c18.9,0.2,34.8,16.3,34.7,35.1
				C303.5,77,287.6,92.6,268.5,92.5z"/>
			<path fill="#1ABC9C" d="M403.7,57.6c0.1-19.1,15.7-34.8,34.8-34.7c19,0,34.7,15.8,34.7,34.9c0,19.5-15.8,35.2-35.1,34.9
				C418.7,92.4,403.6,77,403.7,57.6z"/>
			<path fill="#1ABC9C" d="M133.4,57.9c0,19.3-15.4,34.7-34.7,34.7c-19.4,0-34.9-15.7-34.8-35.2c0.1-19,16-34.7,35-34.5
				C118,23,133.4,38.7,133.4,57.9z"/>
			<path fill="#1ABC9C" d="M230.7,409.2c0.2,4-1.2,7.5-3.5,10.7c-11.2,15.9-22.2,31.9-33.5,47.7c-6.5,9-16.3,10.7-24.8,4.8
				c-8.8-6.1-10.6-16.1-4.3-25.3c11.3-16.3,22.7-32.5,34.2-48.6c4.8-6.7,11.8-8.6,19.3-6.1C225.6,395,230.6,401.7,230.7,409.2z"/>
			<path fill="#1ABC9C" d="M214.4,496.6c-7.5-0.3-13.1-3.6-16.8-9.8c-3.6-6.1-3.1-12.2,0.9-17.9c9.6-13.7,19.1-27.5,28.9-41
				c6-8.2,15.8-9.4,24.1-3.6c8.2,5.7,10.5,15.7,4.9,23.9c-9.4,13.8-19.1,27.4-28.8,41.1C224.4,493.8,219.8,496.2,214.4,496.6z"/>
			<path fill="#1ABC9C" d="M171.3,380c14.8,0.2,23.3,15,15.6,27.1c-6.7,10.5-14.1,20.7-21.7,30.7c-5.6,7.4-15,8.4-23,3.3
				c-8.1-5.3-11.3-14.7-6.2-22.7c7.2-11.3,15.2-22.2,23.1-33C162.1,381.4,166.7,379.7,171.3,380z"/>
			<path fill="#1ABC9C" d="M253.6,510.7c-14.8-0.2-23.5-15.3-16.1-27.3c3.3-5.4,7-10.6,10.9-15.6c6.7-8.5,16-9.8,24.5-3.7
				c8.3,6,10.1,15.6,4.3,24.5c-3.3,5-6.8,9.9-10.4,14.7C263.4,507.8,258.9,510.6,253.6,510.7z"/>
		</g>
	</g>
	<g id="paisajismo_1_" display="inline">
		<g>
			<path fill="#FFFFFF" d="M110.6,218.2c71.8-0.1,129.8,18.4,182.9,53c4.6,3,8.4,3.7,13.6,1.8c12.2-4.4,24.7-7.5,37.5-9.8
				c9-1.7,5.3-8.1,6.1-12.9c0.7-5.4-3.2-5-6.7-5.3c-14.5-1.7-28.9-3.6-42.3-9.8c-24.7-11.5-31-31.9-17.4-55.7
				c4.5-7.9,10.3-14.8,16.4-21.5c9.2-10.2,10.2-15.3,2-26c-11.9-15.4-10-30.1-0.2-45.5c14.7-23.3,29-46.7,43.4-70.2
				c6.8-11.1,14.1-11.6,22.6-1.4c13.8,16.9,27.9,33.7,41.8,50.7c20.2,24.6,27.1,52.9,21.9,84.2c-1.5,8.8,0.1,15,8.2,20.3
				c13.8,9.2,19.3,22.7,15.7,35.2c-2.4,8.7-8.2,15.1-15.4,20.2c-15.6,11.2-33.7,15.6-52.4,18.3c-3,0.4-6.1,1-9.1,1
				c-4.3,0-5.7,1.8-5.7,6c0,8.3,0.1,8.9,8.6,8.3c15.2-1,30.4-1.7,45.6-1.2c28.1,0.8,55.4,5.4,82.1,14.4c6.3,2.1,9.3,6,9.4,12.6
				c3,113.3-74.8,216.6-185.3,244c-82.3,20.4-156.8,2.4-221.8-52c-50.7-42.2-78.5-97.4-85.6-163c-2.7-25-1.3-50,4-74.7
				c1.4-6.4,4.7-10.4,11.5-11.9C67.3,221.6,92.8,217.6,110.6,218.2z M406,278.5c-13.3,0.8-29.3,0.9-45.1,3.9
				c-105.8,19.4-182.4,77.1-229,174.3c-2.3,4.8-1.7,7.4,2.6,10.6c32.6,23.6,68.3,38.9,108.3,44.2c4.1,0.5,5.9-0.8,7.3-4.4
				c12-28.6,28.5-54.6,47.7-78.8c6.6-8.4,13.4-16.7,21.1-24.1c4.4-4.3,10.3-4.4,14.4-0.6c4.2,3.8,4.5,9.5,0.8,14.4
				c-1.5,2-3.1,3.8-4.7,5.7c-21.3,23.7-38.4,50.2-52.6,78.6c-5.9,11.7-5.9,11.8,7.2,11.2c56.4-2.8,104.6-24.2,144.8-63.7
				c30.4-30,49.5-66.1,58-107.9c0.7-3.6,1.9-7.6-4.4-6c-30.2,7.6-59.2,18.4-86.5,33.3c-6.2,3.4-12.6,1-14.1-5.7
				c-1.5-6.2,0.6-10.7,6.9-14.2c15.9-9,32.6-16.4,49.7-23c16.8-6.5,34.1-10.1,51.4-14.4c8.4-2.1,5.4-8.7,6.4-13.8
				c0.9-5.3-2.8-6.4-6.7-7.6C463.1,282.1,436.1,279.1,406,278.5z M109.7,237.3c-13.1-0.6-31.5,2.3-49.9,5.7
				c-13.2,2.4-11.5-0.2-14.1,14.8c-2.3,13.6-2.2,13.5,11.2,17.6c24.7,7.6,49.3,15.6,71.7,29.1c4.2,2.5,7.4,5.7,8.6,10.7
				c1,4.3-0.4,7.6-3.4,10.6c-2.9,2.8-6.1,1.8-9.1,0.3c-7.8-3.7-15.5-7.6-23.3-11.2c-15.8-7.3-31.8-14.2-48.7-18.9
				c-4.1-1.2-7.1-1.6-6,4.6c1,5.4,0.8,11,1.6,16.6c6.2,46.5,24.7,87.4,56.8,121.8c7.1,7.6,7,7.4,11.7-2
				c33.6-67.4,84.1-117.7,152-150.4c1.6-0.7,4.2-0.8,4.1-3c-0.1-1.9-2.6-2.4-4.1-3.4C221.6,251.7,170.4,237.9,109.7,237.3z
				 M371.2,140.4c1.9-1.8,2.7-2.4,3.5-3.1c6.3-5.9,11.3-6.4,16.1-1.8c4.9,4.8,4.4,10.4-1.7,16.7c-4.9,5-9.8,10-14.8,14.8
				c-1.8,1.8-3,3.7-3,6.4c0.1,16,0.1,32.1,0,48c0,3.1,1.3,4.7,4.4,4.4c17-1.9,33.9-4.2,48.8-13.5c15.8-10,11.7-15.2,1.7-22.3
				c-0.3-0.2-0.6-0.5-0.9-0.8c-15.6-10.2-18.2-25.1-15.7-42.1c3.2-22.8-0.3-43.9-14.6-62.9c-10.9-14.5-22.1-28.6-32.7-43.2
				c-2.9-4.1-4-3.1-6.2,0.4c-12,19.6-24.1,39.2-36.6,58.5c-4.4,6.7-4.8,12.2-0.2,19.1c11.9,17.5,11.7,31.8-0.2,48.4
				c-2.8,4-6.2,7.6-9.4,11.3c-3.5,3.9-6.7,7.8-9.1,12.4c-5.7,11-3.9,17.3,6.6,23.7c12.2,7.2,25.8,9.2,39.4,11.1c2.9,0.4,4-1.2,4.1-4
				c0.5-10.8,0.9-21.3-9.8-28.3c-3.6-2.3-6.3-5.9-9.2-9c-4.6-5-5-9.7-1.4-14.4c3.7-4.5,9-5,14.8-1.5c1.5,0.9,2.9,3,4.7,1.9
				c1.7-1,0.8-3.5,0.8-5.2c0.1-18.2,0-36.6,0.1-54.8c0-7.5,4.5-12.6,10.6-12.5c6.2,0.1,9.8,4.5,10,12.3
				C371.3,119.8,371.2,129.4,371.2,140.4z"/>
			<path fill="#FFFFFF" d="M193.2,170c-22.3,0-39.7-17.5-39.7-39.8c0-22.6,17.6-40,40.2-39.9c22.2,0.1,39.5,17.7,39.4,40.1
				C233.1,152.6,215.6,170,193.2,170z M212.5,130c-0.1-10.8-8.5-19.2-19.3-19.1c-10.8,0.1-19.2,8.5-19.1,19.3
				c0.1,10.8,8.6,19.2,19.3,19.1C204.3,149.2,212.6,140.8,212.5,130z"/>
			<path fill="#FFFFFF" d="M371.2,378.2c0,8.2-14.2,19.9-22.1,18.3c-3.7-0.7-6.2-2.9-7.3-6.6c-1.4-4.3-0.3-8.4,2.8-11.3
				c3.9-3.6,8.3-6.8,13.2-8.9C364.4,366.9,371.3,371.3,371.2,378.2z"/>
			<path fill="#FFFFFF" d="M157.5,345.7c-5.6-0.1-12.6-7.9-12.3-13.4c0.2-4.7,5.9-9.7,11.1-9.7c5.3,0,12.4,7.8,12.2,13.5
				C168.4,340.9,162.9,345.8,157.5,345.7z"/>
		</g>
	</g>
	<g id="reforestacion_2_">
		<g display="inline">
			<path fill="#1ABC9C" d="M368.3,8c5.4,3,6.8,7.7,7.3,13.7c1.2,16.1-0.4,31.9-4.5,47.4c-8.5,31.8-29.4,51-60.9,59.2
				c-11.3,2.9-22.8,4.2-34.4,4.6c-3.4,0.1-4.9,1.1-4.9,4.7c0.1,55.3,0.1,110.6,0.1,166c0,0.6,0.1,1.2,0.2,2.2
				c7.3-7.1,14.4-14,21.5-20.9c1.2-1.1,0.7-2.7,0.4-4.1c-9.6-56,8.4-102.1,50.3-139.6c5.4-4.9,11.1-9.4,17.3-13.2
				c6.1-3.8,12-2.9,15.3,2.1c3.1,4.7,1.7,10.9-3.9,14.7c-17.2,11.9-32,26-43,43.9c-10.5,17.1-16.4,35.6-17.7,55.6
				c-0.4,6.9-1.4,13.8,0.5,20.7c2-0.3,2.9-2,4-3.2c20.6-20.5,41.1-41,61.6-61.6c0.9-0.9,1.8-1.8,2.7-2.7c5.2-5,11.2-5.5,15.5-1.4
				c4.4,4.2,4,10.6-1.2,15.8c-21.3,21.4-42.6,42.7-64,64c-1.2,1.2-2.4,2.5-4.2,4.4c9.7,1.6,18.9,1.5,27.7,0
				c54.9-9,90.4-41,107.9-93.3c5.9-17.7,6.1-36.1,3-54.5c-0.6-3.5-2-5-5.5-5.3c-5.3-0.4-10.6-1.1-15.8-1.7c-1.3-0.1-2.6-0.1-3.9-0.3
				c-6.6-1-10.2-5.1-9.9-10.9c0.3-5.5,4.4-9.3,10.9-9.5c7.4-0.2,14.8,1,22.1,2.1c2.7,0.4,5.3,1.2,8,1.7c7.9,1.2,11.4,6,12.9,13.5
				c11.5,57.3-6.3,104.7-49.2,143c-30.2,27-66,38.8-106.4,36.3c-5.4-0.3-10.9-1.4-16.2-2.4c-2.4-0.4-4.3-0.2-6.1,1.7
				c-9.8,9.9-19.6,19.7-29.4,29.4c-2.7,2.6-1.3,3.2,1.4,3.8c22.7,4.6,40.7,16.6,53.9,35.5c1.5,2.2,3.2,3.5,6,3.1
				c10.3-1.3,20.6-1.1,30.9,0c1.2,0.1,2.9,0.6,3.6-0.7c0.8-1.5-0.6-2.7-1.5-3.8c-3.7-4.7-8.6-7-14.6-7.6c-7.1-0.7-10.8-5-10.2-11.4
				c0.6-5.7,5-8.9,11.9-8.6c2.1,0.1,4.2,0.2,6.2,0.7c6.7,1.6,12.9,4.3,17.8,9.3c2.4,2.4,3.9,2.3,6.3,0c6.8-6.4,15-9.8,24.5-10
				c6.5-0.2,10.8,3.1,11.4,8.6c0.6,6.3-3,10.8-9.7,11.4c-7.7,0.7-13.5,4-17.1,10.9c-2.4,4.7-1.7,6.3,3.2,7.8
				c22.4,6.9,42.3,18.3,59.7,33.9c23.6,21,39.7,46.8,48.6,77.1c2.2,7.7-2.2,13.4-10.4,13.6c-0.6,0-1.3,0-1.9,0
				c-156.8,0-313.5,0-470.3,0.1c-5.5,0-9.8-1.3-12.6-6.2c0-2.6,0-5.2,0-7.7c4.9-14.6,10.7-28.6,19-41.7c20.9-32.8,49.7-55.4,86.4-68
				c8.7-3,9.6-5.9,3.5-13c-3.6-4.2-8.2-6.1-13.5-6.7c-7.4-0.8-11-4.7-10.6-11.1c0.4-5.9,4.9-9.2,12-8.9c9.1,0.3,17,3.6,23.6,9.8
				c2.5,2.3,4,2.7,6.7,0.2c6.9-6.6,15.4-9.9,25-10c6.1-0.1,10.3,3.4,10.8,8.8c0.6,6.1-3,10.7-9.3,11.2c-6.7,0.6-12.1,3.2-16.1,8.5
				c-0.6,0.9-1.6,1.9-0.8,3c0.6,0.9,1.8,0.7,2.7,0.6c10.9-1.2,21.9-1.3,32.8-0.1c2.3,0.3,3.5-1.2,4.6-2.8
				c13.8-20,32.7-32.1,56.6-36.3c3.4-0.6,4.5-1.9,4.5-5.4c-0.2-16.6-0.1-33.2,0-49.8c0-3.6-0.7-4.7-4.7-4.1
				c-81.3,13.4-152-49.2-162-118.9c-2.6-17.9-1.7-35.7,2.6-53.3c1.3-5.5,4.5-8.7,9.9-10c29.8-7.2,58.9-5,87,7.3
				c26.7,11.7,47.7,30.2,64.1,54.2c0.4,0.7,1,1.3,1.5,1.9c0.1,0.1,0.3,0.1,0.5,0.1c1-1.4,0.5-3.1,0.5-4.6
				c0.1-15.2-0.2-30.3,0.1-45.5c0.3-17.1,3.9-33.6,11.2-49.1c11.8-25,32.6-38.3,58.6-44.6c6.4-1.5,12.9-2.5,19.4-3.7
				C349.5,8,358.9,8,368.3,8z M287.4,483.8c64,0,128,0,192.1,0c5.2,0,5.2,0,3.2-4.9c-5.6-13.3-13.1-25.5-22.7-36.4
				c-27.6-31.3-62.1-48.4-104-50.1c-8.7-0.4-17.4,0.2-26.1,1.1c-4.8,0.5-8.4-1.6-10.9-5.7c-1-1.7-2-3.3-3-5
				c-24.7-39.2-82.9-40.7-108.6-2.1c-6.6,10-12.9,13.4-25,12.2c-29.1-3-56.8,3.3-82.3,17.9C71.9,427,51.2,450,38.4,479.9
				c-1.3,3-1,4,2.5,3.9c7.6-0.2,15.2-0.2,22.7,0c3.7,0.1,5.5-1.3,6.8-4.7c6.1-15.8,16-29,28.6-40.2c8.2-7.4,17.5-13.2,27.6-17.6
				c5.6-2.4,11.2-0.3,13.5,4.7c2.3,4.9,0.6,10-4.6,13.2c-1.5,0.9-3.1,1.7-4.7,2.5c-16.1,8.2-28.6,20.3-37.4,36
				c-3.2,5.7-3.1,5.9,3.3,5.9C160.3,483.8,223.9,483.8,287.4,483.8z M130,108.6c-6.4,0.2-12.9,0.2-19.3,1.3
				c-3.1,0.5-4.9,1.9-5.4,5.1c-2.1,14-2.3,28,0.5,41.9c11.6,58.2,64.8,100.4,124.1,98.5c1.5,0,3.8,0.6,4.3-1.1s-1.6-2.6-2.7-3.7
				c-16-16.1-32.1-32.2-48.2-48.3c-1.4-1.4-2.8-2.7-3.9-4.3c-3-4.2-2.7-9.3,0.7-12.8c3.4-3.6,8.5-4.2,12.8-1.4
				c1.7,1.1,3.3,2.6,4.7,4.1c16.2,16.2,32.4,32.4,48.6,48.5c1,1,1.8,2.9,3.3,2.3c1.5-0.5,1.2-2.5,1.2-3.9c0.3-7.6-0.2-15.1-1.2-22.7
				C242.3,157.6,189,106.9,130,108.6z M273.7,94.8c1.2-1.1,2.3-2.2,3.5-3.3c6.8-6.8,13.6-13.7,20.5-20.5c5.6-5.6,11.7-6.1,16.1-1.6
				c4.5,4.6,3.8,10.3-1.9,16.1c-4.4,4.5-8.8,9-13.3,13.3c-3.9,3.7-8,7.3-12.6,11.5c2,0.6,2.4,0.9,2.8,0.8c2.6-0.3,5.1-0.5,7.7-0.9
				c17.2-3.1,33.1-8.9,43.9-23.7c12.2-16.6,14.9-36,15-55.9c0-2.8-1.9-2.4-3.7-2.4c-7.6,0-15.1,0.7-22.5,2.3
				c-18.3,4-34.6,11.5-45,28.1C277.2,69.6,273.6,81.6,273.7,94.8z"/>
			<path fill="#1ABC9C" d="M392,119.5c0.1-5.5,4.7-9.9,10.3-10c5.6,0,10.6,5,10.4,10.5c-0.2,5.4-5.5,10.1-11.1,10
				C396.2,129.9,392,125.3,392,119.5z"/>
			<path fill="#1ABC9C" d="M170.2,432.1c-5.6-0.1-10.2-4.6-10.1-10.1c0-5.6,4.5-9.8,10.3-9.9c5.8,0,10.3,4.3,10.4,9.8
				C180.7,427.7,176,432.2,170.2,432.1z"/>
		</g>
	</g>
	<g id="revegetalizacion_2_">
		<g display="inline">
			<path fill="#1ABC9C" d="M335.5,297.5c-7.9-12.6-27.8-37-65-41C262.2-4.2,387,27.4,387,27.4c-59,17.3-83.4,64.7-83.4,64.7
				c98.8,13.6,105.4-58.8,105.2-79.5c0-3.2-2.1-6.1-5.1-7.1C281.4-35,259,161.2,259,161.2C223.5,25.4,141.2,41.5,117.4,49.3
				c-3.8,1.3-6,5.3-5,9.2C140.1,164.4,223,136.7,223,136.7C195.1,82.8,143.9,72,143.9,72c121.2,9.5,110.9,167.3,109.5,184.1
				c-49.3,2-62,26.6-70.8,39.5c-2.1,3.1-5.6,5.1-9.4,5.4c-12.5,0.9-43.1,4.9-52.2,24.2c0,0,28.8,24.5,69.1,46
				c28.5,15.3,51.6,45.6,62.7,62.1c3.3,4.8,10.5,4.6,13.4-0.5c9.8-17.6,30-49.2,50.5-55.8c38.2-12.3,82-51.8,82-51.8
				s-26.1-24.9-51.4-21.9C342.5,303.8,338,301.5,335.5,297.5z M183.5,338.1c-7,0-12.7-5.7-12.7-12.7s5.7-12.7,12.7-12.7
				c7,0,12.7,5.7,12.7,12.7S190.5,338.1,183.5,338.1z M245.8,271.9c3.4,0,6.2,2.8,6.2,6.2c0,3.4-2.8,6.2-6.2,6.2
				c-3.4,0-6.2-2.8-6.2-6.2C239.6,274.7,242.4,271.9,245.8,271.9z M233.2,381.3c-10.3,0-18.7-8.4-18.7-18.7
				c0-10.3,8.4-18.7,18.7-18.7s18.7,8.4,18.7,18.7C251.9,372.9,243.5,381.3,233.2,381.3z M264.6,316.1c-7,0-12.7-5.7-12.7-12.7
				s5.7-12.7,12.7-12.7s12.7,5.7,12.7,12.7S271.6,316.1,264.6,316.1z M322.2,359c-10.3,0-18.7-8.4-18.7-18.7
				c0-10.3,8.4-18.7,18.7-18.7c10.3,0,18.7,8.4,18.7,18.7C340.9,350.6,332.5,359,322.2,359z M368.1,319.2c3.4,0,6.2,2.8,6.2,6.2
				c0,3.4-2.8,6.2-6.2,6.2c-3.4,0-6.2-2.8-6.2-6.2C361.9,322,364.7,319.2,368.1,319.2z"/>
			<path fill="#1ABC9C" d="M14.9,274.1c-0.1-3.4,4.2-5,6.4-2.3c9.9,12.2,29.2,41.1,41.2,92.3c16.7,71.2,72.3,75.9,94.4,80.6
				c0,0,10.3-20.7-12.4-41.7c-20.5-19-37.9-31.5-41.4-61.6c-0.4-3.5,3.8-5.7,6.4-3.3c7.2,6.5,20.8,18,44.8,35.3
				c41,29.7,94.4,45.3,95,139.7c0,0-78.8,14-163.5-62.6C22.4,388.9,15.4,302.3,14.9,274.1z"/>
			<path fill="#1ABC9C" d="M504.8,274.1c0.1-3.4-4.2-5-6.4-2.3c-9.9,12.2-29.2,41.1-41.2,92.3c-16.7,71.2-72.3,75.9-94.4,80.6
				c0,0-10.3-20.7,12.4-41.7c20.5-19,37.9-31.5,41.4-61.6c0.4-3.5-3.8-5.7-6.4-3.3c-7.2,6.5-20.8,18-44.8,35.3
				c-41,29.7-94.4,45.3-95,139.7c0,0,78.8,14,163.5-62.6C497.3,388.9,504.3,302.3,504.8,274.1z"/>
		</g>
	</g>
</g>
<g id="cercos" display="none">
	<g display="inline">
		<path fill="#FFFFFF" d="M13,380c2.8-3.4,6.4-4.5,10.8-4.4c14.2,0.2,28.5,0.1,42.7,0c1.6,0,3.3,0.5,5.3-0.7
			c-2.8-1.7-5.3-3.2-7.8-4.8c-10.7-7.3-14-21-7.7-31.8c6.5-11.2,20.1-15.6,31.6-9.3c19.3,10.6,38.3,21.7,57.3,32.9
			c4,2.4,5.8,2,8.1-2.1c8.3-14.4,25.4-18.7,36.3-7.9c6.5,6.5,12.3,11.9,21.8,12c0.8,0,1.5,0.6,2.3,1c6.9,3.7,6.8,3.7,11.3-3.1
			c5.6-8.7,13.8-12.4,23.9-11.2c10,1.3,17.9,8.6,19.6,18.7c1,5.4,3.3,6.5,8.3,6.5c81.8-0.2,163.6-0.1,245.4-0.2
			c4.5,0,8.4,0.8,11.3,4.4c0,12.9,0,25.8,0,38.6c-2.4,3.9-6.1,5.1-10.4,5.1c-38.6,0-77.2,0-115.8,0c-1.8,0-3.8-0.3-5.5-0.9
			c-3.6-1.2-5.6-4-5.5-7.7c0.1-4,2.5-6.7,6.3-7.6c1.9-0.5,4-0.3,6.1-0.3c34.2,0,68.4,0,102.6-0.1c2.2,0,5.5,1.3,6.2-1.7
			c0.9-3.9,1-8.1-0.3-12c-0.3-1-1.7-1.1-2.7-1.1c-1.5-0.1-3-0.1-4.6-0.1c-80.1,0-160.2,0-240.3,0c-1.9,0-4-0.6-6.7,1
			c12.1,5.7,21.4,15,36.2,14.2c22.5-1.2,45-0.3,67.6-0.3c1.9,0,3.8-0.1,5.6,0.2c4.1,0.8,6.6,3.5,6.8,7.7c0.2,4-2,6.8-5.9,7.9
			c-2.2,0.6-4.7,0.7-7,0.8c-16.1,0.1-32.1,0-49.8,0c3.2,2,5.1,3.1,7,4.4c11.9,7.6,15.6,21.5,8.8,33.1c-6.7,11.4-20.4,15.2-32.7,8.3
			c-19.1-10.7-38-21.6-56.8-32.7c-3.5-2.1-4.9-1.7-6.9,1.9c-6.3,11.3-16.3,16.1-27.4,13.5c-6.8-1.5-12.1-5.4-15.3-11.6
			c-1.4-2.6-3-3.6-6-3.6c-5.2,0-10.2-1.4-14.3-4.6c-3.9-3.1-5.6-1.7-7.6,2.1c-4.2,8.3-11.2,13-20.5,13.8c-12.1,1-22.8-7.1-24.8-19.3
			c-0.7-4.5-2.5-5.4-6.6-5.4c-29.5,0.1-58.9,0.1-88.4,0.1c-4.7,0-9.2-0.5-11.9-5.1C13,405.8,13,392.9,13,380z M126.2,405.7
			c-1.3-0.5-2-0.7-2.5-1.1c-12.4-8.4-25.2-15.1-41-12.4c-1.5,0.3-3,0-4.6,0c-14.7,0-29.5,0.1-44.2-0.1c-3.9,0-5.8,1.2-5.3,5.3
			c0.1,1.2,0.2,2.4,0,3.5c-0.7,4.9,1.4,6.3,6.2,6.3c28.3-0.2,56.5-0.1,84.8-0.1C121.3,407.2,123,407.6,126.2,405.7z M77,342.7
			c-2.6-0.1-4.6,1-6,3.1c-2.9,4.2-1.6,8.5,3.9,11.7c17,9.9,34,19.7,51,29.5c8.7,5,8.5,4.9,13.6-3.4c2.2-3.5,2-5.3-1.8-7.4
			c-18.3-10.3-36.4-20.9-54.6-31.4C81.2,343.6,79.3,342.5,77,342.7z M318.9,448.4c0.1-3.5-2.4-5.3-5.3-7c-17-9.8-34-19.6-50.9-29.5
			c-10.3-6-7.6-5.3-13.3,3.4c-2.5,3.9-1.6,5.7,2.2,7.8c14.6,8.2,29,16.7,43.5,25c4.1,2.4,8.1,5,12.3,7
			C313.5,458.1,319,454.9,318.9,448.4z M214.6,436.6c3.1,0,5.1-2.5,6.7-5.4c6-10.4,12-20.8,18-31.2c4.1-7.2,8.3-14.4,12.3-21.6
			c1.7-3,1.7-6.2-0.8-9c-2.2-2.5-5-2.8-7.9-2c-2.6,0.7-4,3-5.3,5.2c-5.5,9.5-11,19.1-16.5,28.6c-4.5,7.8-9.1,15.5-13.4,23.3
			C204.4,430.6,207.5,436.5,214.6,436.6z M143.5,432.3c3.5-0.4,5.8-2.6,7.5-5.5c3.5-6,6.9-12,10.4-18c6.4-11.2,12.9-22.3,19.2-33.5
			c3-5.3,1.8-10.4-2.8-11.9c-4.4-1.5-7.9,0.1-10.2,4.2c-6.6,11.6-13.4,23.2-20.1,34.8c-3.4,5.9-6.9,11.7-10.1,17.7
			C134.2,426.1,137.4,432.4,143.5,432.3z M209.9,386.5c-0.4-4-2.1-6.7-5.4-7.8c-4-1.3-7,0.7-9,3.9c-5,8.2-9.8,16.5-14.5,24.9
			c-3,5.3-2.3,9.6,1.7,12c3.9,2.4,8.3,0.9,11.3-4.3c4.9-8.3,9.7-16.6,14.4-25C209.1,389,209.5,387.5,209.9,386.5z"/>
		<path fill="#FFFFFF" d="M533.5,168.6c-3,3.5-6.8,4.5-11.4,4.4c-14.5-0.2-29-0.1-44.7-0.1c2.5,1.6,3.9,2.4,5.2,3.4
			c8.2,5.7,12.4,15.3,10.1,24.8c-2.3,9.8-7.8,16.9-18.1,19.1c-6.9,1.4-13.1-0.9-18.9-4.3c-18.1-10.3-36.2-20.7-54.1-31.3
			c-4.1-2.4-6-2.2-8.5,2.2c-10.1,17.5-32.2,17.7-42.5,0.5c-1.4-2.4-3-3.3-5.7-3.2c-5.4,0.2-10.5-1.3-14.7-4.7
			c-3.2-2.5-4.8-1.9-6.5,1.5c-4,8.1-10.4,13.2-19.6,14.4c-12,1.5-22.5-4.9-25.6-16.6c-1.3-4.8-3.4-6-8-6
			c-81.8,0.1-163.7,0.1-245.5,0.2c-4.6,0-8.7-0.7-11.9-4.4c0-12.9,0-25.8,0-38.6c2.1-3.9,5.6-5.2,9.8-5.2c29,0,57.9-0.1,86.9,0
			c6.2,0,10.1,3.5,10.1,8.5c0,4.9-3.9,8.1-10.3,8.1c-24.9,0-49.8,0.1-74.7-0.1c-4.9,0-6.9,1.4-6.2,6.3c0.2,1.2,0.1,2.4,0,3.6
			c-0.5,4.1,1.5,5.5,5.3,5.1c0.8-0.1,1.7,0,2.5,0c79.8,0,159.6,0,239.4-0.1c2.5,0,6.4,1.5,7.1-1.8c0.7-3-3.5-3.3-5.5-4.9
			c-9.1-7.1-19.5-8.6-30.9-8.4c-32,0.5-64,0.2-96,0.2c-1.7,0-3.4,0.1-5.1-0.1c-5-0.4-8.3-3.4-8.5-7.8c-0.3-4.5,2.9-8,8.1-8.7
			c1.8-0.2,3.7-0.2,5.6-0.2c25.6,0,51.2,0,76.7,0c1.8,0,3.6,0.5,5.8-0.7c-3.6-2.1-7-4-10.2-6c-10.8-6.8-14.9-19.7-9.8-30.4
			c5.5-11.6,18-17,30.3-12.2c11.4,4.5,21.3,11.8,32,17.7c9.5,5.3,18.8,10.7,28.1,16.3c3.5,2.1,5.3,1.7,7.5-2
			c7.7-13,19-16.9,31.9-11.5c4.9,2.1,8.5,5.6,10.9,10.2c1.3,2.4,2.8,3.5,5.5,3.4c6-0.4,11.4,1.6,16,5.3c2.2,1.8,3.4,1.3,4.8-0.9
			c1.5-2.5,3-4.9,4.8-7.2c6.7-8.2,15.8-10.7,26-7.4c8.9,2.9,15.6,11,16,20.8c0.2,4.5,2.4,4.8,5.8,4.8c29.6-0.1,59.3,0,88.9,0
			c4.8,0,9.2,0.5,11.8,5.2C533.5,142.8,533.5,155.7,533.5,168.6z M424,142.2c6.5,3.8,12.8,7.2,18.9,11c3.6,2.3,7.3,3.1,11.5,3.1
			c18.4-0.1,36.9-0.1,55.3-0.1c8.3,0,8.3,0,8.2-8.3c0-6.6,0-6.6-6.8-6.6c-27.4,0-54.8,0-82.2,0C427.5,141.4,425.9,140.9,424,142.2z
			 M235.9,89.8c-4.6-0.1-7.9,3-8.2,6.9c-0.3,4.4,2.3,6.7,5.8,8.7c16.6,9.5,33.1,19.2,49.8,28.6c11,6.2,8,6.7,14.6-4
			c1.8-2.8,1.2-4.5-1.6-6.1c-18.7-10.7-37.3-21.4-56-32.1C238.7,90.8,236.9,90.2,235.9,89.8z M469.5,203.8c0.6-0.2,1.6-0.3,2.5-0.7
			c2.8-1.3,4.9-3.3,5-6.5c0.1-3.8-2.3-6.1-5.4-7.9c-16.9-9.7-33.6-19.5-50.5-29.1c-11.2-6.3-7.6-6.8-14.5,4.1
			c-1.7,2.7-1.5,4.3,1.5,6c18.7,10.6,37.2,21.4,55.8,32.1C465.5,202.7,467.2,203.6,469.5,203.8z M340.1,117.2c0-3.6-1.9-5.7-4.8-6.8
			c-3.6-1.3-6.8-0.2-8.9,3c-2.9,4.4-5.4,9-8,13.5c-7.7,13.3-15.5,26.6-23.1,40c-3.3,5.9-0.9,11.9,4.9,12.5c4.2,0.5,6.5-2.1,8.4-5.3
			c9.8-17,19.6-34,29.4-50.9C339.3,121.2,340.2,119.2,340.1,117.2z M371.8,183.6c3.3,0.1,5.3-1.7,6.9-4.3c2.7-4.7,5.4-9.3,8.2-14
			c6.9-12,13.9-24,20.8-36c0.8-1.3,1.6-2.6,2.1-4c1.4-4.1,1-7.7-3.1-10.1c-3.4-2-7.5-0.9-10,3.1c-4.2,6.8-8.1,13.7-12,20.6
			c-6.4,11-12.8,21.9-19,33C362.2,177.6,365.5,183.6,371.8,183.6z M344.9,168c1.7-0.3,4-0.9,5.2-2.9c5.8-9.7,11.6-19.4,17-29.3
			c1.8-3.4,0.5-7.2-3.3-9c-3.5-1.7-7.4-1.5-9.5,1.9c-5.8,9.5-11.4,19.1-16.7,28.9C335.1,162.3,339.1,167.9,344.9,168z"/>
		<path fill="#FFFFFF" d="M533.5,292.6c-2.6,3.9-6.3,4.5-10.6,4.5c-40.6-0.1-81.3,0-121.9,0c-1.8,0-3.7,0-6.9,0
			c3.5,2.1,5.9,3.5,8.2,4.9c11.4,7.1,15.3,20.9,9.1,32.2c-6.1,11.1-21,15.7-32.6,9.3c-17-9.4-33.8-19.4-50.7-29.1
			c-0.3-0.2-0.6-0.4-0.9-0.5c-3.1-1.7-6.3-4.7-9.4-4.6c-3.3,0-3.9,5-5.9,7.6c-10.8,13.8-31.5,12.6-40.2-2.6
			c-1.4-2.5-2.7-3.6-5.8-3.5c-5.7,0.1-11.1-1.8-15.6-5.3c-2.6-2-3.9-1.6-5.3,1.2c-3.4,7.2-8.7,12.4-16.6,14.6
			c-13.4,3.8-26.8-3.8-29.4-17.5c-1.1-5.6-3.3-6.8-8.6-6.8c-55.6,0.2-111.1,0.1-166.7,0.2c-4.3,0-8.1-0.6-10.6-4.5
			c0-12.9,0-25.8,0-38.6c2.5-4,6.3-4.5,10.6-4.5c40.5,0.1,81,0.1,121.5,0c1.8,0,3.7,0.5,5.9-0.6c-2.7-1.6-5.1-3-7.5-4.5
			c-11.7-7.6-15.1-21-8.3-32.8c6.4-11,20.6-15,32.3-8.4c19.1,10.7,37.9,21.7,56.8,32.8c3.6,2.1,5.5,2,7.4-1.9
			c9.2-19.3,35.6-17.9,43.5-0.3c0.9,1.9,2.1,2.2,4,2.2c6.3-0.2,12.1,1.3,17,5.5c2,1.8,3.3,1.7,4.7-0.8c1.9-3.6,3.9-7.1,7-9.9
			c7.1-6.4,15.2-8.1,24.1-5c8.9,3.1,14.5,9.6,15.6,19c0.5,4.5,2.3,5.1,6.1,5.1c27.4-0.1,54.9-0.1,82.3-0.1c1.9,0,3.8-0.1,5.6,0.2
			c4.3,0.6,6.7,3.3,6.8,7.6c0.1,4.3-2.3,7-6.4,8c-1.8,0.4-3.7,0.2-5.6,0.2c-29.5,0-59,0-88.4,0c-1.8,0-3.6,0-6.4,0
			c3.3,4,7.2,5,10.1,7.2c9.4,7.1,19.8,8.7,31.4,8.5c42.7-0.5,85.4-0.2,128.1-0.2c6.7,0,6.7,0,6.7-6.7c0-1.4-0.1-2.7,0-4.1
			c0.4-3.9-1.4-4.9-5.1-4.9c-11.7,0.2-23.4,0.1-35.1,0.1c-1.5,0-3.1,0.1-4.6-0.1c-4.5-0.4-7.8-3.8-7.8-7.9c0-4.3,3.4-7.9,8.2-7.9
			c11-0.2,22-0.1,33-0.1c5.8,0,11.5,0.1,17.3,0c4.1-0.1,7.3,1.1,9.6,4.5C533.5,266.8,533.5,279.7,533.5,292.6z M203.7,281.1
			c0.2-0.5,0.4-1.1,0.6-1.6c-6.2-3.6-12.6-7.1-18.7-10.9c-3.8-2.3-7.6-3.2-12-3.2c-45.9,0.1-91.8,0.1-137.7,0.1
			c-1.2,0-2.4,0.1-3.6,0c-2.5-0.1-3.8,0.9-3.7,3.6c0.1,1.5,0,3,0,4.6c0,7.4,0,7.4,7.5,7.4c54,0,108.1,0,162.1,0
			C200.1,281.1,201.9,281.1,203.7,281.1z M397.9,322.8c-0.2-3.8-2.5-6-5.7-7.8c-16.7-9.6-33.4-19.3-50.1-29
			c-9.6-5.5-9.4-5.4-14.8,4.2c-1.7,3.1-0.9,4.4,1.8,5.9c6.8,3.8,13.5,7.8,20.3,11.6c11.9,6.9,23.7,13.8,35.7,20.5
			C391.3,331.9,397.9,329,397.9,322.8z M148.5,224c-0.2,4,2.9,6,6.2,7.9c16.3,9.4,32.5,18.9,48.9,28.1c11,6.3,8.2,7.8,15.7-4.6
			c1.5-2.4,0.8-3.5-1.5-4.7c-5-2.8-10-5.7-15-8.6c-13.8-8-27.6-15.9-41.4-23.8C155,214.6,148.7,217.2,148.5,224z M331.7,247.8
			c-0.6-3.1-1.9-5.9-5.3-6.7c-4.1-1-7.3,0.3-9.4,4.1c-6.2,10.9-12.5,21.7-18.8,32.5c-4,6.9-8.1,13.7-11.8,20.7
			c-2.4,4.5-1.4,8.3,2.3,10.6c4,2.5,8.3,1.1,11.3-4.1c9.9-17,19.7-34,29.5-51C330.6,252.1,331.5,250.1,331.7,247.8z M260.9,243.8
			c0.2-2.8-0.8-4.9-3.3-6.3c-2.6-1.5-5.1-1.5-7.7,0.1c-1.9,1.2-3.2,3-4.3,4.9c-9.7,16.8-19.5,33.6-29.1,50.5
			c-3,5.2-2.2,9.7,1.9,11.9c4,2.2,8.3,0.6,11.3-4.5c9.7-16.6,19.3-33.3,28.9-50C259.8,248.3,261,246.3,260.9,243.8z M288.3,259.8
			c0-3.8-1.7-6.2-4.9-7.2c-4.1-1.3-7.3,0.3-9.5,4c-5,8.4-9.9,16.9-14.7,25.5c-2.6,4.7-1.6,9.2,2.3,11.4c4,2.3,8,0.9,10.9-4.1
			c4.8-8.1,9.4-16.4,14.2-24.6C287.6,263.1,288.4,261.5,288.3,259.8z"/>
	</g>
</g>
<g id="Layer_9" display="none">
	
		<image display="inline" overflow="visible" width="1300" height="459" xlink:href="8A4FE580.jpg"  transform="matrix(1 0 0 1 -337 579.09)">
	</image>
	<g display="inline">
		<path fill="#FFFFFF" d="M868.7,873.1L605.3,600.5c-1.3-1.3-3-2.1-4.9-2.1H140c-1.7,0-3.4,0.7-4.7,1.9l-288.9,273
			c-1.3,1.2-2.9,1.9-4.7,1.9h-80.2c-3.7,0-6.8,3-6.8,6.8v0c0,3.7,3,6.8,6.8,6.8H923.5c3.7,0,6.8-3,6.8-6.8v0c0-3.7-3-6.8-6.8-6.8
			h-49.9C871.8,875.2,870,874.4,868.7,873.1z M148.3,616h448c1.8,0,3.6,0.7,4.9,2.1l237.3,245.6c4.2,4.3,1.1,11.5-4.9,11.5h-945.2
			c-6.1,0-9.1-7.5-4.7-11.7l259.8-245.6C144.9,616.7,146.6,616,148.3,616z"/>
		
			<line fill="none" stroke="#FFFFFF" stroke-width="4" stroke-linecap="round" stroke-linejoin="round" stroke-miterlimit="10" x1="-323.7" y1="907.1" x2="-301.1" y2="925.8"/>
		
			<line fill="none" stroke="#FFFFFF" stroke-width="4" stroke-linecap="round" stroke-linejoin="round" stroke-miterlimit="10" x1="-323.7" y1="891.1" x2="-274.4" y2="931.1"/>
		
			<line fill="none" stroke="#FFFFFF" stroke-width="4" stroke-linecap="round" stroke-linejoin="round" stroke-miterlimit="10" x1="-305.5" y1="891.1" x2="-256.2" y2="931.1"/>
		
			<line fill="none" stroke="#FFFFFF" stroke-width="4" stroke-linecap="round" stroke-linejoin="round" stroke-miterlimit="10" x1="-286.4" y1="891.1" x2="-237" y2="931.1"/>
		
			<line fill="none" stroke="#FFFFFF" stroke-width="4" stroke-linecap="round" stroke-linejoin="round" stroke-miterlimit="10" x1="-264.1" y1="896.4" x2="-214.8" y2="936.4"/>
		
			<line fill="none" stroke="#FFFFFF" stroke-width="4" stroke-linecap="round" stroke-linejoin="round" stroke-miterlimit="10" x1="-243.8" y1="899.2" x2="-194.5" y2="939.2"/>
		
			<line fill="none" stroke="#FFFFFF" stroke-width="4" stroke-linecap="round" stroke-linejoin="round" stroke-miterlimit="10" x1="-227.8" y1="899.2" x2="-178.5" y2="939.2"/>
		
			<line fill="none" stroke="#FFFFFF" stroke-width="4" stroke-linecap="round" stroke-linejoin="round" stroke-miterlimit="10" x1="-206.3" y1="902" x2="-157" y2="942"/>
		
			<line fill="none" stroke="#FFFFFF" stroke-width="4" stroke-linecap="round" stroke-linejoin="round" stroke-miterlimit="10" x1="-189.6" y1="904" x2="-140.3" y2="944"/>
		
			<line fill="none" stroke="#FFFFFF" stroke-width="4" stroke-linecap="round" stroke-linejoin="round" stroke-miterlimit="10" x1="-171.8" y1="904" x2="-122.5" y2="944"/>
		
			<line fill="none" stroke="#FFFFFF" stroke-width="4" stroke-linecap="round" stroke-linejoin="round" stroke-miterlimit="10" x1="-165" y1="894.3" x2="-115.6" y2="934.3"/>
		
			<line fill="none" stroke="#FFFFFF" stroke-width="4" stroke-linecap="round" stroke-linejoin="round" stroke-miterlimit="10" x1="-150.7" y1="894.3" x2="-101.3" y2="934.3"/>
		
			<line fill="none" stroke="#FFFFFF" stroke-width="4" stroke-linecap="round" stroke-linejoin="round" stroke-miterlimit="10" x1="-127.6" y1="896.4" x2="-78.3" y2="936.4"/>
		
			<line fill="none" stroke="#FFFFFF" stroke-width="4" stroke-linecap="round" stroke-linejoin="round" stroke-miterlimit="10" x1="-115.6" y1="894.3" x2="-66.3" y2="934.3"/>
		
			<line fill="none" stroke="#FFFFFF" stroke-width="4" stroke-linecap="round" stroke-linejoin="round" stroke-miterlimit="10" x1="-89.3" y1="900.6" x2="-40" y2="940.6"/>
		
			<line fill="none" stroke="#FFFFFF" stroke-width="4" stroke-linecap="round" stroke-linejoin="round" stroke-miterlimit="10" x1="-78.3" y1="896.4" x2="-29" y2="936.4"/>
		
			<line fill="none" stroke="#FFFFFF" stroke-width="4" stroke-linecap="round" stroke-linejoin="round" stroke-miterlimit="10" x1="-60.9" y1="896.4" x2="-11.6" y2="936.4"/>
		
			<line fill="none" stroke="#FFFFFF" stroke-width="4" stroke-linecap="round" stroke-linejoin="round" stroke-miterlimit="10" x1="-44.3" y1="894.3" x2="5" y2="934.3"/>
		
			<line fill="none" stroke="#FFFFFF" stroke-width="4" stroke-linecap="round" stroke-linejoin="round" stroke-miterlimit="10" x1="-31.9" y1="891.1" x2="17.4" y2="931.1"/>
		
			<line fill="none" stroke="#FFFFFF" stroke-width="4" stroke-linecap="round" stroke-linejoin="round" stroke-miterlimit="10" x1="-9.7" y1="894.3" x2="39.6" y2="934.3"/>
		
			<line fill="none" stroke="#FFFFFF" stroke-width="4" stroke-linecap="round" stroke-linejoin="round" stroke-miterlimit="10" x1="6.4" y1="894.3" x2="55.7" y2="934.3"/>
		
			<line fill="none" stroke="#FFFFFF" stroke-width="4" stroke-linecap="round" stroke-linejoin="round" stroke-miterlimit="10" x1="24.1" y1="894.3" x2="73.5" y2="934.3"/>
		
			<line fill="none" stroke="#FFFFFF" stroke-width="4" stroke-linecap="round" stroke-linejoin="round" stroke-miterlimit="10" x1="39.6" y1="892.7" x2="89" y2="932.7"/>
		
			<line fill="none" stroke="#FFFFFF" stroke-width="4" stroke-linecap="round" stroke-linejoin="round" stroke-miterlimit="10" x1="55.7" y1="892.7" x2="105.1" y2="932.7"/>
		
			<line fill="none" stroke="#FFFFFF" stroke-width="4" stroke-linecap="round" stroke-linejoin="round" stroke-miterlimit="10" x1="70.5" y1="892.7" x2="119.8" y2="932.7"/>
		
			<line fill="none" stroke="#FFFFFF" stroke-width="4" stroke-linecap="round" stroke-linejoin="round" stroke-miterlimit="10" x1="87" y1="892.7" x2="136.4" y2="932.7"/>
		
			<line fill="none" stroke="#FFFFFF" stroke-width="4" stroke-linecap="round" stroke-linejoin="round" stroke-miterlimit="10" x1="106.5" y1="894.3" x2="155.8" y2="934.3"/>
		
			<line fill="none" stroke="#FFFFFF" stroke-width="4" stroke-linecap="round" stroke-linejoin="round" stroke-miterlimit="10" x1="119.8" y1="888.7" x2="169.1" y2="928.7"/>
		
			<line fill="none" stroke="#FFFFFF" stroke-width="4" stroke-linecap="round" stroke-linejoin="round" stroke-miterlimit="10" x1="147.9" y1="897.7" x2="197.2" y2="937.7"/>
		
			<line fill="none" stroke="#FFFFFF" stroke-width="4" stroke-linecap="round" stroke-linejoin="round" stroke-miterlimit="10" x1="167.2" y1="897.7" x2="216.5" y2="937.7"/>
		
			<line fill="none" stroke="#FFFFFF" stroke-width="4" stroke-linecap="round" stroke-linejoin="round" stroke-miterlimit="10" x1="177.7" y1="894.3" x2="227" y2="934.3"/>
		
			<line fill="none" stroke="#FFFFFF" stroke-width="4" stroke-linecap="round" stroke-linejoin="round" stroke-miterlimit="10" x1="197.2" y1="896.2" x2="246.5" y2="936.2"/>
		
			<line fill="none" stroke="#FFFFFF" stroke-width="4" stroke-linecap="round" stroke-linejoin="round" stroke-miterlimit="10" x1="213.4" y1="896.2" x2="262.8" y2="936.2"/>
		
			<line fill="none" stroke="#FFFFFF" stroke-width="4" stroke-linecap="round" stroke-linejoin="round" stroke-miterlimit="10" x1="231.5" y1="897.7" x2="280.9" y2="937.7"/>
		
			<line fill="none" stroke="#FFFFFF" stroke-width="4" stroke-linecap="round" stroke-linejoin="round" stroke-miterlimit="10" x1="249.6" y1="897.7" x2="299" y2="937.7"/>
		
			<line fill="none" stroke="#FFFFFF" stroke-width="4" stroke-linecap="round" stroke-linejoin="round" stroke-miterlimit="10" x1="259.1" y1="892.7" x2="308.4" y2="932.7"/>
		
			<line fill="none" stroke="#FFFFFF" stroke-width="4" stroke-linecap="round" stroke-linejoin="round" stroke-miterlimit="10" x1="272.1" y1="888.7" x2="321.5" y2="928.7"/>
		
			<line fill="none" stroke="#FFFFFF" stroke-width="4" stroke-linecap="round" stroke-linejoin="round" stroke-miterlimit="10" x1="300.5" y1="899.1" x2="349.8" y2="939.1"/>
		
			<line fill="none" stroke="#FFFFFF" stroke-width="4" stroke-linecap="round" stroke-linejoin="round" stroke-miterlimit="10" x1="313" y1="896.2" x2="362.3" y2="936.2"/>
		
			<line fill="none" stroke="#FFFFFF" stroke-width="4" stroke-linecap="round" stroke-linejoin="round" stroke-miterlimit="10" x1="325.2" y1="891.1" x2="374.5" y2="931.1"/>
		
			<line fill="none" stroke="#FFFFFF" stroke-width="4" stroke-linecap="round" stroke-linejoin="round" stroke-miterlimit="10" x1="344.3" y1="891.1" x2="393.7" y2="931.1"/>
		
			<line fill="none" stroke="#FFFFFF" stroke-width="4" stroke-linecap="round" stroke-linejoin="round" stroke-miterlimit="10" x1="366.6" y1="896.4" x2="415.9" y2="936.4"/>
		
			<line fill="none" stroke="#FFFFFF" stroke-width="4" stroke-linecap="round" stroke-linejoin="round" stroke-miterlimit="10" x1="386.9" y1="899.2" x2="436.2" y2="939.2"/>
		
			<line fill="none" stroke="#FFFFFF" stroke-width="4" stroke-linecap="round" stroke-linejoin="round" stroke-miterlimit="10" x1="402.9" y1="899.2" x2="452.2" y2="939.2"/>
		
			<line fill="none" stroke="#FFFFFF" stroke-width="4" stroke-linecap="round" stroke-linejoin="round" stroke-miterlimit="10" x1="424.4" y1="902" x2="473.7" y2="942"/>
		
			<line fill="none" stroke="#FFFFFF" stroke-width="4" stroke-linecap="round" stroke-linejoin="round" stroke-miterlimit="10" x1="441.1" y1="904" x2="490.4" y2="944"/>
		
			<line fill="none" stroke="#FFFFFF" stroke-width="4" stroke-linecap="round" stroke-linejoin="round" stroke-miterlimit="10" x1="458.9" y1="904" x2="508.2" y2="944"/>
		
			<line fill="none" stroke="#FFFFFF" stroke-width="4" stroke-linecap="round" stroke-linejoin="round" stroke-miterlimit="10" x1="465.7" y1="894.3" x2="515.1" y2="934.3"/>
		
			<line fill="none" stroke="#FFFFFF" stroke-width="4" stroke-linecap="round" stroke-linejoin="round" stroke-miterlimit="10" x1="480" y1="894.3" x2="529.4" y2="934.3"/>
		
			<line fill="none" stroke="#FFFFFF" stroke-width="4" stroke-linecap="round" stroke-linejoin="round" stroke-miterlimit="10" x1="503.1" y1="896.4" x2="552.4" y2="936.4"/>
		
			<line fill="none" stroke="#FFFFFF" stroke-width="4" stroke-linecap="round" stroke-linejoin="round" stroke-miterlimit="10" x1="515.1" y1="894.3" x2="564.4" y2="934.3"/>
		
			<line fill="none" stroke="#FFFFFF" stroke-width="4" stroke-linecap="round" stroke-linejoin="round" stroke-miterlimit="10" x1="541.4" y1="900.6" x2="590.7" y2="940.6"/>
		
			<line fill="none" stroke="#FFFFFF" stroke-width="4" stroke-linecap="round" stroke-linejoin="round" stroke-miterlimit="10" x1="552.4" y1="896.4" x2="601.7" y2="936.4"/>
		
			<line fill="none" stroke="#FFFFFF" stroke-width="4" stroke-linecap="round" stroke-linejoin="round" stroke-miterlimit="10" x1="569.8" y1="896.4" x2="619.1" y2="936.4"/>
		
			<line fill="none" stroke="#FFFFFF" stroke-width="4" stroke-linecap="round" stroke-linejoin="round" stroke-miterlimit="10" x1="586.4" y1="894.3" x2="635.7" y2="934.3"/>
		
			<line fill="none" stroke="#FFFFFF" stroke-width="4" stroke-linecap="round" stroke-linejoin="round" stroke-miterlimit="10" x1="598.8" y1="891.1" x2="648.1" y2="931.1"/>
		
			<line fill="none" stroke="#FFFFFF" stroke-width="4" stroke-linecap="round" stroke-linejoin="round" stroke-miterlimit="10" x1="621" y1="894.3" x2="670.3" y2="934.3"/>
		
			<line fill="none" stroke="#FFFFFF" stroke-width="4" stroke-linecap="round" stroke-linejoin="round" stroke-miterlimit="10" x1="637.1" y1="894.3" x2="686.4" y2="934.3"/>
		
			<line fill="none" stroke="#FFFFFF" stroke-width="4" stroke-linecap="round" stroke-linejoin="round" stroke-miterlimit="10" x1="654.8" y1="894.3" x2="704.2" y2="934.3"/>
		
			<line fill="none" stroke="#FFFFFF" stroke-width="4" stroke-linecap="round" stroke-linejoin="round" stroke-miterlimit="10" x1="670.3" y1="892.7" x2="719.7" y2="932.7"/>
		
			<line fill="none" stroke="#FFFFFF" stroke-width="4" stroke-linecap="round" stroke-linejoin="round" stroke-miterlimit="10" x1="686.4" y1="892.7" x2="735.8" y2="932.7"/>
		
			<line fill="none" stroke="#FFFFFF" stroke-width="4" stroke-linecap="round" stroke-linejoin="round" stroke-miterlimit="10" x1="701.2" y1="892.7" x2="750.5" y2="932.7"/>
		
			<line fill="none" stroke="#FFFFFF" stroke-width="4" stroke-linecap="round" stroke-linejoin="round" stroke-miterlimit="10" x1="717.7" y1="892.7" x2="767.1" y2="932.7"/>
		
			<line fill="none" stroke="#FFFFFF" stroke-width="4" stroke-linecap="round" stroke-linejoin="round" stroke-miterlimit="10" x1="737.2" y1="894.3" x2="786.5" y2="934.3"/>
		
			<line fill="none" stroke="#FFFFFF" stroke-width="4" stroke-linecap="round" stroke-linejoin="round" stroke-miterlimit="10" x1="750.5" y1="888.7" x2="799.8" y2="928.7"/>
		
			<line fill="none" stroke="#FFFFFF" stroke-width="4" stroke-linecap="round" stroke-linejoin="round" stroke-miterlimit="10" x1="778.6" y1="897.7" x2="827.9" y2="937.7"/>
		
			<line fill="none" stroke="#FFFFFF" stroke-width="4" stroke-linecap="round" stroke-linejoin="round" stroke-miterlimit="10" x1="797.9" y1="897.7" x2="847.2" y2="937.7"/>
		
			<line fill="none" stroke="#FFFFFF" stroke-width="4" stroke-linecap="round" stroke-linejoin="round" stroke-miterlimit="10" x1="808.4" y1="894.3" x2="857.8" y2="934.3"/>
		
			<line fill="none" stroke="#FFFFFF" stroke-width="4" stroke-linecap="round" stroke-linejoin="round" stroke-miterlimit="10" x1="827.9" y1="896.2" x2="877.2" y2="936.2"/>
		
			<line fill="none" stroke="#FFFFFF" stroke-width="4" stroke-linecap="round" stroke-linejoin="round" stroke-miterlimit="10" x1="844.1" y1="896.2" x2="893.5" y2="936.2"/>
		
			<line fill="none" stroke="#FFFFFF" stroke-width="4" stroke-linecap="round" stroke-linejoin="round" stroke-miterlimit="10" x1="862.2" y1="897.7" x2="911.6" y2="937.7"/>
		
			<line fill="none" stroke="#FFFFFF" stroke-width="4" stroke-linecap="round" stroke-linejoin="round" stroke-miterlimit="10" x1="880.3" y1="897.7" x2="934" y2="941.2"/>
		
			<line fill="none" stroke="#FFFFFF" stroke-width="4" stroke-linecap="round" stroke-linejoin="round" stroke-miterlimit="10" x1="889.8" y1="892.7" x2="946.3" y2="937.7"/>
		
			<line fill="none" stroke="#FFFFFF" stroke-width="4" stroke-linecap="round" stroke-linejoin="round" stroke-miterlimit="10" x1="905.6" y1="888.7" x2="954.9" y2="928.7"/>
	</g>
</g>
<g id="Layer_10">
	<g>
		<path fill="#FFFFFF" d="M345.5,13.9c8.2,5.1,16.8,9.9,21.8,18.8c2.4,4.2,4.9,8.5,6.6,13c3.7,10.2,9.8,18.3,19.5,23.2
			c2.1,1.1,5.1,1.3,7.6,0.9c8.2-1.4,16.3-3.2,24.5-4.8c5.7-1.1,5.7-1.1,6.7-7.6c25.6,1.5,51.4,2.9,77.5,4.4
			c-4.2,17.2-8.3,33.9-12.4,50.5c-3.9,16-8.3,31.9-11.7,48c-1.8,8.8-2,17.9-2.6,26.9c-1.3,17.7-1.5,35.5-3.9,53
			c-1.8,13.6-6,26.9-9.6,40.2c-8.1,30.1-16.6,60-24.8,90.1c-0.8,2.9-1.1,5.9-1.2,8.9c-0.2,15.1-0.9,30.2-0.2,45.2
			c0.4,8.9,2.7,17.8,4.3,26.6c2.4,12.7,5.1,25.3,8,38c2.3-12.1,5.3-24,11.4-34.7c0.5,0.1,1,0.2,1.4,0.4c-3.5,12-7,24-10.4,35.9
			c0.6,0.3,1.3,0.5,1.9,0.8c8.8-16.7,19.7-31.3,36.7-40.3c0.4,0.4,0.8,0.8,1.3,1.2c-1,1.1-1.9,2.3-3.2,3.1
			c-14.8,9.5-25.1,22.8-32.5,38.5c-0.3,0.7-0.5,1.5-1.1,3.5c9.9-8.1,19.1-15.1,30.5-18.1c0.3,0.6,0.7,1.1,1,1.7
			c-4.7,2.4-9.5,4.6-14,7.3c-4.7,2.8-9,6.3-13.2,9.3c8.8,10.4,20.3,14.7,32.8,16.9c12,2.1,23.3,5.8,31.7,15.9
			c-106.8,0-213.5,0-321.1,0c4.7-3.9,8.4-7.8,14.6-8.3c10.4-0.9,20.8-2,31.1-3.6c4.9-0.8,9.7-2.8,14.7-4.3
			c-6-24.6-11.7-48.3-17.5-72c-0.3-1.2-1.2-2.8-2.2-3.3c-18.8-9-37.6-17.9-56.7-27c0,6.7-0.1,12.7,0,18.8c0.1,3.4,0.4,6.7,0.6,10.1
			c0.5,6.7-1.9,12.1-7,16.4c-24.8,20.9-49.5,42-74.3,62.8c-8.7,7.3-19.3,6.5-26-1.5c-6.6-7.9-5.3-18.4,3.4-25.8
			c21.5-18.3,43-36.5,64.5-54.6c2.4-2,3.4-4,3.2-7.2c-0.9-14-1.9-27.9-2.2-41.9c-0.1-4.8,0.9-9.9,2.6-14.4
			c4.5-11.7,9.7-23.2,14.7-34.9c15,4.2,30.3,5.1,45.4,3.1c14.8-2,29.3-5.8,44-8.8c-8,19.1-16.4,39-25,59.4
			c10.8,5.1,21.2,10.5,31.9,15c9.4,3.9,14.3,10.4,16.5,20.3c5.3,24,11.5,47.8,17.5,72.5c10.4-1.7,21-2.3,30.8-5.3
			c9.4-2.9,18.5-7.4,25.3-15c1.8-2,3.5-4.9,3.8-7.4c1.8-20.5,2.8-41,4.8-61.5c0.9-8.9,3.3-17.7,5-26.8c9.8-1.1,19.3-2.2,28.8-3
			c3.8-0.3,5.4-2,5.1-6.4c-9.3-3.8-18.9-7.6-29.2-11.8c1.7-8.2,3.5-16.5,5.1-24.7c4-20.7,14.7-39,21.3-58.8
			c6.8-20.3,13.5-40.6,19-61.3c2.2-8.2,1-17.3,1.2-25.9c0.8-25.7,1.5-51.4,2.2-77.1c0-0.7-0.1-1.4-0.2-2c-6.2-2.3-19,2.1-21.3,7.4
			c-0.6,1.3-0.3,3.1-0.3,4.7c0,36.2,0,72.3,0,108.5c0,2-0.2,4-1.1,6c-3-5.1-1.6-10.6-1.8-15.9c-0.3-5.5-0.1-11-0.1-16.5
			c0-5.7,0-11.3,0-17c0-5.5,0-11,0-16.5c0-5.7,0-11.3,0-17c0-5.5,0-11,0-16.5c0-5.6,0-11.2,0-17c-4.5,0.6-4.6,3.3-4.6,6.3
			c0.1,22,0,44,0,65.9c0,1.8-0.3,3.6-1.3,5.3c-2.6-7.7-1.5-15.7-1.7-23.5c-0.2-8.1,0-16.3,0-24.5c0-8.1,0-16.1,0-25.1
			c-2.4,1.5-4.2,2.3-5.6,3.5c-6.4,5.5-13.6,8.5-22.2,8.8c-1.6,0.1-3.1,2.1-4.6,3.2c-0.1,0.1-0.2,0.3-0.3,0.5
			c-4.1,13.8-14.7,22.1-25.6,30.1c-1.4,1-3.1,1.9-4.8,2.1c-6.2,0.8-12.4,1.3-18.5,1.9c-0.1-0.6-0.2-1.2-0.3-1.8
			c3.6-0.9,7.2-1.9,10.8-2.8c16.5-3.9,26.7-14.4,30-30.4c-13.4-0.9-26.9-2-40.3-2.8c-4.5-0.3-5.6-2-3.9-6.6
			c6.3,0.5,12.7,0.5,18.8,1.8c12.1,2.6,23.5-1.1,35.2-2.8c6.4-0.9,11.6-3.6,16.4-7.8c6.2-5.5,12.8-10.6,20.2-16.7
			c-10.2-1.8-19.3-2.6-28-5.1c-20.8-6-41.1-1.1-61.5,1.6c-17.7,2.4-35.3,4.6-52.5,10.4c-6.1,2.1-14.3-2.1-21.5-3.6
			c-0.5-0.1-0.6-1.7-1-2.9c10.1-1.1,20.6,3.8,29.7-3.9c-13.3-7.5-26.5-14.9-40.9-23c0,21,0,40.8,0,60.6c-0.6,0.1-1.2,0.1-1.8,0.2
			c-0.3-1.9-0.8-3.7-0.8-5.6c-0.1-17.4,0-34.7-0.1-52.1c0-2-1.1-4-1.6-5.9c-0.7,0.1-1.5,0.3-2.2,0.4c0,11.9,0,23.9,0,35.8
			c-0.6,0-1.2,0.1-1.8,0.1c-0.3-1.7-0.8-3.4-0.8-5.1c-0.1-9,0-18.1,0-27.1c0-7.4-4.4-11.5-11.9-10.8c-16.1,1.4-32.1,2.8-48.2,4.2
			c-2.4,0.2-4.9,0.3-7.8,0.5c-0.3-3.7-0.6-7-1-11c8.9-1,17.4-2,26-2.9c8.6-1,17.2-2,25.9-2.8c3.1-0.3,6.4-0.2,9.4,0.6
			c23.5,6.1,46.8,12.5,70.3,18.7c3.5,0.9,7.3,1.3,11,1.4c16.8,0.1,33.7,0.1,50.5,0.1c0.2-0.6,0.4-1.2,0.6-1.8c-2-1.4-4.1-2.7-6-4.3
			c-13.4-11.1-28.7-17.4-46.1-19.6c-10.6-1.3-21-4.2-32.3-6.5c4.9-3.7,8.9-6.2,15-5.2c14,2.1,28.2,3.1,42.2,5c3.5,0.5,7.1,2,10,4.1
			c10.6,7.4,20.8,15.4,31.4,22.8c1.9,1.3,4.8,1.8,7.1,1.5c5-0.6,9.9-1.9,16.1-3.1c-5.4-3.8-9.6-7-14.1-9.7c-4-2.4-6.9-5.5-8-10
			c-3.1-13.2-11-21.5-24.2-24.8c-2.9-0.7-5.5-2.4-8.6-3.7c0.7-1.7,1.3-3.2,2.1-5.1c8.6,3.3,16.8,6.4,24.9,9.8
			c1.4,0.6,2.7,2.2,3.5,3.7c2.1,3.9,4.2,7.9,5.6,12c1.9,6.1,6.9,7.8,12.5,10.1c-2.8-9.3-3-18.6-9.2-26.3c-3-3.7-6.2-6.8-10.6-8.2
			c-4.5-1.4-6.1-4.2-5.5-8.6C344.8,13.9,345.2,13.9,345.5,13.9z M381.9,391c0.1,0.6,0.2,1.2,0.3,1.7c5.8,3.8,6.4,3.6,8.8-3.6
			C387.4,389.9,384.6,390.5,381.9,391z M413.5,386.2c-3.7,0.3-7.3,0.7-11,1c0,0.6,0.1,1.1,0.1,1.7C406.3,389,410,392.3,413.5,386.2z
			"/>
		<path fill="#FFFFFF" d="M115.6,257.7c-3.8-3.2-6.6-6.1-10-8.3c-6.1-4-7.9-9.2-5.6-15.9c0.6-1.9,0.5-4.4-0.2-6.3
			c-8.8-23.3-17.8-46.6-26.7-69.9c-0.4-1.1-0.8-2.3-1.4-4.3c3.9-1.6,7.7-3.2,12-5.1c1.9,5.2,3.6,10.2,5.4,15.1
			c7,18.9,14.2,37.7,21.1,56.7c1.7,4.7,4.4,7.7,9,10.2c29.8,15.6,59.4,31.6,89.1,47.4c2.5,1.3,5,2.7,7.6,3.8
			c8,3.2,14.9,6.8,20.3,14.7c7.6,11.1,19.7,15.2,33.3,13c4-0.6,5.1,0.9,5.7,4.1c0.9,5.4-1.6,10.2-7.2,12.9
			c-24.2,11.6-49.6,15.8-76.4,14.1c-12-0.7-20.7-5.5-28.7-14.4c-14.3-16-29.5-31.1-44.4-46.5c-4-4.2-6-8.8-3.5-14.4
			c3.5-7.9,13.3-9.4,19.8-2.7c14.7,15.1,29.5,30.1,43.8,45.7c5.3,5.7,10.7,9.3,18.7,8.8c11.2-0.7,22.5-1.2,33.7-1.7
			c0-1,0.1-1.9,0.1-2.9c-1.4-0.3-2.9-0.8-4.3-0.7c-11.5,0.5-22.9,1.3-34.4,1.4c-6.8,0.1-7.7-2-5.1-8.2c1.2-2.9,2.5-5.9,3.9-9.3
			c-9-4.8-17.7-9.8-26.7-14.2c-9.5-4.6-17.7-10.7-24.8-18.7C131.2,252.5,125.7,252,115.6,257.7z"/>
		<path fill="#FFFFFF" d="M263.9,239.3c18.6-0.1,33.6,14.8,33.6,33.3c0,18.2-14.9,33.1-33.1,33.3c-18.3,0.2-33.6-15-33.6-33.4
			C230.8,254.3,245.7,239.4,263.9,239.3z"/>
		<path fill="#FFFFFF" d="M72.7,114.4c3.8,6.2,7.1,11.1,9.8,16.3c3.7,7.1,1.4,12-5.7,15.3c-5.2,2.4-10,4-15.5,0.7
			c-2.9-1.7-5.3,0.1-7,2.9c-4.7,7.5-9.5,14.9-14.5,22.9c-8.9-6.9-14.6-15.5-16.2-26.4c-0.2-1.2,1.7-3.3,3-4
			c11.1-5.8,22.4-11.3,33.7-16.9C59.8,116.7,68.3,119.4,72.7,114.4z"/>
		<path fill="#FFFFFF" d="M167.5,83.4c-2.9,3.4-5.8,6.9-8.7,10.3c0.3,0.3,0.6,0.6,0.8,0.9c3.3-2.9,6.7-5.8,10-8.7
			c3.8,6.5-5.9,15.5-19.6,17.9C150.8,91.2,160.2,80.3,167.5,83.4z"/>
		<path fill="#FFFFFF" d="M268.3,62.9c-5.1,0-9.6,0-14.1,0c0,0.3-0.1,0.7-0.1,1c4.4,0.6,8.9,1.3,13.3,1.9c-3.3,7.1-15.2,5.6-26.4-3
			C250.6,55.4,264,55,268.3,62.9z"/>
		<path fill="#FFFFFF" d="M326.1,187.4c0.7,8.6-9,15.5-21.9,15.8c1.7-11.5,11-20.6,18.9-18.7c-2.9,3-6,6-9,9.1
			c0.3,0.4,0.7,0.9,1,1.3C318.8,192.4,322.4,190,326.1,187.4z"/>
		<path fill="#FFFFFF" d="M154.3,55.2c-4.3-2.3-8.1-4.4-11.9-6.4c-0.2,0.3-0.5,0.7-0.7,1c3.6,2.7,7.2,5.4,10.8,8.2
			c-7.4,3.8-17.5-3.7-21.9-16C143,40.6,154.5,46.8,154.3,55.2z"/>
		<path fill="#FFFFFF" d="M301.2,134.9c-4.6,1.5-9.2,3-13.8,4.5c0.1,0.3,0.2,0.6,0.3,1c4.7-0.7,9.3-1.3,14.1-2
			c-2.1,7.8-13.4,9.6-26.3,4.4C281.8,133.2,295.6,128.8,301.2,134.9z"/>
		<path fill="#FFFFFF" d="M286.6,41.1c-8.5,1-15.5-8.7-16.1-21.9c12.3,2.4,21.3,11.6,18.7,19.4c-3.2-3.2-6.5-6.5-9.7-9.7
			c-0.3,0.3-0.6,0.5-1,0.8C281.2,33.5,283.8,37.3,286.6,41.1z"/>
		<path fill="#FFFFFF" d="M114.9,86.9c9.7-11.1,19.9-14.7,25.8-9c-4.5,1.7-9,3.4-13.5,5.1c0.1,0.3,0.2,0.7,0.3,1
			c4.6-0.9,9.2-1.9,13.9-2.8C140.1,89.1,127.7,91.8,114.9,86.9z"/>
		<path fill="#FFFFFF" d="M262.2,37.7c-4.1-2.2-7.8-4.1-11.5-6.1c-0.3,0.4-0.5,0.8-0.8,1.2c3.4,2.5,6.7,5,10.1,7.4
			c-6.2,4.6-16.6-2.6-21.7-15.3C250.6,23,262.4,29.2,262.2,37.7z"/>
		<path fill="#FFFFFF" d="M319.1,147.6c-3.9,3.3-7.3,6.1-10.8,9c0.2,0.3,0.5,0.7,0.7,1c3.8-2.3,7.6-4.6,11.5-6.9
			c1.5,7.8-9.5,14.7-22.4,14.1C300.5,153.6,310.3,145.2,319.1,147.6z"/>
		<path fill="#FFFFFF" d="M242.7,46.6c-4.9-0.3-9.3-0.5-13.6-0.7c-0.1,0.5-0.2,0.9-0.2,1.4c4.3,0.8,8.7,1.6,13,2.4
			c-3.1,7.1-16.5,4.8-26.4-4.5C227.3,38.3,239.5,38.9,242.7,46.6z"/>
		<path fill="#FFFFFF" d="M177.7,98.4c5-13.7,12.9-20.5,21.2-17.9c-3.6,3.1-7,6-10.4,9c0.2,0.4,0.5,0.7,0.7,1.1
			c3.8-2.4,7.5-4.7,11.3-7.1C202.2,91.3,193.3,97.2,177.7,98.4z"/>
		<path fill="#FFFFFF" d="M181.8,51.6c-3.2-3.2-6.4-6.3-9.6-9.5c-0.3,0.2-0.7,0.5-1,0.7c2.6,3.7,5.2,7.3,7.8,10.9
			c-7,2.9-15-7.7-15.9-21.5C175.8,35,184.5,44,181.8,51.6z"/>
		<path fill="#FFFFFF" d="M277.1,74.1c10.7-10.8,21.1-13.7,26.3-7.5c-4.1,1.3-8.2,2.5-12.3,3.8c0.1,0.4,0.2,0.8,0.2,1.2
			c4.2-0.6,8.3-1.1,12.5-1.7C302.4,77.6,290.1,79.5,277.1,74.1z"/>
		<path fill="#FFFFFF" d="M365.7,186.1c-9.3-11.3-11.2-21.8-4.7-27c0.9,4.7,1.8,9.2,2.7,13.7c0.2,0,0.5,0,0.7-0.1
			c0-4.6,0-9.1,0-13.7C371.8,161.3,372.5,173.4,365.7,186.1z"/>
		<path fill="#FFFFFF" d="M345.6,191.2c0.8-4.4,1.6-8.9,2.3-13.3c6.8,4.2,4.9,16.2-4,26.8c-6.8-10.9-6.9-22.9,0.2-27.1
			c0,4.7,0,9.1,0,13.6C344.7,191.1,345.1,191.1,345.6,191.2z"/>
		<path fill="#FFFFFF" d="M381.9,391c2.8-0.6,5.5-1.1,9.1-1.8c-2.4,7.2-3,7.3-8.8,3.6C382.1,392.2,382,391.6,381.9,391z"/>
		<path fill="#FFFFFF" d="M413.5,386.2c-3.5,6-7.2,2.8-10.9,2.7c0-0.6-0.1-1.1-0.1-1.7C406.2,386.9,409.8,386.6,413.5,386.2z"/>
	</g>
</g>
</svg>
