<?xml version="1.0" encoding="utf-8"?>
<!-- Generator: Adobe Illustrator 18.1.1, SVG Export Plug-In . SVG Version: 6.00 Build 0)  -->
<svg version="1.1" xmlns="http://www.w3.org/2000/svg" xmlns:xlink="http://www.w3.org/1999/xlink" x="0px" y="0px"
	 viewBox="0 0 960 960.1" enable-background="new 0 0 960 960.1" xml:space="preserve">
<g id="Layer_1" display="none">
	<g id="Layer_1_1_" display="inline">
		<g id="siembra" display="none">
			<g display="inline">
				<path fill="#1ABC9C" d="M379.8,543.9c0-26.9,0-53.7,0-80.6c0.2-0.1,0.4-0.3,0.6-0.4c9.4-7.3,19.4-7,28.2,1
					c0.6,0.5,1.2,1,1.8,1.5c7.2,5.5,18.2,5.6,26.2-2c8.5-8,19.9-7.7,28.4,0.2c1.7,1.6,3.5,2.9,5.5,3.9c2.4,1.1,2.5,1,2.5-1.5
					c0-15.1,0-30.2,0-45.3c0-2.7-0.2-2.8-2.8-3c-8.2-0.8-15.9-2.9-22.8-7.5c-15.4-10.3-20.8-25.5-20.9-43.2c0-1.2,0.7-1.5,1.8-1.5
					c3.6-0.1,7.2,0.3,10.8,0.8c20.4,3.3,34.3,16.3,38.6,36.4c0.5,2.2,0.8,4.5,1.2,6.7c0.4-1.2,0.6-2.3,0.7-3.5
					c1.6-10,5.2-19.1,12.5-26.3c10.4-10.4,23.2-14.2,37.5-14.2c1.4,0,1.8,0.6,1.8,1.9c0.1,4.9-0.5,9.7-1.6,14.4
					c-3.4,13.8-10.7,24.5-23.7,30.9c-5.9,2.9-12.2,4.5-18.8,5c-1.8,0.1-2.4,0.8-2.4,2.6c0.1,15.4,0,30.8,0,46.1c0,2,0.2,2.1,1.9,1.3
					c2.6-1.1,4.7-2.9,6.8-4.7c4.9-4.5,10.8-6.1,17.4-4.9c4.5,0.7,8,3.1,11.2,6.1c4.9,4.6,10.8,6.1,17.4,4.8
					c4.1-0.7,7.3-2.9,10.4-5.7c5.1-4.8,11.2-6.4,18.1-5.1c3.9,0.7,7,2.8,10.1,5.2c0,26.9,0,53.7,0,80.6c-0.9,0-1.8,0.1-2.7,0.1
					c-64.3,0-128.7,0-193,0C381.6,544.1,380.7,544,379.8,543.9z M454.3,502c0,9.1,4.7,16.9,13.1,20.5c7.2,3.1,14.7,3.3,22.1,0.4
					c7.9-3,12.4-8.9,13.9-17.2c1.2-6.8-0.7-12.8-4.3-18.4c-3.5-5.4-7.9-9.9-12.6-14.1c-0.9-0.7-1.9-1.4-1.8-2.8c0-0.8-0.4-1.2-1.3-1
					c-2.9,0.6-5.9,0.6-8.8,0c-0.7-0.1-1.2,0.2-1.2,0.9c0.1,1.5-0.9,2.2-1.8,3c-4.7,4.1-9.1,8.6-12.5,13.9
					C456.3,491.5,454.2,496.1,454.3,502z"/>
				<path fill="#1ABC9C" d="M478.9,513.6c-1.4-0.1-2.9-0.1-4.5-0.4c-8.4-1.8-10.4-10.7-8.1-16.1c1.2-2.7,2.9-5.2,4.8-7.5
					c2.1-2.4,4.2-4.7,6.6-6.8c0.9-0.8,1.6-0.8,2.5,0c3.7,3.3,7,6.8,9.7,11c3,4.5,3.7,9.2,1,14.1
					C488.4,512.4,483.9,513.5,478.9,513.6z"/>
			</g>
		</g>
		<g id="reforestacion" display="none">
			<g display="inline">
				<path fill="#1ABC9C" d="M520,367.6c2.1,1.2,2.6,2.9,2.8,5.2c0.4,6.1-0.1,12.2-1.7,18.1c-3.3,12.1-11.2,19.4-23.2,22.5
					c-4.3,1.1-8.7,1.6-13.1,1.8c-1.3,0-1.9,0.4-1.9,1.8c0,21.1,0,42.1,0,63.2c0,0.2,0,0.4,0.1,0.8c2.8-2.7,5.5-5.3,8.2-8
					c0.4-0.4,0.3-1,0.1-1.6c-3.7-21.3,3.2-38.9,19.1-53.1c2.1-1.9,4.2-3.6,6.6-5c2.3-1.5,4.6-1.1,5.8,0.8c1.2,1.8,0.6,4.2-1.5,5.6
					c-6.5,4.5-12.2,9.9-16.4,16.7c-4,6.5-6.2,13.5-6.7,21.2c-0.1,2.6-0.5,5.2,0.2,7.9c0.7-0.1,1.1-0.7,1.5-1.2
					c7.9-7.8,15.6-15.6,23.4-23.4c0.3-0.3,0.7-0.7,1-1c2-1.9,4.3-2.1,5.9-0.5c1.7,1.6,1.5,4-0.4,6c-8.1,8.2-16.2,16.3-24.4,24.4
					c-0.4,0.4-0.9,0.9-1.6,1.7c3.7,0.6,7.2,0.6,10.5,0c20.9-3.4,34.4-15.6,41.1-35.5c2.2-6.7,2.3-13.8,1.2-20.8
					c-0.2-1.3-0.7-1.9-2.1-2c-2-0.1-4-0.4-6-0.6c-0.5,0-1,0-1.5-0.1c-2.5-0.4-3.9-1.9-3.8-4.2c0.1-2.1,1.7-3.6,4.2-3.6
					c2.8-0.1,5.6,0.4,8.4,0.8c1,0.1,2,0.4,3,0.6c3,0.4,4.3,2.3,4.9,5.1c4.4,21.8-2.4,39.9-18.7,54.4c-11.5,10.3-25.1,14.8-40.5,13.8
					c-2.1-0.1-4.2-0.5-6.2-0.9c-0.9-0.1-1.6-0.1-2.3,0.6c-3.7,3.8-7.5,7.5-11.2,11.2c-1,1-0.5,1.2,0.5,1.5
					c8.6,1.8,15.5,6.3,20.5,13.5c0.6,0.8,1.2,1.3,2.3,1.2c3.9-0.5,7.9-0.4,11.8,0c0.4,0,1.1,0.2,1.4-0.3c0.3-0.6-0.2-1-0.6-1.5
					c-1.4-1.8-3.3-2.7-5.6-2.9c-2.7-0.3-4.1-1.9-3.9-4.3c0.2-2.2,1.9-3.4,4.5-3.3c0.8,0,1.6,0.1,2.4,0.3c2.5,0.6,4.9,1.6,6.8,3.6
					c0.9,0.9,1.5,0.9,2.4,0c2.6-2.4,5.7-3.7,9.3-3.8c2.5-0.1,4.1,1.2,4.3,3.3c0.2,2.4-1.2,4.1-3.7,4.3c-2.9,0.3-5.1,1.5-6.5,4.2
					c-0.9,1.8-0.6,2.4,1.2,3c8.5,2.6,16.1,7,22.7,12.9c9,8,15.1,17.8,18.5,29.4c0.8,2.9-0.8,5.1-4,5.2c-0.2,0-0.5,0-0.7,0
					c-59.7,0-119.3,0-179,0c-2.1,0-3.7-0.5-4.8-2.4c0-1,0-2,0-2.9c1.9-5.6,4.1-10.9,7.2-15.9c8-12.5,18.9-21.1,32.9-25.9
					c3.3-1.2,3.7-2.2,1.3-4.9c-1.4-1.6-3.1-2.3-5.1-2.5c-2.8-0.3-4.2-1.8-4-4.2c0.1-2.2,1.9-3.5,4.6-3.4c3.5,0.1,6.5,1.4,9,3.7
					c0.9,0.9,1.5,1,2.5,0.1c2.6-2.5,5.9-3.8,9.5-3.8c2.3,0,3.9,1.3,4.1,3.4c0.2,2.3-1.2,4.1-3.6,4.3c-2.5,0.2-4.6,1.2-6.1,3.3
					c-0.2,0.3-0.6,0.7-0.3,1.2c0.2,0.3,0.7,0.3,1,0.2c4.2-0.4,8.3-0.5,12.5,0c0.9,0.1,1.3-0.4,1.8-1c5.2-7.6,12.5-12.2,21.5-13.8
					c1.3-0.2,1.7-0.7,1.7-2.1c-0.1-6.3,0-12.6,0-19c0-1.4-0.3-1.8-1.8-1.6c-31,5.1-57.8-18.7-61.7-45.2c-1-6.8-0.6-13.6,1-20.3
					c0.5-2.1,1.7-3.3,3.8-3.8c11.3-2.7,22.4-1.9,33.1,2.8C460,407,468,414,474.2,423.1c0.1,0.3,0.4,0.5,0.6,0.7c0,0,0.1,0,0.2,0
					c0.4-0.5,0.2-1.2,0.2-1.8c0-5.8-0.1-11.5,0-17.3c0.1-6.5,1.5-12.8,4.3-18.7c4.5-9.5,12.4-14.6,22.3-17c2.4-0.6,4.9-0.9,7.4-1.4
					C512.9,367.6,516.4,367.6,520,367.6z M489.2,548.7c24.4,0,48.7,0,73.1,0c2,0,2,0,1.2-1.9c-2.1-5-5-9.7-8.6-13.9
					c-10.5-11.9-23.6-18.4-39.6-19.1c-3.3-0.1-6.6,0.1-9.9,0.4c-1.8,0.2-3.2-0.6-4.2-2.2c-0.4-0.6-0.7-1.3-1.2-1.9
					c-9.4-14.9-31.6-15.5-41.4-0.8c-2.5,3.8-4.9,5.1-9.5,4.6c-11.1-1.2-21.6,1.3-31.3,6.8c-10.7,6.2-18.6,14.9-23.5,26.3
					c-0.5,1.2-0.4,1.5,0.9,1.5c2.9-0.1,5.8-0.1,8.6,0c1.4,0,2.1-0.5,2.6-1.8c2.3-6,6.1-11,10.9-15.3c3.1-2.8,6.7-5,10.5-6.7
					c2.1-0.9,4.3-0.1,5.1,1.8c0.9,1.9,0.2,3.8-1.8,5c-0.6,0.3-1.2,0.6-1.8,0.9c-6.1,3.1-10.9,7.7-14.2,13.7
					c-1.2,2.2-1.2,2.2,1.3,2.2C440.8,548.7,465.1,548.7,489.2,548.7z M429.3,405.9c-2.4,0.1-4.9,0.1-7.3,0.5
					c-1.2,0.2-1.9,0.7-2.1,1.9c-0.8,5.3-0.9,10.7,0.2,16c4.4,22.1,24.7,38.2,47.2,37.5c0.6,0,1.5,0.2,1.6-0.4c0.2-0.6-0.6-1-1-1.4
					c-6.1-6.1-12.2-12.3-18.4-18.4c-0.5-0.5-1-1-1.5-1.6c-1.2-1.6-1-3.6,0.3-4.9c1.3-1.4,3.3-1.6,4.9-0.5c0.6,0.4,1.3,1,1.8,1.6
					c6.2,6.2,12.3,12.3,18.5,18.5c0.4,0.4,0.7,1.1,1.3,0.9c0.6-0.2,0.4-0.9,0.4-1.5c0.1-2.9-0.1-5.8-0.4-8.6
					C472.1,424.6,451.8,405.3,429.3,405.9z M484,400.7c0.4-0.4,0.9-0.8,1.3-1.3c2.6-2.6,5.2-5.2,7.8-7.8c2.1-2.1,4.5-2.3,6.1-0.6
					c1.7,1.8,1.5,3.9-0.7,6.1c-1.7,1.7-3.4,3.4-5,5c-1.5,1.4-3,2.8-4.8,4.4c0.7,0.2,0.9,0.3,1,0.3c1-0.1,1.9-0.2,2.9-0.3
					c6.5-1.2,12.6-3.4,16.7-9c4.6-6.3,5.7-13.7,5.7-21.3c0-1-0.7-0.9-1.4-0.9c-2.9,0-5.8,0.3-8.6,0.9c-7,1.5-13.2,4.4-17.1,10.7
					C485.4,391.1,484,395.6,484,400.7z"/>
				<path fill="#1ABC9C" d="M529,410.1c0-2.1,1.8-3.8,3.9-3.8c2.1,0,4,1.9,4,4c-0.1,2.1-2.1,3.9-4.2,3.8
					C530.7,414,529,412.3,529,410.1z"/>
				<path fill="#1ABC9C" d="M444.6,529.1c-2.1,0-3.9-1.8-3.9-3.9c0-2.1,1.7-3.7,3.9-3.8c2.2,0,3.9,1.6,4,3.7
					C448.6,527.4,446.8,529.1,444.6,529.1z"/>
			</g>
		</g>
		<g id="revegetalizacion" display="none">
			<g display="inline">
				<path fill="#1ABC9C" d="M507.5,477.8c-3-4.8-10.6-14.1-24.8-15.6c-3.1-99.2,44.3-87.2,44.3-87.2c-22.5,6.6-31.7,24.6-31.7,24.6
					c37.6,5.2,40.1-22.4,40-30.3c0-1.2-0.8-2.3-1.9-2.7c-46.5-15.4-55.1,59.3-55.1,59.3c-13.5-51.7-44.8-45.6-53.9-42.6
					c-1.5,0.5-2.3,2-1.9,3.5c10.5,40.3,42.1,29.8,42.1,29.8c-10.6-20.5-30.1-24.6-30.1-24.6c46.1,3.6,42.2,63.7,41.7,70.1
					c-18.8,0.7-23.6,10.1-27,15c-0.8,1.2-2.1,1.9-3.6,2.1c-4.7,0.3-16.4,1.9-19.9,9.2c0,0,11,9.3,26.3,17.5
					c10.8,5.8,19.6,17.4,23.9,23.6c1.3,1.8,4,1.8,5.1-0.2c3.7-6.7,11.4-18.7,19.2-21.2c14.5-4.7,31.2-19.7,31.2-19.7
					s-9.9-9.5-19.6-8.3C510.2,480.2,508.5,479.3,507.5,477.8z M449.7,493.3c-2.7,0-4.8-2.2-4.8-4.8s2.2-4.8,4.8-4.8s4.8,2.2,4.8,4.8
					S452.4,493.3,449.7,493.3z M473.4,468.1c1.3,0,2.4,1,2.4,2.4c0,1.3-1,2.4-2.4,2.4c-1.3,0-2.4-1-2.4-2.4
					C471,469.1,472.1,468.1,473.4,468.1z M468.6,509.7c-3.9,0-7.1-3.2-7.1-7.1s3.2-7.1,7.1-7.1c3.9,0,7.1,3.2,7.1,7.1
					C475.7,506.5,472.5,509.7,468.6,509.7z M480.5,484.9c-2.7,0-4.8-2.2-4.8-4.8s2.2-4.8,4.8-4.8s4.8,2.2,4.8,4.8
					S483.2,484.9,480.5,484.9z M502.5,501.2c-3.9,0-7.1-3.2-7.1-7.1s3.2-7.1,7.1-7.1s7.1,3.2,7.1,7.1
					C509.6,498,506.4,501.2,502.5,501.2z M520,486.1c1.3,0,2.4,1,2.4,2.4c0,1.3-1,2.4-2.4,2.4c-1.3,0-2.4-1-2.4-2.4
					C517.6,487.2,518.6,486.1,520,486.1z"/>
				<path fill="#1ABC9C" d="M385.5,468.9c0-1.3,1.6-1.9,2.4-0.9c3.8,4.6,11.1,15.6,15.7,35.1c6.4,27.1,27.5,28.9,35.9,30.7
					c0,0,3.9-7.9-4.7-15.9c-7.8-7.2-14.4-12-15.7-23.4c-0.1-1.3,1.5-2.2,2.4-1.3c2.7,2.5,7.9,6.8,17.1,13.4
					c15.6,11.3,35.9,17.2,36.2,53.2c0,0-30,5.3-62.2-23.8C388.4,512.6,385.7,479.6,385.5,468.9z"/>
				<path fill="#1ABC9C" d="M572,468.9c0-1.3-1.6-1.9-2.4-0.9c-3.8,4.6-11.1,15.6-15.7,35.1c-6.4,27.1-27.5,28.9-35.9,30.7
					c0,0-3.9-7.9,4.7-15.9c7.8-7.2,14.4-12,15.7-23.4c0.1-1.3-1.5-2.2-2.4-1.3c-2.7,2.5-7.9,6.8-17.1,13.4
					c-15.6,11.3-35.9,17.2-36.2,53.2c0,0,30,5.3,62.2-23.8C569.1,512.6,571.8,479.6,572,468.9z"/>
			</g>
		</g>
		<g>
			<polygon fill="#1ABC9C" points="14.8,64.4 14.8,910 945.2,910 945.2,827.9 423.2,827.9 442.8,761.4 325.5,566 233.7,533.9 
				184.8,394.1 216.1,245.5 177,147.8 108.6,74.1 			"/>
			<polygon fill="#1ABC9C" points="868.8,808.4 905.9,781.7 455.5,50.1 418.4,74.1 621.6,406.8 527.8,406.8 562,372.6 532.7,341.3 
				450.6,429.2 529.8,523 563,487.9 525.9,447.8 649,447.8 			"/>
			<path fill="#1ABC9C" d="M252.2,206.6v-23c0-8.4,4.1-16.3,10.9-21.2l33.9-24.2c9.8-7,23.2-6.4,32.3,1.6l6.9,6
				c5.7,4.9,8.9,12.1,8.9,19.6v38.3c0,8.9-4.6,17.2-12.1,22l-21.3,13.5c-8,5-18.1,5.4-26.4,0.8l-19.4-10.6
				C257.4,224.9,252.2,216.2,252.2,206.6z"/>
			<path fill="#1ABC9C" d="M391.9,282.4l7.5-24.2c1.9-6.2,8-10.1,14.4-9.2l19.6,2.6c3.5,0.5,6.6,2.3,8.7,5.1l14.9,19.4
				c2.7,3.5,3.5,8.1,2.1,12.3l-4.9,14.8c-1.6,4.8-5.8,8.2-10.7,8.9l-25.8,3.6c-5,0.7-9.9-1.5-12.7-5.6l-11.3-16.3
				C391.4,290.5,390.7,286.3,391.9,282.4z"/>
			<path fill="#1ABC9C" d="M294.7,334.7l19.8-21.1c3.2-3.4,4.3-8.3,3-12.7l-3.2-10.6c-1.5-4.9-5.7-8.5-10.7-9.2l-31.2-4.3
				c-4.1-0.6-8.1,0.8-11,3.7l-14,14c-3.6,3.6-4.8,8.9-3.1,13.6l5.7,16c1.5,4.1,4.8,7.2,9,8.3l22.9,6
				C286.5,339.6,291.4,338.1,294.7,334.7z"/>
			<path fill="#1ABC9C" d="M362.1,460.8l-16.2-5.1c-4.3-1.4-7.9-4.3-10.1-8.2l-4.6-8.2c-3.5-6.2-2.9-13.8,1.4-19.4l10.9-14.2
				c3.7-4.8,9.7-7.5,15.7-6.8l29,2.8c7,0.7,13,5.5,15.1,12.2l0.4,1.2c1.8,5.7,0.6,12-3.3,16.6L381,455.3
				C376.4,460.8,368.9,463,362.1,460.8z"/>
			<polygon fill="#1ABC9C" points="318,359.9 345.1,332.5 360.7,338.8 366.7,373.5 345.1,383.3 			"/>
			<polygon fill="#1ABC9C" points="258.1,390.1 273.7,376.5 289.4,390.1 280.8,413.6 262,413.6 			"/>
			<path fill="#1ABC9C" d="M269.6,458.4l19.5-13.8c3-2.1,7.1-2,9.9,0.4l9.1,7.6c2.2,1.9,3.3,4.8,2.8,7.7l-4.8,26.7
				c-0.7,3.9-4.1,6.7-8,6.7h-18.3c-3.7,0-6.9-2.4-7.9-6l-5.6-20.6C265.6,463.9,266.8,460.3,269.6,458.4z"/>
			<path fill="#1ABC9C" d="M335,506.3l16-15.7c2.8-2.7,7-3.1,10.3-0.9l10.4,7c2.2,1.5,3.6,4.1,3.6,6.8v22.3c0,4.5-3.7,8.2-8.2,8.2
				h-11.9c-2.1,0-4-0.8-5.6-2.2l-14.6-13.6C331.8,514.9,331.7,509.6,335,506.3z"/>
			<path fill="#1ABC9C" d="M407.4,532.2l14.3-22.5c2.2-3.5,6.7-4.8,10.4-2.9l31.2,15.4c3.5,1.7,5.2,5.6,4.3,9.3l-6.4,24.7
				c-0.8,3.1-3.3,5.4-6.5,6l-24,4.1c-3.1,0.5-6.2-0.8-8-3.4l-15-21.6C405.8,538.5,405.7,534.9,407.4,532.2z"/>
			<path fill="#1ABC9C" d="M394.4,598.4l8.6-10.6c1-1.3,2.5-2,4.1-2h14.1c2.6,0,4.8,1.9,5.2,4.4l3,17.7c0.4,2.4-0.8,4.7-3,5.7
				l-12.4,5.6c-2,0.9-4.3,0.5-5.8-1l-13.3-12.7C392.9,603.6,392.7,600.5,394.4,598.4z"/>
			<path fill="#1ABC9C" d="M459.8,604.6v-8.5c0-3.8,2.8-7,6.6-7.5l16.2-2.1c3.1-0.4,6.1,1.2,7.7,3.9l6.6,12.1
				c2,3.6,0.7,8.2-2.9,10.2l-10.1,5.8c-2.3,1.4-5.2,1.4-7.6,0l-12.7-7.3C461.3,609.9,459.8,607.4,459.8,604.6z"/>
			<path fill="#1ABC9C" d="M497.7,689.9l10.3-13.8c2.4-3.3,6.4-5,10.4-4.7l21.8,1.9c5.6,0.5,10,4.8,10.6,10.3l1.5,12.7
				c0.4,3.3-0.6,6.7-2.9,9.2l-11.8,13.3c-3,3.4-7.7,4.7-12,3.5l-15.8-4.5c-2.8-0.8-5.2-2.6-6.8-5.1l-5.9-9.6
				C494.6,698.9,494.8,693.7,497.7,689.9z"/>
			<path fill="#1ABC9C" d="M502.5,760.5l8-8.8c3.5-3.8,9.2-4.6,13.5-1.8l9.5,6.1c3.8,2.4,5.7,7.1,4.5,11.5l-1.4,5.6
				c-0.8,3.1-2.9,5.7-5.8,7l-10.7,4.9c-4.7,2.2-10.3,0.6-13.1-3.7l-5.3-7.9C498.8,769.5,499.2,764.1,502.5,760.5z"/>
			<path fill="#1ABC9C" d="M572.4,746.4l12.3-14.3c4-4.6,10.5-6,16-3.5l17.3,8c4.8,2.2,7.9,7,7.9,12.3v11.5c0,4.1-1.9,8-5.1,10.6
				l-13,10.4c-5.3,4.2-12.9,3.9-17.8-0.7l-16.5-15.6C568.1,760.2,567.7,751.9,572.4,746.4z"/>
			<path fill="#1ABC9C" d="M469.2,673.4v-1c0-4.6-3.2-8.6-7.7-9.7l-4.1-0.9c-4.7-1.1-9.4,1.3-11.3,5.7l-0.8,1.9
				c-1.5,3.4-0.9,7.3,1.4,10.2l0.8,1c2.4,2.9,6.2,4.2,9.8,3.4l4.1-0.9C465.9,682,469.2,678,469.2,673.4z"/>
			<path fill="#1ABC9C" d="M490.8,642.9l1-4.7c0.7-3.6,3.4-6.5,6.8-7.7l12.2-4.1c4.5-1.5,9.3,0.2,11.9,4.2l3.6,5.6
				c1.6,2.5,2,5.6,1.2,8.5l-2.3,7.7c-1.3,4.3-5.3,7.3-9.8,7.3H505c-2.9,0-5.6-1.2-7.6-3.3l-4.1-4.5
				C491,649.6,490.1,646.2,490.8,642.9z"/>
		</g>
	</g>
	<g id="Layer_2">
		<g id="Layer_4" display="inline">
			<path fill="#1ABC9C" d="M-535.4-610.3l-76.5,36.1L-615-563c-0.1-0.1-0.3-0.1-0.4-0.1l-2.7-0.5c-0.8-0.1-1.7,0.4-1.8,1.2l-0.6,3.1
				l-1.2-0.6c-0.1,0-0.2-0.1-0.3-0.1c-0.3,0-0.5,0.1-0.6,0.4c-0.1,0.3,0,0.7,0.3,0.9l1.5,0.7l-1,5.5c-0.1,0.8,0.4,1.7,1.2,1.8
				l2.1,0.4l-4.2,14.9l-2-0.5c-0.8-0.2-1.7,0.3-1.9,1.2l-1,4.1l-1.9-0.9c-0.1,0-0.2-0.1-0.3-0.1c-0.3,0-0.5,0.1-0.6,0.4
				c-0.1,0.3,0,0.7,0.3,0.9l2.2,1l-1.2,4.4c-0.2,0.8,0.3,1.7,1.2,1.9l1.7,0.4l-2.3,8.3h-30.9l-70.7,59.8v3.6h197.9v-159.3H-535.4z
				 M-606.9-572.1l43.7-18l-11.7,42.4l-5.2,8.2l-31.2-16.1L-606.9-572.1z M-558.2-484.7l-25.5-13.9l1.8-4l-19.8-11.3l-8.4,11.9
				l-62.9,9.6l15.3-14.2l33.6-1.6l3.9-16.5l18.4,10.7l1.6-1.9l-19.3-10.9l7.4-26.5l30.3,15.8l-18.4,21.6l19.7,10.8l2-2.8l25.3,15.2
				L-558.2-484.7z M-542.1-511.4l-23.2-12.4l1.6-3.6l-18.1-10.2l1.5-1.7l18,9.7l1.8-2.5l23,13.6L-542.1-511.4z"/>
			<path fill="#1ABC9C" d="M-541-517.3l-18.5-11.1c-0.3-0.2-0.7-0.1-0.9,0.2l-0.7,1.3c-0.2,0.3-0.1,0.7,0.2,0.9l18.5,11.1
				c0.3,0.2,0.7,0.1,0.9-0.2l0.7-1.3C-540.6-516.7-540.7-517.1-541-517.3z"/>
			<path fill="#1ABC9C" d="M-556.9-489.8l-0.7,1.2c-0.2,0.3-0.6,0.4-0.9,0.2l-19.7-11.7c-0.3-0.2-0.4-0.6-0.2-0.9l0.7-1.2
				c0.2-0.3,0.6-0.4,0.9-0.2l19.7,11.7C-556.8-490.5-556.7-490.1-556.9-489.8z"/>
		</g>
	</g>
</g>
<g id="Layer_2_1_">
	<g id="Layer_1_2_">
		<g id="siembra_1_" display="none">
			<g display="inline">
				<path fill="#FFFFFF" d="M379.8,543.9c0-26.9,0-53.7,0-80.6c0.2-0.1,0.4-0.3,0.6-0.4c9.4-7.3,19.4-7,28.2,1
					c0.6,0.5,1.2,1,1.8,1.5c7.2,5.5,18.2,5.6,26.2-2c8.5-8,19.9-7.7,28.4,0.2c1.7,1.6,3.5,2.9,5.5,3.9c2.4,1.1,2.5,1,2.5-1.5
					c0-15.1,0-30.2,0-45.3c0-2.7-0.2-2.8-2.8-3c-8.2-0.8-15.9-2.9-22.8-7.5c-15.4-10.3-20.8-25.5-20.9-43.2c0-1.2,0.7-1.5,1.8-1.5
					c3.6-0.1,7.2,0.3,10.8,0.8c20.4,3.3,34.3,16.3,38.6,36.4c0.5,2.2,0.8,4.5,1.2,6.7c0.4-1.2,0.6-2.3,0.7-3.5
					c1.6-10,5.2-19.1,12.5-26.3c10.4-10.4,23.2-14.2,37.5-14.2c1.4,0,1.8,0.6,1.8,1.9c0.1,4.9-0.5,9.7-1.6,14.4
					c-3.4,13.8-10.7,24.5-23.7,30.9c-5.9,2.9-12.2,4.5-18.8,5c-1.8,0.1-2.4,0.8-2.4,2.6c0.1,15.4,0,30.8,0,46.1c0,2,0.2,2.1,1.9,1.3
					c2.6-1.1,4.7-2.9,6.8-4.7c4.9-4.5,10.8-6.1,17.4-4.9c4.5,0.7,8,3.1,11.2,6.1c4.9,4.6,10.8,6.1,17.4,4.8
					c4.1-0.7,7.3-2.9,10.4-5.7c5.1-4.8,11.2-6.4,18.1-5.1c3.9,0.7,7,2.8,10.1,5.2c0,26.9,0,53.7,0,80.6c-0.9,0-1.8,0.1-2.7,0.1
					c-64.3,0-128.7,0-193,0C381.6,544.1,380.7,544,379.8,543.9z M454.3,502c0,9.1,4.7,16.9,13.1,20.5c7.2,3.1,14.7,3.3,22.1,0.4
					c7.9-3,12.4-8.9,13.9-17.2c1.2-6.8-0.7-12.8-4.3-18.4c-3.5-5.4-7.9-9.9-12.6-14.1c-0.9-0.7-1.9-1.4-1.8-2.8c0-0.8-0.4-1.2-1.3-1
					c-2.9,0.6-5.9,0.6-8.8,0c-0.7-0.1-1.2,0.2-1.2,0.9c0.1,1.5-0.9,2.2-1.8,3c-4.7,4.1-9.1,8.6-12.5,13.9
					C456.3,491.5,454.2,496.1,454.3,502z"/>
				<path fill="#FFFFFF" d="M478.9,513.6c-1.4-0.1-2.9-0.1-4.5-0.4c-8.4-1.8-10.4-10.7-8.1-16.1c1.2-2.7,2.9-5.2,4.8-7.5
					c2.1-2.4,4.2-4.7,6.6-6.8c0.9-0.8,1.6-0.8,2.5,0c3.7,3.3,7,6.8,9.7,11c3,4.5,3.7,9.2,1,14.1
					C488.4,512.4,483.9,513.5,478.9,513.6z"/>
			</g>
		</g>
		<g id="reforestacion_1_" display="none">
			<g display="inline">
				<path fill="#FFFFFF" d="M520,367.6c2.1,1.2,2.6,2.9,2.8,5.2c0.4,6.1-0.1,12.2-1.7,18.1c-3.3,12.1-11.2,19.4-23.2,22.5
					c-4.3,1.1-8.7,1.6-13.1,1.8c-1.3,0-1.9,0.4-1.9,1.8c0,21.1,0,42.1,0,63.2c0,0.2,0,0.4,0.1,0.8c2.8-2.7,5.5-5.3,8.2-8
					c0.4-0.4,0.3-1,0.1-1.6c-3.7-21.3,3.2-38.9,19.1-53.1c2.1-1.9,4.2-3.6,6.6-5c2.3-1.5,4.6-1.1,5.8,0.8c1.2,1.8,0.6,4.2-1.5,5.6
					c-6.5,4.5-12.2,9.9-16.4,16.7c-4,6.5-6.2,13.5-6.7,21.2c-0.1,2.6-0.5,5.2,0.2,7.9c0.7-0.1,1.1-0.7,1.5-1.2
					c7.9-7.8,15.6-15.6,23.4-23.4c0.3-0.3,0.7-0.7,1-1c2-1.9,4.3-2.1,5.9-0.5c1.7,1.6,1.5,4-0.4,6c-8.1,8.2-16.2,16.3-24.4,24.4
					c-0.4,0.4-0.9,0.9-1.6,1.7c3.7,0.6,7.2,0.6,10.5,0c20.9-3.4,34.4-15.6,41.1-35.5c2.2-6.7,2.3-13.8,1.2-20.8
					c-0.2-1.3-0.7-1.9-2.1-2c-2-0.1-4-0.4-6-0.6c-0.5,0-1,0-1.5-0.1c-2.5-0.4-3.9-1.9-3.8-4.2c0.1-2.1,1.7-3.6,4.2-3.6
					c2.8-0.1,5.6,0.4,8.4,0.8c1,0.1,2,0.4,3,0.6c3,0.4,4.3,2.3,4.9,5.1c4.4,21.8-2.4,39.9-18.7,54.4c-11.5,10.3-25.1,14.8-40.5,13.8
					c-2.1-0.1-4.2-0.5-6.2-0.9c-0.9-0.1-1.6-0.1-2.3,0.6c-3.7,3.8-7.5,7.5-11.2,11.2c-1,1-0.5,1.2,0.5,1.5
					c8.6,1.8,15.5,6.3,20.5,13.5c0.6,0.8,1.2,1.3,2.3,1.2c3.9-0.5,7.9-0.4,11.8,0c0.4,0,1.1,0.2,1.4-0.3c0.3-0.6-0.2-1-0.6-1.5
					c-1.4-1.8-3.3-2.7-5.6-2.9c-2.7-0.3-4.1-1.9-3.9-4.3c0.2-2.2,1.9-3.4,4.5-3.3c0.8,0,1.6,0.1,2.4,0.3c2.5,0.6,4.9,1.6,6.8,3.6
					c0.9,0.9,1.5,0.9,2.4,0c2.6-2.4,5.7-3.7,9.3-3.8c2.5-0.1,4.1,1.2,4.3,3.3c0.2,2.4-1.2,4.1-3.7,4.3c-2.9,0.3-5.1,1.5-6.5,4.2
					c-0.9,1.8-0.6,2.4,1.2,3c8.5,2.6,16.1,7,22.7,12.9c9,8,15.1,17.8,18.5,29.4c0.8,2.9-0.8,5.1-4,5.2c-0.2,0-0.5,0-0.7,0
					c-59.7,0-119.3,0-179,0c-2.1,0-3.7-0.5-4.8-2.4c0-1,0-2,0-2.9c1.9-5.6,4.1-10.9,7.2-15.9c8-12.5,18.9-21.1,32.9-25.9
					c3.3-1.2,3.7-2.2,1.3-4.9c-1.4-1.6-3.1-2.3-5.1-2.5c-2.8-0.3-4.2-1.8-4-4.2c0.1-2.2,1.9-3.5,4.6-3.4c3.5,0.1,6.5,1.4,9,3.7
					c0.9,0.9,1.5,1,2.5,0.1c2.6-2.5,5.9-3.8,9.5-3.8c2.3,0,3.9,1.3,4.1,3.4c0.2,2.3-1.2,4.1-3.6,4.3c-2.5,0.2-4.6,1.2-6.1,3.3
					c-0.2,0.3-0.6,0.7-0.3,1.2c0.2,0.3,0.7,0.3,1,0.2c4.2-0.4,8.3-0.5,12.5,0c0.9,0.1,1.3-0.4,1.8-1c5.2-7.6,12.5-12.2,21.5-13.8
					c1.3-0.2,1.7-0.7,1.7-2.1c-0.1-6.3,0-12.6,0-19c0-1.4-0.3-1.8-1.8-1.6c-31,5.1-57.8-18.7-61.7-45.2c-1-6.8-0.6-13.6,1-20.3
					c0.5-2.1,1.7-3.3,3.8-3.8c11.3-2.7,22.4-1.9,33.1,2.8C460,407,468,414,474.2,423.1c0.1,0.3,0.4,0.5,0.6,0.7c0,0,0.1,0,0.2,0
					c0.4-0.5,0.2-1.2,0.2-1.8c0-5.8-0.1-11.5,0-17.3c0.1-6.5,1.5-12.8,4.3-18.7c4.5-9.5,12.4-14.6,22.3-17c2.4-0.6,4.9-0.9,7.4-1.4
					C512.9,367.6,516.4,367.6,520,367.6z M489.2,548.7c24.4,0,48.7,0,73.1,0c2,0,2,0,1.2-1.9c-2.1-5-5-9.7-8.6-13.9
					c-10.5-11.9-23.6-18.4-39.6-19.1c-3.3-0.1-6.6,0.1-9.9,0.4c-1.8,0.2-3.2-0.6-4.2-2.2c-0.4-0.6-0.7-1.3-1.2-1.9
					c-9.4-14.9-31.6-15.5-41.4-0.8c-2.5,3.8-4.9,5.1-9.5,4.6c-11.1-1.2-21.6,1.3-31.3,6.8c-10.7,6.2-18.6,14.9-23.5,26.3
					c-0.5,1.2-0.4,1.5,0.9,1.5c2.9-0.1,5.8-0.1,8.6,0c1.4,0,2.1-0.5,2.6-1.8c2.3-6,6.1-11,10.9-15.3c3.1-2.8,6.7-5,10.5-6.7
					c2.1-0.9,4.3-0.1,5.1,1.8c0.9,1.9,0.2,3.8-1.8,5c-0.6,0.3-1.2,0.6-1.8,0.9c-6.1,3.1-10.9,7.7-14.2,13.7
					c-1.2,2.2-1.2,2.2,1.3,2.2C440.8,548.7,465.1,548.7,489.2,548.7z M429.3,405.9c-2.4,0.1-4.9,0.1-7.3,0.5
					c-1.2,0.2-1.9,0.7-2.1,1.9c-0.8,5.3-0.9,10.7,0.2,16c4.4,22.1,24.7,38.2,47.2,37.5c0.6,0,1.5,0.2,1.6-0.4c0.2-0.6-0.6-1-1-1.4
					c-6.1-6.1-12.2-12.3-18.4-18.4c-0.5-0.5-1-1-1.5-1.6c-1.2-1.6-1-3.6,0.3-4.9c1.3-1.4,3.3-1.6,4.9-0.5c0.6,0.4,1.3,1,1.8,1.6
					c6.2,6.2,12.3,12.3,18.5,18.5c0.4,0.4,0.7,1.1,1.3,0.9c0.6-0.2,0.4-0.9,0.4-1.5c0.1-2.9-0.1-5.8-0.4-8.6
					C472.1,424.6,451.8,405.3,429.3,405.9z M484,400.7c0.4-0.4,0.9-0.8,1.3-1.3c2.6-2.6,5.2-5.2,7.8-7.8c2.1-2.1,4.5-2.3,6.1-0.6
					c1.7,1.8,1.5,3.9-0.7,6.1c-1.7,1.7-3.4,3.4-5,5c-1.5,1.4-3,2.8-4.8,4.4c0.7,0.2,0.9,0.3,1,0.3c1-0.1,1.9-0.2,2.9-0.3
					c6.5-1.2,12.6-3.4,16.7-9c4.6-6.3,5.7-13.7,5.7-21.3c0-1-0.7-0.9-1.4-0.9c-2.9,0-5.8,0.3-8.6,0.9c-7,1.5-13.2,4.4-17.1,10.7
					C485.4,391.1,484,395.6,484,400.7z"/>
				<path fill="#FFFFFF" d="M529,410.1c0-2.1,1.8-3.8,3.9-3.8c2.1,0,4,1.9,4,4c-0.1,2.1-2.1,3.9-4.2,3.8
					C530.7,414,529,412.3,529,410.1z"/>
				<path fill="#FFFFFF" d="M444.6,529.1c-2.1,0-3.9-1.8-3.9-3.9c0-2.1,1.7-3.7,3.9-3.8c2.2,0,3.9,1.6,4,3.7
					C448.6,527.4,446.8,529.1,444.6,529.1z"/>
			</g>
		</g>
		<g id="revegetalizacion_1_" display="none">
			<g display="inline">
				<path fill="#FFFFFF" d="M507.5,477.8c-3-4.8-10.6-14.1-24.8-15.6c-3.1-99.2,44.3-87.2,44.3-87.2c-22.5,6.6-31.7,24.6-31.7,24.6
					c37.6,5.2,40.1-22.4,40-30.3c0-1.2-0.8-2.3-1.9-2.7c-46.5-15.4-55.1,59.3-55.1,59.3c-13.5-51.7-44.8-45.6-53.9-42.6
					c-1.5,0.5-2.3,2-1.9,3.5c10.5,40.3,42.1,29.8,42.1,29.8c-10.6-20.5-30.1-24.6-30.1-24.6c46.1,3.6,42.2,63.7,41.7,70.1
					c-18.8,0.7-23.6,10.1-27,15c-0.8,1.2-2.1,1.9-3.6,2.1c-4.7,0.3-16.4,1.9-19.9,9.2c0,0,11,9.3,26.3,17.5
					c10.8,5.8,19.6,17.4,23.9,23.6c1.3,1.8,4,1.8,5.1-0.2c3.7-6.7,11.4-18.7,19.2-21.2c14.5-4.7,31.2-19.7,31.2-19.7
					s-9.9-9.5-19.6-8.3C510.2,480.2,508.5,479.3,507.5,477.8z M449.7,493.3c-2.7,0-4.8-2.2-4.8-4.8s2.2-4.8,4.8-4.8s4.8,2.2,4.8,4.8
					S452.4,493.3,449.7,493.3z M473.4,468.1c1.3,0,2.4,1,2.4,2.4c0,1.3-1,2.4-2.4,2.4c-1.3,0-2.4-1-2.4-2.4
					C471,469.1,472.1,468.1,473.4,468.1z M468.6,509.7c-3.9,0-7.1-3.2-7.1-7.1s3.2-7.1,7.1-7.1c3.9,0,7.1,3.2,7.1,7.1
					C475.7,506.5,472.5,509.7,468.6,509.7z M480.5,484.9c-2.7,0-4.8-2.2-4.8-4.8s2.2-4.8,4.8-4.8s4.8,2.2,4.8,4.8
					S483.2,484.9,480.5,484.9z M502.5,501.2c-3.9,0-7.1-3.2-7.1-7.1s3.2-7.1,7.1-7.1s7.1,3.2,7.1,7.1
					C509.6,498,506.4,501.2,502.5,501.2z M520,486.1c1.3,0,2.4,1,2.4,2.4c0,1.3-1,2.4-2.4,2.4c-1.3,0-2.4-1-2.4-2.4
					C517.6,487.2,518.6,486.1,520,486.1z"/>
				<path fill="#FFFFFF" d="M385.5,468.9c0-1.3,1.6-1.9,2.4-0.9c3.8,4.6,11.1,15.6,15.7,35.1c6.4,27.1,27.5,28.9,35.9,30.7
					c0,0,3.9-7.9-4.7-15.9c-7.8-7.2-14.4-12-15.7-23.4c-0.1-1.3,1.5-2.2,2.4-1.3c2.7,2.5,7.9,6.8,17.1,13.4
					c15.6,11.3,35.9,17.2,36.2,53.2c0,0-30,5.3-62.2-23.8C388.4,512.6,385.7,479.6,385.5,468.9z"/>
				<path fill="#FFFFFF" d="M572,468.9c0-1.3-1.6-1.9-2.4-0.9c-3.8,4.6-11.1,15.6-15.7,35.1c-6.4,27.1-27.5,28.9-35.9,30.7
					c0,0-3.9-7.9,4.7-15.9c7.8-7.2,14.4-12,15.7-23.4c0.1-1.3-1.5-2.2-2.4-1.3c-2.7,2.5-7.9,6.8-17.1,13.4
					c-15.6,11.3-35.9,17.2-36.2,53.2c0,0,30,5.3,62.2-23.8C569.1,512.6,571.8,479.6,572,468.9z"/>
			</g>
		</g>
		<g>
			<polygon fill="#FFFFFF" points="14.8,64.4 14.8,910 945.2,910 945.2,827.9 423.2,827.9 442.8,761.4 325.5,566 233.7,533.9 
				184.8,394.1 216.1,245.5 177,147.8 108.6,74.1 			"/>
			<polygon fill="#FFFFFF" points="868.8,808.4 905.9,781.7 455.5,50.1 418.4,74.1 621.6,406.8 527.8,406.8 562,372.6 532.7,341.3 
				450.6,429.2 529.8,523 563,487.9 525.9,447.8 649,447.8 			"/>
			<path fill="#FFFFFF" d="M252.2,206.6v-23c0-8.4,4.1-16.3,10.9-21.2l33.9-24.2c9.8-7,23.2-6.4,32.3,1.6l6.9,6
				c5.7,4.9,8.9,12.1,8.9,19.6v38.3c0,8.9-4.6,17.2-12.1,22l-21.3,13.5c-8,5-18.1,5.4-26.4,0.8l-19.4-10.6
				C257.4,224.9,252.2,216.2,252.2,206.6z"/>
			<path fill="#FFFFFF" d="M391.9,282.4l7.5-24.2c1.9-6.2,8-10.1,14.4-9.2l19.6,2.6c3.5,0.5,6.6,2.3,8.7,5.1l14.9,19.4
				c2.7,3.5,3.5,8.1,2.1,12.3l-4.9,14.8c-1.6,4.8-5.8,8.2-10.7,8.9l-25.8,3.6c-5,0.7-9.9-1.5-12.7-5.6l-11.3-16.3
				C391.4,290.5,390.7,286.3,391.9,282.4z"/>
			<path fill="#FFFFFF" d="M294.7,334.7l19.8-21.1c3.2-3.4,4.3-8.3,3-12.7l-3.2-10.6c-1.5-4.9-5.7-8.5-10.7-9.2l-31.2-4.3
				c-4.1-0.6-8.1,0.8-11,3.7l-14,14c-3.6,3.6-4.8,8.9-3.1,13.6l5.7,16c1.5,4.1,4.8,7.2,9,8.3l22.9,6
				C286.5,339.6,291.4,338.1,294.7,334.7z"/>
			<path fill="#FFFFFF" d="M362.1,460.8l-16.2-5.1c-4.3-1.4-7.9-4.3-10.1-8.2l-4.6-8.2c-3.5-6.2-2.9-13.8,1.4-19.4l10.9-14.2
				c3.7-4.8,9.7-7.5,15.7-6.8l29,2.8c7,0.7,13,5.5,15.1,12.2l0.4,1.2c1.8,5.7,0.6,12-3.3,16.6L381,455.3
				C376.4,460.8,368.9,463,362.1,460.8z"/>
			<polygon fill="#FFFFFF" points="318,359.9 345.1,332.5 360.7,338.8 366.7,373.5 345.1,383.3 			"/>
			<polygon fill="#FFFFFF" points="258.1,390.1 273.7,376.5 289.4,390.1 280.8,413.6 262,413.6 			"/>
			<path fill="#FFFFFF" d="M269.6,458.4l19.5-13.8c3-2.1,7.1-2,9.9,0.4l9.1,7.6c2.2,1.9,3.3,4.8,2.8,7.7l-4.8,26.7
				c-0.7,3.9-4.1,6.7-8,6.7h-18.3c-3.7,0-6.9-2.4-7.9-6l-5.6-20.6C265.6,463.9,266.8,460.3,269.6,458.4z"/>
			<path fill="#FFFFFF" d="M335,506.3l16-15.7c2.8-2.7,7-3.1,10.3-0.9l10.4,7c2.2,1.5,3.6,4.1,3.6,6.8v22.3c0,4.5-3.7,8.2-8.2,8.2
				h-11.9c-2.1,0-4-0.8-5.6-2.2l-14.6-13.6C331.8,514.9,331.7,509.6,335,506.3z"/>
			<path fill="#FFFFFF" d="M407.4,532.2l14.3-22.5c2.2-3.5,6.7-4.8,10.4-2.9l31.2,15.4c3.5,1.7,5.2,5.6,4.3,9.3l-6.4,24.7
				c-0.8,3.1-3.3,5.4-6.5,6l-24,4.1c-3.1,0.5-6.2-0.8-8-3.4l-15-21.6C405.8,538.5,405.7,534.9,407.4,532.2z"/>
			<path fill="#FFFFFF" d="M394.4,598.4l8.6-10.6c1-1.3,2.5-2,4.1-2h14.1c2.6,0,4.8,1.9,5.2,4.4l3,17.7c0.4,2.4-0.8,4.7-3,5.7
				l-12.4,5.6c-2,0.9-4.3,0.5-5.8-1l-13.3-12.7C392.9,603.6,392.7,600.5,394.4,598.4z"/>
			<path fill="#FFFFFF" d="M459.8,604.6v-8.5c0-3.8,2.8-7,6.6-7.5l16.2-2.1c3.1-0.4,6.1,1.2,7.7,3.9l6.6,12.1
				c2,3.6,0.7,8.2-2.9,10.2l-10.1,5.8c-2.3,1.4-5.2,1.4-7.6,0l-12.7-7.3C461.3,609.9,459.8,607.4,459.8,604.6z"/>
			<path fill="#FFFFFF" d="M497.7,689.9l10.3-13.8c2.4-3.3,6.4-5,10.4-4.7l21.8,1.9c5.6,0.5,10,4.8,10.6,10.3l1.5,12.7
				c0.4,3.3-0.6,6.7-2.9,9.2l-11.8,13.3c-3,3.4-7.7,4.7-12,3.5l-15.8-4.5c-2.8-0.8-5.2-2.6-6.8-5.1l-5.9-9.6
				C494.6,698.9,494.8,693.7,497.7,689.9z"/>
			<path fill="#FFFFFF" d="M502.5,760.5l8-8.8c3.5-3.8,9.2-4.6,13.5-1.8l9.5,6.1c3.8,2.4,5.7,7.1,4.5,11.5l-1.4,5.6
				c-0.8,3.1-2.9,5.7-5.8,7l-10.7,4.9c-4.7,2.2-10.3,0.6-13.1-3.7l-5.3-7.9C498.8,769.5,499.2,764.1,502.5,760.5z"/>
			<path fill="#FFFFFF" d="M572.4,746.4l12.3-14.3c4-4.6,10.5-6,16-3.5l17.3,8c4.8,2.2,7.9,7,7.9,12.3v11.5c0,4.1-1.9,8-5.1,10.6
				l-13,10.4c-5.3,4.2-12.9,3.9-17.8-0.7l-16.5-15.6C568.1,760.2,567.7,751.9,572.4,746.4z"/>
			<path fill="#FFFFFF" d="M469.2,673.4v-1c0-4.6-3.2-8.6-7.7-9.7l-4.1-0.9c-4.7-1.1-9.4,1.3-11.3,5.7l-0.8,1.9
				c-1.5,3.4-0.9,7.3,1.4,10.2l0.8,1c2.4,2.9,6.2,4.2,9.8,3.4l4.1-0.9C465.9,682,469.2,678,469.2,673.4z"/>
			<path fill="#FFFFFF" d="M490.8,642.9l1-4.7c0.7-3.6,3.4-6.5,6.8-7.7l12.2-4.1c4.5-1.5,9.3,0.2,11.9,4.2l3.6,5.6
				c1.6,2.5,2,5.6,1.2,8.5l-2.3,7.7c-1.3,4.3-5.3,7.3-9.8,7.3H505c-2.9,0-5.6-1.2-7.6-3.3l-4.1-4.5
				C491,649.6,490.1,646.2,490.8,642.9z"/>
		</g>
	</g>
</g>
</svg>
