<?xml version="1.0" encoding="utf-8"?>
<!-- Generator: Adobe Illustrator 18.1.1, SVG Export Plug-In . SVG Version: 6.00 Build 0)  -->
<svg version="1.1" xmlns="http://www.w3.org/2000/svg" xmlns:xlink="http://www.w3.org/1999/xlink" x="0px" y="0px"
	 viewBox="-1111.3 -1017.3 2834.6 2834.6" enable-background="new -1111.3 -1017.3 2834.6 2834.6" xml:space="preserve">
<g id="Layer_1">
	<g id="siembra" display="none">
		<g display="inline">
			<path fill="#1ABC9C" d="M13.9,639.2c0-79.4,0-158.7,0-238.1c0.7-0.4,1.2-0.8,1.9-1.2c27.9-21.7,57.3-20.6,83.3,3.1
				c1.7,1.6,3.4,3,5.2,4.5c21.2,16.2,53.6,16.5,77.4-5.8c25.2-23.7,58.8-22.8,83.8,0.7c4.9,4.6,10.2,8.5,16.3,11.5
				c7,3.3,7.3,3,7.3-4.4c0-44.6,0-89.2,0-133.9c0-7.9-0.6-8.2-8.2-9c-24.1-2.5-47-8.7-67.2-22.1c-45.4-30.3-61.4-75.2-61.8-127.5
				c0-3.6,2.1-4.4,5.2-4.5c10.7-0.3,21.4,0.8,31.9,2.5c60.2,9.6,101.2,48.1,114.1,107.6c1.5,6.5,2.4,13.2,3.6,19.8
				c1.2-3.5,1.7-6.9,2.2-10.2c4.7-29.4,15.3-56.3,36.8-77.8c30.6-30.6,68.6-41.8,110.8-41.9c4,0,5.2,1.8,5.3,5.6
				c0.3,14.4-1.5,28.5-4.8,42.5c-10,40.6-31.6,72.4-69.9,91.2c-17.5,8.5-36.1,13.3-55.4,14.9c-5.2,0.4-7.2,2.4-7.2,7.8
				c0.2,45.4,0.1,90.8,0.1,136.2c0,5.8,0.6,6.2,5.7,3.9c7.6-3.3,13.9-8.5,20-14c14.6-13.4,31.9-18,51.4-14.6
				c13.2,2.2,23.5,9.3,33,18.1c14.6,13.5,32,17.9,51.5,14.2c12-2.2,21.7-8.7,30.6-16.9c15.1-14.2,33-19,53.4-15.2
				c11.5,2.1,20.7,8.3,29.7,15.3c0,79.4,0,158.7,0,238.1c-2.7,0.1-5.3,0.4-8,0.4c-190,0-380,0-570,0
				C19.2,639.6,16.5,639.3,13.9,639.2z M233.9,515.3c0.1,26.9,14,49.8,38.6,60.4c21.4,9.2,43.4,9.7,65.2,1.3
				c23.3-8.9,36.6-26.2,41-50.8c3.6-20-2-37.7-12.7-54.2c-10.2-15.8-23.3-29.2-37.3-41.5c-2.6-2.2-5.5-4.2-5.3-8.3
				c0.1-2.4-1.3-3.5-3.7-2.9c-8.7,1.9-17.4,1.9-26.1,0c-2.1-0.4-3.6,0.6-3.5,2.6c0.3,4.4-2.7,6.4-5.4,8.8c-14,12.1-27,25.3-37,41
				C239.7,484.5,233.6,497.9,233.9,515.3z"/>
			<path fill="#1ABC9C" d="M306.4,549.6c-4-0.4-8.7-0.4-13.2-1.3c-24.7-5.4-30.8-31.7-23.8-47.4c3.6-8.1,8.5-15.3,14.3-22
				c6.1-7.2,12.5-13.9,19.4-20.1c2.7-2.4,4.6-2.5,7.3-0.1c10.8,9.8,20.7,20.2,28.7,32.5c8.8,13.4,10.9,27.3,3,41.6
				C334.5,546.2,321.2,549.3,306.4,549.6z"/>
		</g>
	</g>
	<g id="reforestacion" display="none">
		<g display="inline">
			<path fill="#1ABC9C" d="M427.9,118.7c6.1,3.4,7.6,8.7,8.2,15.4c1.3,18.1-0.4,35.9-5.1,53.3c-9.6,35.7-33,57.3-68.4,66.5
				c-12.7,3.3-25.6,4.7-38.7,5.2c-3.8,0.1-5.5,1.2-5.5,5.3c0.1,62.2,0.1,124.3,0.1,186.6c0,0.7,0.1,1.3,0.2,2.5
				c8.2-8,16.2-15.7,24.2-23.5c1.3-1.2,0.8-3,0.4-4.6c-10.8-62.9,9.4-114.8,56.5-156.9c6.1-5.5,12.5-10.6,19.4-14.8
				c6.9-4.3,13.5-3.3,17.2,2.4c3.5,5.3,1.9,12.3-4.4,16.5c-19.3,13.4-36,29.2-48.3,49.3c-11.8,19.2-18.4,40-19.9,62.5
				c-0.4,7.8-1.6,15.5,0.6,23.3c2.2-0.3,3.3-2.2,4.5-3.6c23.2-23,46.2-46.1,69.2-69.2c1-1,2-2,3-3c5.8-5.6,12.6-6.2,17.4-1.6
				c4.9,4.7,4.5,11.9-1.3,17.8c-23.9,24.1-47.9,48-71.9,71.9c-1.3,1.3-2.7,2.8-4.7,4.9c10.9,1.8,21.2,1.7,31.1,0
				c61.7-10.1,101.6-46.1,121.3-104.9c6.6-19.9,6.9-40.6,3.4-61.3c-0.7-3.9-2.2-5.6-6.2-6c-6-0.4-11.9-1.2-17.8-1.9
				c-1.5-0.1-2.9-0.1-4.4-0.3c-7.4-1.1-11.5-5.7-11.1-12.3c0.3-6.2,4.9-10.5,12.3-10.7c8.3-0.2,16.6,1.1,24.8,2.4c3,0.4,6,1.3,9,1.9
				c8.9,1.3,12.8,6.7,14.5,15.2c12.9,64.4-7.1,117.7-55.3,160.7c-33.9,30.3-74.2,43.6-119.6,40.8c-6.1-0.3-12.3-1.6-18.2-2.7
				c-2.7-0.4-4.8-0.2-6.9,1.9c-11,11.1-22,22.1-33,33c-3,2.9-1.5,3.6,1.6,4.3c25.5,5.2,45.7,18.7,60.6,39.9c1.7,2.5,3.6,3.9,6.7,3.5
				c11.6-1.5,23.2-1.2,34.7,0c1.3,0.1,3.3,0.7,4-0.8c0.9-1.7-0.7-3-1.7-4.3c-4.2-5.3-9.7-7.9-16.4-8.5c-8-0.8-12.1-5.6-11.5-12.8
				c0.7-6.4,5.6-10,13.4-9.7c2.4,0.1,4.7,0.2,7,0.8c7.5,1.8,14.5,4.8,20,10.5c2.7,2.7,4.4,2.6,7.1,0c7.6-7.2,16.9-11,27.5-11.2
				c7.3-0.2,12.1,3.5,12.8,9.7c0.7,7.1-3.4,12.1-10.9,12.8c-8.7,0.8-15.2,4.5-19.2,12.3c-2.7,5.3-1.9,7.1,3.6,8.8
				c25.2,7.8,47.5,20.6,67.1,38.1c26.5,23.6,44.6,52.6,54.6,86.7c2.5,8.7-2.5,15.1-11.7,15.3c-0.7,0-1.5,0-2.1,0
				c-176.2,0-352.4,0-528.6,0.1c-6.2,0-11-1.5-14.2-7c0-2.9,0-5.8,0-8.7c5.5-16.4,12-32.1,21.4-46.9c23.5-36.9,55.9-62.3,97.1-76.4
				c9.8-3.4,10.8-6.6,3.9-14.6c-4-4.7-9.2-6.9-15.2-7.5c-8.3-0.9-12.4-5.3-11.9-12.5c0.4-6.6,5.5-10.3,13.5-10
				c10.2,0.3,19.1,4,26.5,11c2.8,2.6,4.5,3,7.5,0.2c7.8-7.4,17.3-11.1,28.1-11.2c6.9-0.1,11.6,3.8,12.1,9.9
				c0.7,6.9-3.4,12-10.5,12.6c-7.5,0.7-13.6,3.6-18.1,9.6c-0.7,1-1.8,2.1-0.9,3.4c0.7,1,2,0.8,3,0.7c12.3-1.3,24.6-1.5,36.9-0.1
				c2.6,0.3,3.9-1.3,5.2-3.1c15.5-22.5,36.8-36.1,63.6-40.8c3.8-0.7,5.1-2.1,5.1-6.1c-0.2-18.7-0.1-37.3,0-56c0-4-0.8-5.3-5.3-4.6
				c-91.4,15.1-170.8-55.3-182.1-133.6c-2.9-20.1-1.9-40.1,2.9-59.9c1.5-6.2,5.1-9.8,11.1-11.2c33.5-8.1,66.2-5.6,97.8,8.2
				c30,13.2,53.6,33.9,72,60.9c0.4,0.8,1.1,1.5,1.7,2.1c0.1,0.1,0.3,0.1,0.6,0.1c1.1-1.6,0.6-3.5,0.6-5.2
				c0.1-17.1-0.2-34.1,0.1-51.1c0.3-19.2,4.4-37.8,12.6-55.2c13.3-28.1,36.6-43,65.9-50.1c7.2-1.7,14.5-2.8,21.8-4.2
				C406.8,118.7,417.3,118.7,427.9,118.7z M337,653.4c71.9,0,143.9,0,215.9,0c5.8,0,5.8,0,3.6-5.5c-6.3-14.9-14.7-28.7-25.5-40.9
				c-31-35.2-69.8-54.4-116.9-56.3c-9.8-0.4-19.6,0.2-29.3,1.2c-5.4,0.6-9.4-1.8-12.3-6.4c-1.1-1.9-2.2-3.7-3.4-5.6
				c-27.8-44.1-93.2-45.7-122.1-2.4c-7.4,11.2-14.5,15.1-28.1,13.7c-32.7-3.4-63.8,3.7-92.5,20.1c-31.7,18.2-55,44.1-69.3,77.7
				c-1.5,3.4-1.1,4.5,2.8,4.4c8.5-0.2,17.1-0.2,25.5,0c4.2,0.1,6.2-1.5,7.6-5.3c6.9-17.8,18-32.6,32.1-45.2
				c9.2-8.3,19.7-14.8,31-19.8c6.3-2.7,12.6-0.3,15.2,5.3c2.6,5.5,0.7,11.2-5.2,14.8c-1.7,1-3.5,1.9-5.3,2.8
				c-18.1,9.2-32.1,22.8-42,40.5c-3.6,6.4-3.5,6.6,3.7,6.6C194.1,653.4,265.6,653.4,337,653.4z M160.1,231.7
				c-7.2,0.2-14.5,0.2-21.7,1.5c-3.5,0.6-5.5,2.1-6.1,5.7c-2.4,15.7-2.6,31.5,0.6,47.1c13,65.4,72.8,112.8,139.5,110.7
				c1.7,0,4.3,0.7,4.8-1.2c0.6-1.9-1.8-2.9-3-4.2c-18-18.1-36.1-36.2-54.2-54.3c-1.6-1.6-3.1-3-4.4-4.8c-3.4-4.7-3-10.5,0.8-14.4
				c3.8-4,9.6-4.7,14.4-1.6c1.9,1.2,3.7,2.9,5.3,4.6c18.2,18.2,36.4,36.4,54.6,54.5c1.1,1.1,2,3.3,3.7,2.6c1.7-0.6,1.3-2.8,1.3-4.4
				c0.3-8.5-0.2-17-1.3-25.5C286.3,286.8,226.4,229.8,160.1,231.7z M321.6,216.2c1.3-1.2,2.6-2.5,3.9-3.7c7.6-7.6,15.3-15.4,23-23
				c6.3-6.3,13.2-6.9,18.1-1.8c5.1,5.2,4.3,11.6-2.1,18.1c-4.9,5.1-9.9,10.1-14.9,14.9c-4.4,4.2-9,8.2-14.2,12.9
				c2.2,0.7,2.7,1,3.1,0.9c2.9-0.3,5.7-0.6,8.7-1c19.3-3.5,37.2-10,49.3-26.6c13.7-18.7,16.7-40.5,16.9-62.8c0-3.1-2.1-2.7-4.2-2.7
				c-8.5,0-17,0.8-25.3,2.6c-20.6,4.5-38.9,12.9-50.6,31.6C325.5,187.9,321.5,201.4,321.6,216.2z"/>
			<path fill="#1ABC9C" d="M454.5,244c0.1-6.2,5.3-11.1,11.6-11.2c6.3,0,11.9,5.6,11.7,11.8c-0.2,6.1-6.2,11.4-12.5,11.2
				C459.3,255.7,454.5,250.5,454.5,244z"/>
			<path fill="#1ABC9C" d="M205.2,595.3c-6.3-0.1-11.5-5.2-11.4-11.4c0-6.3,5.1-11,11.6-11.1c6.5,0,11.6,4.8,11.7,11
				C217,590.4,211.8,595.4,205.2,595.3z"/>
		</g>
	</g>
	<g id="revegetalizacion" display="none">
		<g display="inline">
			<path fill="#1ABC9C" d="M391,444c-8.9-14.2-31.2-41.6-73.1-46.1c-9.3-293,130.9-257.5,130.9-257.5
				c-66.3,19.4-93.7,72.7-93.7,72.7c111,15.3,118.5-66.1,118.2-89.4c0-3.6-2.4-6.9-5.7-8C330.2,70.3,305,290.9,305,290.9
				c-39.9-152.6-132.4-134.5-159.2-125.8c-4.3,1.5-6.7,6-5.6,10.3c31.1,119,124.3,87.9,124.3,87.9c-31.4-60.6-88.9-72.7-88.9-72.7
				c136.2,10.7,124.6,188,123.1,206.9c-55.4,2.2-69.7,29.9-79.6,44.4c-2.4,3.5-6.3,5.7-10.6,6.1c-14,1-48.4,5.5-58.7,27.2
				c0,0,32.4,27.5,77.7,51.7c32,17.2,58,51.3,70.5,69.8c3.7,5.4,11.8,5.2,15.1-0.6c11-19.8,33.7-55.3,56.8-62.7
				c42.9-13.8,92.2-58.2,92.2-58.2s-29.3-28-57.8-24.6C398.9,451.1,393.8,448.5,391,444z M220.2,489.7c-7.9,0-14.3-6.4-14.3-14.3
				s6.4-14.3,14.3-14.3s14.3,6.4,14.3,14.3S228.1,489.7,220.2,489.7z M290.2,415.3c3.8,0,7,3.1,7,7c0,3.8-3.1,7-7,7
				c-3.8,0-7-3.1-7-7C283.2,418.4,286.4,415.3,290.2,415.3z M276,538.2c-11.6,0-21-9.4-21-21c0-11.6,9.4-21,21-21
				c11.6,0,21,9.4,21,21C297.1,528.8,287.6,538.2,276,538.2z M311.3,465c-7.9,0-14.3-6.4-14.3-14.3s6.4-14.3,14.3-14.3
				s14.3,6.4,14.3,14.3S319.2,465,311.3,465z M376.1,513.2c-11.6,0-21-9.4-21-21c0-11.6,9.4-21,21-21c11.6,0,21,9.4,21,21
				C397.1,503.7,387.7,513.2,376.1,513.2z M427.7,468.4c3.8,0,7,3.1,7,7c0,3.8-3.1,7-7,7c-3.8,0-7-3.1-7-7
				C420.7,471.6,423.8,468.4,427.7,468.4z"/>
			<path fill="#1ABC9C" d="M30.7,417.7c-0.1-3.8,4.7-5.6,7.2-2.6c11.1,13.7,32.8,46.2,46.3,103.7c18.8,80,81.3,85.3,106.1,90.6
				c0,0,11.6-23.3-13.9-46.9c-23-21.4-42.6-35.4-46.5-69.2c-0.4-3.9,4.3-6.4,7.2-3.7c8.1,7.3,23.4,20.2,50.4,39.7
				c46.1,33.4,106.1,50.9,106.8,157c0,0-88.6,15.7-183.8-70.4C39.1,546.8,31.2,449.4,30.7,417.7z"/>
			<path fill="#1ABC9C" d="M581.3,417.7c0.1-3.8-4.7-5.6-7.2-2.6c-11.1,13.7-32.8,46.2-46.3,103.7c-18.8,80-81.3,85.3-106.1,90.6
				c0,0-11.6-23.3,13.9-46.9c23-21.4,42.6-35.4,46.5-69.2c0.4-3.9-4.3-6.4-7.2-3.7c-8.1,7.3-23.4,20.2-50.4,39.7
				c-46.1,33.4-106.1,50.9-106.8,157c0,0,88.6,15.7,183.8-70.4C572.9,546.8,580.8,449.4,581.3,417.7z"/>
		</g>
	</g>
	<g>
		<polygon fill="#1ABC9C" points="-1063.9,-776.6 -1063.9,1720.1 1683.3,1720.1 1683.3,1477.7 142.1,1477.7 199.8,1281.5 
			-146.4,704.5 -417.6,609.5 -561.9,196.7 -469.5,-241.9 -584.9,-530.4 -786.9,-747.9 		"/>
		<polygon fill="#1ABC9C" points="1457.8,1420 1567.4,1341.2 237.3,-818.9 127.7,-747.9 727.8,234.2 450.9,234.2 551.8,133.2 
			465.3,40.9 222.9,300.6 456.6,577.5 554.7,473.7 445.1,355.4 808.6,355.4 		"/>
		<path fill="#1ABC9C" d="M-362.8-356.7v-67.8c0-24.8,12-48.1,32.2-62.5l100.1-71.5c29-20.7,68.5-18.8,95.3,4.7l20.3,17.8
			c16.7,14.6,26.2,35.7,26.2,57.8V-365c0,26.4-13.5,50.9-35.8,65l-63,39.8c-23.6,14.9-53.4,15.8-77.9,2.4l-57.4-31.4
			C-347.5-302.7-362.8-328.6-362.8-356.7z"/>
		<path fill="#1ABC9C" d="M49.7-133.1l22.1-71.4c5.7-18.3,23.7-29.8,42.6-27.2l57.9,7.8c10.2,1.4,19.5,6.8,25.8,15l43.9,57.3
			c7.9,10.3,10.2,23.9,6.1,36.2l-14.6,43.8c-4.7,14.1-17,24.3-31.7,26.4l-76.1,10.6c-14.7,2-29.2-4.4-37.6-16.5L54.8-99.3
			C48-109.2,46.1-121.6,49.7-133.1z"/>
		<path fill="#1ABC9C" d="M-237.4,21.3L-179-41c9.4-10.1,12.8-24.4,8.8-37.6l-9.5-31.4c-4.4-14.4-16.7-25-31.7-27.1l-92.1-12.7
			c-12-1.7-24,2.4-32.6,10.9l-41.3,41.3c-10.5,10.5-14.1,26.2-9.1,40.2l16.8,47.3c4.3,12,14.2,21.2,26.6,24.4l67.7,17.8
			C-261.7,35.8-247.1,31.6-237.4,21.3z"/>
		<path fill="#1ABC9C" d="M-38.5,393.9l-47.8-15c-12.7-4-23.4-12.7-29.9-24.3l-13.5-24.1c-10.2-18.2-8.6-40.7,4.1-57.2l32.2-42
			c11-14.3,28.5-22,46.5-20.2l85.5,8.3c20.8,2,38.4,16.2,44.7,36.1l1.1,3.5c5.4,16.9,1.8,35.5-9.6,49.1l-57.5,69.3
			C3.8,393.8-18.2,400.3-38.5,393.9z"/>
		<polygon fill="#1ABC9C" points="-168.5,95.7 -88.7,14.9 -42.5,33.4 -24.7,136.1 -88.7,164.9 		"/>
		<polygon fill="#1ABC9C" points="-345.5,185.1 -299.3,144.8 -253.1,185.1 -278.5,254.4 -333.9,254.4 		"/>
		<path fill="#1ABC9C" d="M-311.5,386.6l57.7-40.7c8.9-6.3,20.9-5.8,29.3,1.2l27,22.5c6.6,5.5,9.8,14.2,8.3,22.7l-14.2,78.9
			c-2.1,11.5-12,19.8-23.7,19.8H-281c-10.8,0-20.3-7.2-23.2-17.7l-16.6-60.7C-323.5,402.8-319.8,392.4-311.5,386.6z"/>
		<path fill="#1ABC9C" d="M-118.3,528.2l47.3-46.5c8.2-8,20.8-9.2,30.3-2.8l30.8,20.8c6.6,4.5,10.6,12,10.6,20v65.8
			c0,13.3-10.8,24.1-24.1,24.1h-35c-6.1,0-11.9-2.3-16.4-6.4l-43.1-40.1C-127.9,553.6-128.1,537.8-118.3,528.2z"/>
		<path fill="#1ABC9C" d="M95.4,604.5l42.1-66.5c6.5-10.3,19.8-14.1,30.8-8.7l92,45.4c10.2,5,15.4,16.5,12.6,27.5L254,675.1
			c-2.4,9.1-9.8,16-19.1,17.6L164,704.8c-9.2,1.6-18.4-2.3-23.7-9.9L95.9,631C90.5,623.1,90.2,612.7,95.4,604.5z"/>
		<path fill="#1ABC9C" d="M56.9,800.1l25.3-31.4c3-3.7,7.4-5.8,12.1-5.8h41.5c7.6,0,14.1,5.5,15.4,12.9l9,52.3
			c1.2,7-2.5,13.9-8.9,16.9l-36.6,16.6c-5.8,2.6-12.6,1.5-17.2-2.9l-39.3-37.6C52.4,815.5,51.8,806.4,56.9,800.1z"/>
		<path fill="#1ABC9C" d="M250.1,818.5v-25.1c0-11.3,8.4-20.8,19.5-22.2l47.7-6.2c9.2-1.2,18.1,3.4,22.6,11.5l19.6,35.8
			c5.9,10.7,2.1,24.1-8.5,30.2l-29.8,17.2c-6.9,4-15.5,4-22.4,0l-37.6-21.7C254.4,833.9,250.1,826.5,250.1,818.5z"/>
		<path fill="#1ABC9C" d="M361.9,1070.3l30.3-40.6c7.2-9.6,18.8-14.8,30.7-13.8l64.3,5.5c16.4,1.4,29.5,14.1,31.4,30.4l4.4,37.4
			c1.2,9.8-1.9,19.7-8.5,27.1l-34.9,39.4c-8.8,10-22.6,14-35.4,10.3l-46.8-13.4c-8.4-2.4-15.5-7.8-20-15.2l-17.3-28.3
			C352.8,1096.9,353.5,1081.6,361.9,1070.3z"/>
		<path fill="#1ABC9C" d="M376,1278.8l23.5-25.9c10.2-11.2,27.1-13.5,39.9-5.3l28.1,17.9c11.3,7.2,16.8,20.9,13.4,34l-4.2,16.6
			c-2.3,9.1-8.7,16.7-17.2,20.7l-31.7,14.5c-13.9,6.4-30.3,1.8-38.8-10.9l-15.7-23.2C365.2,1305.3,366.3,1289.4,376,1278.8z"/>
		<path fill="#1ABC9C" d="M582.5,1237.1l36.2-42.2c11.7-13.6,31-17.8,47.3-10.3l51.2,23.6c14.2,6.6,23.3,20.8,23.3,36.4v33.9
			c0,12.2-5.6,23.7-15.1,31.3l-38.5,30.7c-15.6,12.4-38,11.5-52.5-2.2l-48.8-46.1C569.8,1277.7,568.6,1253.4,582.5,1237.1z"/>
		<path fill="#1ABC9C" d="M277.7,1021.4v-3.1c0-13.7-9.4-25.5-22.7-28.6l-12.2-2.8c-13.8-3.2-27.8,3.9-33.4,16.9l-2.4,5.6
			c-4.4,10-2.8,21.7,4.1,30.2l2.4,3c7,8.6,18.2,12.5,29,10.1l12.2-2.7C268.1,1047,277.7,1035.1,277.7,1021.4z"/>
		<path fill="#1ABC9C" d="M341.5,931.6l2.9-13.9c2.2-10.6,9.9-19.2,20.1-22.6l36.1-12c13.2-4.4,27.6,0.7,35.1,12.4l10.6,16.5
			c4.8,7.4,6,16.6,3.5,25l-6.8,22.8c-3.8,12.8-15.6,21.6-29,21.6h-30.5c-8.5,0-16.6-3.6-22.3-9.8l-12.2-13.3
			C342.2,951.1,339.5,941.2,341.5,931.6z"/>
	</g>
</g>
<g id="Layer_2" display="none">
	<g id="Layer_4" display="inline">
		<path fill="#1ABC9C" d="M589.1,184.3L363.3,291l-9.2,33c-0.3-0.2-0.8-0.3-1.1-0.3l-8.1-1.6c-2.5-0.4-4.9,1.1-5.4,3.6l-1.8,9.1
			l-3.5-1.7c-0.3-0.1-0.6-0.2-0.9-0.2c-0.8,0-1.5,0.4-1.8,1.1c-0.4,1-0.1,2.1,0.9,2.7l4.5,2.1l-3.1,16.1c-0.4,2.5,1.1,4.9,3.6,5.4
			l6.3,1.2l-12.4,44.1l-5.8-1.5c-2.5-0.7-4.9,0.9-5.6,3.4l-3,12l-5.7-2.7c-0.3-0.1-0.6-0.2-0.9-0.2c-0.8,0-1.5,0.4-1.8,1.1
			c-0.4,1,0,2.1,0.9,2.7l6.4,3l-3.4,12.9c-0.7,2.5,0.9,4.9,3.4,5.6l4.9,1.2l-6.9,24.5h-91.2L13.9,644.3v10.5h584.4V184.3H589.1z
			 M378,297.1L506.9,244l-34.6,125.2l-15.5,24.2l-92.2-47.5L378,297.1z M521.9,555.2l-75.3-41l5.4-11.8l-58.6-33.5l-24.8,35.2
			L183,532.4l45.1-41.8l99.2-4.8l11.6-48.6l54.4,31.7l4.8-5.6l-57-32.3l21.8-78.2l89.5,46.6l-54.3,63.7l58.3,31.9l6-8.4l74.7,45
			L521.9,555.2z M569.5,476.3L501,439.6l4.8-10.6l-53.4-30.1l4.4-5.1l53.1,28.5l5.4-7.5l68,40.2L569.5,476.3z"/>
		<path fill="#1ABC9C" d="M572.7,459l-54.7-32.9c-0.9-0.6-2.1-0.2-2.7,0.7l-2.2,3.8c-0.6,0.9-0.2,2.1,0.7,2.7l54.7,32.9
			c0.9,0.6,2.1,0.2,2.7-0.7l2.2-3.7C573.9,460.8,573.6,459.6,572.7,459z"/>
		<path fill="#1ABC9C" d="M525.8,540.1l-2.1,3.5c-0.6,0.9-1.7,1.1-2.6,0.6L463,509.6c-0.9-0.6-1.1-1.7-0.6-2.6l2.1-3.5
			c0.6-0.9,1.7-1.1,2.6-0.6l58.1,34.6C526,538.1,526.4,539.2,525.8,540.1z"/>
	</g>
</g>
</svg>
